G04 EAGLE Gerber RS-274X export*
G75*
%MOMM*%
%FSLAX34Y34*%
%LPD*%
%INEAGLE Copper Layer 15*%
%IPPOS*%
%AMOC8*
5,1,8,0,0,1.08239X$1,22.5*%
G01*
%ADD10C,1.950000*%
%ADD11C,0.952500*%
%ADD12C,0.635000*%
%ADD13C,0.762000*%

G36*
X527193Y3815D02*
X527193Y3815D01*
X527222Y3812D01*
X527333Y3835D01*
X527445Y3851D01*
X527472Y3863D01*
X527501Y3868D01*
X527602Y3921D01*
X527705Y3967D01*
X527727Y3986D01*
X527753Y3999D01*
X527835Y4077D01*
X527922Y4150D01*
X527938Y4175D01*
X527959Y4195D01*
X528016Y4293D01*
X528079Y4387D01*
X528088Y4415D01*
X528103Y4440D01*
X528131Y4550D01*
X528165Y4658D01*
X528166Y4688D01*
X528173Y4716D01*
X528169Y4829D01*
X528172Y4942D01*
X528165Y4971D01*
X528164Y5000D01*
X528129Y5108D01*
X528101Y5217D01*
X528086Y5243D01*
X528077Y5271D01*
X528031Y5334D01*
X527955Y5462D01*
X527910Y5505D01*
X527882Y5544D01*
X525883Y7543D01*
X524389Y11149D01*
X524389Y15051D01*
X525883Y18657D01*
X528643Y21417D01*
X532249Y22911D01*
X536151Y22911D01*
X539757Y21417D01*
X542517Y18657D01*
X544011Y15051D01*
X544011Y11149D01*
X542517Y7543D01*
X540518Y5544D01*
X540501Y5520D01*
X540478Y5501D01*
X540416Y5407D01*
X540347Y5317D01*
X540337Y5289D01*
X540321Y5265D01*
X540286Y5157D01*
X540246Y5051D01*
X540244Y5022D01*
X540235Y4994D01*
X540232Y4880D01*
X540223Y4768D01*
X540228Y4739D01*
X540228Y4710D01*
X540256Y4600D01*
X540279Y4489D01*
X540292Y4463D01*
X540299Y4435D01*
X540357Y4337D01*
X540410Y4237D01*
X540430Y4215D01*
X540445Y4190D01*
X540527Y4113D01*
X540605Y4031D01*
X540631Y4016D01*
X540652Y3996D01*
X540753Y3944D01*
X540851Y3887D01*
X540879Y3880D01*
X540905Y3866D01*
X540982Y3853D01*
X541126Y3817D01*
X541189Y3819D01*
X541236Y3811D01*
X627164Y3811D01*
X627193Y3815D01*
X627222Y3812D01*
X627333Y3835D01*
X627445Y3851D01*
X627472Y3863D01*
X627501Y3868D01*
X627602Y3921D01*
X627705Y3967D01*
X627727Y3986D01*
X627753Y3999D01*
X627835Y4077D01*
X627922Y4150D01*
X627938Y4175D01*
X627959Y4195D01*
X628016Y4293D01*
X628079Y4387D01*
X628088Y4415D01*
X628103Y4440D01*
X628131Y4550D01*
X628165Y4658D01*
X628166Y4688D01*
X628173Y4716D01*
X628169Y4829D01*
X628172Y4942D01*
X628165Y4971D01*
X628164Y5000D01*
X628129Y5108D01*
X628101Y5217D01*
X628086Y5243D01*
X628077Y5271D01*
X628031Y5334D01*
X627955Y5462D01*
X627910Y5505D01*
X627882Y5544D01*
X625883Y7543D01*
X624389Y11149D01*
X624389Y15051D01*
X625883Y18657D01*
X628643Y21417D01*
X632249Y22911D01*
X636151Y22911D01*
X639757Y21417D01*
X642517Y18657D01*
X644011Y15051D01*
X644011Y11149D01*
X642517Y7543D01*
X640518Y5544D01*
X640501Y5520D01*
X640478Y5501D01*
X640416Y5407D01*
X640347Y5317D01*
X640337Y5289D01*
X640321Y5265D01*
X640286Y5157D01*
X640246Y5051D01*
X640244Y5022D01*
X640235Y4994D01*
X640232Y4880D01*
X640223Y4768D01*
X640228Y4739D01*
X640228Y4710D01*
X640256Y4600D01*
X640279Y4489D01*
X640292Y4463D01*
X640299Y4435D01*
X640357Y4337D01*
X640410Y4237D01*
X640430Y4215D01*
X640445Y4190D01*
X640527Y4113D01*
X640605Y4031D01*
X640631Y4016D01*
X640652Y3996D01*
X640753Y3944D01*
X640851Y3887D01*
X640879Y3880D01*
X640905Y3866D01*
X640982Y3853D01*
X641126Y3817D01*
X641189Y3819D01*
X641236Y3811D01*
X655374Y3811D01*
X655432Y3819D01*
X655490Y3817D01*
X655572Y3839D01*
X655656Y3851D01*
X655709Y3874D01*
X655765Y3889D01*
X655838Y3932D01*
X655915Y3967D01*
X655960Y4005D01*
X656010Y4034D01*
X656068Y4096D01*
X656132Y4150D01*
X656164Y4199D01*
X656204Y4242D01*
X656243Y4317D01*
X656290Y4387D01*
X656307Y4443D01*
X656334Y4495D01*
X656345Y4563D01*
X656375Y4658D01*
X656378Y4758D01*
X656389Y4826D01*
X656389Y497325D01*
X656381Y497384D01*
X656382Y497443D01*
X656361Y497524D01*
X656349Y497606D01*
X656325Y497660D01*
X656310Y497718D01*
X656267Y497790D01*
X656233Y497866D01*
X656195Y497911D01*
X656164Y497962D01*
X656103Y498019D01*
X656050Y498083D01*
X656000Y498116D01*
X655957Y498156D01*
X655882Y498194D01*
X655813Y498240D01*
X655756Y498258D01*
X655703Y498285D01*
X655636Y498296D01*
X655542Y498326D01*
X655441Y498329D01*
X655372Y498340D01*
X4824Y497089D01*
X4767Y497080D01*
X4710Y497082D01*
X4627Y497060D01*
X4543Y497048D01*
X4490Y497025D01*
X4435Y497010D01*
X4361Y496967D01*
X4283Y496931D01*
X4240Y496894D01*
X4190Y496865D01*
X4132Y496803D01*
X4067Y496747D01*
X4035Y496699D01*
X3996Y496657D01*
X3957Y496582D01*
X3910Y496510D01*
X3892Y496455D01*
X3866Y496404D01*
X3855Y496336D01*
X3824Y496239D01*
X3822Y496141D01*
X3811Y496073D01*
X3811Y153532D01*
X3815Y153503D01*
X3812Y153474D01*
X3835Y153363D01*
X3851Y153251D01*
X3863Y153224D01*
X3868Y153195D01*
X3921Y153094D01*
X3967Y152991D01*
X3986Y152969D01*
X3999Y152943D01*
X4077Y152861D01*
X4150Y152774D01*
X4175Y152758D01*
X4195Y152737D01*
X4293Y152680D01*
X4387Y152617D01*
X4415Y152608D01*
X4440Y152593D01*
X4550Y152565D01*
X4658Y152531D01*
X4688Y152530D01*
X4716Y152523D01*
X4829Y152527D01*
X4942Y152524D01*
X4971Y152531D01*
X5000Y152532D01*
X5108Y152567D01*
X5217Y152595D01*
X5243Y152610D01*
X5271Y152619D01*
X5335Y152665D01*
X5462Y152741D01*
X5505Y152786D01*
X5544Y152814D01*
X7124Y154395D01*
X10742Y155893D01*
X14658Y155893D01*
X18276Y154395D01*
X21045Y151626D01*
X22543Y148008D01*
X22543Y144092D01*
X21045Y140474D01*
X18276Y137705D01*
X14658Y136207D01*
X10742Y136207D01*
X7124Y137705D01*
X5544Y139286D01*
X5520Y139303D01*
X5501Y139326D01*
X5407Y139388D01*
X5317Y139457D01*
X5289Y139467D01*
X5265Y139483D01*
X5157Y139517D01*
X5051Y139558D01*
X5022Y139560D01*
X4994Y139569D01*
X4880Y139572D01*
X4768Y139581D01*
X4739Y139576D01*
X4710Y139576D01*
X4600Y139548D01*
X4489Y139525D01*
X4463Y139512D01*
X4435Y139505D01*
X4337Y139447D01*
X4237Y139395D01*
X4215Y139374D01*
X4190Y139359D01*
X4113Y139277D01*
X4031Y139199D01*
X4016Y139173D01*
X3996Y139152D01*
X3944Y139051D01*
X3887Y138953D01*
X3880Y138925D01*
X3866Y138899D01*
X3853Y138822D01*
X3817Y138678D01*
X3819Y138615D01*
X3811Y138568D01*
X3811Y4826D01*
X3819Y4768D01*
X3817Y4710D01*
X3839Y4628D01*
X3851Y4544D01*
X3874Y4491D01*
X3889Y4435D01*
X3932Y4362D01*
X3967Y4285D01*
X4005Y4240D01*
X4034Y4190D01*
X4096Y4132D01*
X4150Y4068D01*
X4199Y4036D01*
X4242Y3996D01*
X4317Y3957D01*
X4387Y3910D01*
X4443Y3893D01*
X4495Y3866D01*
X4563Y3855D01*
X4658Y3825D01*
X4758Y3822D01*
X4826Y3811D01*
X527164Y3811D01*
X527193Y3815D01*
G37*
%LPC*%
G36*
X188542Y104457D02*
X188542Y104457D01*
X184896Y105967D01*
X184866Y105975D01*
X184839Y105989D01*
X184761Y106002D01*
X184621Y106038D01*
X184556Y106036D01*
X184508Y106044D01*
X49158Y106044D01*
X46123Y107301D01*
X43801Y109623D01*
X42544Y112658D01*
X42544Y207328D01*
X42540Y207358D01*
X42542Y207389D01*
X42525Y207466D01*
X42504Y207609D01*
X42478Y207668D01*
X42467Y207716D01*
X40957Y211362D01*
X40957Y215278D01*
X42455Y218896D01*
X45224Y221665D01*
X48842Y223163D01*
X52758Y223163D01*
X55999Y221821D01*
X56111Y221792D01*
X56220Y221757D01*
X56248Y221757D01*
X56275Y221750D01*
X56389Y221753D01*
X56504Y221750D01*
X56531Y221757D01*
X56559Y221758D01*
X56668Y221793D01*
X56779Y221822D01*
X56803Y221836D01*
X56830Y221844D01*
X56925Y221908D01*
X57024Y221967D01*
X57043Y221987D01*
X57066Y222003D01*
X57140Y222091D01*
X57218Y222174D01*
X57231Y222199D01*
X57249Y222220D01*
X57296Y222325D01*
X57348Y222427D01*
X57352Y222452D01*
X57364Y222480D01*
X57401Y222744D01*
X57403Y222759D01*
X57403Y234188D01*
X57395Y234246D01*
X57397Y234304D01*
X57375Y234386D01*
X57363Y234470D01*
X57340Y234523D01*
X57325Y234579D01*
X57282Y234652D01*
X57247Y234729D01*
X57209Y234774D01*
X57180Y234824D01*
X57118Y234882D01*
X57064Y234946D01*
X57015Y234978D01*
X56972Y235018D01*
X56897Y235057D01*
X56827Y235104D01*
X56771Y235121D01*
X56719Y235148D01*
X56651Y235159D01*
X56556Y235189D01*
X56456Y235192D01*
X56388Y235203D01*
X36887Y235203D01*
X34646Y236131D01*
X32931Y237846D01*
X32003Y240087D01*
X32003Y407613D01*
X32931Y409854D01*
X34646Y411569D01*
X36887Y412497D01*
X483813Y412497D01*
X486054Y411569D01*
X513169Y384454D01*
X514097Y382213D01*
X514097Y261112D01*
X514105Y261054D01*
X514103Y260996D01*
X514125Y260914D01*
X514137Y260830D01*
X514160Y260777D01*
X514175Y260721D01*
X514218Y260648D01*
X514253Y260571D01*
X514291Y260526D01*
X514320Y260476D01*
X514382Y260418D01*
X514436Y260354D01*
X514485Y260322D01*
X514528Y260282D01*
X514603Y260243D01*
X514673Y260196D01*
X514729Y260179D01*
X514781Y260152D01*
X514849Y260141D01*
X514944Y260111D01*
X515044Y260108D01*
X515112Y260097D01*
X623513Y260097D01*
X625754Y259169D01*
X627469Y257454D01*
X628397Y255213D01*
X628397Y163992D01*
X627469Y161751D01*
X625754Y160036D01*
X623513Y159108D01*
X618471Y159108D01*
X618413Y159100D01*
X618355Y159102D01*
X618273Y159080D01*
X618189Y159068D01*
X618136Y159044D01*
X618080Y159030D01*
X618007Y158987D01*
X617930Y158952D01*
X617885Y158914D01*
X617835Y158884D01*
X617777Y158823D01*
X617713Y158768D01*
X617681Y158720D01*
X617641Y158677D01*
X617602Y158602D01*
X617555Y158532D01*
X617538Y158476D01*
X617511Y158424D01*
X617500Y158356D01*
X617470Y158261D01*
X617467Y158161D01*
X617456Y158093D01*
X617456Y132992D01*
X617460Y132962D01*
X617458Y132931D01*
X617475Y132854D01*
X617496Y132711D01*
X617522Y132652D01*
X617533Y132604D01*
X619043Y128958D01*
X619043Y125042D01*
X617545Y121424D01*
X614776Y118655D01*
X611158Y117157D01*
X607242Y117157D01*
X603624Y118655D01*
X600855Y121424D01*
X599357Y125042D01*
X599357Y128958D01*
X600867Y132604D01*
X600875Y132634D01*
X600889Y132661D01*
X600902Y132739D01*
X600938Y132879D01*
X600936Y132944D01*
X600944Y132992D01*
X600944Y158093D01*
X600936Y158151D01*
X600938Y158209D01*
X600916Y158291D01*
X600904Y158374D01*
X600881Y158428D01*
X600866Y158484D01*
X600823Y158557D01*
X600788Y158634D01*
X600750Y158679D01*
X600721Y158729D01*
X600659Y158787D01*
X600605Y158851D01*
X600556Y158883D01*
X600513Y158923D01*
X600438Y158962D01*
X600368Y159008D01*
X600312Y159026D01*
X600260Y159053D01*
X600192Y159064D01*
X600097Y159094D01*
X599997Y159097D01*
X599929Y159108D01*
X413512Y159108D01*
X413454Y159100D01*
X413396Y159102D01*
X413314Y159080D01*
X413230Y159068D01*
X413177Y159044D01*
X413121Y159030D01*
X413048Y158987D01*
X412971Y158952D01*
X412926Y158914D01*
X412876Y158884D01*
X412818Y158823D01*
X412754Y158768D01*
X412722Y158720D01*
X412682Y158677D01*
X412643Y158602D01*
X412596Y158532D01*
X412579Y158476D01*
X412552Y158424D01*
X412541Y158356D01*
X412511Y158261D01*
X412508Y158161D01*
X412497Y158093D01*
X412497Y138487D01*
X411569Y136246D01*
X409854Y134531D01*
X407613Y133603D01*
X100387Y133603D01*
X98146Y134531D01*
X60789Y171889D01*
X60765Y171907D01*
X60746Y171929D01*
X60652Y171992D01*
X60562Y172060D01*
X60534Y172070D01*
X60510Y172087D01*
X60402Y172121D01*
X60296Y172161D01*
X60267Y172164D01*
X60239Y172172D01*
X60125Y172175D01*
X60013Y172185D01*
X59984Y172179D01*
X59955Y172180D01*
X59845Y172151D01*
X59734Y172129D01*
X59708Y172115D01*
X59680Y172108D01*
X59582Y172050D01*
X59482Y171998D01*
X59460Y171978D01*
X59435Y171963D01*
X59358Y171880D01*
X59276Y171802D01*
X59261Y171777D01*
X59241Y171755D01*
X59189Y171655D01*
X59132Y171557D01*
X59125Y171528D01*
X59111Y171502D01*
X59098Y171425D01*
X59062Y171281D01*
X59064Y171219D01*
X59056Y171171D01*
X59056Y123571D01*
X59063Y123519D01*
X59062Y123494D01*
X59063Y123490D01*
X59062Y123455D01*
X59084Y123373D01*
X59096Y123289D01*
X59119Y123236D01*
X59134Y123180D01*
X59177Y123107D01*
X59212Y123030D01*
X59250Y122985D01*
X59279Y122935D01*
X59341Y122877D01*
X59395Y122813D01*
X59444Y122781D01*
X59487Y122741D01*
X59562Y122702D01*
X59632Y122655D01*
X59688Y122638D01*
X59740Y122611D01*
X59808Y122600D01*
X59903Y122570D01*
X60003Y122567D01*
X60071Y122556D01*
X184508Y122556D01*
X184538Y122560D01*
X184569Y122558D01*
X184646Y122575D01*
X184789Y122596D01*
X184848Y122622D01*
X184896Y122633D01*
X188542Y124143D01*
X192458Y124143D01*
X196076Y122645D01*
X198845Y119876D01*
X200343Y116258D01*
X200343Y112342D01*
X198845Y108724D01*
X196076Y105955D01*
X192458Y104457D01*
X188542Y104457D01*
G37*
%LPD*%
G36*
X56446Y240293D02*
X56446Y240293D01*
X56504Y240291D01*
X56586Y240313D01*
X56670Y240325D01*
X56723Y240349D01*
X56779Y240363D01*
X56852Y240406D01*
X56929Y240441D01*
X56974Y240479D01*
X57024Y240509D01*
X57082Y240570D01*
X57146Y240625D01*
X57178Y240673D01*
X57218Y240716D01*
X57257Y240791D01*
X57304Y240861D01*
X57321Y240917D01*
X57348Y240969D01*
X57359Y241037D01*
X57389Y241132D01*
X57392Y241232D01*
X57403Y241300D01*
X57403Y318713D01*
X58331Y320954D01*
X83589Y346211D01*
X85446Y348069D01*
X87687Y348997D01*
X317443Y348997D01*
X319684Y348069D01*
X321399Y346354D01*
X322327Y344113D01*
X322327Y241300D01*
X322335Y241242D01*
X322333Y241184D01*
X322355Y241102D01*
X322367Y241019D01*
X322390Y240965D01*
X322405Y240909D01*
X322448Y240836D01*
X322483Y240759D01*
X322521Y240714D01*
X322550Y240664D01*
X322612Y240606D01*
X322666Y240542D01*
X322715Y240510D01*
X322758Y240470D01*
X322833Y240431D01*
X322903Y240385D01*
X322959Y240367D01*
X323011Y240340D01*
X323079Y240329D01*
X323174Y240299D01*
X323274Y240296D01*
X323342Y240285D01*
X368885Y240285D01*
X368939Y240292D01*
X368994Y240291D01*
X369079Y240312D01*
X369166Y240325D01*
X369216Y240347D01*
X369269Y240360D01*
X369345Y240405D01*
X369426Y240441D01*
X369467Y240476D01*
X369515Y240504D01*
X369575Y240568D01*
X369643Y240625D01*
X369673Y240670D01*
X369711Y240710D01*
X369751Y240788D01*
X369800Y240861D01*
X369817Y240913D01*
X369842Y240962D01*
X369854Y241032D01*
X369886Y241132D01*
X369888Y241227D01*
X369900Y241292D01*
X369996Y254021D01*
X369996Y254025D01*
X369996Y254029D01*
X369996Y255237D01*
X370468Y256350D01*
X370469Y256355D01*
X370471Y256358D01*
X370934Y257476D01*
X371795Y258324D01*
X371798Y258328D01*
X371801Y258330D01*
X372657Y259186D01*
X373777Y259640D01*
X373781Y259642D01*
X373785Y259643D01*
X374903Y260106D01*
X376112Y260097D01*
X376117Y260097D01*
X376120Y260097D01*
X508000Y260097D01*
X508058Y260105D01*
X508116Y260103D01*
X508198Y260125D01*
X508282Y260137D01*
X508335Y260160D01*
X508391Y260175D01*
X508464Y260218D01*
X508541Y260253D01*
X508586Y260291D01*
X508636Y260320D01*
X508694Y260382D01*
X508758Y260436D01*
X508790Y260485D01*
X508830Y260528D01*
X508869Y260603D01*
X508916Y260673D01*
X508933Y260729D01*
X508960Y260781D01*
X508971Y260849D01*
X509001Y260944D01*
X509004Y261044D01*
X509015Y261112D01*
X509015Y381000D01*
X509003Y381087D01*
X509000Y381174D01*
X508983Y381227D01*
X508975Y381282D01*
X508940Y381361D01*
X508913Y381445D01*
X508885Y381484D01*
X508859Y381541D01*
X508763Y381654D01*
X508718Y381718D01*
X483318Y407118D01*
X483248Y407170D01*
X483184Y407230D01*
X483135Y407256D01*
X483091Y407289D01*
X483009Y407320D01*
X482931Y407360D01*
X482884Y407368D01*
X482825Y407390D01*
X482677Y407402D01*
X482600Y407415D01*
X38100Y407415D01*
X38042Y407407D01*
X37984Y407409D01*
X37902Y407387D01*
X37819Y407375D01*
X37765Y407352D01*
X37709Y407337D01*
X37636Y407294D01*
X37559Y407259D01*
X37514Y407221D01*
X37464Y407192D01*
X37406Y407130D01*
X37342Y407076D01*
X37310Y407027D01*
X37270Y406984D01*
X37231Y406909D01*
X37185Y406839D01*
X37167Y406783D01*
X37140Y406731D01*
X37129Y406663D01*
X37099Y406568D01*
X37096Y406468D01*
X37085Y406400D01*
X37085Y241300D01*
X37093Y241242D01*
X37091Y241184D01*
X37113Y241102D01*
X37125Y241019D01*
X37149Y240965D01*
X37163Y240909D01*
X37206Y240836D01*
X37241Y240759D01*
X37279Y240714D01*
X37309Y240664D01*
X37370Y240606D01*
X37425Y240542D01*
X37473Y240510D01*
X37516Y240470D01*
X37591Y240431D01*
X37661Y240385D01*
X37717Y240367D01*
X37769Y240340D01*
X37837Y240329D01*
X37932Y240299D01*
X38032Y240296D01*
X38100Y240285D01*
X56388Y240285D01*
X56446Y240293D01*
G37*
G36*
X282496Y164190D02*
X282496Y164190D01*
X282498Y164190D01*
X282638Y164210D01*
X282776Y164230D01*
X282777Y164230D01*
X282779Y164230D01*
X282907Y164288D01*
X283035Y164346D01*
X283037Y164347D01*
X283038Y164348D01*
X283145Y164439D01*
X283252Y164529D01*
X283253Y164531D01*
X283255Y164532D01*
X283263Y164545D01*
X283410Y164766D01*
X283419Y164795D01*
X283433Y164816D01*
X283755Y165596D01*
X286524Y168365D01*
X290142Y169863D01*
X294058Y169863D01*
X297676Y168365D01*
X300445Y165596D01*
X300767Y164816D01*
X300768Y164815D01*
X300769Y164814D01*
X300840Y164693D01*
X300912Y164572D01*
X300913Y164571D01*
X300914Y164569D01*
X301018Y164472D01*
X301119Y164376D01*
X301120Y164376D01*
X301121Y164375D01*
X301247Y164310D01*
X301371Y164246D01*
X301373Y164246D01*
X301374Y164245D01*
X301389Y164243D01*
X301650Y164191D01*
X301681Y164194D01*
X301705Y164190D01*
X387339Y164190D01*
X387425Y164202D01*
X387513Y164205D01*
X387565Y164222D01*
X387620Y164230D01*
X387700Y164265D01*
X387783Y164292D01*
X387823Y164320D01*
X387880Y164346D01*
X387993Y164442D01*
X388057Y164487D01*
X388124Y164555D01*
X391742Y166053D01*
X395658Y166053D01*
X399276Y164555D01*
X399343Y164487D01*
X399413Y164435D01*
X399477Y164375D01*
X399526Y164349D01*
X399571Y164316D01*
X399652Y164285D01*
X399730Y164245D01*
X399778Y164237D01*
X399836Y164215D01*
X399984Y164203D01*
X400061Y164190D01*
X622300Y164190D01*
X622358Y164198D01*
X622416Y164196D01*
X622498Y164218D01*
X622582Y164230D01*
X622635Y164253D01*
X622691Y164268D01*
X622764Y164311D01*
X622841Y164346D01*
X622886Y164384D01*
X622936Y164413D01*
X622994Y164475D01*
X623058Y164529D01*
X623090Y164578D01*
X623130Y164621D01*
X623169Y164696D01*
X623216Y164766D01*
X623233Y164822D01*
X623260Y164874D01*
X623271Y164942D01*
X623301Y165037D01*
X623304Y165137D01*
X623315Y165205D01*
X623315Y254000D01*
X623307Y254058D01*
X623309Y254116D01*
X623287Y254198D01*
X623275Y254282D01*
X623252Y254335D01*
X623237Y254391D01*
X623194Y254464D01*
X623159Y254541D01*
X623121Y254586D01*
X623092Y254636D01*
X623030Y254694D01*
X622976Y254758D01*
X622927Y254790D01*
X622884Y254830D01*
X622809Y254869D01*
X622739Y254916D01*
X622683Y254933D01*
X622631Y254960D01*
X622563Y254971D01*
X622468Y255001D01*
X622368Y255004D01*
X622300Y255015D01*
X376093Y255015D01*
X376039Y255008D01*
X375985Y255009D01*
X375899Y254988D01*
X375812Y254975D01*
X375762Y254953D01*
X375709Y254940D01*
X375633Y254895D01*
X375552Y254859D01*
X375511Y254824D01*
X375463Y254796D01*
X375403Y254732D01*
X375335Y254676D01*
X375305Y254630D01*
X375267Y254590D01*
X375227Y254512D01*
X375178Y254439D01*
X375161Y254387D01*
X375136Y254338D01*
X375124Y254268D01*
X375092Y254168D01*
X375090Y254073D01*
X375078Y254008D01*
X374908Y231564D01*
X372960Y229615D01*
X280415Y229615D01*
X280415Y330200D01*
X280407Y330258D01*
X280409Y330316D01*
X280387Y330398D01*
X280375Y330482D01*
X280352Y330535D01*
X280337Y330591D01*
X280294Y330664D01*
X280259Y330741D01*
X280221Y330786D01*
X280192Y330836D01*
X280130Y330894D01*
X280076Y330958D01*
X280027Y330990D01*
X279984Y331030D01*
X279909Y331069D01*
X279839Y331116D01*
X279783Y331133D01*
X279731Y331160D01*
X279663Y331171D01*
X279568Y331201D01*
X279468Y331204D01*
X279400Y331215D01*
X254000Y331215D01*
X253942Y331207D01*
X253884Y331209D01*
X253802Y331187D01*
X253719Y331175D01*
X253665Y331152D01*
X253609Y331137D01*
X253536Y331094D01*
X253459Y331059D01*
X253414Y331021D01*
X253364Y330992D01*
X253306Y330930D01*
X253242Y330876D01*
X253210Y330827D01*
X253170Y330784D01*
X253131Y330709D01*
X253085Y330639D01*
X253067Y330583D01*
X253040Y330531D01*
X253029Y330463D01*
X252999Y330368D01*
X252996Y330268D01*
X252985Y330200D01*
X252985Y229615D01*
X115315Y229615D01*
X115315Y317500D01*
X115307Y317557D01*
X115309Y317609D01*
X115308Y317610D01*
X115309Y317616D01*
X115287Y317698D01*
X115275Y317782D01*
X115252Y317835D01*
X115237Y317891D01*
X115194Y317964D01*
X115159Y318041D01*
X115121Y318086D01*
X115092Y318136D01*
X115030Y318194D01*
X114976Y318258D01*
X114927Y318290D01*
X114884Y318330D01*
X114809Y318369D01*
X114739Y318416D01*
X114683Y318433D01*
X114631Y318460D01*
X114563Y318471D01*
X114468Y318501D01*
X114368Y318504D01*
X114300Y318515D01*
X88900Y318515D01*
X88842Y318507D01*
X88784Y318509D01*
X88702Y318487D01*
X88619Y318475D01*
X88565Y318452D01*
X88509Y318437D01*
X88436Y318394D01*
X88359Y318359D01*
X88314Y318321D01*
X88264Y318292D01*
X88206Y318230D01*
X88142Y318176D01*
X88110Y318127D01*
X88070Y318084D01*
X88031Y318009D01*
X87985Y317939D01*
X87967Y317883D01*
X87940Y317831D01*
X87929Y317763D01*
X87899Y317668D01*
X87896Y317568D01*
X87885Y317500D01*
X87885Y165205D01*
X87893Y165147D01*
X87891Y165089D01*
X87913Y165007D01*
X87925Y164923D01*
X87949Y164870D01*
X87963Y164814D01*
X88006Y164741D01*
X88041Y164664D01*
X88079Y164619D01*
X88109Y164569D01*
X88170Y164511D01*
X88225Y164447D01*
X88273Y164415D01*
X88316Y164375D01*
X88391Y164336D01*
X88461Y164289D01*
X88517Y164272D01*
X88569Y164245D01*
X88637Y164234D01*
X88732Y164204D01*
X88832Y164201D01*
X88900Y164190D01*
X282495Y164190D01*
X282496Y164190D01*
G37*
G36*
X406458Y138693D02*
X406458Y138693D01*
X406516Y138691D01*
X406598Y138713D01*
X406682Y138725D01*
X406735Y138749D01*
X406791Y138763D01*
X406864Y138806D01*
X406941Y138841D01*
X406986Y138879D01*
X407036Y138909D01*
X407094Y138970D01*
X407158Y139025D01*
X407190Y139073D01*
X407230Y139116D01*
X407269Y139191D01*
X407316Y139261D01*
X407333Y139317D01*
X407360Y139369D01*
X407371Y139437D01*
X407401Y139532D01*
X407404Y139632D01*
X407415Y139700D01*
X407415Y158093D01*
X407407Y158151D01*
X407409Y158209D01*
X407387Y158291D01*
X407375Y158374D01*
X407351Y158428D01*
X407337Y158484D01*
X407294Y158557D01*
X407259Y158634D01*
X407221Y158679D01*
X407191Y158729D01*
X407130Y158787D01*
X407075Y158851D01*
X407027Y158883D01*
X406984Y158923D01*
X406909Y158962D01*
X406839Y159008D01*
X406783Y159026D01*
X406731Y159053D01*
X406663Y159064D01*
X406568Y159094D01*
X406468Y159097D01*
X406400Y159108D01*
X87687Y159108D01*
X85446Y160036D01*
X83731Y161751D01*
X82803Y163992D01*
X82803Y318713D01*
X83731Y320954D01*
X85446Y322669D01*
X87687Y323597D01*
X115513Y323597D01*
X117754Y322669D01*
X119469Y320954D01*
X120397Y318713D01*
X120397Y235712D01*
X120405Y235654D01*
X120403Y235596D01*
X120425Y235514D01*
X120437Y235430D01*
X120460Y235377D01*
X120475Y235321D01*
X120518Y235248D01*
X120553Y235171D01*
X120591Y235126D01*
X120620Y235076D01*
X120682Y235018D01*
X120736Y234954D01*
X120785Y234922D01*
X120828Y234882D01*
X120903Y234843D01*
X120973Y234796D01*
X121029Y234779D01*
X121081Y234752D01*
X121149Y234741D01*
X121244Y234711D01*
X121344Y234708D01*
X121412Y234697D01*
X246888Y234697D01*
X246946Y234705D01*
X247004Y234703D01*
X247086Y234725D01*
X247170Y234737D01*
X247223Y234760D01*
X247279Y234775D01*
X247352Y234818D01*
X247429Y234853D01*
X247474Y234891D01*
X247524Y234920D01*
X247582Y234982D01*
X247646Y235036D01*
X247678Y235085D01*
X247718Y235128D01*
X247757Y235203D01*
X247804Y235273D01*
X247821Y235329D01*
X247848Y235381D01*
X247859Y235449D01*
X247889Y235544D01*
X247892Y235644D01*
X247903Y235712D01*
X247903Y331413D01*
X248831Y333654D01*
X250546Y335369D01*
X252787Y336297D01*
X280613Y336297D01*
X282854Y335369D01*
X284569Y333654D01*
X285497Y331413D01*
X285497Y235712D01*
X285505Y235654D01*
X285503Y235596D01*
X285525Y235514D01*
X285537Y235430D01*
X285560Y235377D01*
X285575Y235321D01*
X285618Y235248D01*
X285653Y235171D01*
X285691Y235126D01*
X285720Y235076D01*
X285782Y235018D01*
X285836Y234954D01*
X285885Y234922D01*
X285928Y234882D01*
X286003Y234843D01*
X286073Y234796D01*
X286129Y234779D01*
X286181Y234752D01*
X286249Y234741D01*
X286344Y234711D01*
X286444Y234708D01*
X286512Y234697D01*
X316230Y234697D01*
X316288Y234705D01*
X316346Y234703D01*
X316428Y234725D01*
X316512Y234737D01*
X316565Y234760D01*
X316621Y234775D01*
X316694Y234818D01*
X316771Y234853D01*
X316816Y234891D01*
X316866Y234920D01*
X316924Y234982D01*
X316988Y235036D01*
X317020Y235085D01*
X317060Y235128D01*
X317099Y235203D01*
X317146Y235273D01*
X317163Y235329D01*
X317190Y235381D01*
X317201Y235449D01*
X317231Y235544D01*
X317234Y235644D01*
X317245Y235712D01*
X317245Y342900D01*
X317237Y342958D01*
X317239Y343016D01*
X317217Y343098D01*
X317205Y343182D01*
X317182Y343235D01*
X317167Y343291D01*
X317124Y343364D01*
X317089Y343441D01*
X317051Y343486D01*
X317022Y343536D01*
X316960Y343594D01*
X316906Y343658D01*
X316857Y343690D01*
X316814Y343730D01*
X316739Y343769D01*
X316669Y343816D01*
X316613Y343833D01*
X316561Y343860D01*
X316493Y343871D01*
X316398Y343901D01*
X316298Y343904D01*
X316230Y343915D01*
X88900Y343915D01*
X88813Y343903D01*
X88726Y343900D01*
X88673Y343883D01*
X88619Y343875D01*
X88539Y343840D01*
X88455Y343813D01*
X88416Y343785D01*
X88359Y343759D01*
X88246Y343663D01*
X88182Y343618D01*
X62782Y318218D01*
X62730Y318148D01*
X62670Y318084D01*
X62644Y318035D01*
X62611Y317991D01*
X62580Y317909D01*
X62540Y317831D01*
X62532Y317784D01*
X62510Y317725D01*
X62498Y317577D01*
X62485Y317500D01*
X62485Y177800D01*
X62497Y177713D01*
X62500Y177626D01*
X62517Y177573D01*
X62525Y177519D01*
X62560Y177439D01*
X62587Y177355D01*
X62615Y177316D01*
X62641Y177259D01*
X62737Y177146D01*
X62782Y177082D01*
X100882Y138982D01*
X100952Y138930D01*
X101016Y138870D01*
X101065Y138844D01*
X101109Y138811D01*
X101191Y138780D01*
X101269Y138740D01*
X101317Y138732D01*
X101375Y138710D01*
X101523Y138698D01*
X101600Y138685D01*
X406400Y138685D01*
X406458Y138693D01*
G37*
%LPC*%
G36*
X531250Y73269D02*
X531250Y73269D01*
X525799Y75527D01*
X521627Y79699D01*
X519369Y85150D01*
X519369Y91050D01*
X521627Y96501D01*
X525799Y100673D01*
X531250Y102931D01*
X537150Y102931D01*
X542601Y100673D01*
X545982Y97292D01*
X546029Y97257D01*
X546069Y97214D01*
X546142Y97171D01*
X546209Y97121D01*
X546264Y97100D01*
X546314Y97070D01*
X546396Y97050D01*
X546475Y97020D01*
X546533Y97015D01*
X546590Y97000D01*
X546674Y97003D01*
X546758Y96996D01*
X546816Y97008D01*
X546874Y97009D01*
X546954Y97035D01*
X547037Y97052D01*
X547089Y97079D01*
X547145Y97097D01*
X547201Y97137D01*
X547289Y97183D01*
X547362Y97252D01*
X547418Y97292D01*
X550799Y100673D01*
X556250Y102931D01*
X562150Y102931D01*
X567601Y100673D01*
X571773Y96501D01*
X573479Y92382D01*
X573494Y92357D01*
X573503Y92329D01*
X573566Y92235D01*
X573623Y92138D01*
X573645Y92117D01*
X573661Y92093D01*
X573748Y92020D01*
X573830Y91942D01*
X573856Y91929D01*
X573879Y91910D01*
X573982Y91864D01*
X574083Y91812D01*
X574112Y91806D01*
X574138Y91795D01*
X574251Y91779D01*
X574362Y91757D01*
X574391Y91760D01*
X574420Y91756D01*
X574532Y91772D01*
X574645Y91782D01*
X574672Y91792D01*
X574701Y91796D01*
X574804Y91843D01*
X574910Y91884D01*
X574934Y91901D01*
X574960Y91913D01*
X575047Y91987D01*
X575137Y92055D01*
X575154Y92079D01*
X575177Y92098D01*
X575218Y92164D01*
X575307Y92283D01*
X575329Y92342D01*
X575355Y92382D01*
X575883Y93657D01*
X578643Y96417D01*
X582249Y97911D01*
X586151Y97911D01*
X589757Y96417D01*
X592517Y93657D01*
X593045Y92382D01*
X593060Y92357D01*
X593069Y92329D01*
X593132Y92235D01*
X593190Y92138D01*
X593211Y92117D01*
X593227Y92093D01*
X593314Y92020D01*
X593396Y91942D01*
X593422Y91929D01*
X593445Y91910D01*
X593549Y91864D01*
X593649Y91812D01*
X593678Y91806D01*
X593705Y91795D01*
X593817Y91779D01*
X593928Y91757D01*
X593957Y91760D01*
X593986Y91756D01*
X594099Y91772D01*
X594211Y91782D01*
X594239Y91792D01*
X594268Y91796D01*
X594371Y91843D01*
X594477Y91884D01*
X594500Y91901D01*
X594527Y91913D01*
X594613Y91987D01*
X594703Y92055D01*
X594721Y92079D01*
X594743Y92098D01*
X594785Y92164D01*
X594874Y92283D01*
X594896Y92342D01*
X594921Y92382D01*
X596627Y96501D01*
X600799Y100673D01*
X606250Y102931D01*
X612150Y102931D01*
X617601Y100673D01*
X620982Y97292D01*
X621029Y97257D01*
X621069Y97214D01*
X621142Y97171D01*
X621209Y97121D01*
X621264Y97100D01*
X621314Y97070D01*
X621396Y97050D01*
X621475Y97020D01*
X621533Y97015D01*
X621590Y97000D01*
X621674Y97003D01*
X621758Y96996D01*
X621816Y97008D01*
X621874Y97009D01*
X621954Y97035D01*
X622037Y97052D01*
X622089Y97079D01*
X622145Y97097D01*
X622201Y97137D01*
X622289Y97183D01*
X622362Y97252D01*
X622418Y97292D01*
X625799Y100673D01*
X631250Y102931D01*
X637150Y102931D01*
X642601Y100673D01*
X646773Y96501D01*
X649031Y91050D01*
X649031Y85150D01*
X646773Y79699D01*
X642601Y75527D01*
X637150Y73269D01*
X631250Y73269D01*
X625799Y75527D01*
X622418Y78908D01*
X622371Y78943D01*
X622331Y78986D01*
X622258Y79029D01*
X622191Y79079D01*
X622136Y79100D01*
X622086Y79130D01*
X622004Y79150D01*
X621925Y79180D01*
X621867Y79185D01*
X621810Y79200D01*
X621726Y79197D01*
X621642Y79204D01*
X621584Y79192D01*
X621526Y79191D01*
X621446Y79165D01*
X621363Y79148D01*
X621311Y79121D01*
X621255Y79103D01*
X621199Y79063D01*
X621111Y79017D01*
X621038Y78948D01*
X620982Y78908D01*
X617601Y75527D01*
X612150Y73269D01*
X606250Y73269D01*
X600799Y75527D01*
X596627Y79699D01*
X594921Y83818D01*
X594906Y83843D01*
X594897Y83871D01*
X594834Y83965D01*
X594777Y84062D01*
X594755Y84083D01*
X594739Y84107D01*
X594652Y84180D01*
X594570Y84258D01*
X594544Y84271D01*
X594521Y84290D01*
X594418Y84336D01*
X594317Y84388D01*
X594288Y84394D01*
X594262Y84405D01*
X594149Y84421D01*
X594038Y84443D01*
X594009Y84440D01*
X593980Y84444D01*
X593868Y84428D01*
X593755Y84418D01*
X593728Y84408D01*
X593699Y84404D01*
X593596Y84357D01*
X593490Y84316D01*
X593466Y84299D01*
X593440Y84287D01*
X593353Y84213D01*
X593263Y84145D01*
X593246Y84121D01*
X593223Y84102D01*
X593182Y84036D01*
X593093Y83917D01*
X593071Y83858D01*
X593045Y83818D01*
X592517Y82543D01*
X589757Y79783D01*
X586151Y78289D01*
X582249Y78289D01*
X578643Y79783D01*
X575883Y82543D01*
X575355Y83818D01*
X575340Y83843D01*
X575331Y83871D01*
X575268Y83965D01*
X575210Y84062D01*
X575189Y84083D01*
X575173Y84107D01*
X575086Y84180D01*
X575004Y84258D01*
X574978Y84271D01*
X574955Y84290D01*
X574851Y84336D01*
X574751Y84388D01*
X574722Y84394D01*
X574695Y84405D01*
X574583Y84421D01*
X574472Y84443D01*
X574443Y84440D01*
X574414Y84444D01*
X574301Y84428D01*
X574189Y84418D01*
X574161Y84408D01*
X574132Y84404D01*
X574029Y84357D01*
X573923Y84316D01*
X573900Y84299D01*
X573873Y84287D01*
X573787Y84213D01*
X573697Y84145D01*
X573679Y84121D01*
X573657Y84102D01*
X573615Y84036D01*
X573526Y83917D01*
X573504Y83858D01*
X573479Y83818D01*
X571773Y79699D01*
X567601Y75527D01*
X562150Y73269D01*
X556250Y73269D01*
X550799Y75527D01*
X547418Y78908D01*
X547371Y78943D01*
X547331Y78986D01*
X547258Y79029D01*
X547191Y79079D01*
X547136Y79100D01*
X547086Y79130D01*
X547004Y79150D01*
X546925Y79180D01*
X546867Y79185D01*
X546810Y79200D01*
X546726Y79197D01*
X546642Y79204D01*
X546584Y79192D01*
X546526Y79191D01*
X546446Y79165D01*
X546363Y79148D01*
X546311Y79121D01*
X546255Y79103D01*
X546199Y79063D01*
X546111Y79017D01*
X546038Y78948D01*
X545982Y78908D01*
X542601Y75527D01*
X537150Y73269D01*
X531250Y73269D01*
G37*
%LPD*%
%LPC*%
G36*
X581250Y23269D02*
X581250Y23269D01*
X575799Y25527D01*
X571627Y29699D01*
X569369Y35150D01*
X569369Y41050D01*
X571627Y46501D01*
X575799Y50673D01*
X581250Y52931D01*
X587150Y52931D01*
X592601Y50673D01*
X596773Y46501D01*
X599031Y41050D01*
X599031Y35150D01*
X596773Y29699D01*
X592601Y25527D01*
X587150Y23269D01*
X581250Y23269D01*
G37*
%LPD*%
%LPC*%
G36*
X398092Y231457D02*
X398092Y231457D01*
X394474Y232955D01*
X391705Y235724D01*
X390207Y239342D01*
X390207Y243258D01*
X391705Y246876D01*
X394474Y249645D01*
X398092Y251143D01*
X402008Y251143D01*
X405626Y249645D01*
X408395Y246876D01*
X409893Y243258D01*
X409893Y239342D01*
X408395Y235724D01*
X405626Y232955D01*
X402008Y231457D01*
X398092Y231457D01*
G37*
%LPD*%
%LPC*%
G36*
X632249Y28289D02*
X632249Y28289D01*
X628643Y29783D01*
X625883Y32543D01*
X624389Y36149D01*
X624389Y40051D01*
X625883Y43657D01*
X628643Y46417D01*
X632249Y47911D01*
X636151Y47911D01*
X639757Y46417D01*
X642517Y43657D01*
X644011Y40051D01*
X644011Y36149D01*
X642517Y32543D01*
X639757Y29783D01*
X636151Y28289D01*
X632249Y28289D01*
G37*
%LPD*%
%LPC*%
G36*
X532249Y28289D02*
X532249Y28289D01*
X528643Y29783D01*
X525883Y32543D01*
X524389Y36149D01*
X524389Y40051D01*
X525883Y43657D01*
X528643Y46417D01*
X532249Y47911D01*
X536151Y47911D01*
X539757Y46417D01*
X542517Y43657D01*
X544011Y40051D01*
X544011Y36149D01*
X542517Y32543D01*
X539757Y29783D01*
X536151Y28289D01*
X532249Y28289D01*
G37*
%LPD*%
D10*
X584200Y38100D03*
X559200Y88100D03*
X534200Y88100D03*
X609200Y88100D03*
X634200Y88100D03*
D11*
X467360Y285750D03*
X332740Y250190D03*
X400050Y241300D03*
X381300Y330200D03*
X50800Y254000D03*
X309880Y209550D03*
X104267Y304800D03*
X330200Y190500D03*
X270510Y285750D03*
D12*
X609200Y174562D02*
X609200Y127000D01*
D11*
X609200Y127000D03*
X292100Y160020D03*
X393700Y156210D03*
X203200Y330200D03*
X50800Y213320D03*
X190500Y114300D03*
D12*
X50800Y114300D02*
X50800Y213320D01*
X50800Y114300D02*
X190500Y114300D01*
D11*
X292100Y43180D03*
D13*
X304800Y30480D01*
X355600Y12700D01*
D11*
X12700Y101600D03*
X355600Y12700D03*
X12700Y146050D03*
M02*
