G04 EAGLE Gerber RS-274X export*
G75*
%MOMM*%
%FSLAX34Y34*%
%LPD*%
%IN*%
%IPPOS*%
%AMOC8*
5,1,8,0,0,1.08239X$1,22.5*%
G01*
%ADD10C,0.254000*%


D10*
X0Y0D02*
X660200Y0D01*
X660200Y502160D01*
X0Y500890D01*
X0Y0D01*
X534537Y44100D02*
X535207Y44025D01*
X535864Y43875D01*
X536500Y43652D01*
X537107Y43360D01*
X537678Y43001D01*
X538204Y42581D01*
X538681Y42104D01*
X539101Y41578D01*
X539460Y41007D01*
X539752Y40400D01*
X539975Y39764D01*
X540125Y39107D01*
X540200Y38437D01*
X540200Y37763D01*
X540125Y37093D01*
X539975Y36436D01*
X539752Y35800D01*
X539460Y35193D01*
X539101Y34623D01*
X538681Y34096D01*
X538204Y33619D01*
X537678Y33199D01*
X537107Y32840D01*
X536500Y32548D01*
X535864Y32325D01*
X535207Y32175D01*
X534537Y32100D01*
X533863Y32100D01*
X533193Y32175D01*
X532536Y32325D01*
X531900Y32548D01*
X531293Y32840D01*
X530723Y33199D01*
X530196Y33619D01*
X529719Y34096D01*
X529299Y34623D01*
X528940Y35193D01*
X528648Y35800D01*
X528425Y36436D01*
X528275Y37093D01*
X528200Y37763D01*
X528200Y38437D01*
X528275Y39107D01*
X528425Y39764D01*
X528648Y40400D01*
X528940Y41007D01*
X529299Y41578D01*
X529719Y42104D01*
X530196Y42581D01*
X530723Y43001D01*
X531293Y43360D01*
X531900Y43652D01*
X532536Y43875D01*
X533193Y44025D01*
X533863Y44100D01*
X534537Y44100D01*
X534537Y19100D02*
X535207Y19025D01*
X535864Y18875D01*
X536500Y18652D01*
X537107Y18360D01*
X537678Y18001D01*
X538204Y17581D01*
X538681Y17104D01*
X539101Y16578D01*
X539460Y16007D01*
X539752Y15400D01*
X539975Y14764D01*
X540125Y14107D01*
X540200Y13437D01*
X540200Y12763D01*
X540125Y12093D01*
X539975Y11436D01*
X539752Y10800D01*
X539460Y10193D01*
X539101Y9623D01*
X538681Y9096D01*
X538204Y8619D01*
X537678Y8199D01*
X537107Y7840D01*
X536500Y7548D01*
X535864Y7325D01*
X535207Y7175D01*
X534537Y7100D01*
X533863Y7100D01*
X533193Y7175D01*
X532536Y7325D01*
X531900Y7548D01*
X531293Y7840D01*
X530723Y8199D01*
X530196Y8619D01*
X529719Y9096D01*
X529299Y9623D01*
X528940Y10193D01*
X528648Y10800D01*
X528425Y11436D01*
X528275Y12093D01*
X528200Y12763D01*
X528200Y13437D01*
X528275Y14107D01*
X528425Y14764D01*
X528648Y15400D01*
X528940Y16007D01*
X529299Y16578D01*
X529719Y17104D01*
X530196Y17581D01*
X530723Y18001D01*
X531293Y18360D01*
X531900Y18652D01*
X532536Y18875D01*
X533193Y19025D01*
X533863Y19100D01*
X534537Y19100D01*
X634537Y19100D02*
X635207Y19025D01*
X635864Y18875D01*
X636500Y18652D01*
X637107Y18360D01*
X637678Y18001D01*
X638204Y17581D01*
X638681Y17104D01*
X639101Y16578D01*
X639460Y16007D01*
X639752Y15400D01*
X639975Y14764D01*
X640125Y14107D01*
X640200Y13437D01*
X640200Y12763D01*
X640125Y12093D01*
X639975Y11436D01*
X639752Y10800D01*
X639460Y10193D01*
X639101Y9623D01*
X638681Y9096D01*
X638204Y8619D01*
X637678Y8199D01*
X637107Y7840D01*
X636500Y7548D01*
X635864Y7325D01*
X635207Y7175D01*
X634537Y7100D01*
X633863Y7100D01*
X633193Y7175D01*
X632536Y7325D01*
X631900Y7548D01*
X631293Y7840D01*
X630723Y8199D01*
X630196Y8619D01*
X629719Y9096D01*
X629299Y9623D01*
X628940Y10193D01*
X628648Y10800D01*
X628425Y11436D01*
X628275Y12093D01*
X628200Y12763D01*
X628200Y13437D01*
X628275Y14107D01*
X628425Y14764D01*
X628648Y15400D01*
X628940Y16007D01*
X629299Y16578D01*
X629719Y17104D01*
X630196Y17581D01*
X630723Y18001D01*
X631293Y18360D01*
X631900Y18652D01*
X632536Y18875D01*
X633193Y19025D01*
X633863Y19100D01*
X634537Y19100D01*
X634537Y44100D02*
X635207Y44025D01*
X635864Y43875D01*
X636500Y43652D01*
X637107Y43360D01*
X637678Y43001D01*
X638204Y42581D01*
X638681Y42104D01*
X639101Y41578D01*
X639460Y41007D01*
X639752Y40400D01*
X639975Y39764D01*
X640125Y39107D01*
X640200Y38437D01*
X640200Y37763D01*
X640125Y37093D01*
X639975Y36436D01*
X639752Y35800D01*
X639460Y35193D01*
X639101Y34623D01*
X638681Y34096D01*
X638204Y33619D01*
X637678Y33199D01*
X637107Y32840D01*
X636500Y32548D01*
X635864Y32325D01*
X635207Y32175D01*
X634537Y32100D01*
X633863Y32100D01*
X633193Y32175D01*
X632536Y32325D01*
X631900Y32548D01*
X631293Y32840D01*
X630723Y33199D01*
X630196Y33619D01*
X629719Y34096D01*
X629299Y34623D01*
X628940Y35193D01*
X628648Y35800D01*
X628425Y36436D01*
X628275Y37093D01*
X628200Y37763D01*
X628200Y38437D01*
X628275Y39107D01*
X628425Y39764D01*
X628648Y40400D01*
X628940Y41007D01*
X629299Y41578D01*
X629719Y42104D01*
X630196Y42581D01*
X630723Y43001D01*
X631293Y43360D01*
X631900Y43652D01*
X632536Y43875D01*
X633193Y44025D01*
X633863Y44100D01*
X634537Y44100D01*
X584537Y94100D02*
X585207Y94025D01*
X585864Y93875D01*
X586500Y93652D01*
X587107Y93360D01*
X587678Y93001D01*
X588204Y92581D01*
X588681Y92104D01*
X589101Y91578D01*
X589460Y91007D01*
X589752Y90400D01*
X589975Y89764D01*
X590125Y89107D01*
X590200Y88437D01*
X590200Y87763D01*
X590125Y87093D01*
X589975Y86436D01*
X589752Y85800D01*
X589460Y85193D01*
X589101Y84623D01*
X588681Y84096D01*
X588204Y83619D01*
X587678Y83199D01*
X587107Y82840D01*
X586500Y82548D01*
X585864Y82325D01*
X585207Y82175D01*
X584537Y82100D01*
X583863Y82100D01*
X583193Y82175D01*
X582536Y82325D01*
X581900Y82548D01*
X581293Y82840D01*
X580723Y83199D01*
X580196Y83619D01*
X579719Y84096D01*
X579299Y84623D01*
X578940Y85193D01*
X578648Y85800D01*
X578425Y86436D01*
X578275Y87093D01*
X578200Y87763D01*
X578200Y88437D01*
X578275Y89107D01*
X578425Y89764D01*
X578648Y90400D01*
X578940Y91007D01*
X579299Y91578D01*
X579719Y92104D01*
X580196Y92581D01*
X580723Y93001D01*
X581293Y93360D01*
X581900Y93652D01*
X582536Y93875D01*
X583193Y94025D01*
X583863Y94100D01*
X584537Y94100D01*
M02*
