G04 EAGLE Gerber RS-274X export*
G75*
%MOMM*%
%FSLAX34Y34*%
%LPD*%
%INSoldermask Top*%
%IPPOS*%
%AMOC8*
5,1,8,0,0,1.08239X$1,22.5*%
G01*
%ADD10R,0.827000X1.027000*%
%ADD11R,1.227000X1.127000*%
%ADD12R,1.037000X1.347000*%
%ADD13R,1.327000X0.727000*%
%ADD14C,2.311400*%
%ADD15C,1.327000*%
%ADD16R,1.127000X1.227000*%
%ADD17C,0.419500*%
%ADD18R,1.727000X0.927000*%
%ADD19C,0.597000*%
%ADD20C,0.447000*%
%ADD21R,3.227000X3.227000*%
%ADD22R,1.627000X1.427000*%
%ADD23C,0.200100*%
%ADD24R,0.927000X1.727000*%
%ADD25R,1.282700X0.747000*%
%ADD26R,1.427000X1.627000*%
%ADD27R,2.108200X0.685800*%
%ADD28R,1.651000X4.191000*%
%ADD29R,1.397000X4.191000*%
%ADD30C,0.428928*%
%ADD31R,1.027000X0.827000*%
%ADD32C,1.079500*%


D10*
X356720Y187960D03*
X369720Y187960D03*
D11*
X207400Y368300D03*
X224400Y368300D03*
D12*
X216035Y285750D03*
X248785Y285750D03*
D13*
X124400Y311150D03*
X124400Y298450D03*
X124400Y285750D03*
X124400Y273050D03*
X180400Y273050D03*
X180400Y285750D03*
X180400Y298450D03*
X180400Y311150D03*
D14*
X584200Y38100D03*
X559200Y88100D03*
X534200Y88100D03*
X609200Y88100D03*
X634200Y88100D03*
D15*
X534200Y38100D03*
X534200Y13100D03*
X634200Y13100D03*
X634200Y38100D03*
X584200Y88100D03*
D16*
X240910Y323850D03*
X223910Y323850D03*
D11*
X368300Y118500D03*
X368300Y135500D03*
D16*
X369180Y168910D03*
X352180Y168910D03*
X141850Y251460D03*
X124850Y251460D03*
D17*
X434220Y385224D02*
X434220Y390610D01*
X434220Y390610D01*
X434220Y385224D01*
X434220Y385224D01*
X434220Y389209D02*
X434220Y389209D01*
X429220Y390610D02*
X429220Y385224D01*
X429220Y390610D02*
X429220Y390610D01*
X429220Y385224D01*
X429220Y385224D01*
X429220Y389209D02*
X429220Y389209D01*
X424220Y390610D02*
X424220Y385224D01*
X424220Y390610D02*
X424220Y390610D01*
X424220Y385224D01*
X424220Y385224D01*
X424220Y389209D02*
X424220Y389209D01*
X419220Y390610D02*
X419220Y385224D01*
X419220Y390610D02*
X419220Y390610D01*
X419220Y385224D01*
X419220Y385224D01*
X419220Y389209D02*
X419220Y389209D01*
X419220Y371696D02*
X419220Y366310D01*
X419220Y371696D02*
X419220Y371696D01*
X419220Y366310D01*
X419220Y366310D01*
X419220Y370295D02*
X419220Y370295D01*
X424220Y371696D02*
X424220Y366310D01*
X424220Y371696D02*
X424220Y371696D01*
X424220Y366310D01*
X424220Y366310D01*
X424220Y370295D02*
X424220Y370295D01*
X429220Y371696D02*
X429220Y366310D01*
X429220Y371696D02*
X429220Y371696D01*
X429220Y366310D01*
X429220Y366310D01*
X429220Y370295D02*
X429220Y370295D01*
X434220Y371696D02*
X434220Y366310D01*
X434220Y371696D02*
X434220Y371696D01*
X434220Y366310D01*
X434220Y366310D01*
X434220Y370295D02*
X434220Y370295D01*
D18*
X426720Y378460D03*
D19*
X285480Y199800D02*
X275980Y199800D01*
X275980Y206300D02*
X285480Y206300D01*
X285480Y212800D02*
X275980Y212800D01*
X275980Y219300D02*
X285480Y219300D01*
X242180Y219300D02*
X232680Y219300D01*
X232680Y212800D02*
X242180Y212800D01*
X242180Y206300D02*
X232680Y206300D01*
X232680Y199800D02*
X242180Y199800D01*
D20*
X388587Y266400D02*
X395259Y266400D01*
X395259Y272900D02*
X388587Y272900D01*
X388587Y279400D02*
X395259Y279400D01*
X395259Y285900D02*
X388587Y285900D01*
X388587Y292400D02*
X395259Y292400D01*
X381300Y299687D02*
X381300Y306359D01*
X374800Y306359D02*
X374800Y299687D01*
X368300Y299687D02*
X368300Y306359D01*
X361800Y306359D02*
X361800Y299687D01*
X355300Y299687D02*
X355300Y306359D01*
X348013Y292400D02*
X341341Y292400D01*
X341341Y285900D02*
X348013Y285900D01*
X348013Y279400D02*
X341341Y279400D01*
X341341Y272900D02*
X348013Y272900D01*
X348013Y266400D02*
X341341Y266400D01*
X355300Y259113D02*
X355300Y252441D01*
X361800Y252441D02*
X361800Y259113D01*
X368300Y259113D02*
X368300Y252441D01*
X374800Y252441D02*
X374800Y259113D01*
X381300Y259113D02*
X381300Y252441D01*
D21*
X368300Y279400D03*
D22*
X429260Y411870D03*
X429260Y428870D03*
X444500Y321700D03*
X444500Y338700D03*
D23*
X421885Y336985D02*
X421885Y332315D01*
X416315Y332315D01*
X416315Y336985D01*
X421885Y336985D01*
X421885Y334216D02*
X416315Y334216D01*
X416315Y336117D02*
X421885Y336117D01*
X421885Y328085D02*
X421885Y323415D01*
X416315Y323415D01*
X416315Y328085D01*
X421885Y328085D01*
X421885Y325316D02*
X416315Y325316D01*
X416315Y327217D02*
X421885Y327217D01*
D17*
X99780Y203320D02*
X94394Y203320D01*
X99780Y203320D02*
X99780Y203320D01*
X94394Y203320D01*
X94394Y203320D01*
X94394Y208320D02*
X99780Y208320D01*
X99780Y208320D01*
X94394Y208320D01*
X94394Y208320D01*
X94394Y213320D02*
X99780Y213320D01*
X99780Y213320D01*
X94394Y213320D01*
X94394Y213320D01*
X94394Y218320D02*
X99780Y218320D01*
X99780Y218320D01*
X94394Y218320D01*
X94394Y218320D01*
X80866Y218320D02*
X75480Y218320D01*
X80866Y218320D02*
X80866Y218320D01*
X75480Y218320D01*
X75480Y218320D01*
X75480Y213320D02*
X80866Y213320D01*
X80866Y213320D01*
X75480Y213320D01*
X75480Y213320D01*
X75480Y208320D02*
X80866Y208320D01*
X80866Y208320D01*
X75480Y208320D01*
X75480Y208320D01*
X75480Y203320D02*
X80866Y203320D01*
X80866Y203320D01*
X75480Y203320D01*
X75480Y203320D01*
D24*
X87630Y210820D03*
D25*
X178044Y225400D03*
X178044Y215900D03*
X178044Y206400D03*
X202956Y206400D03*
X202956Y225400D03*
D26*
X135500Y190500D03*
X118500Y190500D03*
D22*
X88900Y426330D03*
X88900Y409330D03*
D23*
X67555Y244275D02*
X67555Y239605D01*
X61985Y239605D01*
X61985Y244275D01*
X67555Y244275D01*
X67555Y241506D02*
X61985Y241506D01*
X61985Y243407D02*
X67555Y243407D01*
X67555Y235375D02*
X67555Y230705D01*
X61985Y230705D01*
X61985Y235375D01*
X67555Y235375D01*
X67555Y232606D02*
X61985Y232606D01*
X61985Y234507D02*
X67555Y234507D01*
X243415Y98815D02*
X248085Y98815D01*
X243415Y98815D02*
X243415Y104385D01*
X248085Y104385D01*
X248085Y98815D01*
X248085Y100716D02*
X243415Y100716D01*
X243415Y102617D02*
X248085Y102617D01*
X239185Y98815D02*
X234515Y98815D01*
X234515Y104385D01*
X239185Y104385D01*
X239185Y98815D01*
X239185Y100716D02*
X234515Y100716D01*
X234515Y102617D02*
X239185Y102617D01*
D27*
X532638Y285750D03*
X532638Y298450D03*
X532638Y311150D03*
X532638Y323850D03*
X483362Y323850D03*
X483362Y311150D03*
X483362Y298450D03*
X483362Y285750D03*
D28*
X114300Y462280D03*
X63500Y462280D03*
D29*
X88900Y462280D03*
D28*
X454660Y461010D03*
X403860Y461010D03*
D29*
X429260Y461010D03*
D16*
X453000Y215900D03*
X436000Y215900D03*
X402200Y215900D03*
X385200Y215900D03*
D30*
X416559Y71509D02*
X425841Y71509D01*
X416559Y71509D02*
X416559Y74491D01*
X425841Y74491D01*
X425841Y71509D01*
X425841Y52509D02*
X416559Y52509D01*
X416559Y55491D01*
X425841Y55491D01*
X425841Y52509D01*
X437759Y62009D02*
X447041Y62009D01*
X437759Y62009D02*
X437759Y64991D01*
X447041Y64991D01*
X447041Y62009D01*
X336941Y71509D02*
X327659Y71509D01*
X327659Y74491D01*
X336941Y74491D01*
X336941Y71509D01*
X336941Y52509D02*
X327659Y52509D01*
X327659Y55491D01*
X336941Y55491D01*
X336941Y52509D01*
X348859Y62009D02*
X358141Y62009D01*
X348859Y62009D02*
X348859Y64991D01*
X358141Y64991D01*
X358141Y62009D01*
X248041Y71509D02*
X238759Y71509D01*
X238759Y74491D01*
X248041Y74491D01*
X248041Y71509D01*
X248041Y52509D02*
X238759Y52509D01*
X238759Y55491D01*
X248041Y55491D01*
X248041Y52509D01*
X259959Y62009D02*
X269241Y62009D01*
X259959Y62009D02*
X259959Y64991D01*
X269241Y64991D01*
X269241Y62009D01*
D11*
X292100Y118500D03*
X292100Y135500D03*
D13*
X228800Y161900D03*
X228800Y152400D03*
X228800Y142900D03*
X253800Y142900D03*
X253800Y161900D03*
D31*
X317500Y133500D03*
X317500Y120500D03*
X270510Y133500D03*
X270510Y120500D03*
D32*
X467360Y285750D03*
X332740Y250190D03*
X400050Y241300D03*
X381300Y330200D03*
X50800Y254000D03*
X309880Y209550D03*
X104267Y304800D03*
X330200Y190500D03*
X270510Y285750D03*
X609200Y127000D03*
X292100Y160020D03*
X393700Y156210D03*
X203200Y330200D03*
X50800Y213320D03*
X190500Y114300D03*
X292100Y43180D03*
X12700Y101600D03*
X355600Y12700D03*
X12700Y146050D03*
M02*
