G04 EAGLE Gerber RS-274X export*
G75*
%MOMM*%
%FSLAX34Y34*%
%LPD*%
%INTop Copper*%
%IPPOS*%
%AMOC8*
5,1,8,0,0,1.08239X$1,22.5*%
G01*
%ADD10R,0.700000X0.900000*%
%ADD11R,1.100000X1.000000*%
%ADD12R,0.910000X1.220000*%
%ADD13R,1.200000X0.600000*%
%ADD14C,2.184400*%
%ADD15R,1.000000X1.100000*%
%ADD16C,0.292500*%
%ADD17R,1.600000X0.800000*%
%ADD18C,0.470000*%
%ADD19C,0.320000*%
%ADD20R,3.100000X3.100000*%
%ADD21R,1.500000X1.300000*%
%ADD22C,0.075600*%
%ADD23R,0.800000X1.600000*%
%ADD24R,1.155700X0.620000*%
%ADD25R,1.300000X1.500000*%
%ADD26R,1.981200X0.558800*%
%ADD27R,1.524000X4.064000*%
%ADD28R,1.270000X4.064000*%
%ADD29C,0.300000*%
%ADD30R,0.900000X0.700000*%
%ADD31C,0.685800*%
%ADD32C,0.708384*%
%ADD33C,0.635000*%
%ADD34C,0.203200*%
%ADD35C,0.508000*%
%ADD36C,0.952500*%
%ADD37C,0.381000*%
%ADD38C,0.406400*%
%ADD39C,1.016000*%
%ADD40C,0.762000*%
%ADD41C,0.254000*%
%ADD42C,1.270000*%

G36*
X527848Y3822D02*
X527848Y3822D01*
X527919Y3824D01*
X527968Y3842D01*
X528020Y3850D01*
X528083Y3884D01*
X528150Y3909D01*
X528191Y3941D01*
X528237Y3966D01*
X528286Y4018D01*
X528342Y4062D01*
X528371Y4106D01*
X528407Y4144D01*
X528437Y4209D01*
X528475Y4269D01*
X528488Y4320D01*
X528510Y4367D01*
X528518Y4438D01*
X528536Y4508D01*
X528531Y4560D01*
X528537Y4611D01*
X528522Y4682D01*
X528516Y4753D01*
X528496Y4801D01*
X528485Y4852D01*
X528448Y4913D01*
X528420Y4979D01*
X528375Y5035D01*
X528359Y5063D01*
X528341Y5078D01*
X528315Y5110D01*
X525883Y7543D01*
X524389Y11149D01*
X524389Y15051D01*
X525883Y18657D01*
X528643Y21417D01*
X532249Y22911D01*
X536151Y22911D01*
X539757Y21417D01*
X542517Y18657D01*
X544011Y15051D01*
X544011Y11149D01*
X542517Y7543D01*
X540085Y5110D01*
X540043Y5052D01*
X539993Y5000D01*
X539972Y4953D01*
X539941Y4911D01*
X539920Y4842D01*
X539890Y4777D01*
X539884Y4725D01*
X539869Y4675D01*
X539871Y4604D01*
X539863Y4533D01*
X539874Y4482D01*
X539875Y4430D01*
X539900Y4362D01*
X539915Y4292D01*
X539942Y4247D01*
X539960Y4199D01*
X540004Y4143D01*
X540041Y4081D01*
X540081Y4047D01*
X540113Y4007D01*
X540174Y3968D01*
X540228Y3921D01*
X540276Y3902D01*
X540320Y3874D01*
X540390Y3856D01*
X540456Y3829D01*
X540528Y3821D01*
X540559Y3813D01*
X540582Y3815D01*
X540623Y3811D01*
X627777Y3811D01*
X627848Y3822D01*
X627919Y3824D01*
X627968Y3842D01*
X628020Y3850D01*
X628083Y3884D01*
X628150Y3909D01*
X628191Y3941D01*
X628237Y3966D01*
X628286Y4018D01*
X628342Y4062D01*
X628371Y4106D01*
X628407Y4144D01*
X628437Y4209D01*
X628475Y4269D01*
X628488Y4320D01*
X628510Y4367D01*
X628518Y4438D01*
X628536Y4508D01*
X628531Y4560D01*
X628537Y4611D01*
X628522Y4682D01*
X628516Y4753D01*
X628496Y4801D01*
X628485Y4852D01*
X628448Y4913D01*
X628420Y4979D01*
X628375Y5035D01*
X628359Y5063D01*
X628341Y5078D01*
X628315Y5110D01*
X625883Y7543D01*
X624389Y11149D01*
X624389Y15051D01*
X625883Y18657D01*
X628643Y21417D01*
X632249Y22911D01*
X636151Y22911D01*
X639757Y21417D01*
X642517Y18657D01*
X644011Y15051D01*
X644011Y11149D01*
X642517Y7543D01*
X640085Y5110D01*
X640043Y5052D01*
X639993Y5000D01*
X639972Y4953D01*
X639941Y4911D01*
X639920Y4842D01*
X639890Y4777D01*
X639884Y4725D01*
X639869Y4675D01*
X639871Y4604D01*
X639863Y4533D01*
X639874Y4482D01*
X639875Y4430D01*
X639900Y4362D01*
X639915Y4292D01*
X639942Y4247D01*
X639960Y4199D01*
X640004Y4143D01*
X640041Y4081D01*
X640081Y4047D01*
X640113Y4007D01*
X640174Y3968D01*
X640228Y3921D01*
X640276Y3902D01*
X640320Y3874D01*
X640390Y3856D01*
X640456Y3829D01*
X640528Y3821D01*
X640559Y3813D01*
X640582Y3815D01*
X640623Y3811D01*
X655628Y3811D01*
X655648Y3814D01*
X655667Y3812D01*
X655769Y3834D01*
X655871Y3850D01*
X655888Y3860D01*
X655908Y3864D01*
X655997Y3917D01*
X656088Y3966D01*
X656102Y3980D01*
X656119Y3990D01*
X656186Y4069D01*
X656258Y4144D01*
X656266Y4162D01*
X656279Y4177D01*
X656318Y4273D01*
X656361Y4367D01*
X656363Y4387D01*
X656371Y4405D01*
X656389Y4572D01*
X656389Y497579D01*
X656386Y497600D01*
X656388Y497620D01*
X656366Y497721D01*
X656350Y497822D01*
X656340Y497840D01*
X656335Y497860D01*
X656282Y497949D01*
X656234Y498039D01*
X656220Y498054D01*
X656209Y498071D01*
X656130Y498138D01*
X656056Y498209D01*
X656037Y498217D01*
X656022Y498231D01*
X655926Y498269D01*
X655833Y498312D01*
X655813Y498315D01*
X655793Y498322D01*
X655627Y498340D01*
X4571Y497088D01*
X4552Y497085D01*
X4533Y497087D01*
X4431Y497065D01*
X4328Y497048D01*
X4311Y497039D01*
X4292Y497035D01*
X4203Y496981D01*
X4111Y496932D01*
X4098Y496918D01*
X4081Y496909D01*
X4013Y496829D01*
X3942Y496754D01*
X3934Y496736D01*
X3921Y496722D01*
X3882Y496625D01*
X3838Y496530D01*
X3836Y496511D01*
X3829Y496494D01*
X3811Y496327D01*
X3811Y172212D01*
X3814Y172192D01*
X3812Y172173D01*
X3834Y172071D01*
X3850Y171969D01*
X3860Y171952D01*
X3864Y171932D01*
X3917Y171843D01*
X3966Y171752D01*
X3980Y171738D01*
X3990Y171721D01*
X4069Y171654D01*
X4144Y171582D01*
X4162Y171574D01*
X4177Y171561D01*
X4273Y171522D01*
X4367Y171479D01*
X4387Y171477D01*
X4405Y171469D01*
X4572Y171451D01*
X18288Y171451D01*
X18308Y171454D01*
X18327Y171452D01*
X18429Y171474D01*
X18531Y171490D01*
X18548Y171500D01*
X18568Y171504D01*
X18657Y171557D01*
X18748Y171606D01*
X18762Y171620D01*
X18779Y171630D01*
X18846Y171709D01*
X18918Y171784D01*
X18926Y171802D01*
X18939Y171817D01*
X18978Y171913D01*
X19021Y172007D01*
X19023Y172027D01*
X19031Y172045D01*
X19049Y172212D01*
X19049Y264153D01*
X20016Y266487D01*
X21803Y268274D01*
X24137Y269241D01*
X64763Y269241D01*
X67097Y268274D01*
X68884Y266487D01*
X69851Y264153D01*
X69851Y259114D01*
X69865Y259024D01*
X69873Y258933D01*
X69885Y258903D01*
X69890Y258871D01*
X69933Y258790D01*
X69969Y258707D01*
X69995Y258674D01*
X70006Y258654D01*
X70029Y258632D01*
X70074Y258576D01*
X70692Y257957D01*
X71756Y255390D01*
X71756Y248083D01*
X71770Y247993D01*
X71778Y247902D01*
X71790Y247873D01*
X71795Y247841D01*
X71838Y247760D01*
X71874Y247676D01*
X71900Y247644D01*
X71911Y247623D01*
X71934Y247601D01*
X71979Y247545D01*
X72170Y247354D01*
X73001Y245348D01*
X73001Y238532D01*
X72690Y237781D01*
X72680Y237742D01*
X72670Y237719D01*
X72666Y237684D01*
X72641Y237606D01*
X72641Y237573D01*
X72634Y237542D01*
X72642Y237451D01*
X72643Y237360D01*
X72654Y237320D01*
X72657Y237297D01*
X72670Y237268D01*
X72690Y237199D01*
X73001Y236448D01*
X73001Y231267D01*
X73004Y231247D01*
X73002Y231228D01*
X73024Y231126D01*
X73040Y231024D01*
X73050Y231007D01*
X73054Y230987D01*
X73107Y230898D01*
X73156Y230807D01*
X73170Y230793D01*
X73180Y230776D01*
X73259Y230709D01*
X73334Y230637D01*
X73352Y230629D01*
X73367Y230616D01*
X73463Y230577D01*
X73557Y230534D01*
X73577Y230532D01*
X73595Y230524D01*
X73762Y230506D01*
X74363Y230506D01*
X76930Y229442D01*
X80891Y225481D01*
X80929Y225454D01*
X80960Y225420D01*
X81028Y225383D01*
X81091Y225338D01*
X81135Y225324D01*
X81175Y225302D01*
X81252Y225288D01*
X81326Y225265D01*
X81372Y225266D01*
X81417Y225258D01*
X81494Y225270D01*
X81572Y225272D01*
X81615Y225287D01*
X81660Y225294D01*
X81730Y225329D01*
X81803Y225356D01*
X81839Y225385D01*
X81880Y225405D01*
X81934Y225461D01*
X81995Y225510D01*
X82020Y225548D01*
X82052Y225581D01*
X82118Y225701D01*
X82128Y225717D01*
X82129Y225721D01*
X82133Y225728D01*
X82296Y226123D01*
X82311Y226186D01*
X82336Y226247D01*
X82345Y226330D01*
X82352Y226362D01*
X82351Y226381D01*
X82354Y226414D01*
X82354Y260692D01*
X82351Y260710D01*
X82353Y260742D01*
X82268Y262035D01*
X82263Y262058D01*
X82244Y262182D01*
X81574Y264680D01*
X81568Y264694D01*
X81566Y264710D01*
X81498Y264863D01*
X80205Y267103D01*
X80190Y267121D01*
X80118Y267224D01*
X79264Y268198D01*
X79249Y268210D01*
X79230Y268235D01*
X62440Y285025D01*
X60197Y290439D01*
X60197Y309767D01*
X63228Y321077D01*
X69082Y331217D01*
X71043Y333178D01*
X73944Y336080D01*
X73997Y336153D01*
X74057Y336223D01*
X74069Y336253D01*
X74088Y336279D01*
X74115Y336366D01*
X74149Y336451D01*
X74153Y336492D01*
X74160Y336514D01*
X74159Y336547D01*
X74167Y336618D01*
X74167Y391786D01*
X74153Y391876D01*
X74145Y391967D01*
X74133Y391997D01*
X74128Y392029D01*
X74085Y392109D01*
X74049Y392193D01*
X74023Y392225D01*
X74012Y392246D01*
X73989Y392268D01*
X73944Y392324D01*
X70633Y395636D01*
X68699Y400304D01*
X68699Y435356D01*
X69946Y438367D01*
X69957Y438411D01*
X69976Y438453D01*
X69985Y438530D01*
X70002Y438606D01*
X69998Y438652D01*
X70003Y438697D01*
X69987Y438774D01*
X69979Y438851D01*
X69961Y438893D01*
X69951Y438938D01*
X69911Y439005D01*
X69879Y439076D01*
X69848Y439110D01*
X69825Y439149D01*
X69766Y439200D01*
X69713Y439257D01*
X69673Y439279D01*
X69638Y439309D01*
X69566Y439338D01*
X69497Y439375D01*
X69452Y439384D01*
X69410Y439401D01*
X69274Y439416D01*
X69255Y439419D01*
X69250Y439418D01*
X69243Y439419D01*
X65023Y439419D01*
X65023Y461518D01*
X65020Y461538D01*
X65022Y461557D01*
X65000Y461659D01*
X64983Y461761D01*
X64974Y461778D01*
X64970Y461798D01*
X64917Y461887D01*
X64868Y461978D01*
X64854Y461992D01*
X64844Y462009D01*
X64765Y462076D01*
X64690Y462147D01*
X64672Y462156D01*
X64657Y462169D01*
X64561Y462208D01*
X64467Y462251D01*
X64447Y462253D01*
X64429Y462261D01*
X64262Y462279D01*
X63499Y462279D01*
X63499Y462281D01*
X64262Y462281D01*
X64282Y462284D01*
X64301Y462282D01*
X64403Y462304D01*
X64505Y462321D01*
X64522Y462330D01*
X64542Y462334D01*
X64631Y462387D01*
X64722Y462436D01*
X64736Y462450D01*
X64753Y462460D01*
X64820Y462539D01*
X64891Y462614D01*
X64900Y462632D01*
X64913Y462647D01*
X64952Y462743D01*
X64995Y462837D01*
X64997Y462857D01*
X65005Y462875D01*
X65023Y463042D01*
X65023Y485141D01*
X69347Y485141D01*
X69461Y485160D01*
X69578Y485177D01*
X69583Y485179D01*
X69589Y485180D01*
X69692Y485235D01*
X69797Y485288D01*
X69801Y485293D01*
X69807Y485296D01*
X69887Y485380D01*
X69969Y485464D01*
X69973Y485470D01*
X69976Y485474D01*
X69984Y485491D01*
X70050Y485611D01*
X71783Y489794D01*
X75356Y493367D01*
X80024Y495301D01*
X97776Y495301D01*
X102444Y493367D01*
X106017Y489794D01*
X107750Y485611D01*
X107812Y485511D01*
X107872Y485411D01*
X107876Y485407D01*
X107880Y485402D01*
X107969Y485327D01*
X108059Y485251D01*
X108064Y485249D01*
X108069Y485245D01*
X108177Y485203D01*
X108287Y485159D01*
X108294Y485158D01*
X108299Y485157D01*
X108317Y485156D01*
X108453Y485141D01*
X112777Y485141D01*
X112777Y463042D01*
X112780Y463022D01*
X112778Y463003D01*
X112800Y462901D01*
X112817Y462799D01*
X112826Y462782D01*
X112830Y462762D01*
X112883Y462673D01*
X112932Y462582D01*
X112946Y462568D01*
X112956Y462551D01*
X113035Y462484D01*
X113110Y462413D01*
X113128Y462404D01*
X113143Y462391D01*
X113239Y462352D01*
X113333Y462309D01*
X113353Y462307D01*
X113371Y462299D01*
X113538Y462281D01*
X114301Y462281D01*
X114301Y462279D01*
X113538Y462279D01*
X113518Y462276D01*
X113499Y462278D01*
X113397Y462256D01*
X113295Y462239D01*
X113278Y462230D01*
X113258Y462226D01*
X113169Y462173D01*
X113078Y462124D01*
X113064Y462110D01*
X113047Y462100D01*
X112980Y462021D01*
X112909Y461946D01*
X112900Y461928D01*
X112887Y461913D01*
X112848Y461817D01*
X112805Y461723D01*
X112803Y461703D01*
X112795Y461685D01*
X112777Y461518D01*
X112777Y439419D01*
X108557Y439419D01*
X108512Y439412D01*
X108466Y439414D01*
X108391Y439392D01*
X108314Y439380D01*
X108274Y439358D01*
X108230Y439345D01*
X108166Y439301D01*
X108097Y439264D01*
X108065Y439231D01*
X108028Y439205D01*
X107981Y439143D01*
X107928Y439086D01*
X107908Y439044D01*
X107881Y439008D01*
X107857Y438934D01*
X107824Y438863D01*
X107819Y438817D01*
X107805Y438774D01*
X107805Y438696D01*
X107797Y438619D01*
X107807Y438574D01*
X107807Y438528D01*
X107845Y438396D01*
X107849Y438378D01*
X107852Y438374D01*
X107854Y438367D01*
X109101Y435356D01*
X109101Y400304D01*
X107167Y395636D01*
X103856Y392324D01*
X103803Y392250D01*
X103743Y392181D01*
X103731Y392151D01*
X103712Y392124D01*
X103685Y392037D01*
X103651Y391953D01*
X103647Y391912D01*
X103640Y391889D01*
X103641Y391857D01*
X103633Y391786D01*
X103633Y327269D01*
X101390Y321855D01*
X94057Y314522D01*
X94046Y314506D01*
X94023Y314485D01*
X92795Y313085D01*
X92782Y313065D01*
X92708Y312964D01*
X90849Y309744D01*
X90843Y309729D01*
X90834Y309716D01*
X90773Y309560D01*
X89811Y305969D01*
X89808Y305945D01*
X89786Y305822D01*
X89664Y303963D01*
X89666Y303944D01*
X89663Y303913D01*
X89663Y299788D01*
X89677Y299698D01*
X89685Y299607D01*
X89697Y299577D01*
X89702Y299545D01*
X89745Y299464D01*
X89781Y299381D01*
X89807Y299348D01*
X89818Y299328D01*
X89841Y299306D01*
X89886Y299250D01*
X102244Y286891D01*
X103801Y285334D01*
X104243Y284569D01*
X104273Y284532D01*
X104296Y284490D01*
X104351Y284438D01*
X104399Y284379D01*
X104439Y284353D01*
X104474Y284320D01*
X104543Y284288D01*
X104607Y284248D01*
X104654Y284237D01*
X104697Y284217D01*
X104772Y284208D01*
X104846Y284191D01*
X104894Y284195D01*
X104941Y284190D01*
X105016Y284206D01*
X105091Y284212D01*
X105135Y284232D01*
X105182Y284242D01*
X105247Y284281D01*
X105316Y284311D01*
X105352Y284343D01*
X105393Y284368D01*
X105442Y284426D01*
X105498Y284477D01*
X105522Y284518D01*
X105553Y284555D01*
X105581Y284625D01*
X105618Y284691D01*
X105627Y284739D01*
X105645Y284783D01*
X105659Y284911D01*
X105663Y284933D01*
X105662Y284940D01*
X105663Y284950D01*
X105663Y286963D01*
X106591Y289204D01*
X107671Y290283D01*
X107697Y290320D01*
X107731Y290351D01*
X107769Y290419D01*
X107814Y290482D01*
X107828Y290526D01*
X107850Y290566D01*
X107864Y290643D01*
X107886Y290717D01*
X107885Y290763D01*
X107893Y290808D01*
X107882Y290885D01*
X107880Y290963D01*
X107864Y291006D01*
X107858Y291052D01*
X107822Y291121D01*
X107796Y291194D01*
X107767Y291230D01*
X107746Y291271D01*
X107691Y291326D01*
X107642Y291386D01*
X107603Y291411D01*
X107571Y291443D01*
X107451Y291509D01*
X107435Y291519D01*
X107430Y291521D01*
X107424Y291524D01*
X106300Y291989D01*
X103556Y294734D01*
X103482Y294787D01*
X103412Y294846D01*
X103382Y294858D01*
X103356Y294877D01*
X103269Y294904D01*
X103184Y294938D01*
X103143Y294943D01*
X103121Y294950D01*
X103089Y294949D01*
X103018Y294957D01*
X102309Y294957D01*
X98691Y296455D01*
X95922Y299224D01*
X94424Y302842D01*
X94424Y306758D01*
X95922Y310376D01*
X98691Y313145D01*
X102309Y314643D01*
X106225Y314643D01*
X109843Y313145D01*
X112612Y310376D01*
X114128Y306715D01*
X114133Y306691D01*
X114150Y306589D01*
X114159Y306572D01*
X114164Y306552D01*
X114217Y306463D01*
X114265Y306372D01*
X114279Y306358D01*
X114290Y306341D01*
X114368Y306274D01*
X114443Y306202D01*
X114461Y306194D01*
X114477Y306181D01*
X114573Y306142D01*
X114666Y306099D01*
X114686Y306097D01*
X114705Y306089D01*
X114871Y306071D01*
X115348Y306071D01*
X115442Y306086D01*
X115537Y306095D01*
X115563Y306106D01*
X115591Y306110D01*
X115675Y306155D01*
X115763Y306193D01*
X115783Y306212D01*
X115808Y306226D01*
X115874Y306295D01*
X115945Y306359D01*
X115958Y306383D01*
X115978Y306404D01*
X116018Y306490D01*
X116064Y306574D01*
X116069Y306601D01*
X116081Y306627D01*
X116092Y306722D01*
X116109Y306816D01*
X116105Y306843D01*
X116108Y306871D01*
X116088Y306965D01*
X116075Y307059D01*
X116061Y307091D01*
X116056Y307112D01*
X116041Y307137D01*
X115859Y307816D01*
X115859Y309651D01*
X123662Y309651D01*
X123681Y309654D01*
X123701Y309652D01*
X123803Y309674D01*
X123905Y309690D01*
X123922Y309700D01*
X123942Y309704D01*
X124031Y309757D01*
X124122Y309806D01*
X124136Y309820D01*
X124153Y309830D01*
X124220Y309909D01*
X124291Y309984D01*
X124300Y310002D01*
X124313Y310017D01*
X124351Y310113D01*
X124395Y310207D01*
X124397Y310227D01*
X124404Y310245D01*
X124417Y310169D01*
X124426Y310152D01*
X124430Y310132D01*
X124483Y310043D01*
X124532Y309952D01*
X124546Y309938D01*
X124556Y309921D01*
X124635Y309854D01*
X124710Y309782D01*
X124728Y309774D01*
X124743Y309761D01*
X124840Y309722D01*
X124933Y309679D01*
X124953Y309677D01*
X124971Y309669D01*
X125138Y309651D01*
X132941Y309651D01*
X132941Y307816D01*
X132768Y307169D01*
X132730Y307104D01*
X132714Y307063D01*
X132690Y307026D01*
X132671Y306948D01*
X132643Y306874D01*
X132641Y306830D01*
X132630Y306787D01*
X132637Y306708D01*
X132634Y306628D01*
X132646Y306586D01*
X132649Y306542D01*
X132681Y306469D01*
X132703Y306392D01*
X132729Y306356D01*
X132746Y306316D01*
X132837Y306202D01*
X132845Y306191D01*
X132847Y306189D01*
X132851Y306185D01*
X135481Y303555D01*
X135481Y293345D01*
X134774Y292638D01*
X134762Y292622D01*
X134746Y292610D01*
X134690Y292522D01*
X134630Y292439D01*
X134624Y292420D01*
X134613Y292403D01*
X134588Y292302D01*
X134558Y292203D01*
X134558Y292184D01*
X134553Y292164D01*
X134561Y292061D01*
X134564Y291958D01*
X134571Y291939D01*
X134572Y291919D01*
X134613Y291824D01*
X134648Y291727D01*
X134661Y291711D01*
X134669Y291693D01*
X134774Y291562D01*
X135481Y290855D01*
X135481Y280645D01*
X132851Y278015D01*
X132825Y277980D01*
X132793Y277950D01*
X132754Y277880D01*
X132707Y277816D01*
X132694Y277774D01*
X132673Y277735D01*
X132658Y277657D01*
X132635Y277581D01*
X132636Y277537D01*
X132628Y277494D01*
X132639Y277415D01*
X132641Y277335D01*
X132656Y277293D01*
X132662Y277250D01*
X132721Y277117D01*
X132725Y277104D01*
X132728Y277101D01*
X132730Y277096D01*
X132768Y277031D01*
X132941Y276384D01*
X132941Y274549D01*
X125138Y274549D01*
X125119Y274546D01*
X125099Y274548D01*
X124997Y274526D01*
X124895Y274510D01*
X124878Y274500D01*
X124858Y274496D01*
X124769Y274443D01*
X124678Y274394D01*
X124664Y274380D01*
X124647Y274370D01*
X124580Y274291D01*
X124509Y274216D01*
X124500Y274198D01*
X124487Y274183D01*
X124449Y274087D01*
X124405Y273993D01*
X124403Y273973D01*
X124395Y273955D01*
X124377Y273788D01*
X124377Y273073D01*
X123662Y273073D01*
X123642Y273070D01*
X123622Y273072D01*
X123521Y273050D01*
X123419Y273033D01*
X123402Y273024D01*
X123382Y273020D01*
X123293Y272967D01*
X123202Y272918D01*
X123188Y272904D01*
X123171Y272894D01*
X123104Y272815D01*
X123032Y272740D01*
X123024Y272722D01*
X123011Y272707D01*
X122972Y272610D01*
X122929Y272517D01*
X122927Y272497D01*
X122919Y272479D01*
X122901Y272312D01*
X122901Y267509D01*
X118618Y267509D01*
X118598Y267506D01*
X118579Y267508D01*
X118477Y267486D01*
X118375Y267470D01*
X118358Y267460D01*
X118338Y267456D01*
X118249Y267403D01*
X118158Y267354D01*
X118144Y267340D01*
X118127Y267330D01*
X118060Y267251D01*
X117988Y267176D01*
X117980Y267158D01*
X117967Y267143D01*
X117928Y267046D01*
X117885Y266953D01*
X117883Y266933D01*
X117875Y266915D01*
X117857Y266748D01*
X117857Y262802D01*
X117860Y262782D01*
X117858Y262763D01*
X117880Y262661D01*
X117896Y262559D01*
X117906Y262542D01*
X117910Y262522D01*
X117963Y262433D01*
X118012Y262342D01*
X118026Y262328D01*
X118036Y262311D01*
X118115Y262244D01*
X118190Y262172D01*
X118208Y262164D01*
X118223Y262151D01*
X118319Y262112D01*
X118413Y262069D01*
X118433Y262067D01*
X118451Y262059D01*
X118618Y262041D01*
X131955Y262041D01*
X134694Y259301D01*
X134730Y259275D01*
X134760Y259243D01*
X134829Y259204D01*
X134894Y259157D01*
X134936Y259144D01*
X134974Y259123D01*
X135053Y259108D01*
X135129Y259085D01*
X135173Y259086D01*
X135216Y259078D01*
X135295Y259089D01*
X135375Y259091D01*
X135416Y259106D01*
X135460Y259112D01*
X135593Y259171D01*
X135606Y259176D01*
X135609Y259178D01*
X135613Y259180D01*
X135869Y259328D01*
X136516Y259501D01*
X140327Y259501D01*
X140327Y252222D01*
X140330Y252202D01*
X140328Y252183D01*
X140350Y252081D01*
X140367Y251979D01*
X140376Y251962D01*
X140380Y251942D01*
X140433Y251853D01*
X140482Y251762D01*
X140496Y251748D01*
X140506Y251731D01*
X140585Y251664D01*
X140660Y251593D01*
X140678Y251584D01*
X140693Y251571D01*
X140789Y251532D01*
X140883Y251489D01*
X140903Y251487D01*
X140921Y251479D01*
X141088Y251461D01*
X141851Y251461D01*
X141851Y251459D01*
X141088Y251459D01*
X141068Y251456D01*
X141049Y251458D01*
X140947Y251436D01*
X140845Y251419D01*
X140828Y251410D01*
X140808Y251406D01*
X140719Y251353D01*
X140628Y251304D01*
X140614Y251290D01*
X140597Y251280D01*
X140530Y251201D01*
X140459Y251126D01*
X140450Y251108D01*
X140437Y251093D01*
X140398Y250997D01*
X140355Y250903D01*
X140353Y250883D01*
X140345Y250865D01*
X140327Y250698D01*
X140327Y243419D01*
X136516Y243419D01*
X135869Y243592D01*
X135613Y243740D01*
X135572Y243756D01*
X135535Y243779D01*
X135458Y243799D01*
X135383Y243827D01*
X135339Y243829D01*
X135297Y243839D01*
X135217Y243833D01*
X135138Y243836D01*
X135095Y243824D01*
X135052Y243820D01*
X134978Y243789D01*
X134902Y243766D01*
X134866Y243741D01*
X134825Y243724D01*
X134712Y243633D01*
X134700Y243625D01*
X134698Y243622D01*
X134694Y243619D01*
X131955Y240879D01*
X117745Y240879D01*
X114769Y243855D01*
X114769Y244602D01*
X114766Y244622D01*
X114768Y244641D01*
X114746Y244743D01*
X114730Y244845D01*
X114720Y244862D01*
X114716Y244882D01*
X114663Y244971D01*
X114614Y245062D01*
X114600Y245076D01*
X114590Y245093D01*
X114511Y245160D01*
X114436Y245232D01*
X114418Y245240D01*
X114403Y245253D01*
X114307Y245292D01*
X114213Y245335D01*
X114193Y245337D01*
X114175Y245345D01*
X114008Y245363D01*
X112581Y245363D01*
X112561Y245360D01*
X112542Y245362D01*
X112440Y245340D01*
X112338Y245324D01*
X112321Y245314D01*
X112301Y245310D01*
X112212Y245257D01*
X112121Y245208D01*
X112107Y245194D01*
X112090Y245184D01*
X112023Y245105D01*
X111951Y245030D01*
X111943Y245012D01*
X111930Y244997D01*
X111891Y244901D01*
X111848Y244807D01*
X111846Y244787D01*
X111838Y244769D01*
X111820Y244602D01*
X111820Y226414D01*
X111830Y226349D01*
X111831Y226284D01*
X111854Y226204D01*
X111859Y226171D01*
X111869Y226154D01*
X111878Y226123D01*
X113943Y221137D01*
X113943Y215503D01*
X112390Y211753D01*
X112379Y211709D01*
X112360Y211667D01*
X112351Y211590D01*
X112333Y211514D01*
X112338Y211468D01*
X112333Y211423D01*
X112349Y211346D01*
X112357Y211269D01*
X112375Y211227D01*
X112385Y211182D01*
X112425Y211115D01*
X112457Y211044D01*
X112488Y211010D01*
X112511Y210971D01*
X112570Y210920D01*
X112623Y210863D01*
X112663Y210841D01*
X112698Y210811D01*
X112770Y210782D01*
X112838Y210745D01*
X112884Y210736D01*
X112926Y210719D01*
X113062Y210704D01*
X113081Y210701D01*
X113086Y210702D01*
X113093Y210701D01*
X144526Y210701D01*
X149194Y208767D01*
X152412Y205550D01*
X152467Y205510D01*
X152515Y205463D01*
X152566Y205439D01*
X152612Y205406D01*
X152676Y205386D01*
X152737Y205357D01*
X152793Y205350D01*
X152847Y205334D01*
X152914Y205335D01*
X152981Y205327D01*
X153060Y205339D01*
X153093Y205340D01*
X153112Y205347D01*
X153147Y205353D01*
X155611Y206013D01*
X155625Y206019D01*
X155641Y206021D01*
X155794Y206089D01*
X158034Y207382D01*
X158052Y207397D01*
X158155Y207469D01*
X159130Y208323D01*
X159141Y208338D01*
X159166Y208357D01*
X159342Y208533D01*
X159395Y208607D01*
X159454Y208676D01*
X159466Y208706D01*
X159485Y208733D01*
X159512Y208820D01*
X159546Y208905D01*
X159551Y208945D01*
X159558Y208968D01*
X159557Y209000D01*
X159565Y209071D01*
X159565Y210000D01*
X159546Y210115D01*
X159529Y210231D01*
X159526Y210237D01*
X159525Y210243D01*
X159471Y210346D01*
X159417Y210451D01*
X159413Y210455D01*
X159410Y210460D01*
X159326Y210540D01*
X159242Y210623D01*
X159235Y210626D01*
X159232Y210630D01*
X159215Y210638D01*
X159095Y210704D01*
X156107Y211941D01*
X151641Y216407D01*
X149224Y222242D01*
X149224Y228558D01*
X150309Y231177D01*
X150318Y231212D01*
X150321Y231219D01*
X150322Y231233D01*
X150324Y231241D01*
X150349Y231302D01*
X150358Y231385D01*
X150365Y231417D01*
X150364Y231436D01*
X150367Y231469D01*
X150367Y236063D01*
X153102Y246270D01*
X158386Y255421D01*
X159943Y256978D01*
X165203Y262238D01*
X167382Y264417D01*
X167382Y264418D01*
X169450Y266485D01*
X169477Y266522D01*
X169510Y266553D01*
X169548Y266622D01*
X169593Y266685D01*
X169607Y266729D01*
X169629Y266769D01*
X169643Y266846D01*
X169666Y266920D01*
X169665Y266966D01*
X169673Y267011D01*
X169661Y267088D01*
X169659Y267166D01*
X169644Y267209D01*
X169637Y267254D01*
X169602Y267324D01*
X169575Y267397D01*
X169546Y267433D01*
X169525Y267474D01*
X169470Y267528D01*
X169421Y267589D01*
X169383Y267614D01*
X169350Y267646D01*
X169230Y267712D01*
X169214Y267722D01*
X169210Y267723D01*
X169203Y267727D01*
X166927Y268669D01*
X158639Y276957D01*
X157479Y279758D01*
X157479Y369816D01*
X158639Y372617D01*
X160783Y374761D01*
X163584Y375921D01*
X197020Y375921D01*
X197110Y375935D01*
X197201Y375943D01*
X197231Y375955D01*
X197263Y375960D01*
X197344Y376003D01*
X197427Y376039D01*
X197460Y376065D01*
X197480Y376076D01*
X197502Y376099D01*
X197558Y376144D01*
X199795Y378381D01*
X215005Y378381D01*
X217449Y375936D01*
X217504Y375896D01*
X217553Y375849D01*
X217604Y375825D01*
X217649Y375792D01*
X217714Y375772D01*
X217775Y375743D01*
X217831Y375736D01*
X217884Y375720D01*
X217952Y375722D01*
X218019Y375713D01*
X218097Y375725D01*
X218130Y375726D01*
X218150Y375733D01*
X218185Y375739D01*
X218566Y375841D01*
X222877Y375841D01*
X222877Y369062D01*
X222880Y369042D01*
X222878Y369023D01*
X222900Y368921D01*
X222917Y368819D01*
X222926Y368802D01*
X222930Y368782D01*
X222983Y368693D01*
X223032Y368602D01*
X223046Y368588D01*
X223056Y368571D01*
X223135Y368504D01*
X223210Y368433D01*
X223228Y368424D01*
X223243Y368411D01*
X223339Y368372D01*
X223433Y368329D01*
X223453Y368327D01*
X223471Y368319D01*
X223638Y368301D01*
X224401Y368301D01*
X224401Y368299D01*
X223638Y368299D01*
X223618Y368296D01*
X223599Y368298D01*
X223497Y368276D01*
X223395Y368259D01*
X223378Y368250D01*
X223358Y368246D01*
X223269Y368193D01*
X223178Y368144D01*
X223164Y368130D01*
X223147Y368120D01*
X223080Y368041D01*
X223009Y367966D01*
X223000Y367948D01*
X222987Y367933D01*
X222948Y367837D01*
X222905Y367743D01*
X222903Y367723D01*
X222895Y367705D01*
X222877Y367538D01*
X222877Y360759D01*
X218566Y360759D01*
X218185Y360861D01*
X218117Y360868D01*
X218052Y360885D01*
X217996Y360880D01*
X217940Y360886D01*
X217874Y360871D01*
X217807Y360865D01*
X217755Y360843D01*
X217700Y360831D01*
X217643Y360796D01*
X217580Y360769D01*
X217519Y360720D01*
X217491Y360702D01*
X217477Y360686D01*
X217449Y360664D01*
X215005Y358219D01*
X199795Y358219D01*
X197558Y360456D01*
X197485Y360509D01*
X197415Y360569D01*
X197385Y360581D01*
X197359Y360600D01*
X197272Y360627D01*
X197187Y360661D01*
X197146Y360665D01*
X197124Y360672D01*
X197091Y360671D01*
X197020Y360679D01*
X173482Y360679D01*
X173462Y360676D01*
X173443Y360678D01*
X173341Y360656D01*
X173239Y360640D01*
X173222Y360630D01*
X173202Y360626D01*
X173113Y360573D01*
X173022Y360524D01*
X173008Y360510D01*
X172991Y360500D01*
X172924Y360421D01*
X172852Y360346D01*
X172844Y360328D01*
X172831Y360313D01*
X172792Y360217D01*
X172749Y360123D01*
X172747Y360103D01*
X172739Y360085D01*
X172721Y359918D01*
X172721Y325036D01*
X172722Y325025D01*
X172722Y325019D01*
X172729Y324986D01*
X172732Y324965D01*
X172734Y324893D01*
X172752Y324844D01*
X172760Y324793D01*
X172794Y324730D01*
X172819Y324662D01*
X172851Y324622D01*
X172876Y324576D01*
X172928Y324526D01*
X172972Y324470D01*
X173016Y324442D01*
X173054Y324406D01*
X173119Y324376D01*
X173179Y324337D01*
X173230Y324325D01*
X173277Y324303D01*
X173348Y324295D01*
X173418Y324277D01*
X173470Y324281D01*
X173521Y324276D01*
X173592Y324291D01*
X173663Y324296D01*
X173711Y324317D01*
X173762Y324328D01*
X173823Y324365D01*
X173889Y324393D01*
X173945Y324438D01*
X173973Y324454D01*
X173988Y324472D01*
X174020Y324498D01*
X183932Y334410D01*
X186183Y336661D01*
X188984Y337821D01*
X196585Y337821D01*
X196675Y337835D01*
X196766Y337843D01*
X196796Y337855D01*
X196828Y337860D01*
X196908Y337903D01*
X196992Y337939D01*
X197025Y337965D01*
X197045Y337976D01*
X197067Y337999D01*
X197123Y338044D01*
X197624Y338545D01*
X201242Y340043D01*
X205158Y340043D01*
X208776Y338545D01*
X211545Y335776D01*
X213043Y332157D01*
X213068Y332118D01*
X213083Y332075D01*
X213132Y332014D01*
X213173Y331948D01*
X213208Y331919D01*
X213237Y331883D01*
X213303Y331841D01*
X213363Y331791D01*
X213405Y331775D01*
X213444Y331750D01*
X213520Y331731D01*
X213592Y331703D01*
X213638Y331701D01*
X213683Y331690D01*
X213760Y331696D01*
X213838Y331693D01*
X213882Y331706D01*
X213928Y331709D01*
X213999Y331740D01*
X214074Y331761D01*
X214112Y331788D01*
X214154Y331805D01*
X214261Y331891D01*
X214276Y331902D01*
X214279Y331906D01*
X214285Y331910D01*
X216805Y334431D01*
X231015Y334431D01*
X231872Y333574D01*
X231888Y333562D01*
X231900Y333546D01*
X231988Y333490D01*
X232071Y333430D01*
X232090Y333424D01*
X232107Y333413D01*
X232208Y333388D01*
X232307Y333358D01*
X232326Y333358D01*
X232346Y333353D01*
X232449Y333361D01*
X232552Y333364D01*
X232571Y333371D01*
X232591Y333372D01*
X232686Y333413D01*
X232783Y333448D01*
X232799Y333461D01*
X232817Y333469D01*
X232948Y333574D01*
X233805Y334431D01*
X248015Y334431D01*
X250752Y331694D01*
X250826Y331641D01*
X250895Y331581D01*
X250925Y331569D01*
X250951Y331550D01*
X251038Y331523D01*
X251123Y331489D01*
X251164Y331485D01*
X251186Y331478D01*
X251219Y331479D01*
X251290Y331471D01*
X268216Y331471D01*
X271017Y330311D01*
X276971Y324357D01*
X278131Y321556D01*
X278131Y292365D01*
X278145Y292275D01*
X278153Y292184D01*
X278165Y292154D01*
X278170Y292122D01*
X278213Y292042D01*
X278249Y291958D01*
X278275Y291926D01*
X278286Y291905D01*
X278309Y291883D01*
X278354Y291827D01*
X278855Y291326D01*
X280353Y287708D01*
X280353Y283792D01*
X278855Y280174D01*
X276086Y277405D01*
X274014Y276547D01*
X273931Y276496D01*
X273845Y276450D01*
X273827Y276431D01*
X273805Y276418D01*
X273743Y276343D01*
X273676Y276272D01*
X273665Y276248D01*
X273648Y276228D01*
X273613Y276137D01*
X273572Y276049D01*
X273570Y276023D01*
X273560Y275999D01*
X273556Y275901D01*
X273545Y275805D01*
X273551Y275779D01*
X273550Y275753D01*
X273577Y275659D01*
X273598Y275564D01*
X273611Y275542D01*
X273618Y275517D01*
X273674Y275437D01*
X273724Y275353D01*
X273744Y275336D01*
X273759Y275315D01*
X273837Y275256D01*
X273911Y275193D01*
X273935Y275183D01*
X273956Y275168D01*
X274048Y275138D01*
X274139Y275101D01*
X274171Y275098D01*
X274190Y275092D01*
X274223Y275092D01*
X274306Y275083D01*
X285682Y275083D01*
X285772Y275097D01*
X285863Y275105D01*
X285893Y275117D01*
X285925Y275122D01*
X286006Y275165D01*
X286089Y275201D01*
X286122Y275227D01*
X286142Y275238D01*
X286164Y275261D01*
X286220Y275306D01*
X311421Y300507D01*
X311422Y300507D01*
X312041Y301126D01*
X318896Y305084D01*
X326542Y307133D01*
X347608Y307133D01*
X348511Y306759D01*
X348574Y306744D01*
X348635Y306719D01*
X348718Y306710D01*
X348750Y306703D01*
X348769Y306704D01*
X348802Y306701D01*
X350521Y306701D01*
X350564Y306708D01*
X350608Y306706D01*
X350684Y306728D01*
X350763Y306740D01*
X350802Y306761D01*
X350844Y306773D01*
X350910Y306818D01*
X350981Y306856D01*
X351011Y306887D01*
X351047Y306912D01*
X351095Y306976D01*
X351150Y307034D01*
X351168Y307074D01*
X351195Y307109D01*
X351248Y307244D01*
X351254Y307257D01*
X351254Y307260D01*
X351256Y307265D01*
X351441Y307958D01*
X351987Y308902D01*
X352758Y309673D01*
X353702Y310218D01*
X354501Y310432D01*
X354501Y305701D01*
X354519Y305586D01*
X354537Y305470D01*
X354539Y305464D01*
X354540Y305458D01*
X354595Y305355D01*
X354648Y305251D01*
X354653Y305246D01*
X354656Y305240D01*
X354740Y305160D01*
X354824Y305078D01*
X354830Y305075D01*
X354834Y305071D01*
X354851Y305063D01*
X354970Y304997D01*
X355046Y304966D01*
X355091Y304955D01*
X355133Y304936D01*
X355210Y304927D01*
X355286Y304910D01*
X355332Y304914D01*
X355377Y304909D01*
X355453Y304925D01*
X355531Y304933D01*
X355573Y304951D01*
X355618Y304961D01*
X355685Y305001D01*
X355756Y305033D01*
X355789Y305064D01*
X355829Y305087D01*
X355879Y305146D01*
X355937Y305199D01*
X355959Y305239D01*
X355989Y305274D01*
X356018Y305346D01*
X356055Y305414D01*
X356064Y305460D01*
X356081Y305502D01*
X356096Y305638D01*
X356099Y305656D01*
X356098Y305661D01*
X356099Y305669D01*
X356099Y310432D01*
X356898Y310218D01*
X357842Y309673D01*
X358012Y309504D01*
X358028Y309492D01*
X358040Y309476D01*
X358128Y309420D01*
X358211Y309360D01*
X358231Y309354D01*
X358247Y309343D01*
X358348Y309318D01*
X358447Y309288D01*
X358467Y309288D01*
X358486Y309283D01*
X358589Y309291D01*
X358692Y309294D01*
X358711Y309301D01*
X358731Y309303D01*
X358826Y309343D01*
X358923Y309379D01*
X358939Y309391D01*
X358957Y309399D01*
X359088Y309504D01*
X359258Y309673D01*
X360202Y310218D01*
X360750Y310365D01*
X360790Y310383D01*
X360833Y310392D01*
X360901Y310433D01*
X360974Y310466D01*
X361006Y310496D01*
X361044Y310518D01*
X361096Y310579D01*
X361154Y310634D01*
X361175Y310672D01*
X361204Y310705D01*
X361234Y310780D01*
X361272Y310850D01*
X361279Y310893D01*
X361296Y310934D01*
X361312Y311078D01*
X361314Y311092D01*
X361314Y311095D01*
X361314Y311100D01*
X361314Y318890D01*
X362378Y321457D01*
X364343Y323422D01*
X366910Y324486D01*
X371873Y324486D01*
X371919Y324493D01*
X371965Y324491D01*
X372039Y324513D01*
X372116Y324525D01*
X372157Y324547D01*
X372201Y324560D01*
X372265Y324604D01*
X372334Y324641D01*
X372365Y324674D01*
X372403Y324700D01*
X372449Y324762D01*
X372503Y324819D01*
X372522Y324861D01*
X372550Y324897D01*
X372574Y324971D01*
X372607Y325042D01*
X372612Y325088D01*
X372626Y325131D01*
X372625Y325209D01*
X372634Y325286D01*
X372624Y325331D01*
X372623Y325377D01*
X372585Y325509D01*
X372581Y325527D01*
X372579Y325531D01*
X372577Y325538D01*
X371457Y328242D01*
X371457Y332158D01*
X372955Y335776D01*
X375724Y338545D01*
X379342Y340043D01*
X383258Y340043D01*
X386876Y338545D01*
X389645Y335776D01*
X391143Y332158D01*
X391143Y328242D01*
X390023Y325538D01*
X390013Y325494D01*
X389993Y325452D01*
X389985Y325375D01*
X389967Y325299D01*
X389971Y325253D01*
X389966Y325208D01*
X389983Y325131D01*
X389990Y325054D01*
X390009Y325012D01*
X390019Y324967D01*
X390059Y324900D01*
X390090Y324829D01*
X390121Y324795D01*
X390145Y324756D01*
X390204Y324705D01*
X390257Y324648D01*
X390297Y324626D01*
X390332Y324596D01*
X390404Y324567D01*
X390472Y324530D01*
X390517Y324521D01*
X390560Y324504D01*
X390696Y324489D01*
X390714Y324486D01*
X390719Y324487D01*
X390727Y324486D01*
X410108Y324486D01*
X410128Y324489D01*
X410147Y324487D01*
X410249Y324509D01*
X410351Y324525D01*
X410368Y324535D01*
X410388Y324539D01*
X410477Y324592D01*
X410568Y324641D01*
X410582Y324655D01*
X410599Y324665D01*
X410666Y324744D01*
X410738Y324819D01*
X410746Y324837D01*
X410759Y324852D01*
X410798Y324948D01*
X410841Y325042D01*
X410843Y325062D01*
X410851Y325080D01*
X410869Y325247D01*
X410869Y329158D01*
X411180Y329909D01*
X411201Y329997D01*
X411229Y330084D01*
X411229Y330117D01*
X411236Y330148D01*
X411228Y330239D01*
X411227Y330330D01*
X411216Y330370D01*
X411213Y330393D01*
X411200Y330422D01*
X411180Y330491D01*
X410869Y331242D01*
X410869Y338058D01*
X411700Y340064D01*
X411891Y340255D01*
X411944Y340329D01*
X412004Y340399D01*
X412016Y340429D01*
X412035Y340455D01*
X412062Y340542D01*
X412096Y340627D01*
X412100Y340668D01*
X412107Y340690D01*
X412106Y340722D01*
X412114Y340793D01*
X412114Y348108D01*
X412100Y348198D01*
X412092Y348289D01*
X412080Y348319D01*
X412075Y348351D01*
X412032Y348431D01*
X411996Y348515D01*
X411970Y348547D01*
X411959Y348568D01*
X411936Y348590D01*
X411891Y348646D01*
X409408Y351130D01*
X408344Y353697D01*
X408344Y369361D01*
X409408Y371929D01*
X411373Y373894D01*
X413104Y374611D01*
X413181Y374659D01*
X413263Y374700D01*
X413286Y374724D01*
X413313Y374741D01*
X413371Y374811D01*
X413435Y374876D01*
X413455Y374912D01*
X413470Y374930D01*
X413481Y374960D01*
X413516Y375023D01*
X413581Y375181D01*
X413596Y375245D01*
X413621Y375305D01*
X413630Y375388D01*
X413637Y375420D01*
X413636Y375440D01*
X413639Y375472D01*
X413639Y381448D01*
X413629Y381513D01*
X413628Y381578D01*
X413605Y381658D01*
X413600Y381691D01*
X413590Y381708D01*
X413581Y381739D01*
X412677Y383923D01*
X412677Y391911D01*
X413673Y394316D01*
X413724Y394367D01*
X413736Y394384D01*
X413752Y394396D01*
X413808Y394483D01*
X413868Y394567D01*
X413874Y394586D01*
X413885Y394603D01*
X413910Y394704D01*
X413940Y394802D01*
X413940Y394822D01*
X413945Y394842D01*
X413937Y394945D01*
X413934Y395048D01*
X413927Y395067D01*
X413926Y395087D01*
X413885Y395182D01*
X413850Y395279D01*
X413837Y395295D01*
X413829Y395313D01*
X413724Y395444D01*
X410993Y398176D01*
X409059Y402844D01*
X409059Y437388D01*
X409056Y437408D01*
X409058Y437427D01*
X409036Y437529D01*
X409020Y437631D01*
X409010Y437648D01*
X409006Y437668D01*
X408953Y437757D01*
X408904Y437848D01*
X408890Y437862D01*
X408880Y437879D01*
X408801Y437946D01*
X408726Y438018D01*
X408708Y438026D01*
X408693Y438039D01*
X408597Y438078D01*
X408503Y438121D01*
X408483Y438123D01*
X408465Y438131D01*
X408298Y438149D01*
X405383Y438149D01*
X405383Y460248D01*
X405380Y460268D01*
X405382Y460287D01*
X405360Y460389D01*
X405343Y460491D01*
X405334Y460508D01*
X405330Y460528D01*
X405277Y460617D01*
X405228Y460708D01*
X405214Y460722D01*
X405204Y460739D01*
X405125Y460806D01*
X405050Y460877D01*
X405032Y460886D01*
X405017Y460899D01*
X404921Y460938D01*
X404827Y460981D01*
X404807Y460983D01*
X404789Y460991D01*
X404622Y461009D01*
X403859Y461009D01*
X403859Y461011D01*
X404622Y461011D01*
X404642Y461014D01*
X404661Y461012D01*
X404763Y461034D01*
X404865Y461051D01*
X404882Y461060D01*
X404902Y461064D01*
X404991Y461117D01*
X405082Y461166D01*
X405096Y461180D01*
X405113Y461190D01*
X405180Y461269D01*
X405251Y461344D01*
X405260Y461362D01*
X405273Y461377D01*
X405312Y461473D01*
X405355Y461567D01*
X405357Y461587D01*
X405365Y461605D01*
X405383Y461772D01*
X405383Y483871D01*
X409707Y483871D01*
X409821Y483890D01*
X409938Y483907D01*
X409943Y483909D01*
X409949Y483910D01*
X410052Y483965D01*
X410157Y484018D01*
X410161Y484023D01*
X410167Y484026D01*
X410247Y484110D01*
X410329Y484194D01*
X410333Y484200D01*
X410336Y484204D01*
X410344Y484221D01*
X410410Y484341D01*
X412143Y488524D01*
X415716Y492097D01*
X420384Y494031D01*
X438136Y494031D01*
X442804Y492097D01*
X446377Y488524D01*
X448110Y484341D01*
X448172Y484241D01*
X448232Y484141D01*
X448236Y484137D01*
X448240Y484132D01*
X448329Y484057D01*
X448419Y483981D01*
X448424Y483979D01*
X448429Y483975D01*
X448537Y483933D01*
X448647Y483889D01*
X448654Y483888D01*
X448659Y483887D01*
X448677Y483886D01*
X448813Y483871D01*
X453137Y483871D01*
X453137Y461772D01*
X453140Y461752D01*
X453138Y461733D01*
X453160Y461631D01*
X453177Y461529D01*
X453186Y461512D01*
X453190Y461492D01*
X453243Y461403D01*
X453292Y461312D01*
X453306Y461298D01*
X453316Y461281D01*
X453395Y461214D01*
X453470Y461143D01*
X453488Y461134D01*
X453503Y461121D01*
X453599Y461082D01*
X453693Y461039D01*
X453713Y461037D01*
X453731Y461029D01*
X453898Y461011D01*
X454661Y461011D01*
X454661Y461009D01*
X453898Y461009D01*
X453878Y461006D01*
X453859Y461008D01*
X453757Y460986D01*
X453655Y460969D01*
X453638Y460960D01*
X453618Y460956D01*
X453529Y460903D01*
X453438Y460854D01*
X453424Y460840D01*
X453407Y460830D01*
X453340Y460751D01*
X453269Y460676D01*
X453260Y460658D01*
X453247Y460643D01*
X453208Y460547D01*
X453165Y460453D01*
X453163Y460433D01*
X453155Y460415D01*
X453137Y460248D01*
X453137Y438149D01*
X450222Y438149D01*
X450202Y438146D01*
X450183Y438148D01*
X450081Y438126D01*
X449979Y438110D01*
X449962Y438100D01*
X449942Y438096D01*
X449853Y438043D01*
X449762Y437994D01*
X449748Y437980D01*
X449731Y437970D01*
X449664Y437891D01*
X449592Y437816D01*
X449584Y437798D01*
X449571Y437783D01*
X449532Y437687D01*
X449489Y437593D01*
X449487Y437573D01*
X449479Y437555D01*
X449461Y437388D01*
X449461Y415686D01*
X449471Y415622D01*
X449472Y415556D01*
X449495Y415476D01*
X449500Y415443D01*
X449510Y415426D01*
X449519Y415395D01*
X449671Y415028D01*
X449671Y408712D01*
X449519Y408345D01*
X449504Y408281D01*
X449479Y408220D01*
X449470Y408138D01*
X449463Y408106D01*
X449464Y408086D01*
X449461Y408054D01*
X449461Y402844D01*
X447527Y398176D01*
X444176Y394824D01*
X444123Y394750D01*
X444063Y394681D01*
X444051Y394651D01*
X444032Y394624D01*
X444005Y394537D01*
X443971Y394453D01*
X443967Y394412D01*
X443960Y394389D01*
X443961Y394357D01*
X443953Y394286D01*
X443953Y384986D01*
X443441Y383751D01*
X443426Y383688D01*
X443402Y383627D01*
X443393Y383544D01*
X443385Y383512D01*
X443387Y383493D01*
X443383Y383460D01*
X443383Y382407D01*
X441227Y377202D01*
X440027Y376002D01*
X439959Y375907D01*
X439889Y375813D01*
X439887Y375807D01*
X439884Y375802D01*
X439849Y375691D01*
X439813Y375579D01*
X439813Y375573D01*
X439811Y375567D01*
X439814Y375450D01*
X439815Y375333D01*
X439818Y375326D01*
X439818Y375321D01*
X439824Y375304D01*
X439862Y375172D01*
X440763Y372997D01*
X440763Y365009D01*
X439767Y362604D01*
X437926Y360763D01*
X435522Y359767D01*
X435119Y359767D01*
X435048Y359756D01*
X434976Y359754D01*
X434927Y359736D01*
X434876Y359728D01*
X434812Y359694D01*
X434745Y359669D01*
X434704Y359637D01*
X434658Y359612D01*
X434609Y359560D01*
X434553Y359516D01*
X434525Y359472D01*
X434489Y359434D01*
X434459Y359369D01*
X434420Y359309D01*
X434407Y359258D01*
X434385Y359211D01*
X434378Y359140D01*
X434360Y359070D01*
X434364Y359018D01*
X434358Y358967D01*
X434374Y358896D01*
X434379Y358825D01*
X434400Y358777D01*
X434411Y358726D01*
X434447Y358665D01*
X434475Y358599D01*
X434520Y358543D01*
X434537Y358515D01*
X434554Y358500D01*
X434580Y358468D01*
X435147Y357901D01*
X442544Y350504D01*
X442618Y350451D01*
X442688Y350391D01*
X442718Y350379D01*
X442744Y350360D01*
X442831Y350333D01*
X442916Y350299D01*
X442957Y350295D01*
X442979Y350288D01*
X443011Y350289D01*
X443083Y350281D01*
X454105Y350281D01*
X457081Y347305D01*
X457081Y340351D01*
X457100Y340237D01*
X457117Y340120D01*
X457119Y340115D01*
X457120Y340109D01*
X457175Y340006D01*
X457228Y339901D01*
X457233Y339897D01*
X457236Y339891D01*
X457320Y339811D01*
X457404Y339729D01*
X457410Y339725D01*
X457414Y339722D01*
X457431Y339714D01*
X457551Y339648D01*
X459194Y338967D01*
X462767Y335394D01*
X464701Y330726D01*
X464701Y312674D01*
X462767Y308006D01*
X459456Y304694D01*
X459403Y304620D01*
X459343Y304551D01*
X459331Y304521D01*
X459312Y304494D01*
X459285Y304407D01*
X459251Y304323D01*
X459247Y304282D01*
X459240Y304259D01*
X459241Y304227D01*
X459233Y304156D01*
X459233Y293381D01*
X459244Y293310D01*
X459246Y293239D01*
X459264Y293190D01*
X459272Y293138D01*
X459306Y293075D01*
X459331Y293008D01*
X459363Y292967D01*
X459388Y292921D01*
X459440Y292871D01*
X459484Y292815D01*
X459528Y292787D01*
X459566Y292751D01*
X459631Y292721D01*
X459691Y292682D01*
X459742Y292670D01*
X459789Y292648D01*
X459860Y292640D01*
X459930Y292622D01*
X459982Y292626D01*
X460033Y292621D01*
X460104Y292636D01*
X460175Y292642D01*
X460223Y292662D01*
X460274Y292673D01*
X460335Y292710D01*
X460401Y292738D01*
X460457Y292783D01*
X460485Y292799D01*
X460500Y292817D01*
X460532Y292843D01*
X461784Y294095D01*
X465402Y295593D01*
X467614Y295593D01*
X467634Y295596D01*
X467653Y295594D01*
X467755Y295616D01*
X467857Y295633D01*
X467874Y295642D01*
X467894Y295647D01*
X467983Y295700D01*
X468074Y295748D01*
X468088Y295762D01*
X468105Y295773D01*
X468172Y295851D01*
X468244Y295926D01*
X468252Y295944D01*
X468265Y295960D01*
X468304Y296056D01*
X468347Y296149D01*
X468349Y296169D01*
X468357Y296188D01*
X468375Y296354D01*
X468375Y303349D01*
X471156Y306129D01*
X471182Y306165D01*
X471214Y306195D01*
X471253Y306265D01*
X471300Y306329D01*
X471313Y306371D01*
X471334Y306409D01*
X471349Y306488D01*
X471372Y306564D01*
X471371Y306608D01*
X471379Y306651D01*
X471368Y306730D01*
X471366Y306810D01*
X471351Y306851D01*
X471345Y306895D01*
X471286Y307028D01*
X471281Y307041D01*
X471279Y307044D01*
X471277Y307048D01*
X471088Y307375D01*
X470915Y308022D01*
X470915Y309754D01*
X482727Y309754D01*
X482746Y309757D01*
X482766Y309755D01*
X482868Y309777D01*
X482970Y309793D01*
X482987Y309803D01*
X483007Y309807D01*
X483096Y309860D01*
X483187Y309909D01*
X483201Y309923D01*
X483218Y309933D01*
X483285Y310012D01*
X483356Y310087D01*
X483365Y310105D01*
X483378Y310120D01*
X483416Y310216D01*
X483460Y310310D01*
X483462Y310330D01*
X483470Y310348D01*
X483488Y310515D01*
X483488Y311024D01*
X483997Y311024D01*
X484017Y311027D01*
X484036Y311025D01*
X484138Y311047D01*
X484240Y311064D01*
X484257Y311073D01*
X484277Y311077D01*
X484366Y311130D01*
X484457Y311179D01*
X484471Y311193D01*
X484488Y311203D01*
X484555Y311282D01*
X484627Y311357D01*
X484635Y311375D01*
X484648Y311390D01*
X484687Y311487D01*
X484730Y311580D01*
X484732Y311600D01*
X484740Y311618D01*
X484758Y311785D01*
X484758Y316485D01*
X493602Y316485D01*
X494249Y316312D01*
X494828Y315977D01*
X495301Y315504D01*
X495316Y315479D01*
X495392Y315386D01*
X495465Y315294D01*
X495469Y315291D01*
X495472Y315288D01*
X495572Y315225D01*
X495672Y315161D01*
X495676Y315160D01*
X495680Y315157D01*
X495796Y315129D01*
X495911Y315101D01*
X495915Y315101D01*
X495919Y315100D01*
X496039Y315111D01*
X496156Y315120D01*
X496160Y315121D01*
X496164Y315122D01*
X496274Y315170D01*
X496382Y315216D01*
X496386Y315219D01*
X496389Y315220D01*
X496399Y315230D01*
X496513Y315321D01*
X498717Y317524D01*
X499880Y318687D01*
X503147Y320041D01*
X519430Y320041D01*
X519450Y320044D01*
X519469Y320042D01*
X519571Y320064D01*
X519673Y320080D01*
X519690Y320090D01*
X519710Y320094D01*
X519799Y320147D01*
X519890Y320196D01*
X519904Y320210D01*
X519921Y320220D01*
X519988Y320299D01*
X520060Y320374D01*
X520068Y320392D01*
X520081Y320407D01*
X520120Y320503D01*
X520163Y320597D01*
X520165Y320617D01*
X520173Y320635D01*
X520191Y320802D01*
X520191Y322454D01*
X532003Y322454D01*
X532022Y322457D01*
X532042Y322455D01*
X532144Y322477D01*
X532246Y322493D01*
X532263Y322503D01*
X532283Y322507D01*
X532372Y322560D01*
X532463Y322609D01*
X532477Y322623D01*
X532494Y322633D01*
X532561Y322712D01*
X532632Y322787D01*
X532640Y322804D01*
X532667Y322755D01*
X532681Y322741D01*
X532691Y322724D01*
X532770Y322657D01*
X532845Y322585D01*
X532863Y322577D01*
X532878Y322564D01*
X532975Y322525D01*
X533068Y322482D01*
X533088Y322480D01*
X533106Y322472D01*
X533273Y322454D01*
X545085Y322454D01*
X545085Y320722D01*
X544912Y320075D01*
X544723Y319748D01*
X544707Y319707D01*
X544684Y319670D01*
X544664Y319593D01*
X544636Y319518D01*
X544634Y319474D01*
X544624Y319432D01*
X544630Y319352D01*
X544627Y319273D01*
X544639Y319230D01*
X544643Y319187D01*
X544674Y319113D01*
X544697Y319037D01*
X544722Y319001D01*
X544739Y318960D01*
X544830Y318847D01*
X544838Y318835D01*
X544841Y318833D01*
X544844Y318829D01*
X547625Y316049D01*
X547625Y306251D01*
X544844Y303471D01*
X544818Y303435D01*
X544786Y303405D01*
X544747Y303336D01*
X544700Y303271D01*
X544687Y303229D01*
X544666Y303191D01*
X544651Y303112D01*
X544628Y303036D01*
X544629Y302992D01*
X544621Y302949D01*
X544632Y302870D01*
X544634Y302790D01*
X544649Y302749D01*
X544655Y302705D01*
X544714Y302572D01*
X544719Y302559D01*
X544721Y302556D01*
X544723Y302552D01*
X544912Y302225D01*
X545085Y301578D01*
X545085Y299846D01*
X533273Y299846D01*
X533254Y299843D01*
X533234Y299845D01*
X533132Y299823D01*
X533030Y299807D01*
X533013Y299797D01*
X532993Y299793D01*
X532904Y299740D01*
X532813Y299691D01*
X532799Y299677D01*
X532782Y299667D01*
X532715Y299588D01*
X532644Y299513D01*
X532636Y299495D01*
X532609Y299545D01*
X532595Y299559D01*
X532585Y299576D01*
X532506Y299643D01*
X532431Y299715D01*
X532413Y299723D01*
X532398Y299736D01*
X532301Y299775D01*
X532208Y299818D01*
X532188Y299820D01*
X532170Y299828D01*
X532003Y299846D01*
X520191Y299846D01*
X520191Y301498D01*
X520188Y301518D01*
X520190Y301537D01*
X520168Y301639D01*
X520152Y301741D01*
X520142Y301758D01*
X520138Y301778D01*
X520085Y301867D01*
X520036Y301958D01*
X520022Y301972D01*
X520012Y301989D01*
X519933Y302056D01*
X519858Y302128D01*
X519840Y302136D01*
X519825Y302149D01*
X519729Y302188D01*
X519635Y302231D01*
X519615Y302233D01*
X519597Y302241D01*
X519430Y302259D01*
X513298Y302259D01*
X513278Y302256D01*
X513258Y302258D01*
X513157Y302236D01*
X513055Y302220D01*
X513038Y302210D01*
X513018Y302206D01*
X512929Y302153D01*
X512838Y302104D01*
X512824Y302090D01*
X512807Y302080D01*
X512740Y302001D01*
X512668Y301926D01*
X512660Y301908D01*
X512647Y301893D01*
X512608Y301797D01*
X512565Y301703D01*
X512563Y301683D01*
X512555Y301665D01*
X512537Y301498D01*
X512537Y277632D01*
X511183Y274364D01*
X470582Y233763D01*
X467314Y232409D01*
X441452Y232409D01*
X441432Y232406D01*
X441413Y232408D01*
X441311Y232386D01*
X441209Y232370D01*
X441192Y232360D01*
X441172Y232356D01*
X441083Y232303D01*
X440992Y232254D01*
X440978Y232240D01*
X440961Y232230D01*
X440894Y232151D01*
X440822Y232076D01*
X440814Y232058D01*
X440801Y232043D01*
X440762Y231947D01*
X440719Y231853D01*
X440717Y231833D01*
X440709Y231815D01*
X440691Y231648D01*
X440691Y227242D01*
X440694Y227222D01*
X440692Y227203D01*
X440714Y227101D01*
X440730Y226999D01*
X440740Y226982D01*
X440744Y226962D01*
X440797Y226873D01*
X440846Y226782D01*
X440860Y226768D01*
X440870Y226751D01*
X440949Y226684D01*
X441024Y226612D01*
X441042Y226604D01*
X441057Y226591D01*
X441153Y226552D01*
X441247Y226509D01*
X441267Y226507D01*
X441285Y226499D01*
X441452Y226481D01*
X443105Y226481D01*
X443962Y225624D01*
X443978Y225612D01*
X443990Y225596D01*
X444078Y225540D01*
X444161Y225480D01*
X444180Y225474D01*
X444197Y225463D01*
X444298Y225438D01*
X444397Y225408D01*
X444416Y225408D01*
X444436Y225403D01*
X444539Y225411D01*
X444642Y225414D01*
X444661Y225421D01*
X444681Y225422D01*
X444776Y225463D01*
X444873Y225498D01*
X444889Y225511D01*
X444907Y225519D01*
X445038Y225624D01*
X445895Y226481D01*
X460105Y226481D01*
X461962Y224624D01*
X462035Y224571D01*
X462105Y224511D01*
X462135Y224499D01*
X462161Y224480D01*
X462248Y224453D01*
X462333Y224419D01*
X462374Y224415D01*
X462396Y224408D01*
X462429Y224409D01*
X462500Y224401D01*
X549148Y224401D01*
X549168Y224404D01*
X549187Y224402D01*
X549289Y224424D01*
X549391Y224440D01*
X549408Y224450D01*
X549428Y224454D01*
X549517Y224507D01*
X549608Y224556D01*
X549622Y224570D01*
X549639Y224580D01*
X549706Y224659D01*
X549778Y224734D01*
X549786Y224752D01*
X549799Y224767D01*
X549838Y224863D01*
X549881Y224957D01*
X549883Y224977D01*
X549891Y224995D01*
X549909Y225162D01*
X549909Y275402D01*
X549895Y275492D01*
X549887Y275583D01*
X549875Y275613D01*
X549870Y275645D01*
X549827Y275725D01*
X549791Y275809D01*
X549765Y275841D01*
X549754Y275862D01*
X549731Y275884D01*
X549686Y275940D01*
X548990Y276636D01*
X548916Y276689D01*
X548847Y276749D01*
X548817Y276761D01*
X548791Y276780D01*
X548704Y276807D01*
X548619Y276841D01*
X548578Y276845D01*
X548555Y276852D01*
X548523Y276851D01*
X548452Y276859D01*
X530870Y276859D01*
X528557Y277817D01*
X528493Y277832D01*
X528432Y277857D01*
X528349Y277866D01*
X528317Y277873D01*
X528298Y277872D01*
X528265Y277875D01*
X520627Y277875D01*
X517651Y280851D01*
X517651Y290649D01*
X520432Y293429D01*
X520458Y293465D01*
X520490Y293495D01*
X520529Y293564D01*
X520576Y293629D01*
X520589Y293671D01*
X520610Y293709D01*
X520625Y293788D01*
X520648Y293864D01*
X520647Y293908D01*
X520655Y293951D01*
X520644Y294030D01*
X520642Y294110D01*
X520627Y294151D01*
X520621Y294195D01*
X520562Y294328D01*
X520557Y294341D01*
X520555Y294344D01*
X520553Y294348D01*
X520364Y294675D01*
X520191Y295322D01*
X520191Y297054D01*
X532003Y297054D01*
X532022Y297057D01*
X532042Y297055D01*
X532144Y297077D01*
X532246Y297093D01*
X532263Y297103D01*
X532283Y297107D01*
X532372Y297160D01*
X532463Y297209D01*
X532477Y297223D01*
X532494Y297233D01*
X532561Y297312D01*
X532632Y297387D01*
X532640Y297404D01*
X532667Y297355D01*
X532681Y297341D01*
X532691Y297324D01*
X532770Y297257D01*
X532845Y297185D01*
X532863Y297177D01*
X532878Y297164D01*
X532975Y297125D01*
X533068Y297082D01*
X533088Y297080D01*
X533106Y297072D01*
X533273Y297054D01*
X545085Y297054D01*
X545085Y295402D01*
X545088Y295382D01*
X545086Y295363D01*
X545108Y295261D01*
X545124Y295159D01*
X545134Y295142D01*
X545138Y295122D01*
X545191Y295033D01*
X545240Y294942D01*
X545254Y294928D01*
X545264Y294911D01*
X545343Y294844D01*
X545418Y294772D01*
X545436Y294764D01*
X545451Y294751D01*
X545547Y294712D01*
X545641Y294669D01*
X545661Y294667D01*
X545679Y294659D01*
X545846Y294641D01*
X554218Y294641D01*
X557486Y293287D01*
X566337Y284436D01*
X567691Y281168D01*
X567691Y220092D01*
X567706Y220002D01*
X567709Y219957D01*
X567709Y219955D01*
X567709Y219954D01*
X567713Y219910D01*
X567725Y219881D01*
X567730Y219850D01*
X567751Y219811D01*
X567756Y219794D01*
X568151Y218840D01*
X568159Y218826D01*
X568226Y218701D01*
X568725Y217974D01*
X568933Y216986D01*
X568943Y216959D01*
X568974Y216852D01*
X569361Y215920D01*
X569361Y215038D01*
X569363Y215023D01*
X569377Y214881D01*
X569559Y214019D01*
X569374Y213027D01*
X569373Y212998D01*
X569361Y212887D01*
X569361Y100886D01*
X569375Y100796D01*
X569383Y100705D01*
X569395Y100675D01*
X569400Y100643D01*
X569443Y100562D01*
X569479Y100479D01*
X569505Y100446D01*
X569516Y100426D01*
X569539Y100404D01*
X569584Y100348D01*
X572766Y97165D01*
X574348Y93347D01*
X574386Y93286D01*
X574415Y93221D01*
X574450Y93182D01*
X574477Y93138D01*
X574533Y93092D01*
X574581Y93040D01*
X574627Y93014D01*
X574667Y92981D01*
X574734Y92956D01*
X574797Y92921D01*
X574848Y92912D01*
X574897Y92893D01*
X574968Y92890D01*
X575039Y92877D01*
X575090Y92885D01*
X575142Y92883D01*
X575211Y92903D01*
X575282Y92913D01*
X575329Y92937D01*
X575378Y92951D01*
X575437Y92992D01*
X575501Y93025D01*
X575538Y93062D01*
X575581Y93091D01*
X575623Y93149D01*
X575674Y93200D01*
X575708Y93263D01*
X575727Y93289D01*
X575735Y93311D01*
X575754Y93347D01*
X575883Y93657D01*
X578643Y96417D01*
X582249Y97911D01*
X586151Y97911D01*
X589757Y96417D01*
X592517Y93657D01*
X592646Y93347D01*
X592683Y93286D01*
X592713Y93221D01*
X592748Y93182D01*
X592775Y93138D01*
X592830Y93092D01*
X592879Y93040D01*
X592925Y93014D01*
X592965Y92981D01*
X593032Y92956D01*
X593094Y92921D01*
X593146Y92912D01*
X593194Y92893D01*
X593266Y92890D01*
X593336Y92877D01*
X593388Y92885D01*
X593440Y92883D01*
X593509Y92903D01*
X593580Y92913D01*
X593626Y92937D01*
X593676Y92951D01*
X593735Y92992D01*
X593799Y93025D01*
X593836Y93062D01*
X593878Y93091D01*
X593921Y93149D01*
X593971Y93200D01*
X594006Y93263D01*
X594025Y93289D01*
X594032Y93311D01*
X594052Y93347D01*
X595634Y97165D01*
X600135Y101666D01*
X600474Y101807D01*
X600574Y101868D01*
X600674Y101928D01*
X600678Y101933D01*
X600683Y101937D01*
X600758Y102026D01*
X600834Y102115D01*
X600836Y102121D01*
X600840Y102126D01*
X600882Y102234D01*
X600926Y102344D01*
X600927Y102351D01*
X600928Y102356D01*
X600929Y102374D01*
X600944Y102510D01*
X600944Y121058D01*
X600942Y121072D01*
X600943Y121083D01*
X600934Y121127D01*
X600933Y121188D01*
X600910Y121268D01*
X600905Y121301D01*
X600895Y121318D01*
X600886Y121349D01*
X599357Y125042D01*
X599357Y128958D01*
X600855Y132576D01*
X603624Y135345D01*
X607242Y136843D01*
X611158Y136843D01*
X614776Y135345D01*
X617545Y132576D01*
X619043Y128958D01*
X619043Y125042D01*
X617514Y121349D01*
X617499Y121286D01*
X617474Y121225D01*
X617465Y121142D01*
X617458Y121110D01*
X617459Y121091D01*
X617456Y121058D01*
X617456Y102510D01*
X617475Y102395D01*
X617492Y102279D01*
X617494Y102274D01*
X617495Y102268D01*
X617550Y102165D01*
X617603Y102060D01*
X617608Y102056D01*
X617611Y102050D01*
X617695Y101970D01*
X617779Y101888D01*
X617785Y101884D01*
X617789Y101881D01*
X617806Y101873D01*
X617926Y101807D01*
X618265Y101666D01*
X621162Y98770D01*
X621178Y98758D01*
X621190Y98742D01*
X621278Y98686D01*
X621361Y98626D01*
X621380Y98620D01*
X621397Y98609D01*
X621498Y98584D01*
X621597Y98554D01*
X621616Y98554D01*
X621636Y98549D01*
X621739Y98557D01*
X621842Y98560D01*
X621861Y98567D01*
X621881Y98568D01*
X621976Y98609D01*
X622073Y98644D01*
X622089Y98657D01*
X622107Y98665D01*
X622238Y98770D01*
X625135Y101666D01*
X631017Y104103D01*
X637383Y104103D01*
X643265Y101666D01*
X647766Y97165D01*
X650203Y91283D01*
X650203Y84917D01*
X647766Y79035D01*
X643265Y74534D01*
X637383Y72097D01*
X631017Y72097D01*
X625135Y74534D01*
X622238Y77430D01*
X622222Y77442D01*
X622210Y77458D01*
X622148Y77497D01*
X622096Y77542D01*
X622067Y77553D01*
X622039Y77574D01*
X622020Y77580D01*
X622003Y77591D01*
X621928Y77610D01*
X621868Y77634D01*
X621832Y77638D01*
X621803Y77646D01*
X621784Y77646D01*
X621764Y77651D01*
X621734Y77648D01*
X621701Y77652D01*
X621699Y77652D01*
X621638Y77642D01*
X621558Y77640D01*
X621539Y77633D01*
X621519Y77632D01*
X621485Y77617D01*
X621456Y77612D01*
X621398Y77582D01*
X621327Y77556D01*
X621311Y77543D01*
X621293Y77535D01*
X621258Y77508D01*
X621238Y77497D01*
X621217Y77475D01*
X621162Y77430D01*
X618265Y74534D01*
X612383Y72097D01*
X606017Y72097D01*
X600135Y74534D01*
X595634Y79035D01*
X594052Y82853D01*
X594014Y82914D01*
X593985Y82979D01*
X593950Y83018D01*
X593923Y83062D01*
X593867Y83108D01*
X593819Y83160D01*
X593773Y83186D01*
X593733Y83219D01*
X593666Y83244D01*
X593603Y83279D01*
X593552Y83288D01*
X593503Y83307D01*
X593432Y83310D01*
X593361Y83323D01*
X593310Y83315D01*
X593258Y83317D01*
X593189Y83297D01*
X593118Y83287D01*
X593071Y83263D01*
X593022Y83249D01*
X592963Y83208D01*
X592899Y83175D01*
X592862Y83138D01*
X592819Y83109D01*
X592777Y83051D01*
X592726Y83000D01*
X592692Y82937D01*
X592673Y82911D01*
X592665Y82889D01*
X592646Y82853D01*
X592517Y82543D01*
X589757Y79783D01*
X586151Y78289D01*
X582249Y78289D01*
X578643Y79783D01*
X575883Y82543D01*
X575754Y82853D01*
X575717Y82914D01*
X575687Y82979D01*
X575652Y83018D01*
X575625Y83062D01*
X575570Y83108D01*
X575521Y83160D01*
X575475Y83186D01*
X575435Y83219D01*
X575368Y83244D01*
X575306Y83279D01*
X575254Y83288D01*
X575206Y83307D01*
X575134Y83310D01*
X575064Y83323D01*
X575012Y83315D01*
X574960Y83317D01*
X574891Y83297D01*
X574820Y83287D01*
X574774Y83263D01*
X574724Y83249D01*
X574665Y83208D01*
X574601Y83175D01*
X574564Y83138D01*
X574522Y83109D01*
X574479Y83051D01*
X574429Y83000D01*
X574394Y82937D01*
X574375Y82911D01*
X574368Y82889D01*
X574348Y82853D01*
X572766Y79035D01*
X568265Y74534D01*
X562383Y72097D01*
X556017Y72097D01*
X550135Y74534D01*
X547238Y77430D01*
X547222Y77442D01*
X547210Y77458D01*
X547148Y77497D01*
X547096Y77542D01*
X547067Y77553D01*
X547039Y77574D01*
X547020Y77580D01*
X547003Y77591D01*
X546928Y77610D01*
X546868Y77634D01*
X546832Y77637D01*
X546803Y77646D01*
X546784Y77646D01*
X546764Y77651D01*
X546734Y77648D01*
X546701Y77652D01*
X546699Y77652D01*
X546638Y77642D01*
X546558Y77640D01*
X546539Y77633D01*
X546519Y77632D01*
X546485Y77617D01*
X546456Y77612D01*
X546398Y77582D01*
X546327Y77556D01*
X546311Y77543D01*
X546293Y77535D01*
X546258Y77508D01*
X546238Y77497D01*
X546217Y77475D01*
X546162Y77430D01*
X543265Y74534D01*
X537383Y72097D01*
X531017Y72097D01*
X525135Y74534D01*
X520634Y79035D01*
X518197Y84917D01*
X518197Y91283D01*
X520634Y97165D01*
X525135Y101666D01*
X531017Y104103D01*
X537383Y104103D01*
X543265Y101666D01*
X546162Y98770D01*
X546178Y98758D01*
X546190Y98742D01*
X546278Y98686D01*
X546361Y98626D01*
X546380Y98620D01*
X546397Y98609D01*
X546498Y98584D01*
X546597Y98554D01*
X546616Y98554D01*
X546636Y98549D01*
X546739Y98557D01*
X546842Y98560D01*
X546861Y98567D01*
X546881Y98568D01*
X546976Y98609D01*
X547073Y98644D01*
X547089Y98657D01*
X547107Y98665D01*
X547238Y98770D01*
X548816Y100348D01*
X548869Y100422D01*
X548929Y100491D01*
X548941Y100521D01*
X548960Y100547D01*
X548987Y100635D01*
X549021Y100719D01*
X549025Y100760D01*
X549032Y100782D01*
X549031Y100815D01*
X549039Y100886D01*
X549039Y203318D01*
X549036Y203338D01*
X549038Y203357D01*
X549016Y203459D01*
X549000Y203561D01*
X548990Y203578D01*
X548986Y203598D01*
X548933Y203687D01*
X548884Y203778D01*
X548870Y203792D01*
X548860Y203809D01*
X548781Y203876D01*
X548706Y203948D01*
X548688Y203956D01*
X548673Y203969D01*
X548577Y204008D01*
X548483Y204051D01*
X548463Y204053D01*
X548445Y204061D01*
X548278Y204079D01*
X452639Y204079D01*
X449785Y205261D01*
X449721Y205276D01*
X449661Y205301D01*
X449578Y205310D01*
X449546Y205317D01*
X449526Y205316D01*
X449494Y205319D01*
X445895Y205319D01*
X445038Y206176D01*
X445022Y206188D01*
X445010Y206204D01*
X444922Y206260D01*
X444839Y206320D01*
X444820Y206326D01*
X444803Y206337D01*
X444702Y206362D01*
X444603Y206392D01*
X444584Y206392D01*
X444564Y206397D01*
X444461Y206389D01*
X444358Y206386D01*
X444339Y206379D01*
X444319Y206378D01*
X444224Y206337D01*
X444127Y206302D01*
X444111Y206289D01*
X444093Y206281D01*
X443962Y206176D01*
X443105Y205319D01*
X428895Y205319D01*
X428698Y205516D01*
X428625Y205569D01*
X428555Y205629D01*
X428525Y205641D01*
X428499Y205660D01*
X428412Y205687D01*
X428327Y205721D01*
X428286Y205725D01*
X428264Y205732D01*
X428231Y205731D01*
X428160Y205739D01*
X410040Y205739D01*
X409950Y205725D01*
X409859Y205717D01*
X409829Y205705D01*
X409797Y205700D01*
X409716Y205657D01*
X409633Y205621D01*
X409600Y205595D01*
X409580Y205584D01*
X409558Y205561D01*
X409502Y205516D01*
X409305Y205319D01*
X395095Y205319D01*
X394238Y206176D01*
X394222Y206188D01*
X394210Y206204D01*
X394122Y206260D01*
X394039Y206320D01*
X394020Y206326D01*
X394003Y206337D01*
X393902Y206362D01*
X393803Y206392D01*
X393784Y206392D01*
X393764Y206397D01*
X393661Y206389D01*
X393558Y206386D01*
X393539Y206379D01*
X393519Y206378D01*
X393424Y206337D01*
X393327Y206302D01*
X393311Y206289D01*
X393293Y206281D01*
X393162Y206176D01*
X392305Y205319D01*
X378095Y205319D01*
X375358Y208056D01*
X375285Y208109D01*
X375215Y208169D01*
X375185Y208181D01*
X375159Y208200D01*
X375072Y208227D01*
X374987Y208261D01*
X374946Y208265D01*
X374924Y208272D01*
X374891Y208271D01*
X374820Y208279D01*
X374554Y208279D01*
X371753Y209439D01*
X368339Y212853D01*
X367179Y215654D01*
X367179Y247870D01*
X367172Y247913D01*
X367174Y247957D01*
X367152Y248034D01*
X367140Y248113D01*
X367119Y248151D01*
X367107Y248193D01*
X367062Y248259D01*
X367024Y248330D01*
X366993Y248360D01*
X366968Y248396D01*
X366929Y248425D01*
X366924Y248432D01*
X366892Y248456D01*
X366846Y248499D01*
X366810Y248516D01*
X366789Y248532D01*
X366786Y248534D01*
X366772Y248544D01*
X366759Y248549D01*
X365758Y249127D01*
X365588Y249296D01*
X365572Y249308D01*
X365560Y249324D01*
X365472Y249380D01*
X365389Y249440D01*
X365369Y249446D01*
X365353Y249457D01*
X365252Y249482D01*
X365153Y249512D01*
X365133Y249512D01*
X365114Y249517D01*
X365011Y249509D01*
X364908Y249506D01*
X364889Y249499D01*
X364869Y249497D01*
X364774Y249457D01*
X364677Y249421D01*
X364661Y249409D01*
X364643Y249401D01*
X364512Y249296D01*
X364342Y249127D01*
X363398Y248582D01*
X362599Y248368D01*
X362599Y255739D01*
X362596Y255758D01*
X362598Y255778D01*
X362596Y255788D01*
X362599Y255815D01*
X362599Y263186D01*
X363398Y262972D01*
X364342Y262427D01*
X364512Y262258D01*
X364528Y262246D01*
X364540Y262230D01*
X364627Y262175D01*
X364711Y262114D01*
X364730Y262108D01*
X364747Y262097D01*
X364848Y262072D01*
X364946Y262042D01*
X364966Y262042D01*
X364986Y262037D01*
X365089Y262045D01*
X365192Y262048D01*
X365211Y262055D01*
X365231Y262057D01*
X365326Y262097D01*
X365423Y262133D01*
X365439Y262145D01*
X365457Y262153D01*
X365588Y262258D01*
X365758Y262427D01*
X366702Y262972D01*
X367501Y263186D01*
X367501Y262776D01*
X367516Y262680D01*
X367526Y262583D01*
X367536Y262559D01*
X367540Y262533D01*
X367586Y262448D01*
X367626Y262358D01*
X367643Y262339D01*
X367656Y262316D01*
X367726Y262249D01*
X367792Y262177D01*
X367815Y262165D01*
X367834Y262147D01*
X367922Y262106D01*
X368008Y262059D01*
X368033Y262054D01*
X368057Y262043D01*
X368154Y262032D01*
X368250Y262015D01*
X368275Y262019D01*
X368301Y262016D01*
X368396Y262037D01*
X368493Y262051D01*
X368516Y262063D01*
X368542Y262068D01*
X368625Y262118D01*
X368712Y262162D01*
X368730Y262181D01*
X368753Y262194D01*
X368816Y262268D01*
X368884Y262338D01*
X368900Y262366D01*
X368913Y262381D01*
X368925Y262412D01*
X368965Y262485D01*
X369041Y262668D01*
X369056Y262732D01*
X369081Y262793D01*
X369090Y262876D01*
X369098Y262908D01*
X369096Y262927D01*
X369099Y262960D01*
X369099Y263211D01*
X369120Y263212D01*
X369176Y263207D01*
X369242Y263222D01*
X369309Y263227D01*
X369361Y263249D01*
X369416Y263262D01*
X369474Y263297D01*
X369536Y263323D01*
X369597Y263373D01*
X369626Y263390D01*
X369639Y263406D01*
X369667Y263428D01*
X371016Y264777D01*
X373471Y265794D01*
X374912Y265794D01*
X374957Y265802D01*
X375003Y265800D01*
X375078Y265821D01*
X375154Y265834D01*
X375195Y265855D01*
X375239Y265868D01*
X375303Y265913D01*
X375372Y265949D01*
X375403Y265982D01*
X375441Y266009D01*
X375487Y266071D01*
X375541Y266127D01*
X375560Y266169D01*
X375588Y266206D01*
X375612Y266280D01*
X375645Y266350D01*
X375650Y266396D01*
X375664Y266440D01*
X375663Y266518D01*
X375672Y266595D01*
X375662Y266640D01*
X375662Y266686D01*
X375623Y266817D01*
X375620Y266835D01*
X375617Y266840D01*
X375615Y266847D01*
X374286Y270055D01*
X374286Y275745D01*
X376463Y281001D01*
X380486Y285024D01*
X384165Y286547D01*
X384180Y286557D01*
X384197Y286562D01*
X384284Y286622D01*
X384374Y286677D01*
X384385Y286691D01*
X384400Y286701D01*
X384464Y286785D01*
X384531Y286867D01*
X384537Y286883D01*
X384548Y286898D01*
X384609Y287054D01*
X384728Y287498D01*
X385273Y288442D01*
X385442Y288612D01*
X385454Y288628D01*
X385470Y288640D01*
X385525Y288727D01*
X385586Y288811D01*
X385592Y288830D01*
X385603Y288847D01*
X385628Y288948D01*
X385658Y289046D01*
X385658Y289066D01*
X385663Y289086D01*
X385655Y289189D01*
X385652Y289292D01*
X385645Y289311D01*
X385643Y289331D01*
X385603Y289426D01*
X385567Y289523D01*
X385555Y289539D01*
X385547Y289557D01*
X385442Y289688D01*
X385273Y289858D01*
X384728Y290802D01*
X384514Y291601D01*
X391885Y291601D01*
X391904Y291604D01*
X391924Y291602D01*
X391934Y291604D01*
X391961Y291601D01*
X399332Y291601D01*
X399118Y290802D01*
X398573Y289858D01*
X398404Y289688D01*
X398392Y289672D01*
X398376Y289660D01*
X398320Y289572D01*
X398260Y289489D01*
X398254Y289469D01*
X398243Y289453D01*
X398218Y289352D01*
X398188Y289253D01*
X398188Y289233D01*
X398183Y289214D01*
X398191Y289111D01*
X398194Y289008D01*
X398201Y288989D01*
X398203Y288969D01*
X398243Y288874D01*
X398279Y288777D01*
X398291Y288761D01*
X398299Y288743D01*
X398404Y288612D01*
X398573Y288443D01*
X398821Y288013D01*
X398864Y287961D01*
X398898Y287903D01*
X398941Y287867D01*
X398976Y287823D01*
X399034Y287787D01*
X399085Y287743D01*
X399137Y287722D01*
X399185Y287692D01*
X399251Y287676D01*
X399313Y287651D01*
X399392Y287642D01*
X399424Y287635D01*
X399445Y287637D01*
X399480Y287633D01*
X429006Y287633D01*
X429026Y287636D01*
X429045Y287634D01*
X429147Y287656D01*
X429249Y287672D01*
X429266Y287682D01*
X429286Y287686D01*
X429375Y287739D01*
X429466Y287788D01*
X429480Y287802D01*
X429497Y287812D01*
X429564Y287891D01*
X429636Y287966D01*
X429644Y287984D01*
X429657Y287999D01*
X429696Y288095D01*
X429739Y288189D01*
X429741Y288209D01*
X429749Y288227D01*
X429767Y288394D01*
X429767Y304156D01*
X429753Y304246D01*
X429745Y304337D01*
X429733Y304367D01*
X429728Y304399D01*
X429685Y304479D01*
X429649Y304563D01*
X429623Y304595D01*
X429612Y304616D01*
X429589Y304638D01*
X429544Y304694D01*
X426233Y308006D01*
X424692Y311725D01*
X424668Y311764D01*
X424652Y311807D01*
X424604Y311867D01*
X424563Y311934D01*
X424527Y311963D01*
X424499Y311999D01*
X424433Y312041D01*
X424373Y312090D01*
X424330Y312107D01*
X424292Y312132D01*
X424216Y312151D01*
X424144Y312179D01*
X424098Y312181D01*
X424053Y312192D01*
X423976Y312186D01*
X423898Y312189D01*
X423854Y312176D01*
X423808Y312173D01*
X423736Y312142D01*
X423662Y312120D01*
X423624Y312094D01*
X423582Y312076D01*
X423475Y311991D01*
X423460Y311980D01*
X423457Y311976D01*
X423451Y311972D01*
X423057Y311578D01*
X420490Y310514D01*
X389047Y310514D01*
X389027Y310511D01*
X389008Y310513D01*
X388906Y310491D01*
X388804Y310475D01*
X388787Y310465D01*
X388767Y310461D01*
X388678Y310408D01*
X388587Y310359D01*
X388573Y310345D01*
X388556Y310335D01*
X388489Y310256D01*
X388417Y310181D01*
X388409Y310163D01*
X388396Y310148D01*
X388357Y310052D01*
X388314Y309958D01*
X388312Y309938D01*
X388304Y309920D01*
X388286Y309753D01*
X388286Y301633D01*
X388039Y301037D01*
X388024Y300973D01*
X387999Y300912D01*
X387990Y300830D01*
X387983Y300798D01*
X387984Y300778D01*
X387981Y300746D01*
X387981Y298358D01*
X387664Y297593D01*
X387654Y297549D01*
X387634Y297507D01*
X387626Y297430D01*
X387608Y297354D01*
X387612Y297308D01*
X387607Y297263D01*
X387624Y297186D01*
X387631Y297109D01*
X387650Y297067D01*
X387659Y297022D01*
X387699Y296955D01*
X387731Y296884D01*
X387762Y296850D01*
X387786Y296811D01*
X387845Y296760D01*
X387897Y296703D01*
X387938Y296681D01*
X387973Y296651D01*
X388045Y296622D01*
X388113Y296585D01*
X388158Y296576D01*
X388201Y296559D01*
X388337Y296544D01*
X388355Y296541D01*
X388360Y296542D01*
X388367Y296541D01*
X391124Y296541D01*
X391124Y293199D01*
X384164Y293199D01*
X384113Y293248D01*
X384071Y293268D01*
X384034Y293295D01*
X383960Y293319D01*
X383890Y293352D01*
X383844Y293357D01*
X383800Y293371D01*
X383722Y293371D01*
X383645Y293379D01*
X383600Y293370D01*
X383554Y293369D01*
X383423Y293331D01*
X383405Y293327D01*
X383401Y293324D01*
X383393Y293322D01*
X382629Y293006D01*
X379971Y293006D01*
X378341Y293681D01*
X378253Y293702D01*
X378166Y293730D01*
X378133Y293730D01*
X378102Y293737D01*
X378011Y293728D01*
X377920Y293728D01*
X377880Y293716D01*
X377857Y293714D01*
X377828Y293701D01*
X377759Y293681D01*
X376129Y293006D01*
X373471Y293006D01*
X371841Y293681D01*
X371753Y293702D01*
X371666Y293730D01*
X371633Y293730D01*
X371602Y293737D01*
X371511Y293728D01*
X371420Y293728D01*
X371380Y293716D01*
X371357Y293714D01*
X371328Y293701D01*
X371259Y293681D01*
X369629Y293006D01*
X366971Y293006D01*
X364516Y294023D01*
X363614Y294925D01*
X363556Y294967D01*
X363504Y295016D01*
X363456Y295038D01*
X363414Y295068D01*
X363346Y295089D01*
X363280Y295120D01*
X363229Y295125D01*
X363179Y295141D01*
X363107Y295139D01*
X363036Y295147D01*
X362985Y295136D01*
X362933Y295134D01*
X362866Y295110D01*
X362796Y295094D01*
X362751Y295068D01*
X362702Y295050D01*
X362646Y295005D01*
X362585Y294968D01*
X362551Y294929D01*
X362510Y294896D01*
X362471Y294836D01*
X362425Y294781D01*
X362405Y294733D01*
X362377Y294689D01*
X362360Y294620D01*
X362333Y294553D01*
X362325Y294482D01*
X362317Y294451D01*
X362319Y294427D01*
X362314Y294386D01*
X362314Y289555D01*
X360137Y284299D01*
X356114Y280276D01*
X352904Y278947D01*
X352865Y278922D01*
X352821Y278907D01*
X352761Y278858D01*
X352694Y278817D01*
X352665Y278782D01*
X352629Y278753D01*
X352587Y278687D01*
X352538Y278627D01*
X352521Y278585D01*
X352496Y278546D01*
X352477Y278470D01*
X352449Y278398D01*
X352448Y278352D01*
X352436Y278307D01*
X352442Y278230D01*
X352439Y278152D01*
X352452Y278108D01*
X352455Y278062D01*
X352486Y277991D01*
X352508Y277916D01*
X352534Y277878D01*
X352552Y277836D01*
X352637Y277729D01*
X352648Y277714D01*
X352652Y277711D01*
X352657Y277705D01*
X353677Y276684D01*
X354694Y274229D01*
X354694Y271571D01*
X353677Y269116D01*
X352328Y267767D01*
X352289Y267712D01*
X352242Y267663D01*
X352217Y267613D01*
X352185Y267567D01*
X352165Y267502D01*
X352136Y267441D01*
X352129Y267386D01*
X352112Y267332D01*
X352114Y267264D01*
X352106Y267199D01*
X351860Y267199D01*
X351795Y267189D01*
X351730Y267188D01*
X351650Y267165D01*
X351617Y267160D01*
X351600Y267150D01*
X351568Y267141D01*
X351385Y267065D01*
X351302Y267014D01*
X351216Y266968D01*
X351198Y266949D01*
X351176Y266936D01*
X351114Y266861D01*
X351047Y266790D01*
X351036Y266766D01*
X351019Y266746D01*
X350984Y266655D01*
X350943Y266567D01*
X350940Y266541D01*
X350931Y266517D01*
X350927Y266419D01*
X350916Y266322D01*
X350921Y266297D01*
X350920Y266271D01*
X350947Y266177D01*
X350968Y266082D01*
X350982Y266060D01*
X350989Y266035D01*
X351044Y265955D01*
X351094Y265871D01*
X351114Y265854D01*
X351129Y265833D01*
X351207Y265775D01*
X351281Y265711D01*
X351305Y265701D01*
X351326Y265686D01*
X351419Y265656D01*
X351509Y265619D01*
X351542Y265616D01*
X351560Y265610D01*
X351593Y265610D01*
X351676Y265601D01*
X352086Y265601D01*
X351872Y264802D01*
X351327Y263858D01*
X350556Y263087D01*
X349612Y262541D01*
X348559Y262259D01*
X345476Y262259D01*
X345476Y264518D01*
X345473Y264538D01*
X345475Y264557D01*
X345453Y264659D01*
X345437Y264761D01*
X345427Y264778D01*
X345423Y264798D01*
X345370Y264887D01*
X345321Y264978D01*
X345307Y264992D01*
X345297Y265009D01*
X345218Y265076D01*
X345143Y265148D01*
X345125Y265156D01*
X345110Y265169D01*
X345014Y265208D01*
X344920Y265251D01*
X344900Y265253D01*
X344882Y265261D01*
X344715Y265279D01*
X344639Y265279D01*
X344619Y265276D01*
X344599Y265278D01*
X344498Y265256D01*
X344396Y265240D01*
X344379Y265230D01*
X344359Y265226D01*
X344270Y265173D01*
X344179Y265124D01*
X344165Y265110D01*
X344148Y265100D01*
X344081Y265021D01*
X344009Y264946D01*
X344001Y264928D01*
X343988Y264913D01*
X343949Y264817D01*
X343906Y264723D01*
X343904Y264703D01*
X343896Y264685D01*
X343878Y264518D01*
X343878Y262259D01*
X341122Y262259D01*
X341102Y262256D01*
X341083Y262258D01*
X340981Y262236D01*
X340879Y262220D01*
X340862Y262210D01*
X340842Y262206D01*
X340753Y262153D01*
X340662Y262104D01*
X340648Y262090D01*
X340631Y262080D01*
X340564Y262001D01*
X340492Y261926D01*
X340484Y261908D01*
X340471Y261893D01*
X340432Y261797D01*
X340389Y261703D01*
X340387Y261683D01*
X340379Y261665D01*
X340361Y261498D01*
X340361Y256805D01*
X340375Y256715D01*
X340383Y256624D01*
X340395Y256594D01*
X340400Y256562D01*
X340443Y256482D01*
X340479Y256398D01*
X340505Y256366D01*
X340516Y256345D01*
X340539Y256323D01*
X340584Y256267D01*
X341085Y255766D01*
X342583Y252148D01*
X342583Y248232D01*
X341085Y244614D01*
X338316Y241845D01*
X338126Y241767D01*
X338070Y241732D01*
X338010Y241707D01*
X337945Y241655D01*
X337917Y241637D01*
X337905Y241622D01*
X337879Y241602D01*
X336950Y240672D01*
X315352Y219075D01*
X315341Y219059D01*
X315325Y219046D01*
X315269Y218959D01*
X315209Y218875D01*
X315203Y218856D01*
X315192Y218839D01*
X315167Y218739D01*
X315136Y218640D01*
X315137Y218620D01*
X315132Y218601D01*
X315140Y218498D01*
X315143Y218394D01*
X315149Y218375D01*
X315151Y218356D01*
X315191Y218261D01*
X315227Y218163D01*
X315240Y218147D01*
X315247Y218129D01*
X315352Y217998D01*
X318225Y215126D01*
X319723Y211508D01*
X319723Y207592D01*
X318225Y203974D01*
X315456Y201205D01*
X311838Y199707D01*
X307922Y199707D01*
X306863Y200145D01*
X306800Y200160D01*
X306739Y200185D01*
X306656Y200194D01*
X306624Y200201D01*
X306605Y200200D01*
X306572Y200203D01*
X293672Y200203D01*
X293652Y200200D01*
X293633Y200202D01*
X293531Y200180D01*
X293429Y200164D01*
X293412Y200154D01*
X293392Y200150D01*
X293303Y200097D01*
X293212Y200048D01*
X293198Y200034D01*
X293181Y200024D01*
X293114Y199945D01*
X293042Y199870D01*
X293034Y199852D01*
X293021Y199837D01*
X292982Y199741D01*
X292939Y199647D01*
X292937Y199627D01*
X292929Y199609D01*
X292911Y199442D01*
X292911Y198322D01*
X291779Y195591D01*
X289689Y193501D01*
X286958Y192369D01*
X274502Y192369D01*
X271771Y193501D01*
X269681Y195591D01*
X268549Y198322D01*
X268549Y201278D01*
X269163Y202759D01*
X269183Y202847D01*
X269212Y202934D01*
X269211Y202967D01*
X269219Y202998D01*
X269210Y203089D01*
X269209Y203180D01*
X269198Y203220D01*
X269196Y203243D01*
X269183Y203272D01*
X269163Y203341D01*
X268549Y204822D01*
X268549Y207778D01*
X269729Y210627D01*
X269737Y210661D01*
X269739Y210666D01*
X269740Y210673D01*
X269759Y210713D01*
X269768Y210790D01*
X269785Y210866D01*
X269781Y210912D01*
X269786Y210957D01*
X269770Y211034D01*
X269762Y211111D01*
X269744Y211153D01*
X269734Y211198D01*
X269694Y211265D01*
X269662Y211336D01*
X269631Y211370D01*
X269608Y211409D01*
X269549Y211460D01*
X269496Y211517D01*
X269456Y211539D01*
X269421Y211569D01*
X269349Y211598D01*
X269280Y211635D01*
X269235Y211644D01*
X269193Y211661D01*
X269057Y211676D01*
X269038Y211679D01*
X269033Y211678D01*
X269026Y211679D01*
X257382Y211679D01*
X257337Y211672D01*
X257291Y211674D01*
X257216Y211652D01*
X257139Y211640D01*
X257099Y211618D01*
X257054Y211605D01*
X256990Y211561D01*
X256922Y211524D01*
X256890Y211491D01*
X256852Y211465D01*
X256806Y211403D01*
X256752Y211346D01*
X256733Y211304D01*
X256706Y211268D01*
X256682Y211194D01*
X256649Y211123D01*
X256644Y211077D01*
X256629Y211034D01*
X256630Y210956D01*
X256622Y210879D01*
X256631Y210834D01*
X256632Y210788D01*
X256670Y210656D01*
X256674Y210638D01*
X256676Y210634D01*
X256679Y210627D01*
X257231Y209294D01*
X257231Y203306D01*
X254939Y197774D01*
X250706Y193541D01*
X245174Y191249D01*
X242731Y191249D01*
X242666Y191239D01*
X242601Y191238D01*
X242521Y191215D01*
X242488Y191210D01*
X242471Y191200D01*
X242440Y191191D01*
X240588Y190424D01*
X208277Y190424D01*
X208213Y190414D01*
X208147Y190413D01*
X208067Y190390D01*
X208035Y190385D01*
X208017Y190375D01*
X207986Y190366D01*
X206774Y189864D01*
X200458Y189864D01*
X198824Y190541D01*
X198760Y190556D01*
X198699Y190581D01*
X198616Y190590D01*
X198584Y190597D01*
X198565Y190596D01*
X198532Y190599D01*
X194651Y190599D01*
X190791Y192198D01*
X190703Y192219D01*
X190616Y192247D01*
X190583Y192247D01*
X190552Y192254D01*
X190461Y192246D01*
X190370Y192245D01*
X190330Y192233D01*
X190307Y192231D01*
X190278Y192218D01*
X190209Y192198D01*
X186349Y190599D01*
X183394Y190599D01*
X183304Y190585D01*
X183213Y190577D01*
X183183Y190565D01*
X183151Y190560D01*
X183070Y190517D01*
X182986Y190481D01*
X182954Y190455D01*
X182934Y190444D01*
X182911Y190421D01*
X182856Y190376D01*
X182180Y189701D01*
X180001Y187522D01*
X176265Y183786D01*
X167114Y178502D01*
X156907Y175767D01*
X153044Y175767D01*
X152954Y175753D01*
X152863Y175745D01*
X152833Y175733D01*
X152801Y175728D01*
X152721Y175685D01*
X152637Y175649D01*
X152605Y175623D01*
X152584Y175612D01*
X152562Y175589D01*
X152506Y175544D01*
X149712Y172750D01*
X149670Y172692D01*
X149621Y172640D01*
X149599Y172593D01*
X149568Y172551D01*
X149547Y172482D01*
X149517Y172417D01*
X149511Y172365D01*
X149496Y172315D01*
X149498Y172244D01*
X149490Y172173D01*
X149501Y172122D01*
X149502Y172070D01*
X149527Y172002D01*
X149542Y171932D01*
X149569Y171888D01*
X149587Y171839D01*
X149632Y171783D01*
X149668Y171721D01*
X149708Y171687D01*
X149740Y171647D01*
X149801Y171608D01*
X149855Y171561D01*
X149904Y171542D01*
X149947Y171514D01*
X150017Y171496D01*
X150083Y171469D01*
X150155Y171461D01*
X150186Y171453D01*
X150209Y171455D01*
X150250Y171451D01*
X187554Y171451D01*
X187644Y171465D01*
X187735Y171473D01*
X187765Y171485D01*
X187797Y171490D01*
X187878Y171533D01*
X187961Y171569D01*
X187994Y171595D01*
X188014Y171606D01*
X188036Y171629D01*
X188092Y171674D01*
X197709Y181290D01*
X199603Y183184D01*
X201937Y184151D01*
X242563Y184151D01*
X244897Y183184D01*
X246684Y181397D01*
X247651Y179063D01*
X247651Y170742D01*
X247654Y170722D01*
X247652Y170703D01*
X247674Y170601D01*
X247690Y170499D01*
X247700Y170482D01*
X247704Y170462D01*
X247757Y170373D01*
X247806Y170282D01*
X247820Y170268D01*
X247830Y170251D01*
X247909Y170184D01*
X247984Y170112D01*
X248002Y170104D01*
X248017Y170091D01*
X248113Y170052D01*
X248207Y170009D01*
X248227Y170007D01*
X248245Y169999D01*
X248412Y169981D01*
X261905Y169981D01*
X262142Y169744D01*
X262215Y169691D01*
X262285Y169631D01*
X262315Y169619D01*
X262341Y169600D01*
X262428Y169573D01*
X262513Y169539D01*
X262554Y169535D01*
X262576Y169528D01*
X262609Y169529D01*
X262680Y169521D01*
X289164Y169521D01*
X289228Y169531D01*
X289294Y169532D01*
X289374Y169555D01*
X289407Y169560D01*
X289424Y169570D01*
X289455Y169579D01*
X290142Y169863D01*
X294058Y169863D01*
X296218Y168969D01*
X296281Y168954D01*
X296342Y168929D01*
X296425Y168920D01*
X296457Y168913D01*
X296476Y168914D01*
X296509Y168911D01*
X319016Y168911D01*
X321301Y167964D01*
X321371Y167948D01*
X321438Y167922D01*
X321490Y167920D01*
X321541Y167908D01*
X321612Y167915D01*
X321684Y167912D01*
X321734Y167926D01*
X321786Y167931D01*
X321851Y167960D01*
X321920Y167980D01*
X321963Y168010D01*
X322010Y168031D01*
X322063Y168079D01*
X322122Y168120D01*
X322153Y168162D01*
X322192Y168197D01*
X322226Y168260D01*
X322269Y168318D01*
X322285Y168367D01*
X322310Y168413D01*
X322323Y168483D01*
X322345Y168552D01*
X322345Y168604D01*
X322354Y168655D01*
X322343Y168726D01*
X322343Y168798D01*
X322323Y168866D01*
X322318Y168898D01*
X322308Y168919D01*
X322296Y168959D01*
X321944Y169808D01*
X321944Y184558D01*
X321934Y184623D01*
X321933Y184688D01*
X321910Y184768D01*
X321905Y184801D01*
X321895Y184818D01*
X321886Y184849D01*
X320357Y188542D01*
X320357Y192458D01*
X321855Y196076D01*
X324624Y198845D01*
X328242Y200343D01*
X332158Y200343D01*
X335776Y198845D01*
X338182Y196439D01*
X338256Y196386D01*
X338325Y196326D01*
X338355Y196314D01*
X338381Y196295D01*
X338468Y196268D01*
X338553Y196234D01*
X338594Y196230D01*
X338617Y196223D01*
X338649Y196224D01*
X338720Y196216D01*
X349475Y196216D01*
X349565Y196230D01*
X349656Y196238D01*
X349686Y196250D01*
X349718Y196255D01*
X349799Y196298D01*
X349882Y196334D01*
X349915Y196360D01*
X349935Y196371D01*
X349957Y196394D01*
X350013Y196439D01*
X351115Y197541D01*
X362324Y197541D01*
X362682Y197184D01*
X362698Y197172D01*
X362710Y197156D01*
X362797Y197100D01*
X362881Y197040D01*
X362900Y197034D01*
X362917Y197023D01*
X363018Y196998D01*
X363117Y196968D01*
X363136Y196968D01*
X363156Y196963D01*
X363259Y196971D01*
X363362Y196974D01*
X363381Y196981D01*
X363401Y196982D01*
X363496Y197023D01*
X363593Y197058D01*
X363609Y197071D01*
X363627Y197079D01*
X363758Y197184D01*
X364115Y197541D01*
X375325Y197541D01*
X376427Y196439D01*
X376501Y196386D01*
X376570Y196326D01*
X376600Y196314D01*
X376626Y196295D01*
X376713Y196268D01*
X376798Y196234D01*
X376839Y196230D01*
X376861Y196223D01*
X376894Y196224D01*
X376965Y196216D01*
X446142Y196216D01*
X449177Y194959D01*
X464199Y179937D01*
X465456Y176902D01*
X465456Y65957D01*
X465466Y65893D01*
X465467Y65827D01*
X465490Y65747D01*
X465495Y65715D01*
X465505Y65697D01*
X465514Y65666D01*
X465710Y65193D01*
X465710Y61807D01*
X464414Y58680D01*
X462020Y56286D01*
X458893Y54990D01*
X440707Y54990D01*
X439811Y55361D01*
X439748Y55376D01*
X439687Y55401D01*
X439604Y55410D01*
X439572Y55417D01*
X439553Y55416D01*
X439520Y55419D01*
X436441Y55419D01*
X434022Y56421D01*
X432171Y58272D01*
X431169Y60691D01*
X431169Y65675D01*
X431158Y65746D01*
X431156Y65817D01*
X431138Y65866D01*
X431130Y65918D01*
X431096Y65981D01*
X431071Y66048D01*
X431039Y66089D01*
X431014Y66135D01*
X430963Y66184D01*
X430918Y66240D01*
X430874Y66269D01*
X430836Y66304D01*
X430771Y66335D01*
X430711Y66373D01*
X430660Y66386D01*
X430613Y66408D01*
X430542Y66416D01*
X430472Y66433D01*
X430420Y66429D01*
X430369Y66435D01*
X430298Y66420D01*
X430227Y66414D01*
X430179Y66394D01*
X430128Y66383D01*
X430067Y66346D01*
X430001Y66318D01*
X429945Y66273D01*
X429917Y66257D01*
X429902Y66239D01*
X429870Y66213D01*
X429578Y65921D01*
X427159Y64919D01*
X424080Y64919D01*
X424015Y64909D01*
X423950Y64908D01*
X423870Y64885D01*
X423837Y64880D01*
X423820Y64870D01*
X423789Y64861D01*
X422893Y64490D01*
X377571Y64490D01*
X377551Y64487D01*
X377532Y64489D01*
X377430Y64467D01*
X377328Y64451D01*
X377311Y64441D01*
X377291Y64437D01*
X377202Y64384D01*
X377111Y64335D01*
X377097Y64321D01*
X377080Y64311D01*
X377013Y64232D01*
X376941Y64157D01*
X376933Y64139D01*
X376920Y64124D01*
X376881Y64028D01*
X376838Y63934D01*
X376836Y63914D01*
X376828Y63896D01*
X376810Y63729D01*
X376810Y61807D01*
X375514Y58680D01*
X373120Y56286D01*
X369993Y54990D01*
X351807Y54990D01*
X350911Y55361D01*
X350848Y55376D01*
X350787Y55401D01*
X350704Y55410D01*
X350672Y55417D01*
X350653Y55416D01*
X350620Y55419D01*
X347541Y55419D01*
X345122Y56421D01*
X343271Y58272D01*
X342269Y60691D01*
X342269Y65675D01*
X342258Y65746D01*
X342256Y65817D01*
X342238Y65866D01*
X342230Y65918D01*
X342196Y65981D01*
X342171Y66048D01*
X342139Y66089D01*
X342114Y66135D01*
X342063Y66184D01*
X342018Y66240D01*
X341974Y66269D01*
X341936Y66304D01*
X341871Y66335D01*
X341811Y66373D01*
X341760Y66386D01*
X341713Y66408D01*
X341642Y66416D01*
X341572Y66433D01*
X341520Y66429D01*
X341469Y66435D01*
X341398Y66420D01*
X341327Y66414D01*
X341279Y66394D01*
X341228Y66383D01*
X341167Y66346D01*
X341101Y66318D01*
X341045Y66273D01*
X341017Y66257D01*
X341002Y66239D01*
X340970Y66213D01*
X340678Y65921D01*
X338259Y64919D01*
X335180Y64919D01*
X335115Y64909D01*
X335050Y64908D01*
X334970Y64885D01*
X334937Y64880D01*
X334920Y64870D01*
X334888Y64861D01*
X333993Y64490D01*
X330607Y64490D01*
X329712Y64861D01*
X329648Y64876D01*
X329587Y64901D01*
X329504Y64910D01*
X329472Y64917D01*
X329453Y64916D01*
X329420Y64919D01*
X326341Y64919D01*
X323922Y65921D01*
X323589Y66254D01*
X323515Y66307D01*
X323446Y66367D01*
X323415Y66379D01*
X323389Y66398D01*
X323302Y66425D01*
X323217Y66459D01*
X323177Y66463D01*
X323154Y66470D01*
X323122Y66469D01*
X323051Y66477D01*
X319264Y66477D01*
X319244Y66474D01*
X319224Y66476D01*
X319123Y66454D01*
X319021Y66438D01*
X319004Y66428D01*
X318984Y66424D01*
X318895Y66371D01*
X318804Y66323D01*
X318790Y66308D01*
X318773Y66298D01*
X318706Y66219D01*
X318634Y66144D01*
X318626Y66126D01*
X318613Y66111D01*
X318574Y66015D01*
X318531Y65921D01*
X318529Y65901D01*
X318521Y65883D01*
X318503Y65716D01*
X318503Y23685D01*
X317190Y20516D01*
X314764Y18090D01*
X311595Y16777D01*
X201485Y16777D01*
X198316Y18090D01*
X195890Y20516D01*
X194577Y23685D01*
X194577Y49315D01*
X195890Y52484D01*
X223716Y80310D01*
X226885Y81623D01*
X245115Y81623D01*
X246284Y81139D01*
X246347Y81124D01*
X246408Y81099D01*
X246491Y81090D01*
X246523Y81083D01*
X246542Y81084D01*
X246575Y81081D01*
X249359Y81081D01*
X251778Y80079D01*
X253629Y78228D01*
X254631Y75809D01*
X254631Y70825D01*
X254642Y70754D01*
X254644Y70683D01*
X254662Y70634D01*
X254670Y70582D01*
X254704Y70519D01*
X254729Y70452D01*
X254761Y70411D01*
X254786Y70365D01*
X254837Y70316D01*
X254882Y70260D01*
X254926Y70231D01*
X254964Y70196D01*
X255029Y70165D01*
X255089Y70127D01*
X255140Y70114D01*
X255187Y70092D01*
X255258Y70084D01*
X255328Y70067D01*
X255380Y70071D01*
X255431Y70065D01*
X255502Y70080D01*
X255573Y70086D01*
X255621Y70106D01*
X255672Y70117D01*
X255733Y70154D01*
X255799Y70182D01*
X255855Y70227D01*
X255883Y70243D01*
X255898Y70261D01*
X255930Y70287D01*
X256222Y70579D01*
X258641Y71581D01*
X261720Y71581D01*
X261785Y71591D01*
X261850Y71592D01*
X261930Y71615D01*
X261963Y71620D01*
X261980Y71630D01*
X262011Y71639D01*
X262907Y72010D01*
X282829Y72010D01*
X282849Y72013D01*
X282868Y72011D01*
X282970Y72033D01*
X283072Y72049D01*
X283089Y72059D01*
X283109Y72063D01*
X283198Y72116D01*
X283289Y72165D01*
X283303Y72179D01*
X283320Y72189D01*
X283387Y72268D01*
X283459Y72343D01*
X283467Y72361D01*
X283480Y72376D01*
X283519Y72472D01*
X283562Y72566D01*
X283564Y72586D01*
X283572Y72604D01*
X283590Y72771D01*
X283590Y92329D01*
X283587Y92349D01*
X283589Y92368D01*
X283567Y92470D01*
X283551Y92572D01*
X283541Y92589D01*
X283537Y92609D01*
X283484Y92698D01*
X283435Y92789D01*
X283421Y92803D01*
X283411Y92820D01*
X283332Y92887D01*
X283257Y92959D01*
X283239Y92967D01*
X283224Y92980D01*
X283128Y93019D01*
X283034Y93062D01*
X283014Y93064D01*
X282996Y93072D01*
X282829Y93090D01*
X244057Y93090D01*
X243524Y93311D01*
X243460Y93326D01*
X243399Y93351D01*
X243316Y93360D01*
X243284Y93367D01*
X243265Y93366D01*
X243232Y93369D01*
X242342Y93369D01*
X241591Y93680D01*
X241503Y93701D01*
X241416Y93729D01*
X241383Y93729D01*
X241352Y93736D01*
X241261Y93728D01*
X241170Y93727D01*
X241130Y93716D01*
X241107Y93713D01*
X241078Y93700D01*
X241009Y93680D01*
X240258Y93369D01*
X238704Y93369D01*
X238639Y93359D01*
X238574Y93358D01*
X238526Y93344D01*
X201558Y93344D01*
X198523Y94601D01*
X196094Y97031D01*
X188864Y104261D01*
X188811Y104299D01*
X188764Y104345D01*
X188691Y104385D01*
X188664Y104404D01*
X188646Y104410D01*
X188617Y104426D01*
X184924Y105955D01*
X182155Y108724D01*
X180657Y112342D01*
X180657Y116258D01*
X182040Y119597D01*
X182050Y119641D01*
X182070Y119683D01*
X182078Y119760D01*
X182096Y119836D01*
X182092Y119882D01*
X182097Y119927D01*
X182080Y120004D01*
X182073Y120081D01*
X182054Y120123D01*
X182044Y120168D01*
X182004Y120235D01*
X181973Y120306D01*
X181942Y120340D01*
X181918Y120379D01*
X181859Y120430D01*
X181806Y120487D01*
X181766Y120509D01*
X181731Y120539D01*
X181659Y120568D01*
X181591Y120605D01*
X181546Y120614D01*
X181503Y120631D01*
X181367Y120646D01*
X181349Y120649D01*
X181344Y120648D01*
X181336Y120649D01*
X4572Y120649D01*
X4552Y120646D01*
X4533Y120648D01*
X4431Y120626D01*
X4329Y120610D01*
X4312Y120600D01*
X4292Y120596D01*
X4203Y120543D01*
X4112Y120494D01*
X4098Y120480D01*
X4081Y120470D01*
X4014Y120391D01*
X3942Y120316D01*
X3934Y120298D01*
X3921Y120283D01*
X3882Y120187D01*
X3839Y120093D01*
X3837Y120073D01*
X3829Y120055D01*
X3811Y119888D01*
X3811Y4572D01*
X3814Y4552D01*
X3812Y4533D01*
X3834Y4431D01*
X3850Y4329D01*
X3860Y4312D01*
X3864Y4292D01*
X3917Y4203D01*
X3966Y4112D01*
X3980Y4098D01*
X3990Y4081D01*
X4069Y4014D01*
X4144Y3942D01*
X4162Y3934D01*
X4177Y3921D01*
X4273Y3882D01*
X4367Y3839D01*
X4387Y3837D01*
X4405Y3829D01*
X4572Y3811D01*
X527777Y3811D01*
X527848Y3822D01*
G37*
G36*
X241418Y125746D02*
X241418Y125746D01*
X241537Y125753D01*
X241575Y125766D01*
X241616Y125771D01*
X241726Y125814D01*
X241839Y125851D01*
X241874Y125873D01*
X241911Y125888D01*
X242007Y125958D01*
X242108Y126021D01*
X242136Y126051D01*
X242169Y126074D01*
X242245Y126166D01*
X242326Y126253D01*
X242346Y126288D01*
X242371Y126319D01*
X242422Y126427D01*
X242480Y126531D01*
X242490Y126571D01*
X242507Y126607D01*
X242529Y126724D01*
X242559Y126839D01*
X242563Y126900D01*
X242567Y126920D01*
X242565Y126940D01*
X242569Y127000D01*
X242569Y177800D01*
X242554Y177918D01*
X242547Y178037D01*
X242534Y178075D01*
X242529Y178116D01*
X242486Y178226D01*
X242449Y178339D01*
X242427Y178374D01*
X242412Y178411D01*
X242343Y178507D01*
X242279Y178608D01*
X242249Y178636D01*
X242226Y178669D01*
X242134Y178745D01*
X242047Y178826D01*
X242012Y178846D01*
X241981Y178871D01*
X241873Y178922D01*
X241769Y178980D01*
X241729Y178990D01*
X241693Y179007D01*
X241576Y179029D01*
X241461Y179059D01*
X241401Y179063D01*
X241381Y179067D01*
X241360Y179065D01*
X241300Y179069D01*
X203200Y179069D01*
X203102Y179057D01*
X203003Y179054D01*
X202945Y179037D01*
X202884Y179029D01*
X202792Y178993D01*
X202697Y178965D01*
X202645Y178935D01*
X202589Y178912D01*
X202509Y178854D01*
X202423Y178804D01*
X202348Y178738D01*
X202331Y178726D01*
X202324Y178716D01*
X202303Y178698D01*
X189974Y166369D01*
X44449Y166369D01*
X44449Y205225D01*
X44437Y205323D01*
X44434Y205422D01*
X44417Y205480D01*
X44409Y205540D01*
X44373Y205632D01*
X44345Y205727D01*
X44315Y205779D01*
X44292Y205836D01*
X44234Y205916D01*
X44184Y206001D01*
X44118Y206077D01*
X44106Y206093D01*
X44096Y206101D01*
X44078Y206122D01*
X42455Y207744D01*
X40957Y211362D01*
X40957Y215278D01*
X42455Y218896D01*
X44078Y220518D01*
X44138Y220596D01*
X44206Y220668D01*
X44235Y220721D01*
X44272Y220769D01*
X44312Y220860D01*
X44360Y220947D01*
X44375Y221005D01*
X44399Y221061D01*
X44414Y221159D01*
X44439Y221255D01*
X44445Y221355D01*
X44449Y221375D01*
X44447Y221387D01*
X44449Y221415D01*
X44449Y247651D01*
X63500Y247651D01*
X63618Y247666D01*
X63737Y247673D01*
X63775Y247686D01*
X63816Y247691D01*
X63926Y247734D01*
X64039Y247771D01*
X64074Y247793D01*
X64111Y247808D01*
X64207Y247878D01*
X64308Y247941D01*
X64336Y247971D01*
X64369Y247994D01*
X64445Y248086D01*
X64526Y248173D01*
X64546Y248208D01*
X64571Y248239D01*
X64622Y248347D01*
X64680Y248451D01*
X64690Y248491D01*
X64707Y248527D01*
X64729Y248644D01*
X64759Y248759D01*
X64763Y248820D01*
X64767Y248840D01*
X64765Y248860D01*
X64769Y248920D01*
X64769Y262890D01*
X64754Y263008D01*
X64747Y263127D01*
X64734Y263165D01*
X64729Y263206D01*
X64686Y263316D01*
X64649Y263429D01*
X64627Y263464D01*
X64612Y263501D01*
X64543Y263597D01*
X64479Y263698D01*
X64449Y263726D01*
X64426Y263759D01*
X64334Y263835D01*
X64247Y263916D01*
X64212Y263936D01*
X64181Y263961D01*
X64073Y264012D01*
X63969Y264070D01*
X63929Y264080D01*
X63893Y264097D01*
X63776Y264119D01*
X63661Y264149D01*
X63601Y264153D01*
X63581Y264157D01*
X63560Y264155D01*
X63500Y264159D01*
X25400Y264159D01*
X25282Y264144D01*
X25163Y264137D01*
X25125Y264124D01*
X25084Y264119D01*
X24974Y264076D01*
X24861Y264039D01*
X24826Y264017D01*
X24789Y264002D01*
X24693Y263933D01*
X24592Y263869D01*
X24564Y263839D01*
X24531Y263816D01*
X24456Y263724D01*
X24374Y263637D01*
X24354Y263602D01*
X24329Y263571D01*
X24278Y263463D01*
X24220Y263359D01*
X24210Y263319D01*
X24193Y263283D01*
X24171Y263166D01*
X24141Y263051D01*
X24137Y262991D01*
X24133Y262971D01*
X24135Y262950D01*
X24131Y262890D01*
X24131Y166369D01*
X5080Y166369D01*
X4962Y166354D01*
X4843Y166347D01*
X4805Y166334D01*
X4764Y166329D01*
X4654Y166286D01*
X4541Y166249D01*
X4506Y166227D01*
X4469Y166212D01*
X4373Y166143D01*
X4272Y166079D01*
X4244Y166049D01*
X4211Y166026D01*
X4135Y165934D01*
X4054Y165847D01*
X4034Y165812D01*
X4009Y165781D01*
X3958Y165673D01*
X3900Y165569D01*
X3890Y165529D01*
X3873Y165493D01*
X3851Y165376D01*
X3821Y165261D01*
X3817Y165201D01*
X3813Y165181D01*
X3814Y165164D01*
X3813Y165158D01*
X3814Y165149D01*
X3811Y165100D01*
X3811Y156390D01*
X3828Y156253D01*
X3841Y156114D01*
X3848Y156095D01*
X3851Y156075D01*
X3902Y155945D01*
X3949Y155815D01*
X3960Y155798D01*
X3968Y155779D01*
X4049Y155667D01*
X4127Y155552D01*
X4143Y155538D01*
X4154Y155522D01*
X4261Y155433D01*
X4366Y155341D01*
X4384Y155332D01*
X4399Y155319D01*
X4525Y155260D01*
X4649Y155197D01*
X4669Y155192D01*
X4687Y155184D01*
X4823Y155157D01*
X4959Y155127D01*
X4980Y155128D01*
X4999Y155124D01*
X5138Y155132D01*
X5277Y155137D01*
X5297Y155142D01*
X5317Y155144D01*
X5449Y155186D01*
X5583Y155225D01*
X5600Y155235D01*
X5619Y155242D01*
X5737Y155316D01*
X5857Y155387D01*
X5878Y155405D01*
X5888Y155412D01*
X5902Y155427D01*
X5978Y155493D01*
X6225Y155741D01*
X10426Y157481D01*
X40374Y157481D01*
X44575Y155741D01*
X47791Y152525D01*
X49531Y148324D01*
X49531Y143776D01*
X47791Y139575D01*
X44575Y136359D01*
X40374Y134619D01*
X10426Y134619D01*
X6225Y136359D01*
X5978Y136607D01*
X5868Y136692D01*
X5761Y136781D01*
X5742Y136790D01*
X5726Y136802D01*
X5599Y136857D01*
X5473Y136916D01*
X5453Y136920D01*
X5434Y136928D01*
X5297Y136950D01*
X5160Y136976D01*
X5140Y136975D01*
X5120Y136978D01*
X4981Y136965D01*
X4843Y136956D01*
X4824Y136950D01*
X4804Y136948D01*
X4672Y136901D01*
X4541Y136858D01*
X4524Y136848D01*
X4504Y136841D01*
X4389Y136763D01*
X4272Y136688D01*
X4258Y136674D01*
X4241Y136662D01*
X4149Y136558D01*
X4054Y136457D01*
X4044Y136439D01*
X4031Y136424D01*
X3967Y136300D01*
X3900Y136178D01*
X3895Y136159D01*
X3886Y136141D01*
X3856Y136004D01*
X3821Y135870D01*
X3819Y135842D01*
X3816Y135830D01*
X3817Y135810D01*
X3811Y135710D01*
X3811Y127000D01*
X3826Y126882D01*
X3833Y126763D01*
X3846Y126725D01*
X3851Y126684D01*
X3894Y126574D01*
X3931Y126461D01*
X3953Y126426D01*
X3968Y126389D01*
X4037Y126293D01*
X4101Y126192D01*
X4131Y126164D01*
X4154Y126131D01*
X4246Y126056D01*
X4333Y125974D01*
X4368Y125954D01*
X4399Y125929D01*
X4507Y125878D01*
X4611Y125820D01*
X4651Y125810D01*
X4687Y125793D01*
X4804Y125771D01*
X4919Y125741D01*
X4979Y125737D01*
X4999Y125733D01*
X5020Y125735D01*
X5080Y125731D01*
X241300Y125731D01*
X241418Y125746D01*
G37*
G36*
X301385Y78151D02*
X301385Y78151D01*
X301410Y78149D01*
X301506Y78169D01*
X301602Y78183D01*
X301625Y78195D01*
X301651Y78201D01*
X301734Y78251D01*
X301821Y78295D01*
X301840Y78314D01*
X301862Y78327D01*
X301925Y78401D01*
X301993Y78470D01*
X302009Y78499D01*
X302022Y78514D01*
X302034Y78545D01*
X302074Y78617D01*
X302570Y79814D01*
X305166Y82410D01*
X308335Y83723D01*
X320929Y83723D01*
X320949Y83726D01*
X320968Y83724D01*
X321070Y83746D01*
X321172Y83762D01*
X321189Y83772D01*
X321209Y83776D01*
X321298Y83829D01*
X321389Y83877D01*
X321403Y83892D01*
X321420Y83902D01*
X321487Y83981D01*
X321559Y84056D01*
X321567Y84074D01*
X321580Y84089D01*
X321619Y84185D01*
X321662Y84279D01*
X321664Y84299D01*
X321672Y84317D01*
X321690Y84484D01*
X321690Y103293D01*
X322986Y106420D01*
X325380Y108814D01*
X328507Y110110D01*
X357167Y110110D01*
X357238Y110121D01*
X357310Y110123D01*
X357359Y110141D01*
X357410Y110149D01*
X357473Y110183D01*
X357541Y110208D01*
X357581Y110240D01*
X357627Y110265D01*
X357677Y110316D01*
X357733Y110361D01*
X357761Y110405D01*
X357797Y110443D01*
X357827Y110508D01*
X357866Y110568D01*
X357878Y110619D01*
X357900Y110666D01*
X357908Y110737D01*
X357926Y110807D01*
X357922Y110859D01*
X357927Y110910D01*
X357912Y110981D01*
X357907Y111052D01*
X357886Y111100D01*
X357875Y111151D01*
X357838Y111212D01*
X357810Y111278D01*
X357766Y111334D01*
X357749Y111362D01*
X357731Y111377D01*
X357719Y111392D01*
X357719Y125605D01*
X358576Y126462D01*
X358588Y126478D01*
X358604Y126490D01*
X358660Y126578D01*
X358720Y126661D01*
X358726Y126680D01*
X358737Y126697D01*
X358762Y126798D01*
X358792Y126897D01*
X358792Y126916D01*
X358797Y126936D01*
X358789Y127039D01*
X358786Y127142D01*
X358779Y127161D01*
X358778Y127181D01*
X358737Y127276D01*
X358702Y127373D01*
X358689Y127389D01*
X358681Y127407D01*
X358576Y127538D01*
X357719Y128395D01*
X357719Y142605D01*
X360447Y145333D01*
X360500Y145407D01*
X360560Y145476D01*
X360572Y145506D01*
X360591Y145532D01*
X360618Y145619D01*
X360652Y145704D01*
X360656Y145745D01*
X360663Y145767D01*
X360662Y145800D01*
X360670Y145871D01*
X360670Y157877D01*
X360659Y157948D01*
X360657Y158020D01*
X360639Y158069D01*
X360631Y158120D01*
X360597Y158183D01*
X360572Y158251D01*
X360540Y158291D01*
X360515Y158337D01*
X360464Y158387D01*
X360419Y158443D01*
X360375Y158471D01*
X360337Y158507D01*
X360272Y158537D01*
X360212Y158576D01*
X360161Y158588D01*
X360114Y158610D01*
X360043Y158618D01*
X359973Y158636D01*
X359921Y158632D01*
X359870Y158637D01*
X359799Y158622D01*
X359728Y158617D01*
X359680Y158596D01*
X359629Y158585D01*
X359568Y158548D01*
X359502Y158520D01*
X359446Y158476D01*
X359418Y158459D01*
X359403Y158441D01*
X359371Y158415D01*
X359284Y158329D01*
X345075Y158329D01*
X342973Y160431D01*
X342900Y160484D01*
X342830Y160544D01*
X342800Y160556D01*
X342774Y160575D01*
X342687Y160602D01*
X342602Y160636D01*
X342561Y160640D01*
X342539Y160647D01*
X342506Y160646D01*
X342435Y160654D01*
X331098Y160654D01*
X328063Y161911D01*
X326379Y163596D01*
X326300Y163653D01*
X326225Y163715D01*
X326200Y163724D01*
X326179Y163740D01*
X326086Y163768D01*
X325995Y163803D01*
X325969Y163804D01*
X325944Y163812D01*
X325847Y163809D01*
X325749Y163813D01*
X325724Y163806D01*
X325698Y163806D01*
X325607Y163772D01*
X325513Y163745D01*
X325492Y163730D01*
X325467Y163721D01*
X325391Y163660D01*
X325311Y163605D01*
X325295Y163584D01*
X325275Y163567D01*
X325222Y163485D01*
X325164Y163407D01*
X325156Y163383D01*
X325142Y163360D01*
X325118Y163266D01*
X325088Y163173D01*
X325088Y163147D01*
X325082Y163122D01*
X325089Y163025D01*
X325090Y162927D01*
X325099Y162896D01*
X325101Y162877D01*
X325114Y162846D01*
X325121Y162823D01*
X325121Y141380D01*
X325135Y141290D01*
X325143Y141199D01*
X325155Y141169D01*
X325160Y141137D01*
X325203Y141056D01*
X325239Y140973D01*
X325265Y140940D01*
X325276Y140920D01*
X325299Y140898D01*
X325344Y140842D01*
X327081Y139105D01*
X327081Y127895D01*
X324636Y125451D01*
X324596Y125396D01*
X324549Y125347D01*
X324525Y125296D01*
X324492Y125251D01*
X324472Y125186D01*
X324443Y125125D01*
X324436Y125069D01*
X324420Y125016D01*
X324422Y124948D01*
X324413Y124881D01*
X324425Y124803D01*
X324426Y124770D01*
X324433Y124750D01*
X324439Y124715D01*
X324541Y124334D01*
X324541Y122023D01*
X318262Y122023D01*
X318242Y122020D01*
X318223Y122022D01*
X318121Y122000D01*
X318019Y121983D01*
X318002Y121974D01*
X317982Y121970D01*
X317893Y121917D01*
X317802Y121868D01*
X317788Y121854D01*
X317771Y121844D01*
X317704Y121765D01*
X317633Y121690D01*
X317624Y121672D01*
X317611Y121657D01*
X317572Y121561D01*
X317529Y121467D01*
X317527Y121447D01*
X317519Y121429D01*
X317501Y121262D01*
X317501Y120499D01*
X317499Y120499D01*
X317499Y121262D01*
X317496Y121282D01*
X317498Y121301D01*
X317476Y121403D01*
X317459Y121505D01*
X317450Y121522D01*
X317446Y121542D01*
X317393Y121631D01*
X317344Y121722D01*
X317330Y121736D01*
X317320Y121753D01*
X317241Y121820D01*
X317166Y121891D01*
X317148Y121900D01*
X317133Y121913D01*
X317037Y121952D01*
X316943Y121995D01*
X316923Y121997D01*
X316905Y122005D01*
X316738Y122023D01*
X310459Y122023D01*
X310459Y124334D01*
X310561Y124715D01*
X310568Y124783D01*
X310585Y124848D01*
X310580Y124904D01*
X310586Y124960D01*
X310571Y125026D01*
X310565Y125093D01*
X310543Y125145D01*
X310531Y125200D01*
X310496Y125257D01*
X310469Y125320D01*
X310420Y125381D01*
X310402Y125409D01*
X310386Y125423D01*
X310364Y125451D01*
X307919Y127895D01*
X307919Y139105D01*
X309656Y140842D01*
X309709Y140915D01*
X309769Y140985D01*
X309781Y141015D01*
X309800Y141041D01*
X309827Y141128D01*
X309861Y141213D01*
X309865Y141254D01*
X309872Y141276D01*
X309871Y141309D01*
X309879Y141380D01*
X309879Y152908D01*
X309876Y152928D01*
X309878Y152947D01*
X309856Y153049D01*
X309840Y153151D01*
X309830Y153168D01*
X309826Y153188D01*
X309773Y153277D01*
X309724Y153368D01*
X309710Y153382D01*
X309700Y153399D01*
X309621Y153466D01*
X309546Y153538D01*
X309528Y153546D01*
X309513Y153559D01*
X309417Y153598D01*
X309323Y153641D01*
X309303Y153643D01*
X309285Y153651D01*
X309118Y153669D01*
X301484Y153669D01*
X301464Y153666D01*
X301444Y153668D01*
X301343Y153646D01*
X301241Y153630D01*
X301224Y153620D01*
X301204Y153616D01*
X301115Y153563D01*
X301024Y153514D01*
X301010Y153500D01*
X300993Y153490D01*
X300926Y153411D01*
X300854Y153336D01*
X300846Y153318D01*
X300833Y153303D01*
X300794Y153207D01*
X300751Y153113D01*
X300749Y153093D01*
X300741Y153075D01*
X300723Y152908D01*
X300723Y144878D01*
X300737Y144788D01*
X300745Y144697D01*
X300757Y144667D01*
X300762Y144635D01*
X300805Y144554D01*
X300841Y144471D01*
X300867Y144438D01*
X300877Y144418D01*
X300901Y144396D01*
X300946Y144340D01*
X302681Y142605D01*
X302681Y128395D01*
X301824Y127538D01*
X301812Y127522D01*
X301796Y127510D01*
X301740Y127422D01*
X301680Y127339D01*
X301674Y127320D01*
X301663Y127303D01*
X301638Y127202D01*
X301608Y127103D01*
X301608Y127084D01*
X301603Y127064D01*
X301611Y126961D01*
X301614Y126858D01*
X301621Y126839D01*
X301622Y126819D01*
X301663Y126724D01*
X301698Y126627D01*
X301711Y126611D01*
X301719Y126593D01*
X301824Y126462D01*
X302681Y125605D01*
X302681Y111395D01*
X300833Y109547D01*
X300780Y109473D01*
X300720Y109404D01*
X300708Y109374D01*
X300689Y109348D01*
X300662Y109261D01*
X300628Y109176D01*
X300624Y109135D01*
X300617Y109113D01*
X300618Y109080D01*
X300610Y109009D01*
X300610Y78909D01*
X300625Y78813D01*
X300635Y78716D01*
X300645Y78692D01*
X300649Y78666D01*
X300695Y78580D01*
X300735Y78491D01*
X300752Y78472D01*
X300765Y78449D01*
X300835Y78382D01*
X300901Y78310D01*
X300924Y78297D01*
X300943Y78279D01*
X301031Y78238D01*
X301117Y78191D01*
X301142Y78187D01*
X301166Y78176D01*
X301263Y78165D01*
X301359Y78148D01*
X301385Y78151D01*
G37*
G36*
X225434Y222194D02*
X225434Y222194D01*
X225551Y222212D01*
X225556Y222214D01*
X225562Y222215D01*
X225665Y222270D01*
X225770Y222323D01*
X225774Y222328D01*
X225780Y222331D01*
X225860Y222416D01*
X225942Y222499D01*
X225946Y222505D01*
X225949Y222509D01*
X225957Y222526D01*
X226023Y222646D01*
X226381Y223509D01*
X228471Y225599D01*
X231202Y226731D01*
X235304Y226731D01*
X235369Y226741D01*
X235434Y226742D01*
X235514Y226765D01*
X235547Y226770D01*
X235564Y226780D01*
X235595Y226789D01*
X235914Y226921D01*
X238946Y226921D01*
X239074Y226868D01*
X239162Y226847D01*
X239249Y226819D01*
X239282Y226819D01*
X239313Y226812D01*
X239404Y226820D01*
X239495Y226821D01*
X239535Y226833D01*
X239558Y226835D01*
X239587Y226848D01*
X239656Y226868D01*
X239784Y226921D01*
X301328Y226921D01*
X301418Y226935D01*
X301509Y226943D01*
X301539Y226955D01*
X301571Y226960D01*
X301652Y227003D01*
X301735Y227039D01*
X301768Y227065D01*
X301788Y227076D01*
X301810Y227099D01*
X301866Y227144D01*
X322674Y247951D01*
X322727Y248025D01*
X322786Y248095D01*
X322799Y248125D01*
X322817Y248151D01*
X322844Y248238D01*
X322878Y248323D01*
X322883Y248364D01*
X322890Y248386D01*
X322889Y248418D01*
X322897Y248489D01*
X322897Y252148D01*
X324395Y255766D01*
X324896Y256267D01*
X324949Y256341D01*
X325009Y256410D01*
X325021Y256440D01*
X325040Y256466D01*
X325067Y256553D01*
X325101Y256638D01*
X325105Y256679D01*
X325112Y256702D01*
X325111Y256734D01*
X325119Y256805D01*
X325119Y259418D01*
X325109Y259483D01*
X325108Y259548D01*
X325085Y259628D01*
X325080Y259661D01*
X325070Y259678D01*
X325061Y259709D01*
X324500Y261065D01*
X324500Y270077D01*
X324488Y270147D01*
X324486Y270219D01*
X324468Y270268D01*
X324460Y270319D01*
X324426Y270383D01*
X324402Y270450D01*
X324369Y270491D01*
X324345Y270537D01*
X324293Y270586D01*
X324248Y270642D01*
X324204Y270670D01*
X324167Y270706D01*
X324102Y270736D01*
X324041Y270775D01*
X323991Y270788D01*
X323944Y270810D01*
X323872Y270818D01*
X323803Y270835D01*
X323751Y270831D01*
X323699Y270837D01*
X323629Y270822D01*
X323558Y270816D01*
X323510Y270796D01*
X323459Y270785D01*
X323397Y270748D01*
X323331Y270720D01*
X323275Y270675D01*
X323248Y270659D01*
X323232Y270641D01*
X323200Y270615D01*
X300445Y247860D01*
X295031Y245617D01*
X193130Y245617D01*
X193112Y245614D01*
X193080Y245616D01*
X192273Y245563D01*
X192250Y245557D01*
X192126Y245538D01*
X190566Y245120D01*
X190552Y245114D01*
X190536Y245112D01*
X190382Y245044D01*
X188984Y244237D01*
X188965Y244222D01*
X188862Y244150D01*
X188254Y243616D01*
X188242Y243602D01*
X188218Y243582D01*
X186792Y242157D01*
X186765Y242119D01*
X186731Y242088D01*
X186694Y242020D01*
X186648Y241957D01*
X186635Y241913D01*
X186613Y241873D01*
X186599Y241796D01*
X186576Y241722D01*
X186577Y241676D01*
X186569Y241631D01*
X186580Y241554D01*
X186582Y241476D01*
X186598Y241433D01*
X186605Y241387D01*
X186640Y241318D01*
X186667Y241245D01*
X186695Y241209D01*
X186716Y241168D01*
X186772Y241114D01*
X186820Y241053D01*
X186859Y241028D01*
X186892Y240996D01*
X187012Y240930D01*
X187027Y240920D01*
X187032Y240919D01*
X187039Y240915D01*
X191017Y239267D01*
X194590Y235694D01*
X196323Y231511D01*
X196384Y231411D01*
X196444Y231311D01*
X196449Y231307D01*
X196452Y231302D01*
X196542Y231227D01*
X196631Y231151D01*
X196637Y231149D01*
X196642Y231145D01*
X196750Y231103D01*
X196859Y231059D01*
X196867Y231058D01*
X196871Y231057D01*
X196890Y231056D01*
X197026Y231041D01*
X201433Y231041D01*
X201433Y226162D01*
X201436Y226142D01*
X201434Y226123D01*
X201456Y226021D01*
X201473Y225919D01*
X201482Y225902D01*
X201486Y225882D01*
X201539Y225793D01*
X201588Y225702D01*
X201602Y225688D01*
X201612Y225671D01*
X201691Y225604D01*
X201766Y225533D01*
X201784Y225524D01*
X201799Y225511D01*
X201895Y225472D01*
X201989Y225429D01*
X202009Y225427D01*
X202027Y225419D01*
X202194Y225401D01*
X202957Y225401D01*
X202957Y224638D01*
X202960Y224618D01*
X202958Y224599D01*
X202980Y224497D01*
X202997Y224395D01*
X203006Y224378D01*
X203010Y224358D01*
X203063Y224269D01*
X203112Y224178D01*
X203126Y224164D01*
X203136Y224147D01*
X203215Y224080D01*
X203290Y224009D01*
X203308Y224000D01*
X203323Y223987D01*
X203419Y223948D01*
X203513Y223905D01*
X203533Y223903D01*
X203551Y223895D01*
X203718Y223877D01*
X211275Y223877D01*
X211275Y222937D01*
X211278Y222917D01*
X211276Y222898D01*
X211298Y222796D01*
X211315Y222694D01*
X211324Y222677D01*
X211329Y222657D01*
X211382Y222568D01*
X211430Y222477D01*
X211444Y222463D01*
X211455Y222446D01*
X211533Y222379D01*
X211608Y222307D01*
X211626Y222299D01*
X211642Y222286D01*
X211738Y222247D01*
X211831Y222204D01*
X211851Y222202D01*
X211870Y222194D01*
X212036Y222176D01*
X225320Y222176D01*
X225434Y222194D01*
G37*
G36*
X300516Y34026D02*
X300516Y34026D01*
X300536Y34024D01*
X300637Y34046D01*
X300739Y34062D01*
X300756Y34072D01*
X300776Y34076D01*
X300865Y34129D01*
X300956Y34177D01*
X300970Y34192D01*
X300987Y34202D01*
X301054Y34281D01*
X301126Y34356D01*
X301134Y34374D01*
X301147Y34389D01*
X301186Y34485D01*
X301229Y34579D01*
X301231Y34599D01*
X301239Y34617D01*
X301257Y34784D01*
X301257Y59544D01*
X301242Y59640D01*
X301232Y59737D01*
X301222Y59761D01*
X301218Y59786D01*
X301172Y59872D01*
X301132Y59961D01*
X301115Y59981D01*
X301103Y60004D01*
X301032Y60071D01*
X300966Y60143D01*
X300943Y60155D01*
X300924Y60173D01*
X300836Y60214D01*
X300751Y60261D01*
X300725Y60266D01*
X300701Y60277D01*
X300604Y60288D01*
X300508Y60305D01*
X300483Y60301D01*
X300457Y60304D01*
X300362Y60283D01*
X300265Y60269D01*
X300242Y60257D01*
X300216Y60252D01*
X300133Y60202D01*
X300046Y60158D01*
X300028Y60139D01*
X300005Y60125D01*
X299942Y60051D01*
X299874Y59982D01*
X299858Y59953D01*
X299845Y59939D01*
X299833Y59908D01*
X299793Y59835D01*
X299314Y58680D01*
X296920Y56286D01*
X293793Y54990D01*
X262907Y54990D01*
X262011Y55361D01*
X261948Y55376D01*
X261887Y55401D01*
X261804Y55410D01*
X261772Y55417D01*
X261753Y55416D01*
X261720Y55419D01*
X258641Y55419D01*
X256222Y56421D01*
X254371Y58272D01*
X253369Y60691D01*
X253369Y65675D01*
X253358Y65746D01*
X253356Y65817D01*
X253338Y65866D01*
X253330Y65918D01*
X253296Y65981D01*
X253271Y66048D01*
X253239Y66089D01*
X253214Y66135D01*
X253163Y66184D01*
X253118Y66240D01*
X253074Y66269D01*
X253036Y66304D01*
X252971Y66335D01*
X252911Y66373D01*
X252860Y66386D01*
X252813Y66408D01*
X252742Y66416D01*
X252672Y66433D01*
X252620Y66429D01*
X252569Y66435D01*
X252498Y66420D01*
X252427Y66414D01*
X252379Y66394D01*
X252328Y66383D01*
X252267Y66346D01*
X252201Y66318D01*
X252145Y66273D01*
X252117Y66257D01*
X252102Y66239D01*
X252070Y66213D01*
X251778Y65921D01*
X249359Y64919D01*
X246575Y64919D01*
X246510Y64909D01*
X246445Y64908D01*
X246365Y64885D01*
X246332Y64880D01*
X246315Y64870D01*
X246284Y64861D01*
X245115Y64377D01*
X232487Y64377D01*
X232397Y64363D01*
X232306Y64355D01*
X232276Y64343D01*
X232244Y64338D01*
X232164Y64295D01*
X232080Y64259D01*
X232048Y64233D01*
X232027Y64223D01*
X232005Y64199D01*
X231949Y64154D01*
X212046Y44251D01*
X211993Y44177D01*
X211933Y44108D01*
X211921Y44078D01*
X211902Y44052D01*
X211875Y43965D01*
X211841Y43880D01*
X211837Y43839D01*
X211830Y43817D01*
X211831Y43784D01*
X211823Y43713D01*
X211823Y34784D01*
X211826Y34764D01*
X211824Y34744D01*
X211846Y34643D01*
X211862Y34541D01*
X211872Y34524D01*
X211876Y34504D01*
X211929Y34415D01*
X211977Y34324D01*
X211992Y34310D01*
X212002Y34293D01*
X212081Y34226D01*
X212156Y34154D01*
X212174Y34146D01*
X212189Y34133D01*
X212285Y34094D01*
X212379Y34051D01*
X212399Y34049D01*
X212417Y34041D01*
X212584Y34023D01*
X300496Y34023D01*
X300516Y34026D01*
G37*
G36*
X103821Y171462D02*
X103821Y171462D01*
X103892Y171464D01*
X103941Y171482D01*
X103993Y171490D01*
X104056Y171524D01*
X104123Y171549D01*
X104164Y171581D01*
X104210Y171606D01*
X104259Y171657D01*
X104315Y171702D01*
X104344Y171746D01*
X104379Y171784D01*
X104410Y171849D01*
X104448Y171909D01*
X104461Y171960D01*
X104483Y172007D01*
X104491Y172078D01*
X104508Y172148D01*
X104504Y172200D01*
X104510Y172251D01*
X104495Y172322D01*
X104489Y172393D01*
X104469Y172441D01*
X104458Y172492D01*
X104421Y172553D01*
X104393Y172619D01*
X104348Y172675D01*
X104332Y172703D01*
X104314Y172718D01*
X104288Y172750D01*
X101494Y175544D01*
X101420Y175597D01*
X101351Y175657D01*
X101321Y175669D01*
X101294Y175688D01*
X101207Y175715D01*
X101123Y175749D01*
X101082Y175753D01*
X101059Y175760D01*
X101027Y175759D01*
X100956Y175767D01*
X98669Y175767D01*
X93255Y178010D01*
X84597Y186668D01*
X82354Y192082D01*
X82354Y195226D01*
X82344Y195291D01*
X82343Y195356D01*
X82320Y195436D01*
X82315Y195469D01*
X82305Y195486D01*
X82296Y195517D01*
X81969Y196307D01*
X81908Y196406D01*
X81848Y196506D01*
X81843Y196511D01*
X81840Y196516D01*
X81750Y196590D01*
X81661Y196666D01*
X81655Y196669D01*
X81650Y196673D01*
X81542Y196714D01*
X81433Y196758D01*
X81425Y196759D01*
X81421Y196761D01*
X81402Y196762D01*
X81266Y196777D01*
X74179Y196777D01*
X71774Y197773D01*
X69933Y199614D01*
X68937Y202018D01*
X68937Y204622D01*
X69211Y205282D01*
X69220Y205320D01*
X69228Y205337D01*
X69228Y205341D01*
X69241Y205368D01*
X69249Y205445D01*
X69267Y205521D01*
X69263Y205567D01*
X69268Y205612D01*
X69251Y205689D01*
X69244Y205766D01*
X69225Y205808D01*
X69215Y205853D01*
X69175Y205920D01*
X69144Y205991D01*
X69113Y206025D01*
X69089Y206064D01*
X69030Y206115D01*
X68977Y206172D01*
X68937Y206194D01*
X68902Y206224D01*
X68830Y206253D01*
X68762Y206290D01*
X68717Y206299D01*
X68674Y206316D01*
X68538Y206331D01*
X68520Y206334D01*
X68515Y206333D01*
X68507Y206334D01*
X58050Y206334D01*
X57960Y206320D01*
X57869Y206312D01*
X57839Y206300D01*
X57807Y206295D01*
X57727Y206252D01*
X57643Y206216D01*
X57610Y206190D01*
X57590Y206179D01*
X57568Y206156D01*
X57512Y206111D01*
X56376Y204975D01*
X52758Y203477D01*
X50292Y203477D01*
X50272Y203474D01*
X50253Y203476D01*
X50151Y203454D01*
X50049Y203437D01*
X50032Y203428D01*
X50012Y203423D01*
X49923Y203370D01*
X49832Y203322D01*
X49818Y203308D01*
X49801Y203297D01*
X49734Y203218D01*
X49662Y203144D01*
X49654Y203126D01*
X49641Y203110D01*
X49602Y203014D01*
X49559Y202921D01*
X49557Y202901D01*
X49549Y202882D01*
X49531Y202716D01*
X49531Y172212D01*
X49534Y172192D01*
X49532Y172173D01*
X49554Y172071D01*
X49570Y171969D01*
X49580Y171952D01*
X49584Y171932D01*
X49637Y171843D01*
X49686Y171752D01*
X49700Y171738D01*
X49710Y171721D01*
X49789Y171654D01*
X49864Y171582D01*
X49882Y171574D01*
X49897Y171561D01*
X49993Y171522D01*
X50087Y171479D01*
X50107Y171477D01*
X50125Y171469D01*
X50292Y171451D01*
X103750Y171451D01*
X103821Y171462D01*
G37*
G36*
X241339Y109472D02*
X241339Y109472D01*
X241430Y109473D01*
X241470Y109484D01*
X241493Y109487D01*
X241522Y109500D01*
X241591Y109520D01*
X242342Y109831D01*
X243232Y109831D01*
X243297Y109841D01*
X243363Y109842D01*
X243443Y109865D01*
X243475Y109870D01*
X243492Y109880D01*
X243524Y109889D01*
X244057Y110110D01*
X280967Y110110D01*
X281038Y110121D01*
X281110Y110123D01*
X281159Y110141D01*
X281210Y110149D01*
X281273Y110183D01*
X281341Y110208D01*
X281381Y110240D01*
X281427Y110265D01*
X281477Y110316D01*
X281533Y110361D01*
X281561Y110405D01*
X281597Y110443D01*
X281627Y110508D01*
X281666Y110568D01*
X281678Y110619D01*
X281700Y110666D01*
X281708Y110737D01*
X281726Y110807D01*
X281722Y110859D01*
X281727Y110910D01*
X281712Y110981D01*
X281707Y111052D01*
X281686Y111100D01*
X281675Y111151D01*
X281638Y111212D01*
X281610Y111278D01*
X281566Y111334D01*
X281549Y111362D01*
X281531Y111377D01*
X281519Y111392D01*
X281519Y125605D01*
X282376Y126462D01*
X282388Y126478D01*
X282404Y126490D01*
X282460Y126578D01*
X282520Y126661D01*
X282526Y126680D01*
X282537Y126697D01*
X282562Y126798D01*
X282592Y126897D01*
X282592Y126916D01*
X282597Y126936D01*
X282589Y127039D01*
X282586Y127142D01*
X282579Y127161D01*
X282578Y127181D01*
X282537Y127276D01*
X282502Y127373D01*
X282489Y127389D01*
X282481Y127407D01*
X282376Y127538D01*
X281390Y128525D01*
X281332Y128566D01*
X281280Y128616D01*
X281233Y128638D01*
X281191Y128668D01*
X281122Y128689D01*
X281057Y128719D01*
X281005Y128725D01*
X280955Y128740D01*
X280884Y128739D01*
X280813Y128746D01*
X280762Y128735D01*
X280710Y128734D01*
X280642Y128709D01*
X280572Y128694D01*
X280527Y128667D01*
X280479Y128650D01*
X280423Y128605D01*
X280361Y128568D01*
X280327Y128528D01*
X280287Y128496D01*
X280248Y128436D01*
X280201Y128381D01*
X280182Y128333D01*
X280154Y128289D01*
X280136Y128219D01*
X280109Y128153D01*
X280101Y128082D01*
X280093Y128050D01*
X280095Y128027D01*
X280091Y127986D01*
X280091Y127895D01*
X277646Y125451D01*
X277606Y125396D01*
X277559Y125347D01*
X277535Y125296D01*
X277502Y125251D01*
X277482Y125186D01*
X277453Y125125D01*
X277446Y125069D01*
X277430Y125016D01*
X277432Y124948D01*
X277423Y124881D01*
X277435Y124803D01*
X277436Y124770D01*
X277443Y124750D01*
X277449Y124715D01*
X277551Y124334D01*
X277551Y122023D01*
X271272Y122023D01*
X271252Y122020D01*
X271233Y122022D01*
X271131Y122000D01*
X271029Y121983D01*
X271012Y121974D01*
X270992Y121970D01*
X270903Y121917D01*
X270812Y121868D01*
X270798Y121854D01*
X270781Y121844D01*
X270714Y121765D01*
X270643Y121690D01*
X270634Y121672D01*
X270621Y121657D01*
X270582Y121561D01*
X270539Y121467D01*
X270537Y121447D01*
X270529Y121429D01*
X270511Y121262D01*
X270511Y120499D01*
X270509Y120499D01*
X270509Y121262D01*
X270506Y121282D01*
X270508Y121301D01*
X270486Y121403D01*
X270469Y121505D01*
X270460Y121522D01*
X270456Y121542D01*
X270403Y121631D01*
X270354Y121722D01*
X270340Y121736D01*
X270330Y121753D01*
X270251Y121820D01*
X270176Y121891D01*
X270158Y121900D01*
X270143Y121913D01*
X270047Y121952D01*
X269953Y121995D01*
X269933Y121997D01*
X269915Y122005D01*
X269748Y122023D01*
X263469Y122023D01*
X263469Y124334D01*
X263571Y124715D01*
X263578Y124783D01*
X263595Y124848D01*
X263590Y124904D01*
X263596Y124960D01*
X263581Y125026D01*
X263575Y125093D01*
X263553Y125145D01*
X263541Y125200D01*
X263506Y125257D01*
X263479Y125320D01*
X263430Y125381D01*
X263412Y125409D01*
X263396Y125423D01*
X263374Y125451D01*
X260929Y127895D01*
X260929Y134058D01*
X260926Y134078D01*
X260928Y134097D01*
X260906Y134199D01*
X260890Y134301D01*
X260880Y134318D01*
X260876Y134338D01*
X260823Y134427D01*
X260774Y134518D01*
X260760Y134532D01*
X260750Y134549D01*
X260671Y134616D01*
X260596Y134688D01*
X260578Y134696D01*
X260563Y134709D01*
X260467Y134748D01*
X260373Y134791D01*
X260353Y134793D01*
X260335Y134801D01*
X260168Y134819D01*
X248412Y134819D01*
X248392Y134816D01*
X248373Y134818D01*
X248271Y134796D01*
X248169Y134780D01*
X248152Y134770D01*
X248132Y134766D01*
X248043Y134713D01*
X247952Y134664D01*
X247938Y134650D01*
X247921Y134640D01*
X247854Y134561D01*
X247782Y134486D01*
X247774Y134468D01*
X247761Y134453D01*
X247722Y134357D01*
X247679Y134263D01*
X247677Y134243D01*
X247669Y134225D01*
X247651Y134058D01*
X247651Y125737D01*
X246684Y123403D01*
X244897Y121616D01*
X242563Y120649D01*
X199664Y120649D01*
X199618Y120642D01*
X199572Y120644D01*
X199498Y120622D01*
X199421Y120610D01*
X199380Y120588D01*
X199336Y120575D01*
X199272Y120531D01*
X199203Y120494D01*
X199172Y120461D01*
X199134Y120435D01*
X199088Y120372D01*
X199034Y120316D01*
X199015Y120274D01*
X198987Y120238D01*
X198963Y120164D01*
X198930Y120093D01*
X198925Y120047D01*
X198911Y120004D01*
X198912Y119926D01*
X198903Y119849D01*
X198913Y119804D01*
X198914Y119758D01*
X198952Y119626D01*
X198956Y119608D01*
X198958Y119604D01*
X198960Y119597D01*
X200374Y116183D01*
X200409Y116127D01*
X200434Y116067D01*
X200480Y116010D01*
X200495Y115985D01*
X200499Y115981D01*
X200504Y115974D01*
X200519Y115962D01*
X200539Y115936D01*
X206397Y110079D01*
X206471Y110026D01*
X206540Y109966D01*
X206570Y109954D01*
X206596Y109935D01*
X206683Y109908D01*
X206768Y109874D01*
X206809Y109870D01*
X206831Y109863D01*
X206864Y109864D01*
X206935Y109856D01*
X238521Y109856D01*
X238537Y109849D01*
X238620Y109840D01*
X238652Y109833D01*
X238671Y109834D01*
X238704Y109831D01*
X240258Y109831D01*
X241009Y109520D01*
X241097Y109499D01*
X241184Y109471D01*
X241217Y109471D01*
X241248Y109464D01*
X241339Y109472D01*
G37*
%LPC*%
G36*
X581017Y22097D02*
X581017Y22097D01*
X575135Y24534D01*
X570634Y29035D01*
X568197Y34917D01*
X568197Y41283D01*
X570634Y47165D01*
X575135Y51666D01*
X581017Y54103D01*
X587383Y54103D01*
X593265Y51666D01*
X597766Y47165D01*
X600203Y41283D01*
X600203Y34917D01*
X597766Y29035D01*
X593265Y24534D01*
X587383Y22097D01*
X581017Y22097D01*
G37*
%LPD*%
%LPC*%
G36*
X228730Y144309D02*
X228730Y144309D01*
X228670Y144313D01*
X228650Y144317D01*
X228630Y144315D01*
X228570Y144319D01*
X221775Y144319D01*
X221668Y144347D01*
X221523Y144387D01*
X221513Y144387D01*
X221504Y144389D01*
X221344Y144399D01*
X220245Y144399D01*
X220244Y144427D01*
X220227Y144485D01*
X220219Y144545D01*
X220183Y144637D01*
X220155Y144732D01*
X220125Y144785D01*
X220102Y144841D01*
X220044Y144921D01*
X219994Y145006D01*
X219928Y145082D01*
X219916Y145098D01*
X219906Y145106D01*
X219888Y145127D01*
X218493Y146522D01*
X217719Y148389D01*
X217719Y156411D01*
X218493Y158278D01*
X219888Y159673D01*
X219948Y159751D01*
X220016Y159823D01*
X220045Y159876D01*
X220082Y159924D01*
X220122Y160015D01*
X220170Y160102D01*
X220185Y160160D01*
X220209Y160216D01*
X220224Y160314D01*
X220247Y160401D01*
X221344Y160401D01*
X221353Y160402D01*
X221362Y160401D01*
X221511Y160422D01*
X221659Y160441D01*
X221668Y160444D01*
X221677Y160445D01*
X221781Y160481D01*
X228570Y160481D01*
X228688Y160496D01*
X228807Y160503D01*
X228814Y160505D01*
X228870Y160491D01*
X228930Y160487D01*
X228950Y160483D01*
X228970Y160485D01*
X229030Y160481D01*
X235825Y160481D01*
X235933Y160453D01*
X236077Y160413D01*
X236087Y160413D01*
X236096Y160411D01*
X236256Y160401D01*
X237355Y160401D01*
X237356Y160373D01*
X237373Y160315D01*
X237381Y160255D01*
X237417Y160163D01*
X237445Y160068D01*
X237475Y160015D01*
X237498Y159959D01*
X237556Y159879D01*
X237606Y159794D01*
X237672Y159718D01*
X237684Y159702D01*
X237694Y159694D01*
X237712Y159673D01*
X239107Y158278D01*
X239881Y156411D01*
X239881Y148389D01*
X239107Y146522D01*
X237712Y145127D01*
X237652Y145049D01*
X237584Y144977D01*
X237555Y144924D01*
X237518Y144876D01*
X237478Y144785D01*
X237430Y144698D01*
X237415Y144640D01*
X237391Y144584D01*
X237376Y144486D01*
X237353Y144399D01*
X236256Y144399D01*
X236247Y144398D01*
X236238Y144399D01*
X236089Y144378D01*
X235941Y144359D01*
X235932Y144356D01*
X235923Y144355D01*
X235819Y144319D01*
X229030Y144319D01*
X228912Y144304D01*
X228793Y144297D01*
X228786Y144295D01*
X228730Y144309D01*
G37*
%LPD*%
%LPC*%
G36*
X532249Y28289D02*
X532249Y28289D01*
X528643Y29783D01*
X525883Y32543D01*
X524389Y36149D01*
X524389Y40051D01*
X525883Y43657D01*
X528643Y46417D01*
X532249Y47911D01*
X536151Y47911D01*
X539757Y46417D01*
X542517Y43657D01*
X544011Y40051D01*
X544011Y36149D01*
X542517Y32543D01*
X539757Y29783D01*
X536151Y28289D01*
X532249Y28289D01*
G37*
%LPD*%
%LPC*%
G36*
X632249Y28289D02*
X632249Y28289D01*
X628643Y29783D01*
X625883Y32543D01*
X624389Y36149D01*
X624389Y40051D01*
X625883Y43657D01*
X628643Y46417D01*
X632249Y47911D01*
X636151Y47911D01*
X639757Y46417D01*
X642517Y43657D01*
X644011Y40051D01*
X644011Y36149D01*
X642517Y32543D01*
X639757Y29783D01*
X636151Y28289D01*
X632249Y28289D01*
G37*
%LPD*%
%LPC*%
G36*
X115823Y463803D02*
X115823Y463803D01*
X115823Y485141D01*
X122254Y485141D01*
X122901Y484968D01*
X123480Y484633D01*
X123953Y484160D01*
X124288Y483581D01*
X124461Y482934D01*
X124461Y463803D01*
X115823Y463803D01*
G37*
%LPD*%
%LPC*%
G36*
X456183Y462533D02*
X456183Y462533D01*
X456183Y483871D01*
X462614Y483871D01*
X463261Y483698D01*
X463840Y483363D01*
X464313Y482890D01*
X464648Y482311D01*
X464821Y481664D01*
X464821Y462533D01*
X456183Y462533D01*
G37*
%LPD*%
%LPC*%
G36*
X115823Y439419D02*
X115823Y439419D01*
X115823Y460757D01*
X124461Y460757D01*
X124461Y441626D01*
X124288Y440979D01*
X123953Y440400D01*
X123480Y439927D01*
X122901Y439592D01*
X122254Y439419D01*
X115823Y439419D01*
G37*
%LPD*%
%LPC*%
G36*
X456183Y438149D02*
X456183Y438149D01*
X456183Y459487D01*
X464821Y459487D01*
X464821Y440356D01*
X464648Y439709D01*
X464313Y439130D01*
X463840Y438657D01*
X463261Y438322D01*
X462614Y438149D01*
X456183Y438149D01*
G37*
%LPD*%
%LPC*%
G36*
X53339Y463803D02*
X53339Y463803D01*
X53339Y482934D01*
X53512Y483581D01*
X53847Y484160D01*
X54320Y484633D01*
X54899Y484968D01*
X55546Y485141D01*
X61977Y485141D01*
X61977Y463803D01*
X53339Y463803D01*
G37*
%LPD*%
%LPC*%
G36*
X393699Y462533D02*
X393699Y462533D01*
X393699Y481664D01*
X393872Y482311D01*
X394207Y482890D01*
X394680Y483363D01*
X395259Y483698D01*
X395906Y483871D01*
X402337Y483871D01*
X402337Y462533D01*
X393699Y462533D01*
G37*
%LPD*%
%LPC*%
G36*
X55546Y439419D02*
X55546Y439419D01*
X54899Y439592D01*
X54320Y439927D01*
X53847Y440400D01*
X53512Y440979D01*
X53339Y441626D01*
X53339Y460757D01*
X61977Y460757D01*
X61977Y439419D01*
X55546Y439419D01*
G37*
%LPD*%
%LPC*%
G36*
X395906Y438149D02*
X395906Y438149D01*
X395259Y438322D01*
X394680Y438657D01*
X394207Y439130D01*
X393872Y439709D01*
X393699Y440356D01*
X393699Y459487D01*
X402337Y459487D01*
X402337Y438149D01*
X395906Y438149D01*
G37*
%LPD*%
%LPC*%
G36*
X484758Y325246D02*
X484758Y325246D01*
X484758Y329185D01*
X493602Y329185D01*
X494249Y329012D01*
X494828Y328677D01*
X495301Y328204D01*
X495636Y327625D01*
X495809Y326978D01*
X495809Y325246D01*
X484758Y325246D01*
G37*
%LPD*%
%LPC*%
G36*
X534034Y325246D02*
X534034Y325246D01*
X534034Y329185D01*
X542878Y329185D01*
X543525Y329012D01*
X544104Y328677D01*
X544577Y328204D01*
X544912Y327625D01*
X545085Y326978D01*
X545085Y325246D01*
X534034Y325246D01*
G37*
%LPD*%
%LPC*%
G36*
X470915Y325246D02*
X470915Y325246D01*
X470915Y326978D01*
X471088Y327625D01*
X471423Y328204D01*
X471896Y328677D01*
X472475Y329012D01*
X473122Y329185D01*
X481966Y329185D01*
X481966Y325246D01*
X470915Y325246D01*
G37*
%LPD*%
%LPC*%
G36*
X520191Y325246D02*
X520191Y325246D01*
X520191Y326978D01*
X520364Y327625D01*
X520699Y328204D01*
X521172Y328677D01*
X521751Y329012D01*
X522398Y329185D01*
X531242Y329185D01*
X531242Y325246D01*
X520191Y325246D01*
G37*
%LPD*%
%LPC*%
G36*
X470915Y312546D02*
X470915Y312546D01*
X470915Y314278D01*
X471088Y314925D01*
X471423Y315504D01*
X471896Y315977D01*
X472475Y316312D01*
X473122Y316485D01*
X481966Y316485D01*
X481966Y312546D01*
X470915Y312546D01*
G37*
%LPD*%
%LPC*%
G36*
X484758Y318515D02*
X484758Y318515D01*
X484758Y322454D01*
X495809Y322454D01*
X495809Y320722D01*
X495636Y320075D01*
X495301Y319496D01*
X494828Y319023D01*
X494249Y318688D01*
X493602Y318515D01*
X484758Y318515D01*
G37*
%LPD*%
%LPC*%
G36*
X473122Y318515D02*
X473122Y318515D01*
X472475Y318688D01*
X471896Y319023D01*
X471423Y319496D01*
X471088Y320075D01*
X470915Y320722D01*
X470915Y322454D01*
X481966Y322454D01*
X481966Y318515D01*
X473122Y318515D01*
G37*
%LPD*%
%LPC*%
G36*
X225923Y369823D02*
X225923Y369823D01*
X225923Y375841D01*
X230234Y375841D01*
X230881Y375668D01*
X231460Y375333D01*
X231933Y374860D01*
X232268Y374281D01*
X232441Y373634D01*
X232441Y369823D01*
X225923Y369823D01*
G37*
%LPD*%
%LPC*%
G36*
X143373Y252983D02*
X143373Y252983D01*
X143373Y259501D01*
X147184Y259501D01*
X147831Y259328D01*
X148410Y258993D01*
X148883Y258520D01*
X149218Y257941D01*
X149391Y257294D01*
X149391Y252983D01*
X143373Y252983D01*
G37*
%LPD*%
%LPC*%
G36*
X143373Y243419D02*
X143373Y243419D01*
X143373Y249937D01*
X149391Y249937D01*
X149391Y245626D01*
X149218Y244979D01*
X148883Y244400D01*
X148410Y243927D01*
X147831Y243592D01*
X147184Y243419D01*
X143373Y243419D01*
G37*
%LPD*%
%LPC*%
G36*
X225923Y360759D02*
X225923Y360759D01*
X225923Y366777D01*
X232441Y366777D01*
X232441Y362965D01*
X232268Y362319D01*
X231933Y361740D01*
X231460Y361267D01*
X230881Y360932D01*
X230234Y360759D01*
X225923Y360759D01*
G37*
%LPD*%
%LPC*%
G36*
X356099Y256576D02*
X356099Y256576D01*
X356099Y263186D01*
X356898Y262972D01*
X357842Y262427D01*
X358012Y262258D01*
X358028Y262246D01*
X358040Y262230D01*
X358127Y262175D01*
X358211Y262114D01*
X358230Y262108D01*
X358247Y262097D01*
X358348Y262072D01*
X358446Y262042D01*
X358466Y262042D01*
X358486Y262037D01*
X358589Y262045D01*
X358692Y262048D01*
X358711Y262055D01*
X358731Y262057D01*
X358826Y262097D01*
X358923Y262133D01*
X358939Y262145D01*
X358957Y262153D01*
X359088Y262258D01*
X359258Y262427D01*
X360202Y262972D01*
X361001Y263186D01*
X361001Y256576D01*
X356099Y256576D01*
G37*
%LPD*%
%LPC*%
G36*
X360202Y248582D02*
X360202Y248582D01*
X359258Y249127D01*
X359088Y249296D01*
X359072Y249308D01*
X359060Y249324D01*
X358972Y249380D01*
X358889Y249440D01*
X358869Y249446D01*
X358853Y249457D01*
X358752Y249482D01*
X358653Y249512D01*
X358633Y249512D01*
X358614Y249517D01*
X358511Y249509D01*
X358408Y249506D01*
X358389Y249499D01*
X358369Y249497D01*
X358274Y249457D01*
X358177Y249421D01*
X358161Y249409D01*
X358143Y249401D01*
X358012Y249296D01*
X357842Y249127D01*
X356898Y248582D01*
X356099Y248368D01*
X356099Y254978D01*
X361001Y254978D01*
X361001Y248368D01*
X360202Y248582D01*
G37*
%LPD*%
%LPC*%
G36*
X125899Y312649D02*
X125899Y312649D01*
X125899Y316691D01*
X130734Y316691D01*
X131381Y316518D01*
X131960Y316183D01*
X132433Y315710D01*
X132768Y315131D01*
X132941Y314484D01*
X132941Y312649D01*
X125899Y312649D01*
G37*
%LPD*%
%LPC*%
G36*
X230299Y163399D02*
X230299Y163399D01*
X230299Y167441D01*
X235134Y167441D01*
X235781Y167268D01*
X236360Y166933D01*
X236833Y166460D01*
X237168Y165881D01*
X237341Y165234D01*
X237341Y163399D01*
X230299Y163399D01*
G37*
%LPD*%
%LPC*%
G36*
X115859Y312649D02*
X115859Y312649D01*
X115859Y314484D01*
X116032Y315131D01*
X116367Y315710D01*
X116840Y316183D01*
X117419Y316518D01*
X118066Y316691D01*
X122901Y316691D01*
X122901Y312649D01*
X115859Y312649D01*
G37*
%LPD*%
%LPC*%
G36*
X220259Y163399D02*
X220259Y163399D01*
X220259Y165234D01*
X220432Y165881D01*
X220767Y166460D01*
X221240Y166933D01*
X221819Y167268D01*
X222466Y167441D01*
X227301Y167441D01*
X227301Y163399D01*
X220259Y163399D01*
G37*
%LPD*%
%LPC*%
G36*
X125899Y267509D02*
X125899Y267509D01*
X125899Y271551D01*
X132941Y271551D01*
X132941Y269716D01*
X132768Y269069D01*
X132433Y268490D01*
X131960Y268017D01*
X131381Y267682D01*
X130734Y267509D01*
X125899Y267509D01*
G37*
%LPD*%
%LPC*%
G36*
X230299Y137359D02*
X230299Y137359D01*
X230299Y141401D01*
X237341Y141401D01*
X237341Y139566D01*
X237168Y138919D01*
X236833Y138340D01*
X236360Y137867D01*
X235781Y137532D01*
X235134Y137359D01*
X230299Y137359D01*
G37*
%LPD*%
%LPC*%
G36*
X222466Y137359D02*
X222466Y137359D01*
X221819Y137532D01*
X221240Y137867D01*
X220767Y138340D01*
X220432Y138919D01*
X220259Y139566D01*
X220259Y141401D01*
X227301Y141401D01*
X227301Y137359D01*
X222466Y137359D01*
G37*
%LPD*%
%LPC*%
G36*
X204479Y226923D02*
X204479Y226923D01*
X204479Y231041D01*
X209069Y231041D01*
X209715Y230868D01*
X210295Y230533D01*
X210768Y230060D01*
X211102Y229481D01*
X211275Y228834D01*
X211275Y226923D01*
X204479Y226923D01*
G37*
%LPD*%
%LPC*%
G36*
X333799Y55499D02*
X333799Y55499D01*
X333799Y59541D01*
X337482Y59541D01*
X338510Y59265D01*
X339431Y58733D01*
X340183Y57981D01*
X340715Y57060D01*
X340991Y56032D01*
X340991Y55499D01*
X333799Y55499D01*
G37*
%LPD*%
%LPC*%
G36*
X422699Y55499D02*
X422699Y55499D01*
X422699Y59541D01*
X426382Y59541D01*
X427410Y59265D01*
X428331Y58733D01*
X429083Y57981D01*
X429615Y57060D01*
X429891Y56032D01*
X429891Y55499D01*
X422699Y55499D01*
G37*
%LPD*%
%LPC*%
G36*
X244899Y55499D02*
X244899Y55499D01*
X244899Y59541D01*
X248582Y59541D01*
X249610Y59265D01*
X250531Y58733D01*
X251283Y57981D01*
X251815Y57060D01*
X252091Y56032D01*
X252091Y55499D01*
X244899Y55499D01*
G37*
%LPD*%
%LPC*%
G36*
X234709Y55499D02*
X234709Y55499D01*
X234709Y56032D01*
X234985Y57060D01*
X235517Y57981D01*
X236269Y58733D01*
X237190Y59265D01*
X238218Y59541D01*
X241901Y59541D01*
X241901Y55499D01*
X234709Y55499D01*
G37*
%LPD*%
%LPC*%
G36*
X412509Y55499D02*
X412509Y55499D01*
X412509Y56032D01*
X412785Y57060D01*
X413317Y57981D01*
X414069Y58733D01*
X414990Y59265D01*
X416018Y59541D01*
X419701Y59541D01*
X419701Y55499D01*
X412509Y55499D01*
G37*
%LPD*%
%LPC*%
G36*
X323609Y55499D02*
X323609Y55499D01*
X323609Y56032D01*
X323885Y57060D01*
X324417Y57981D01*
X325169Y58733D01*
X326090Y59265D01*
X327118Y59541D01*
X330801Y59541D01*
X330801Y55499D01*
X323609Y55499D01*
G37*
%LPD*%
%LPC*%
G36*
X333799Y48459D02*
X333799Y48459D01*
X333799Y52501D01*
X340991Y52501D01*
X340991Y51968D01*
X340715Y50940D01*
X340183Y50019D01*
X339431Y49267D01*
X338510Y48735D01*
X337482Y48459D01*
X333799Y48459D01*
G37*
%LPD*%
%LPC*%
G36*
X244899Y48459D02*
X244899Y48459D01*
X244899Y52501D01*
X252091Y52501D01*
X252091Y51968D01*
X251815Y50940D01*
X251283Y50019D01*
X250531Y49267D01*
X249610Y48735D01*
X248582Y48459D01*
X244899Y48459D01*
G37*
%LPD*%
%LPC*%
G36*
X422699Y48459D02*
X422699Y48459D01*
X422699Y52501D01*
X429891Y52501D01*
X429891Y51968D01*
X429615Y50940D01*
X429083Y50019D01*
X428331Y49267D01*
X427410Y48735D01*
X426382Y48459D01*
X422699Y48459D01*
G37*
%LPD*%
%LPC*%
G36*
X327118Y48459D02*
X327118Y48459D01*
X326090Y48735D01*
X325169Y49267D01*
X324417Y50019D01*
X323885Y50940D01*
X323609Y51968D01*
X323609Y52501D01*
X330801Y52501D01*
X330801Y48459D01*
X327118Y48459D01*
G37*
%LPD*%
%LPC*%
G36*
X238218Y48459D02*
X238218Y48459D01*
X237190Y48735D01*
X236269Y49267D01*
X235517Y50019D01*
X234985Y50940D01*
X234709Y51968D01*
X234709Y52501D01*
X241901Y52501D01*
X241901Y48459D01*
X238218Y48459D01*
G37*
%LPD*%
%LPC*%
G36*
X416018Y48459D02*
X416018Y48459D01*
X414990Y48735D01*
X414069Y49267D01*
X413317Y50019D01*
X412785Y50940D01*
X412509Y51968D01*
X412509Y52501D01*
X419701Y52501D01*
X419701Y48459D01*
X416018Y48459D01*
G37*
%LPD*%
%LPC*%
G36*
X319023Y118977D02*
X319023Y118977D01*
X324541Y118977D01*
X324541Y116665D01*
X324368Y116019D01*
X324033Y115440D01*
X323560Y114967D01*
X322981Y114632D01*
X322334Y114459D01*
X319023Y114459D01*
X319023Y118977D01*
G37*
%LPD*%
%LPC*%
G36*
X272033Y118977D02*
X272033Y118977D01*
X277551Y118977D01*
X277551Y116665D01*
X277378Y116019D01*
X277043Y115440D01*
X276570Y114967D01*
X275991Y114632D01*
X275344Y114459D01*
X272033Y114459D01*
X272033Y118977D01*
G37*
%LPD*%
%LPC*%
G36*
X265676Y114459D02*
X265676Y114459D01*
X265029Y114632D01*
X264450Y114967D01*
X263977Y115440D01*
X263642Y116019D01*
X263469Y116666D01*
X263469Y118977D01*
X268987Y118977D01*
X268987Y114459D01*
X265676Y114459D01*
G37*
%LPD*%
%LPC*%
G36*
X312666Y114459D02*
X312666Y114459D01*
X312019Y114632D01*
X311440Y114967D01*
X310967Y115440D01*
X310632Y116019D01*
X310459Y116666D01*
X310459Y118977D01*
X315977Y118977D01*
X315977Y114459D01*
X312666Y114459D01*
G37*
%LPD*%
%LPC*%
G36*
X392722Y293199D02*
X392722Y293199D01*
X392722Y296541D01*
X395805Y296541D01*
X396858Y296259D01*
X397802Y295713D01*
X398573Y294942D01*
X399118Y293998D01*
X399332Y293199D01*
X392722Y293199D01*
G37*
%LPD*%
%LPC*%
G36*
X351159Y256576D02*
X351159Y256576D01*
X351159Y259659D01*
X351441Y260712D01*
X351987Y261656D01*
X352758Y262427D01*
X353702Y262972D01*
X354501Y263186D01*
X354501Y256576D01*
X351159Y256576D01*
G37*
%LPD*%
%LPC*%
G36*
X353702Y248582D02*
X353702Y248582D01*
X352758Y249127D01*
X351987Y249898D01*
X351441Y250842D01*
X351159Y251895D01*
X351159Y254978D01*
X354501Y254978D01*
X354501Y248368D01*
X353702Y248582D01*
G37*
%LPD*%
D10*
X356720Y187960D03*
X369720Y187960D03*
D11*
X207400Y368300D03*
X224400Y368300D03*
D12*
X216035Y285750D03*
X248785Y285750D03*
D13*
X124400Y311150D03*
X124400Y298450D03*
X124400Y285750D03*
X124400Y273050D03*
X180400Y273050D03*
X180400Y285750D03*
X180400Y298450D03*
X180400Y311150D03*
D14*
X584200Y38100D03*
X559200Y88100D03*
X534200Y88100D03*
X609200Y88100D03*
X634200Y88100D03*
D15*
X240910Y323850D03*
X223910Y323850D03*
D11*
X368300Y118500D03*
X368300Y135500D03*
D15*
X369180Y168910D03*
X352180Y168910D03*
X141850Y251460D03*
X124850Y251460D03*
D16*
X434220Y385224D02*
X434220Y390610D01*
X434220Y390610D01*
X434220Y385224D01*
X434220Y385224D01*
X434220Y388003D02*
X434220Y388003D01*
X429220Y390610D02*
X429220Y385224D01*
X429220Y390610D02*
X429220Y390610D01*
X429220Y385224D01*
X429220Y385224D01*
X429220Y388003D02*
X429220Y388003D01*
X424220Y390610D02*
X424220Y385224D01*
X424220Y390610D02*
X424220Y390610D01*
X424220Y385224D01*
X424220Y385224D01*
X424220Y388003D02*
X424220Y388003D01*
X419220Y390610D02*
X419220Y385224D01*
X419220Y390610D02*
X419220Y390610D01*
X419220Y385224D01*
X419220Y385224D01*
X419220Y388003D02*
X419220Y388003D01*
X419220Y371696D02*
X419220Y366310D01*
X419220Y371696D02*
X419220Y371696D01*
X419220Y366310D01*
X419220Y366310D01*
X419220Y369089D02*
X419220Y369089D01*
X424220Y371696D02*
X424220Y366310D01*
X424220Y371696D02*
X424220Y371696D01*
X424220Y366310D01*
X424220Y366310D01*
X424220Y369089D02*
X424220Y369089D01*
X429220Y371696D02*
X429220Y366310D01*
X429220Y371696D02*
X429220Y371696D01*
X429220Y366310D01*
X429220Y366310D01*
X429220Y369089D02*
X429220Y369089D01*
X434220Y371696D02*
X434220Y366310D01*
X434220Y371696D02*
X434220Y371696D01*
X434220Y366310D01*
X434220Y366310D01*
X434220Y369089D02*
X434220Y369089D01*
D17*
X426720Y378460D03*
D18*
X285480Y199800D02*
X275980Y199800D01*
X275980Y206300D02*
X285480Y206300D01*
X285480Y212800D02*
X275980Y212800D01*
X275980Y219300D02*
X285480Y219300D01*
X242180Y219300D02*
X232680Y219300D01*
X232680Y212800D02*
X242180Y212800D01*
X242180Y206300D02*
X232680Y206300D01*
X232680Y199800D02*
X242180Y199800D01*
D19*
X388587Y266400D02*
X395259Y266400D01*
X395259Y272900D02*
X388587Y272900D01*
X388587Y279400D02*
X395259Y279400D01*
X395259Y285900D02*
X388587Y285900D01*
X388587Y292400D02*
X395259Y292400D01*
X381300Y299687D02*
X381300Y306359D01*
X374800Y306359D02*
X374800Y299687D01*
X368300Y299687D02*
X368300Y306359D01*
X361800Y306359D02*
X361800Y299687D01*
X355300Y299687D02*
X355300Y306359D01*
X348013Y292400D02*
X341341Y292400D01*
X341341Y285900D02*
X348013Y285900D01*
X348013Y279400D02*
X341341Y279400D01*
X341341Y272900D02*
X348013Y272900D01*
X348013Y266400D02*
X341341Y266400D01*
X355300Y259113D02*
X355300Y252441D01*
X361800Y252441D02*
X361800Y259113D01*
X368300Y259113D02*
X368300Y252441D01*
X374800Y252441D02*
X374800Y259113D01*
X381300Y259113D02*
X381300Y252441D01*
D20*
X368300Y279400D03*
D21*
X429260Y411870D03*
X429260Y428870D03*
X444500Y321700D03*
X444500Y338700D03*
D22*
X421872Y336972D02*
X421872Y332328D01*
X416328Y332328D01*
X416328Y336972D01*
X421872Y336972D01*
X421872Y333046D02*
X416328Y333046D01*
X416328Y333764D02*
X421872Y333764D01*
X421872Y334482D02*
X416328Y334482D01*
X416328Y335200D02*
X421872Y335200D01*
X421872Y335918D02*
X416328Y335918D01*
X416328Y336636D02*
X421872Y336636D01*
X421872Y328072D02*
X421872Y323428D01*
X416328Y323428D01*
X416328Y328072D01*
X421872Y328072D01*
X421872Y324146D02*
X416328Y324146D01*
X416328Y324864D02*
X421872Y324864D01*
X421872Y325582D02*
X416328Y325582D01*
X416328Y326300D02*
X421872Y326300D01*
X421872Y327018D02*
X416328Y327018D01*
X416328Y327736D02*
X421872Y327736D01*
D16*
X99780Y203320D02*
X94394Y203320D01*
X99780Y203320D02*
X99780Y203320D01*
X94394Y203320D01*
X94394Y203320D01*
X94394Y208320D02*
X99780Y208320D01*
X99780Y208320D01*
X94394Y208320D01*
X94394Y208320D01*
X94394Y213320D02*
X99780Y213320D01*
X99780Y213320D01*
X94394Y213320D01*
X94394Y213320D01*
X94394Y218320D02*
X99780Y218320D01*
X99780Y218320D01*
X94394Y218320D01*
X94394Y218320D01*
X80866Y218320D02*
X75480Y218320D01*
X80866Y218320D02*
X80866Y218320D01*
X75480Y218320D01*
X75480Y218320D01*
X75480Y213320D02*
X80866Y213320D01*
X80866Y213320D01*
X75480Y213320D01*
X75480Y213320D01*
X75480Y208320D02*
X80866Y208320D01*
X80866Y208320D01*
X75480Y208320D01*
X75480Y208320D01*
X75480Y203320D02*
X80866Y203320D01*
X80866Y203320D01*
X75480Y203320D01*
X75480Y203320D01*
D23*
X87630Y210820D03*
D24*
X178044Y225400D03*
X178044Y215900D03*
X178044Y206400D03*
X202956Y206400D03*
X202956Y225400D03*
D25*
X135500Y190500D03*
X118500Y190500D03*
D21*
X88900Y426330D03*
X88900Y409330D03*
D22*
X67542Y244262D02*
X67542Y239618D01*
X61998Y239618D01*
X61998Y244262D01*
X67542Y244262D01*
X67542Y240336D02*
X61998Y240336D01*
X61998Y241054D02*
X67542Y241054D01*
X67542Y241772D02*
X61998Y241772D01*
X61998Y242490D02*
X67542Y242490D01*
X67542Y243208D02*
X61998Y243208D01*
X61998Y243926D02*
X67542Y243926D01*
X67542Y235362D02*
X67542Y230718D01*
X61998Y230718D01*
X61998Y235362D01*
X67542Y235362D01*
X67542Y231436D02*
X61998Y231436D01*
X61998Y232154D02*
X67542Y232154D01*
X67542Y232872D02*
X61998Y232872D01*
X61998Y233590D02*
X67542Y233590D01*
X67542Y234308D02*
X61998Y234308D01*
X61998Y235026D02*
X67542Y235026D01*
X243428Y98828D02*
X248072Y98828D01*
X243428Y98828D02*
X243428Y104372D01*
X248072Y104372D01*
X248072Y98828D01*
X248072Y99546D02*
X243428Y99546D01*
X243428Y100264D02*
X248072Y100264D01*
X248072Y100982D02*
X243428Y100982D01*
X243428Y101700D02*
X248072Y101700D01*
X248072Y102418D02*
X243428Y102418D01*
X243428Y103136D02*
X248072Y103136D01*
X248072Y103854D02*
X243428Y103854D01*
X239172Y98828D02*
X234528Y98828D01*
X234528Y104372D01*
X239172Y104372D01*
X239172Y98828D01*
X239172Y99546D02*
X234528Y99546D01*
X234528Y100264D02*
X239172Y100264D01*
X239172Y100982D02*
X234528Y100982D01*
X234528Y101700D02*
X239172Y101700D01*
X239172Y102418D02*
X234528Y102418D01*
X234528Y103136D02*
X239172Y103136D01*
X239172Y103854D02*
X234528Y103854D01*
D26*
X532638Y285750D03*
X532638Y298450D03*
X532638Y311150D03*
X532638Y323850D03*
X483362Y323850D03*
X483362Y311150D03*
X483362Y298450D03*
X483362Y285750D03*
D27*
X114300Y462280D03*
X63500Y462280D03*
D28*
X88900Y462280D03*
D27*
X454660Y461010D03*
X403860Y461010D03*
D28*
X429260Y461010D03*
D15*
X453000Y215900D03*
X436000Y215900D03*
X402200Y215900D03*
X385200Y215900D03*
D29*
X416550Y71500D02*
X425850Y71500D01*
X416550Y71500D02*
X416550Y74500D01*
X425850Y74500D01*
X425850Y71500D01*
X425850Y74350D02*
X416550Y74350D01*
X416550Y52500D02*
X425850Y52500D01*
X416550Y52500D02*
X416550Y55500D01*
X425850Y55500D01*
X425850Y52500D01*
X425850Y55350D02*
X416550Y55350D01*
X437750Y62000D02*
X447050Y62000D01*
X437750Y62000D02*
X437750Y65000D01*
X447050Y65000D01*
X447050Y62000D01*
X447050Y64850D02*
X437750Y64850D01*
X336950Y71500D02*
X327650Y71500D01*
X327650Y74500D01*
X336950Y74500D01*
X336950Y71500D01*
X336950Y74350D02*
X327650Y74350D01*
X327650Y52500D02*
X336950Y52500D01*
X327650Y52500D02*
X327650Y55500D01*
X336950Y55500D01*
X336950Y52500D01*
X336950Y55350D02*
X327650Y55350D01*
X348850Y62000D02*
X358150Y62000D01*
X348850Y62000D02*
X348850Y65000D01*
X358150Y65000D01*
X358150Y62000D01*
X358150Y64850D02*
X348850Y64850D01*
X248050Y71500D02*
X238750Y71500D01*
X238750Y74500D01*
X248050Y74500D01*
X248050Y71500D01*
X248050Y74350D02*
X238750Y74350D01*
X238750Y52500D02*
X248050Y52500D01*
X238750Y52500D02*
X238750Y55500D01*
X248050Y55500D01*
X248050Y52500D01*
X248050Y55350D02*
X238750Y55350D01*
X259950Y62000D02*
X269250Y62000D01*
X259950Y62000D02*
X259950Y65000D01*
X269250Y65000D01*
X269250Y62000D01*
X269250Y64850D02*
X259950Y64850D01*
D11*
X292100Y118500D03*
X292100Y135500D03*
D13*
X228800Y161900D03*
X228800Y152400D03*
X228800Y142900D03*
X253800Y142900D03*
X253800Y161900D03*
D30*
X317500Y133500D03*
X317500Y120500D03*
X270510Y133500D03*
X270510Y120500D03*
D31*
X353500Y63500D02*
X368300Y63500D01*
X368300Y76200D01*
X368300Y101600D01*
X330200Y101600D01*
X330200Y75100D01*
X332300Y73000D01*
X371500Y73000D02*
X421200Y73000D01*
X371500Y73000D02*
X368300Y76200D01*
X368300Y101600D02*
X368300Y118500D01*
D32*
X243400Y73000D02*
X228600Y73000D01*
X203200Y47600D01*
X203200Y25400D01*
X309880Y25400D01*
X309880Y74930D01*
X310050Y75100D01*
X330200Y75100D01*
D31*
X442400Y63500D02*
X457200Y63500D01*
D33*
X444500Y187960D02*
X369720Y187960D01*
X444500Y187960D02*
X457200Y175260D01*
X457200Y63500D01*
D34*
X223910Y323850D02*
X219710Y323850D01*
D35*
X182480Y300530D02*
X180400Y298450D01*
X182480Y300530D02*
X196390Y300530D01*
X214630Y318770D01*
X219710Y323850D01*
D36*
X467360Y285750D03*
D32*
X483362Y285750D01*
D36*
X332740Y250190D03*
X400050Y241300D03*
D34*
X381300Y317500D02*
X381000Y317500D01*
D36*
X381300Y330200D03*
D34*
X64770Y241940D02*
X62230Y244480D01*
X64770Y254000D02*
X50800Y254000D01*
D36*
X50800Y254000D03*
D35*
X393700Y247650D02*
X400050Y241300D01*
X393700Y247650D02*
X393700Y263680D01*
X344677Y272900D02*
X332740Y272900D01*
X332740Y270839D01*
X332121Y270219D01*
X332121Y262581D01*
X332740Y261961D01*
X332740Y250190D01*
X304800Y219300D02*
X280730Y219300D01*
X304800Y219300D02*
X332740Y247240D01*
X332740Y250190D01*
X280730Y219300D02*
X241300Y219300D01*
X237430Y219300D02*
X237430Y212800D01*
D37*
X64770Y241940D02*
X64770Y254000D01*
X419100Y317500D02*
X419100Y325750D01*
X419100Y317500D02*
X381000Y317500D01*
X381300Y317200D02*
X381300Y303023D01*
X381300Y317200D02*
X381000Y317500D01*
X368300Y317500D01*
X368300Y303023D01*
X381000Y317500D02*
X381000Y329900D01*
X381300Y330200D01*
D34*
X254000Y285750D02*
X248785Y285750D01*
X280730Y206300D02*
X309880Y206300D01*
X309880Y209550D01*
D36*
X309880Y209550D03*
X104267Y304800D03*
X330200Y190500D03*
X270510Y285750D03*
D33*
X332740Y187960D02*
X356720Y187960D01*
X332740Y187960D02*
X330200Y190500D01*
X330200Y171450D01*
X332740Y168910D01*
X352180Y168910D01*
D35*
X124400Y298450D02*
X110617Y298450D01*
X104267Y304800D01*
X240910Y323850D02*
X266700Y323850D01*
X270510Y320040D01*
X270510Y285750D01*
X254000Y285750D01*
D36*
X609200Y127000D03*
D33*
X609200Y88100D01*
D31*
X369180Y135500D02*
X368300Y135500D01*
X369180Y135500D02*
X369180Y168910D01*
D36*
X292100Y160020D03*
D32*
X292100Y135500D01*
D36*
X393700Y156210D03*
D32*
X394580Y157090D02*
X394580Y168910D01*
X394580Y157090D02*
X393700Y156210D01*
X394580Y168910D02*
X369180Y168910D01*
D36*
X203200Y330200D03*
D34*
X203200Y328930D01*
D35*
X270510Y161900D02*
X290220Y161900D01*
X270510Y161900D02*
X253800Y161900D01*
X290220Y161900D02*
X292100Y160020D01*
X270510Y161900D02*
X270510Y133500D01*
X317500Y133500D02*
X317500Y161290D01*
X293370Y161290D01*
X292100Y160020D01*
X180400Y311150D02*
X180400Y320100D01*
X190500Y330200D01*
X201930Y330200D01*
X203200Y328930D01*
D34*
X124400Y285750D02*
X124400Y285642D01*
X124400Y285750D02*
X111760Y285750D01*
X111760Y251460D01*
X124850Y251460D01*
X203200Y368300D02*
X207400Y368300D01*
D35*
X178320Y275130D02*
X180400Y273050D01*
X178320Y275130D02*
X171244Y275130D01*
X165100Y281274D01*
X165100Y368300D01*
X203200Y368300D01*
D34*
X180400Y285750D02*
X180400Y285642D01*
D35*
X180400Y285750D02*
X216035Y285750D01*
D33*
X202956Y206400D02*
X203616Y205740D01*
X204176Y206300D01*
X237430Y206300D01*
D34*
X422910Y272900D02*
X425300Y272900D01*
D38*
X422910Y272900D02*
X441810Y272900D01*
X422910Y272900D02*
X406400Y272900D01*
X391923Y272900D01*
X444500Y279394D02*
X444500Y321700D01*
X444500Y279394D02*
X444497Y279175D01*
X444490Y278957D01*
X444477Y278739D01*
X444458Y278521D01*
X444435Y278304D01*
X444407Y278087D01*
X444373Y277871D01*
X444334Y277656D01*
X444290Y277442D01*
X444241Y277229D01*
X444187Y277017D01*
X444128Y276807D01*
X444064Y276598D01*
X443995Y276390D01*
X443921Y276185D01*
X443842Y275981D01*
X443758Y275779D01*
X443670Y275579D01*
X443577Y275381D01*
X443479Y275186D01*
X443377Y274993D01*
X443270Y274802D01*
X443158Y274614D01*
X443042Y274429D01*
X442922Y274246D01*
X442797Y274067D01*
X442668Y273890D01*
X442535Y273717D01*
X442398Y273547D01*
X442257Y273380D01*
X442112Y273216D01*
X441963Y273056D01*
X441810Y272900D01*
X429220Y387917D02*
X429220Y400825D01*
D33*
X429260Y411870D02*
X433795Y411870D01*
D38*
X433535Y411604D01*
X433282Y411332D01*
X433035Y411054D01*
X432795Y410770D01*
X432562Y410481D01*
X432336Y410186D01*
X432116Y409886D01*
X431904Y409580D01*
X431700Y409270D01*
X431502Y408955D01*
X431313Y408635D01*
X431131Y408311D01*
X430956Y407983D01*
X430790Y407650D01*
X430632Y407314D01*
X430481Y406974D01*
X430339Y406630D01*
X430205Y406284D01*
X430079Y405934D01*
X429962Y405581D01*
X429853Y405226D01*
X429752Y404868D01*
X429660Y404508D01*
X429577Y404145D01*
X429502Y403781D01*
X429436Y403415D01*
X429379Y403048D01*
X429330Y402679D01*
X429291Y402310D01*
X429260Y401939D01*
X429238Y401568D01*
X429224Y401197D01*
X429220Y400825D01*
D34*
X419220Y369003D02*
X419100Y368980D01*
D37*
X419100Y351317D02*
X419100Y334650D01*
X415330Y355087D02*
X415330Y367972D01*
X415330Y355087D02*
X419100Y351317D01*
X418189Y367972D02*
X419220Y369003D01*
X418189Y367972D02*
X415330Y367972D01*
D35*
X374800Y217170D02*
X376070Y215900D01*
X385200Y215900D01*
X374800Y217170D02*
X374800Y255777D01*
D38*
X178044Y206400D02*
X169584Y197940D01*
X169584Y197939D02*
X169151Y197517D01*
X168709Y197105D01*
X168256Y196704D01*
X167795Y196314D01*
X167324Y195934D01*
X166845Y195566D01*
X166356Y195210D01*
X165860Y194865D01*
X165355Y194532D01*
X164843Y194211D01*
X164323Y193903D01*
X163796Y193607D01*
X163262Y193324D01*
X162721Y193053D01*
X162175Y192795D01*
X161622Y192551D01*
X161063Y192319D01*
X160499Y192101D01*
X159931Y191897D01*
X159357Y191706D01*
X158779Y191529D01*
X158197Y191365D01*
X157611Y191216D01*
X157022Y191080D01*
X156430Y190959D01*
X155835Y190852D01*
X155238Y190759D01*
X154638Y190680D01*
X154037Y190615D01*
X153435Y190565D01*
X152832Y190529D01*
X152227Y190507D01*
X151623Y190500D01*
X135500Y190500D01*
D37*
X89648Y408583D02*
X88900Y409330D01*
X97087Y223520D02*
X97087Y218320D01*
D33*
X89467Y407961D02*
X89465Y408045D01*
X89460Y408130D01*
X89450Y408214D01*
X89438Y408297D01*
X89421Y408380D01*
X89401Y408462D01*
X89377Y408543D01*
X89350Y408623D01*
X89320Y408702D01*
X89286Y408779D01*
X89248Y408855D01*
X89208Y408929D01*
X89164Y409001D01*
X89117Y409071D01*
X89067Y409140D01*
X89014Y409205D01*
X88958Y409269D01*
X88900Y409330D01*
D38*
X97087Y260692D02*
X97087Y223520D01*
X97087Y260692D02*
X97079Y261315D01*
X97056Y261938D01*
X97018Y262561D01*
X96965Y263182D01*
X96896Y263801D01*
X96812Y264419D01*
X96713Y265034D01*
X96599Y265647D01*
X96470Y266257D01*
X96326Y266864D01*
X96167Y267467D01*
X95993Y268065D01*
X95805Y268660D01*
X95602Y269249D01*
X95385Y269833D01*
X95154Y270412D01*
X94908Y270985D01*
X94648Y271552D01*
X94375Y272112D01*
X94088Y272665D01*
X93787Y273212D01*
X93473Y273750D01*
X93146Y274281D01*
X92806Y274803D01*
X92454Y275318D01*
X92088Y275823D01*
X91711Y276319D01*
X91321Y276806D01*
X90920Y277283D01*
X90507Y277750D01*
X90083Y278206D01*
X89648Y278653D01*
X74930Y293370D01*
X74930Y303913D01*
X74938Y304621D01*
X74964Y305328D01*
X75006Y306034D01*
X75065Y306740D01*
X75140Y307443D01*
X75233Y308145D01*
X75342Y308844D01*
X75467Y309541D01*
X75610Y310234D01*
X75768Y310924D01*
X75943Y311609D01*
X76135Y312291D01*
X76342Y312967D01*
X76565Y313639D01*
X76805Y314305D01*
X77060Y314965D01*
X77331Y315619D01*
X77617Y316266D01*
X77919Y316906D01*
X78236Y317539D01*
X78567Y318164D01*
X78914Y318781D01*
X79275Y319390D01*
X79650Y319989D01*
X80040Y320580D01*
X80444Y321162D01*
X80861Y321733D01*
X81292Y322295D01*
X81736Y322846D01*
X82193Y323386D01*
X82663Y323915D01*
X83145Y324433D01*
X83639Y324940D01*
X83640Y324940D02*
X88900Y330200D01*
X88900Y409330D01*
D36*
X50800Y213320D03*
X190500Y114300D03*
D33*
X203200Y101600D01*
X236850Y101600D01*
D37*
X78173Y213320D02*
X50800Y213320D01*
D38*
X88900Y426330D02*
X88900Y462280D01*
X429260Y444500D02*
X429260Y428870D01*
D34*
X453000Y215900D02*
X454660Y214240D01*
D39*
X559200Y213898D02*
X559200Y88100D01*
X559200Y213898D02*
X557372Y214240D01*
X558800Y214240D01*
X557372Y214240D02*
X454660Y214240D01*
D40*
X532638Y285750D02*
X552450Y285750D01*
X558800Y279400D01*
X558800Y214240D01*
D39*
X436000Y215900D02*
X402200Y215900D01*
D34*
X519938Y311150D02*
X532638Y311150D01*
D40*
X504916Y311150D01*
D34*
X503646Y309880D01*
D40*
X503646Y279400D01*
X465546Y241300D01*
X431800Y241300D01*
X431800Y220100D01*
X436000Y215900D01*
D31*
X292100Y63500D02*
X264600Y63500D01*
X245750Y101600D02*
X292100Y101600D01*
X292100Y114300D01*
X292100Y101600D02*
X292100Y63500D01*
D37*
X64770Y223520D02*
X64770Y233040D01*
X72973Y223520D02*
X78173Y218320D01*
X72973Y223520D02*
X64770Y223520D01*
D38*
X101600Y190500D02*
X118500Y190500D01*
X101600Y190500D02*
X97087Y195013D01*
X97087Y202159D01*
D33*
X165100Y225400D02*
X178044Y225400D01*
D38*
X330500Y292400D02*
X344677Y292400D01*
X165100Y230779D02*
X165100Y225400D01*
X165100Y230779D02*
X165108Y231402D01*
X165131Y232025D01*
X165169Y232648D01*
X165222Y233269D01*
X165291Y233888D01*
X165375Y234506D01*
X165474Y235121D01*
X165588Y235734D01*
X165717Y236344D01*
X165861Y236951D01*
X166020Y237554D01*
X166194Y238152D01*
X166382Y238747D01*
X166585Y239336D01*
X166802Y239920D01*
X167033Y240499D01*
X167279Y241072D01*
X167539Y241639D01*
X167812Y242199D01*
X168099Y242752D01*
X168400Y243299D01*
X168714Y243837D01*
X169041Y244368D01*
X169381Y244890D01*
X169733Y245405D01*
X170099Y245910D01*
X170476Y246406D01*
X170866Y246893D01*
X171267Y247370D01*
X171680Y247837D01*
X172104Y248293D01*
X172539Y248740D01*
X172540Y248740D02*
X177800Y254000D01*
X178181Y254372D01*
X178571Y254734D01*
X178969Y255086D01*
X179376Y255429D01*
X179792Y255761D01*
X180215Y256084D01*
X180646Y256395D01*
X181085Y256696D01*
X181531Y256986D01*
X181984Y257266D01*
X182444Y257533D01*
X182910Y257790D01*
X183382Y258035D01*
X183861Y258268D01*
X184344Y258490D01*
X184833Y258700D01*
X185327Y258897D01*
X185826Y259083D01*
X186329Y259256D01*
X186837Y259416D01*
X187348Y259565D01*
X187862Y259700D01*
X188380Y259823D01*
X188900Y259933D01*
X189424Y260031D01*
X189949Y260115D01*
X190476Y260187D01*
X191005Y260246D01*
X191535Y260291D01*
X192066Y260324D01*
X192598Y260343D01*
X193130Y260350D01*
X292100Y260350D01*
X319660Y287910D02*
X319929Y288173D01*
X320205Y288429D01*
X320487Y288678D01*
X320775Y288920D01*
X321069Y289155D01*
X321368Y289383D01*
X321673Y289604D01*
X321983Y289816D01*
X322298Y290022D01*
X322619Y290219D01*
X322944Y290408D01*
X323273Y290590D01*
X323607Y290763D01*
X323946Y290928D01*
X324288Y291085D01*
X324633Y291233D01*
X324983Y291373D01*
X325335Y291504D01*
X325691Y291626D01*
X326050Y291740D01*
X326411Y291845D01*
X326775Y291941D01*
X327141Y292028D01*
X327509Y292105D01*
X327879Y292174D01*
X328251Y292234D01*
X328623Y292285D01*
X328997Y292326D01*
X329372Y292358D01*
X329748Y292382D01*
X330124Y292395D01*
X330500Y292400D01*
X319660Y287910D02*
X292100Y260350D01*
X424220Y358769D02*
X429595Y353395D01*
D34*
X429889Y353100D01*
D38*
X424220Y358769D02*
X424220Y369003D01*
D37*
X424220Y358769D02*
X424220Y358769D01*
D38*
X429595Y353395D01*
X429889Y353100D02*
X444140Y338849D01*
D33*
X444173Y338819D01*
X444208Y338792D01*
X444246Y338768D01*
X444285Y338748D01*
X444326Y338731D01*
X444368Y338717D01*
X444412Y338708D01*
X444456Y338702D01*
X444500Y338700D01*
D34*
X228600Y368300D02*
X224400Y368300D01*
X124400Y311150D02*
X123190Y311150D01*
D41*
X274121Y212800D02*
X280730Y212800D01*
X274121Y212800D02*
X273498Y212792D01*
X272875Y212769D01*
X272252Y212731D01*
X271631Y212678D01*
X271012Y212609D01*
X270394Y212525D01*
X269779Y212426D01*
X269166Y212312D01*
X268556Y212183D01*
X267949Y212039D01*
X267346Y211880D01*
X266748Y211706D01*
X266153Y211518D01*
X265564Y211315D01*
X264980Y211098D01*
X264401Y210867D01*
X263828Y210621D01*
X263261Y210361D01*
X262701Y210088D01*
X262148Y209801D01*
X261601Y209500D01*
X261063Y209186D01*
X260532Y208859D01*
X260010Y208519D01*
X259495Y208167D01*
X258990Y207801D01*
X258494Y207424D01*
X258007Y207034D01*
X257530Y206633D01*
X257063Y206220D01*
X256607Y205796D01*
X256160Y205361D01*
X256161Y205361D02*
X254000Y203200D01*
X114300Y213320D02*
X97087Y213320D01*
X87630Y210820D02*
X87630Y177800D01*
X317500Y120500D02*
X330200Y120500D01*
X330556Y120504D01*
X330912Y120517D01*
X331268Y120538D01*
X331623Y120568D01*
X331977Y120606D01*
X332330Y120652D01*
X332682Y120707D01*
X333033Y120770D01*
X333382Y120842D01*
X333729Y120922D01*
X334074Y121010D01*
X334417Y121106D01*
X334758Y121211D01*
X335096Y121323D01*
X335431Y121444D01*
X335763Y121572D01*
X336092Y121709D01*
X336418Y121853D01*
X336740Y122004D01*
X337059Y122164D01*
X337373Y122331D01*
X337684Y122505D01*
X337990Y122687D01*
X338292Y122876D01*
X338590Y123072D01*
X338882Y123275D01*
X339170Y123485D01*
X339453Y123702D01*
X339730Y123926D01*
X340002Y124156D01*
X340268Y124392D01*
X340529Y124635D01*
X340784Y124884D01*
X342900Y127000D01*
X342900Y129179D01*
X342892Y129802D01*
X342869Y130425D01*
X342831Y131048D01*
X342778Y131669D01*
X342709Y132288D01*
X342625Y132906D01*
X342526Y133521D01*
X342412Y134134D01*
X342283Y134744D01*
X342139Y135351D01*
X341980Y135954D01*
X341806Y136552D01*
X341618Y137147D01*
X341415Y137736D01*
X341198Y138320D01*
X340967Y138899D01*
X340721Y139472D01*
X340461Y140039D01*
X340188Y140599D01*
X339901Y141152D01*
X339600Y141699D01*
X339286Y142237D01*
X338959Y142768D01*
X338619Y143290D01*
X338267Y143805D01*
X337901Y144310D01*
X337524Y144806D01*
X337134Y145293D01*
X336733Y145770D01*
X336320Y146237D01*
X335896Y146693D01*
X335461Y147140D01*
X327660Y154940D01*
X327660Y161290D01*
X316230Y173990D01*
X243400Y54000D02*
X241300Y38100D01*
X245147Y38100D01*
X260387Y53340D01*
D36*
X292100Y43180D03*
D41*
X279400Y38100D01*
X243840Y38100D02*
X243840Y53340D01*
X243840Y38100D02*
X279400Y38100D01*
X250600Y199800D02*
X237430Y199800D01*
X250600Y199800D02*
X250714Y199802D01*
X250827Y199808D01*
X250940Y199817D01*
X251053Y199830D01*
X251166Y199847D01*
X251277Y199868D01*
X251388Y199893D01*
X251498Y199921D01*
X251607Y199953D01*
X251715Y199988D01*
X251822Y200027D01*
X251927Y200070D01*
X252031Y200116D01*
X252133Y200165D01*
X252234Y200218D01*
X252333Y200275D01*
X252429Y200334D01*
X252524Y200397D01*
X252617Y200463D01*
X252707Y200532D01*
X252795Y200604D01*
X252881Y200678D01*
X252964Y200756D01*
X253044Y200836D01*
X253122Y200919D01*
X253196Y201005D01*
X253268Y201093D01*
X253337Y201183D01*
X253403Y201276D01*
X253466Y201371D01*
X253525Y201467D01*
X253582Y201566D01*
X253635Y201667D01*
X253684Y201769D01*
X253730Y201873D01*
X253773Y201978D01*
X253812Y202085D01*
X253847Y202193D01*
X253879Y202302D01*
X253907Y202412D01*
X253932Y202523D01*
X253953Y202634D01*
X253970Y202747D01*
X253983Y202860D01*
X253992Y202973D01*
X253998Y203086D01*
X254000Y203200D01*
X91670Y177800D02*
X87630Y177800D01*
X91670Y177800D02*
X96242Y173228D01*
X153255Y173228D01*
X178044Y215900D02*
X190500Y215900D01*
X202956Y225400D01*
X190500Y215900D02*
X190500Y190500D01*
D36*
X12700Y101600D03*
D42*
X38100Y101600D01*
D36*
X355600Y12700D03*
X12700Y146050D03*
D42*
X25400Y146050D01*
X38100Y146050D01*
M02*
