G04 EAGLE Gerber RS-274X export*
G75*
%MOMM*%
%FSLAX34Y34*%
%LPD*%
%INBottom Copper*%
%IPPOS*%
%AMOC8*
5,1,8,0,0,1.08239X$1,22.5*%
G01*
%ADD10C,2.184400*%
%ADD11R,1.524000X4.064000*%
%ADD12C,1.041400*%
%ADD13C,0.635000*%

G36*
X966582Y10169D02*
X966582Y10169D01*
X966640Y10167D01*
X966722Y10189D01*
X966806Y10201D01*
X966859Y10224D01*
X966915Y10239D01*
X966988Y10282D01*
X967065Y10317D01*
X967110Y10355D01*
X967160Y10384D01*
X967218Y10446D01*
X967282Y10500D01*
X967314Y10549D01*
X967354Y10592D01*
X967393Y10667D01*
X967440Y10737D01*
X967457Y10793D01*
X967484Y10845D01*
X967495Y10913D01*
X967525Y11008D01*
X967528Y11108D01*
X967539Y11176D01*
X967539Y522720D01*
X967531Y522778D01*
X967532Y522837D01*
X967511Y522918D01*
X967499Y523001D01*
X967475Y523055D01*
X967460Y523112D01*
X967417Y523184D01*
X967383Y523260D01*
X967345Y523306D01*
X967315Y523356D01*
X967253Y523414D01*
X967200Y523477D01*
X967150Y523510D01*
X967107Y523551D01*
X967033Y523589D01*
X966963Y523635D01*
X966907Y523653D01*
X966854Y523680D01*
X966786Y523691D01*
X966692Y523721D01*
X966591Y523723D01*
X966523Y523735D01*
X943475Y523705D01*
X943417Y523697D01*
X943360Y523698D01*
X943277Y523677D01*
X943193Y523665D01*
X943140Y523641D01*
X943085Y523626D01*
X943012Y523583D01*
X942934Y523548D01*
X942890Y523511D01*
X942840Y523481D01*
X942782Y523419D01*
X942717Y523364D01*
X942685Y523316D01*
X942646Y523274D01*
X942607Y523198D01*
X942560Y523127D01*
X942543Y523072D01*
X942516Y523021D01*
X942505Y522952D01*
X942474Y522856D01*
X942472Y522757D01*
X942461Y522690D01*
X942461Y517085D01*
X940000Y511146D01*
X937373Y508518D01*
X937338Y508471D01*
X937295Y508431D01*
X937252Y508358D01*
X937202Y508291D01*
X937181Y508236D01*
X937151Y508186D01*
X937131Y508104D01*
X937101Y508025D01*
X937096Y507967D01*
X937081Y507910D01*
X937084Y507826D01*
X937077Y507742D01*
X937088Y507684D01*
X937090Y507626D01*
X937116Y507546D01*
X937133Y507463D01*
X937160Y507411D01*
X937178Y507355D01*
X937218Y507299D01*
X937264Y507211D01*
X937333Y507138D01*
X937373Y507082D01*
X940000Y504454D01*
X942461Y498515D01*
X942461Y492085D01*
X940000Y486146D01*
X935454Y481600D01*
X929515Y479139D01*
X923085Y479139D01*
X917146Y481600D01*
X912600Y486146D01*
X910139Y492085D01*
X910139Y498515D01*
X912600Y504454D01*
X915227Y507082D01*
X915262Y507129D01*
X915305Y507169D01*
X915348Y507242D01*
X915398Y507309D01*
X915419Y507364D01*
X915449Y507414D01*
X915469Y507496D01*
X915499Y507575D01*
X915504Y507633D01*
X915519Y507690D01*
X915516Y507774D01*
X915523Y507858D01*
X915512Y507916D01*
X915510Y507974D01*
X915484Y508054D01*
X915467Y508137D01*
X915440Y508189D01*
X915422Y508245D01*
X915382Y508301D01*
X915336Y508389D01*
X915267Y508462D01*
X915227Y508518D01*
X912600Y511146D01*
X910139Y517085D01*
X910139Y522645D01*
X910131Y522703D01*
X910132Y522763D01*
X910111Y522844D01*
X910099Y522926D01*
X910075Y522980D01*
X910060Y523038D01*
X910017Y523109D01*
X909983Y523186D01*
X909945Y523231D01*
X909915Y523282D01*
X909853Y523339D01*
X909800Y523403D01*
X909750Y523436D01*
X909707Y523476D01*
X909633Y523514D01*
X909563Y523560D01*
X909507Y523578D01*
X909454Y523605D01*
X909386Y523616D01*
X909292Y523646D01*
X909191Y523649D01*
X909123Y523660D01*
X843475Y523575D01*
X843417Y523567D01*
X843360Y523568D01*
X843277Y523547D01*
X843193Y523535D01*
X843140Y523511D01*
X843085Y523496D01*
X843012Y523453D01*
X842934Y523418D01*
X842890Y523381D01*
X842840Y523351D01*
X842782Y523289D01*
X842717Y523234D01*
X842685Y523186D01*
X842646Y523144D01*
X842607Y523068D01*
X842560Y522997D01*
X842543Y522942D01*
X842516Y522891D01*
X842505Y522822D01*
X842474Y522726D01*
X842472Y522627D01*
X842461Y522560D01*
X842461Y517085D01*
X840000Y511146D01*
X837373Y508518D01*
X837338Y508471D01*
X837295Y508431D01*
X837252Y508358D01*
X837202Y508291D01*
X837181Y508236D01*
X837151Y508186D01*
X837131Y508104D01*
X837101Y508025D01*
X837096Y507967D01*
X837081Y507910D01*
X837084Y507826D01*
X837077Y507742D01*
X837088Y507684D01*
X837090Y507626D01*
X837116Y507546D01*
X837133Y507463D01*
X837160Y507411D01*
X837178Y507355D01*
X837218Y507299D01*
X837264Y507211D01*
X837333Y507138D01*
X837373Y507082D01*
X840000Y504454D01*
X842461Y498515D01*
X842461Y492085D01*
X840000Y486146D01*
X835454Y481600D01*
X829515Y479139D01*
X823085Y479139D01*
X817146Y481600D01*
X812600Y486146D01*
X810139Y492085D01*
X810139Y498515D01*
X812600Y504454D01*
X815227Y507082D01*
X815262Y507129D01*
X815305Y507169D01*
X815348Y507242D01*
X815398Y507309D01*
X815419Y507364D01*
X815449Y507414D01*
X815469Y507496D01*
X815499Y507575D01*
X815504Y507633D01*
X815519Y507690D01*
X815516Y507774D01*
X815523Y507858D01*
X815512Y507916D01*
X815510Y507974D01*
X815484Y508054D01*
X815467Y508137D01*
X815440Y508189D01*
X815422Y508245D01*
X815382Y508301D01*
X815336Y508389D01*
X815267Y508462D01*
X815227Y508518D01*
X812600Y511146D01*
X810139Y517085D01*
X810139Y522515D01*
X810131Y522574D01*
X810132Y522633D01*
X810111Y522714D01*
X810099Y522797D01*
X810075Y522850D01*
X810060Y522908D01*
X810017Y522980D01*
X809983Y523056D01*
X809945Y523101D01*
X809915Y523152D01*
X809853Y523209D01*
X809800Y523273D01*
X809750Y523306D01*
X809707Y523346D01*
X809633Y523384D01*
X809563Y523431D01*
X809507Y523448D01*
X809454Y523475D01*
X809386Y523487D01*
X809292Y523516D01*
X809191Y523519D01*
X809123Y523530D01*
X11175Y522494D01*
X11117Y522486D01*
X11060Y522487D01*
X10977Y522466D01*
X10893Y522454D01*
X10840Y522430D01*
X10785Y522415D01*
X10712Y522372D01*
X10634Y522337D01*
X10590Y522300D01*
X10540Y522270D01*
X10482Y522208D01*
X10417Y522153D01*
X10385Y522105D01*
X10346Y522063D01*
X10307Y521987D01*
X10260Y521916D01*
X10243Y521861D01*
X10216Y521810D01*
X10205Y521741D01*
X10174Y521645D01*
X10172Y521546D01*
X10161Y521479D01*
X10161Y11176D01*
X10169Y11118D01*
X10167Y11060D01*
X10189Y10978D01*
X10201Y10894D01*
X10224Y10841D01*
X10239Y10785D01*
X10282Y10712D01*
X10317Y10635D01*
X10355Y10590D01*
X10384Y10540D01*
X10446Y10482D01*
X10500Y10418D01*
X10549Y10386D01*
X10592Y10346D01*
X10667Y10307D01*
X10737Y10260D01*
X10793Y10243D01*
X10845Y10216D01*
X10913Y10205D01*
X11008Y10175D01*
X11108Y10172D01*
X11176Y10161D01*
X966524Y10161D01*
X966582Y10169D01*
G37*
%LPC*%
G36*
X188454Y104012D02*
X188454Y104012D01*
X184672Y105579D01*
X184504Y105747D01*
X184434Y105799D01*
X184370Y105859D01*
X184321Y105885D01*
X184277Y105918D01*
X184195Y105949D01*
X184117Y105989D01*
X184070Y105997D01*
X184011Y106019D01*
X183863Y106031D01*
X183786Y106044D01*
X49158Y106044D01*
X46123Y107301D01*
X43801Y109623D01*
X42544Y112658D01*
X42544Y206606D01*
X42532Y206693D01*
X42529Y206780D01*
X42512Y206833D01*
X42504Y206888D01*
X42469Y206967D01*
X42442Y207051D01*
X42414Y207090D01*
X42388Y207147D01*
X42292Y207260D01*
X42247Y207324D01*
X42079Y207492D01*
X40512Y211274D01*
X40512Y215366D01*
X42079Y219148D01*
X44972Y222041D01*
X48754Y223608D01*
X52846Y223608D01*
X55999Y222302D01*
X56111Y222273D01*
X56220Y222238D01*
X56248Y222238D01*
X56275Y222231D01*
X56389Y222234D01*
X56504Y222231D01*
X56531Y222238D01*
X56559Y222239D01*
X56668Y222274D01*
X56779Y222303D01*
X56803Y222317D01*
X56830Y222325D01*
X56925Y222390D01*
X57024Y222448D01*
X57043Y222468D01*
X57066Y222484D01*
X57140Y222572D01*
X57218Y222655D01*
X57231Y222680D01*
X57249Y222701D01*
X57295Y222806D01*
X57348Y222909D01*
X57352Y222933D01*
X57364Y222961D01*
X57401Y223225D01*
X57403Y223240D01*
X57403Y234188D01*
X57395Y234246D01*
X57397Y234304D01*
X57375Y234386D01*
X57363Y234470D01*
X57340Y234523D01*
X57325Y234579D01*
X57282Y234652D01*
X57247Y234729D01*
X57209Y234774D01*
X57180Y234824D01*
X57118Y234882D01*
X57064Y234946D01*
X57015Y234978D01*
X56972Y235018D01*
X56897Y235057D01*
X56827Y235104D01*
X56771Y235121D01*
X56719Y235148D01*
X56651Y235159D01*
X56556Y235189D01*
X56456Y235192D01*
X56388Y235203D01*
X36887Y235203D01*
X34646Y236131D01*
X32931Y237846D01*
X32003Y240087D01*
X32003Y407613D01*
X32931Y409854D01*
X34646Y411569D01*
X36887Y412497D01*
X483813Y412497D01*
X486054Y411569D01*
X513169Y384454D01*
X514097Y382213D01*
X514097Y261112D01*
X514105Y261054D01*
X514103Y260996D01*
X514125Y260914D01*
X514137Y260830D01*
X514160Y260777D01*
X514175Y260721D01*
X514218Y260648D01*
X514253Y260571D01*
X514291Y260526D01*
X514320Y260476D01*
X514382Y260418D01*
X514436Y260354D01*
X514485Y260322D01*
X514528Y260282D01*
X514603Y260243D01*
X514673Y260196D01*
X514729Y260179D01*
X514781Y260152D01*
X514849Y260141D01*
X514944Y260111D01*
X515044Y260108D01*
X515112Y260097D01*
X746354Y260097D01*
X746441Y260109D01*
X746528Y260112D01*
X746581Y260129D01*
X746636Y260137D01*
X746715Y260172D01*
X746799Y260199D01*
X746838Y260227D01*
X746895Y260253D01*
X747008Y260349D01*
X747072Y260394D01*
X842747Y356069D01*
X842799Y356139D01*
X842859Y356203D01*
X842885Y356252D01*
X842918Y356296D01*
X842949Y356378D01*
X842989Y356456D01*
X842997Y356503D01*
X843019Y356562D01*
X843031Y356710D01*
X843044Y356787D01*
X843044Y430720D01*
X843044Y430722D01*
X843044Y430723D01*
X843024Y430864D01*
X843004Y431002D01*
X843004Y431003D01*
X843004Y431005D01*
X842946Y431132D01*
X842888Y431261D01*
X842887Y431262D01*
X842886Y431264D01*
X842795Y431371D01*
X842705Y431478D01*
X842703Y431479D01*
X842702Y431480D01*
X842689Y431488D01*
X842468Y431636D01*
X842439Y431645D01*
X842418Y431658D01*
X842235Y431734D01*
X839518Y434451D01*
X839471Y434486D01*
X839431Y434528D01*
X839358Y434571D01*
X839291Y434622D01*
X839236Y434643D01*
X839186Y434672D01*
X839104Y434693D01*
X839025Y434723D01*
X838967Y434728D01*
X838910Y434742D01*
X838826Y434740D01*
X838742Y434747D01*
X838684Y434735D01*
X838626Y434733D01*
X838546Y434707D01*
X838463Y434691D01*
X838411Y434664D01*
X838355Y434646D01*
X838299Y434606D01*
X838211Y434560D01*
X838138Y434491D01*
X838082Y434451D01*
X835365Y431734D01*
X829483Y429297D01*
X823117Y429297D01*
X817235Y431734D01*
X812734Y436235D01*
X810297Y442117D01*
X810297Y448483D01*
X812734Y454365D01*
X817235Y458866D01*
X823117Y461303D01*
X829483Y461303D01*
X835365Y458866D01*
X838082Y456149D01*
X838129Y456114D01*
X838169Y456072D01*
X838195Y456056D01*
X838212Y456040D01*
X838258Y456017D01*
X838309Y455978D01*
X838364Y455957D01*
X838414Y455928D01*
X838450Y455919D01*
X838465Y455911D01*
X838502Y455905D01*
X838575Y455877D01*
X838633Y455872D01*
X838690Y455858D01*
X838768Y455860D01*
X838796Y455855D01*
X838804Y455855D01*
X838815Y455857D01*
X838858Y455853D01*
X838916Y455865D01*
X838974Y455867D01*
X839044Y455889D01*
X839085Y455895D01*
X839100Y455902D01*
X839137Y455909D01*
X839189Y455936D01*
X839245Y455954D01*
X839292Y455988D01*
X839345Y456012D01*
X839362Y456026D01*
X839389Y456040D01*
X839462Y456109D01*
X839518Y456149D01*
X842235Y458866D01*
X848117Y461303D01*
X854483Y461303D01*
X860365Y458866D01*
X862970Y456261D01*
X863017Y456226D01*
X863057Y456183D01*
X863130Y456141D01*
X863198Y456090D01*
X863252Y456069D01*
X863303Y456040D01*
X863384Y456019D01*
X863463Y455989D01*
X863522Y455984D01*
X863578Y455970D01*
X863662Y455972D01*
X863747Y455965D01*
X863804Y455977D01*
X863862Y455979D01*
X863943Y456004D01*
X864025Y456021D01*
X864077Y456048D01*
X864133Y456066D01*
X864189Y456106D01*
X864278Y456152D01*
X864350Y456221D01*
X864406Y456261D01*
X867146Y459000D01*
X873085Y461461D01*
X879515Y461461D01*
X885454Y459000D01*
X888194Y456261D01*
X888241Y456226D01*
X888281Y456183D01*
X888354Y456141D01*
X888421Y456090D01*
X888476Y456069D01*
X888526Y456040D01*
X888608Y456019D01*
X888687Y455989D01*
X888745Y455984D01*
X888802Y455970D01*
X888886Y455972D01*
X888970Y455965D01*
X889027Y455977D01*
X889086Y455979D01*
X889166Y456004D01*
X889249Y456021D01*
X889301Y456048D01*
X889356Y456066D01*
X889413Y456106D01*
X889501Y456152D01*
X889573Y456221D01*
X889630Y456261D01*
X892235Y458866D01*
X898117Y461303D01*
X904483Y461303D01*
X910365Y458866D01*
X913082Y456149D01*
X913129Y456114D01*
X913169Y456072D01*
X913195Y456056D01*
X913212Y456040D01*
X913258Y456017D01*
X913309Y455978D01*
X913364Y455957D01*
X913414Y455928D01*
X913450Y455919D01*
X913465Y455911D01*
X913502Y455905D01*
X913575Y455877D01*
X913633Y455872D01*
X913690Y455858D01*
X913768Y455860D01*
X913796Y455855D01*
X913804Y455855D01*
X913815Y455857D01*
X913858Y455853D01*
X913916Y455865D01*
X913974Y455867D01*
X914044Y455889D01*
X914085Y455895D01*
X914100Y455902D01*
X914137Y455909D01*
X914189Y455936D01*
X914245Y455954D01*
X914291Y455988D01*
X914345Y456012D01*
X914362Y456026D01*
X914389Y456040D01*
X914462Y456109D01*
X914518Y456149D01*
X917235Y458866D01*
X923117Y461303D01*
X929483Y461303D01*
X935365Y458866D01*
X939866Y454365D01*
X942303Y448483D01*
X942303Y442117D01*
X939866Y436235D01*
X935365Y431734D01*
X929483Y429297D01*
X923117Y429297D01*
X917235Y431734D01*
X914518Y434451D01*
X914471Y434486D01*
X914431Y434528D01*
X914358Y434571D01*
X914291Y434622D01*
X914236Y434643D01*
X914186Y434672D01*
X914104Y434693D01*
X914025Y434723D01*
X913967Y434728D01*
X913910Y434742D01*
X913826Y434740D01*
X913742Y434747D01*
X913684Y434735D01*
X913626Y434733D01*
X913546Y434707D01*
X913463Y434691D01*
X913411Y434664D01*
X913355Y434646D01*
X913299Y434606D01*
X913211Y434560D01*
X913138Y434491D01*
X913082Y434451D01*
X910365Y431734D01*
X904483Y429297D01*
X898117Y429297D01*
X892235Y431734D01*
X889630Y434339D01*
X889583Y434374D01*
X889543Y434417D01*
X889470Y434459D01*
X889402Y434510D01*
X889348Y434531D01*
X889297Y434560D01*
X889216Y434581D01*
X889137Y434611D01*
X889078Y434616D01*
X889022Y434630D01*
X888938Y434628D01*
X888853Y434635D01*
X888796Y434623D01*
X888738Y434621D01*
X888657Y434596D01*
X888575Y434579D01*
X888523Y434552D01*
X888467Y434534D01*
X888411Y434494D01*
X888322Y434448D01*
X888250Y434379D01*
X888194Y434339D01*
X885454Y431600D01*
X879515Y429139D01*
X873085Y429139D01*
X867146Y431600D01*
X864406Y434339D01*
X864359Y434374D01*
X864319Y434417D01*
X864246Y434459D01*
X864179Y434510D01*
X864124Y434531D01*
X864074Y434560D01*
X863992Y434581D01*
X863913Y434611D01*
X863855Y434616D01*
X863798Y434630D01*
X863714Y434628D01*
X863630Y434635D01*
X863573Y434623D01*
X863514Y434621D01*
X863434Y434596D01*
X863351Y434579D01*
X863299Y434552D01*
X863244Y434534D01*
X863187Y434494D01*
X863099Y434448D01*
X863027Y434379D01*
X862970Y434339D01*
X860365Y431734D01*
X860182Y431658D01*
X860181Y431657D01*
X860180Y431657D01*
X860059Y431585D01*
X859938Y431514D01*
X859937Y431512D01*
X859935Y431512D01*
X859838Y431408D01*
X859742Y431307D01*
X859742Y431305D01*
X859741Y431304D01*
X859676Y431179D01*
X859612Y431054D01*
X859612Y431053D01*
X859611Y431051D01*
X859609Y431036D01*
X859557Y430775D01*
X859560Y430745D01*
X859556Y430720D01*
X859556Y362712D01*
X859564Y362654D01*
X859562Y362596D01*
X859584Y362514D01*
X859596Y362430D01*
X859619Y362377D01*
X859634Y362321D01*
X859677Y362248D01*
X859712Y362171D01*
X859750Y362126D01*
X859779Y362076D01*
X859841Y362018D01*
X859895Y361954D01*
X859944Y361922D01*
X859987Y361882D01*
X860062Y361843D01*
X860132Y361796D01*
X860188Y361779D01*
X860240Y361752D01*
X860308Y361741D01*
X860403Y361711D01*
X860503Y361708D01*
X860571Y361697D01*
X941013Y361697D01*
X943254Y360769D01*
X957669Y346354D01*
X958597Y344113D01*
X958597Y316287D01*
X957669Y314046D01*
X943254Y299631D01*
X941013Y298703D01*
X917346Y298703D01*
X917259Y298691D01*
X917172Y298688D01*
X917119Y298671D01*
X917064Y298663D01*
X916985Y298628D01*
X916901Y298601D01*
X916862Y298573D01*
X916805Y298547D01*
X916692Y298451D01*
X916628Y298406D01*
X778259Y160036D01*
X776018Y159108D01*
X413512Y159108D01*
X413454Y159100D01*
X413396Y159102D01*
X413314Y159080D01*
X413230Y159068D01*
X413177Y159044D01*
X413121Y159030D01*
X413048Y158987D01*
X412971Y158952D01*
X412926Y158914D01*
X412876Y158884D01*
X412818Y158823D01*
X412754Y158768D01*
X412722Y158720D01*
X412682Y158677D01*
X412643Y158602D01*
X412596Y158532D01*
X412579Y158476D01*
X412552Y158424D01*
X412541Y158356D01*
X412511Y158261D01*
X412508Y158161D01*
X412497Y158093D01*
X412497Y138487D01*
X411569Y136246D01*
X409854Y134531D01*
X407613Y133603D01*
X100387Y133603D01*
X98146Y134531D01*
X60789Y171889D01*
X60765Y171907D01*
X60746Y171929D01*
X60652Y171992D01*
X60562Y172060D01*
X60534Y172070D01*
X60510Y172087D01*
X60402Y172121D01*
X60296Y172161D01*
X60267Y172164D01*
X60239Y172172D01*
X60125Y172175D01*
X60013Y172185D01*
X59984Y172179D01*
X59955Y172180D01*
X59845Y172151D01*
X59734Y172129D01*
X59708Y172115D01*
X59680Y172108D01*
X59582Y172050D01*
X59482Y171998D01*
X59460Y171978D01*
X59435Y171963D01*
X59358Y171880D01*
X59276Y171802D01*
X59261Y171777D01*
X59241Y171755D01*
X59189Y171655D01*
X59132Y171557D01*
X59125Y171528D01*
X59111Y171502D01*
X59098Y171425D01*
X59062Y171281D01*
X59064Y171219D01*
X59056Y171171D01*
X59056Y123571D01*
X59064Y123513D01*
X59062Y123455D01*
X59084Y123373D01*
X59096Y123289D01*
X59119Y123236D01*
X59134Y123180D01*
X59177Y123107D01*
X59212Y123030D01*
X59250Y122985D01*
X59279Y122935D01*
X59341Y122877D01*
X59395Y122813D01*
X59444Y122781D01*
X59487Y122741D01*
X59562Y122702D01*
X59632Y122655D01*
X59688Y122638D01*
X59740Y122611D01*
X59808Y122600D01*
X59903Y122570D01*
X60003Y122567D01*
X60071Y122556D01*
X183786Y122556D01*
X183873Y122568D01*
X183960Y122571D01*
X184013Y122588D01*
X184068Y122596D01*
X184147Y122631D01*
X184231Y122658D01*
X184270Y122686D01*
X184327Y122712D01*
X184440Y122808D01*
X184504Y122853D01*
X184672Y123021D01*
X188454Y124588D01*
X192546Y124588D01*
X196328Y123021D01*
X199221Y120128D01*
X200788Y116346D01*
X200788Y112254D01*
X199221Y108472D01*
X196328Y105579D01*
X192546Y104012D01*
X188454Y104012D01*
G37*
%LPD*%
G36*
X280855Y164198D02*
X280855Y164198D01*
X280913Y164196D01*
X280995Y164218D01*
X281079Y164230D01*
X281132Y164253D01*
X281188Y164268D01*
X281261Y164311D01*
X281338Y164346D01*
X281383Y164384D01*
X281433Y164413D01*
X281491Y164475D01*
X281555Y164529D01*
X281587Y164578D01*
X281627Y164621D01*
X281666Y164696D01*
X281713Y164766D01*
X281730Y164822D01*
X281757Y164874D01*
X281768Y164942D01*
X281798Y165037D01*
X281801Y165137D01*
X281812Y165205D01*
X281812Y167146D01*
X283379Y170928D01*
X286272Y173821D01*
X290054Y175388D01*
X294146Y175388D01*
X297928Y173821D01*
X300821Y170928D01*
X302388Y167146D01*
X302388Y165205D01*
X302396Y165147D01*
X302394Y165089D01*
X302416Y165007D01*
X302428Y164923D01*
X302451Y164870D01*
X302466Y164814D01*
X302509Y164741D01*
X302544Y164664D01*
X302582Y164619D01*
X302611Y164569D01*
X302673Y164511D01*
X302727Y164447D01*
X302776Y164415D01*
X302819Y164375D01*
X302894Y164336D01*
X302964Y164289D01*
X303020Y164272D01*
X303072Y164245D01*
X303140Y164234D01*
X303235Y164204D01*
X303335Y164201D01*
X303403Y164190D01*
X386710Y164190D01*
X386797Y164202D01*
X386884Y164205D01*
X386937Y164222D01*
X386992Y164230D01*
X387071Y164265D01*
X387155Y164292D01*
X387194Y164320D01*
X387251Y164346D01*
X387364Y164442D01*
X387428Y164487D01*
X387872Y164931D01*
X391654Y166498D01*
X395746Y166498D01*
X399528Y164931D01*
X399972Y164487D01*
X400042Y164435D01*
X400106Y164375D01*
X400155Y164349D01*
X400199Y164316D01*
X400281Y164285D01*
X400359Y164245D01*
X400406Y164237D01*
X400465Y164215D01*
X400613Y164203D01*
X400690Y164190D01*
X774805Y164190D01*
X774892Y164202D01*
X774979Y164205D01*
X775032Y164222D01*
X775086Y164230D01*
X775166Y164265D01*
X775250Y164292D01*
X775289Y164320D01*
X775346Y164346D01*
X775459Y164442D01*
X775523Y164487D01*
X914821Y303785D01*
X939800Y303785D01*
X939887Y303797D01*
X939974Y303800D01*
X940027Y303817D01*
X940082Y303825D01*
X940161Y303860D01*
X940245Y303887D01*
X940284Y303915D01*
X940341Y303941D01*
X940454Y304037D01*
X940518Y304082D01*
X953218Y316782D01*
X953233Y316802D01*
X953250Y316817D01*
X953282Y316864D01*
X953330Y316916D01*
X953356Y316965D01*
X953389Y317009D01*
X953403Y317045D01*
X953408Y317054D01*
X953419Y317090D01*
X953420Y317091D01*
X953460Y317169D01*
X953468Y317217D01*
X953490Y317275D01*
X953502Y317423D01*
X953515Y317500D01*
X953515Y342900D01*
X953508Y342954D01*
X953509Y342990D01*
X953502Y343015D01*
X953500Y343074D01*
X953483Y343127D01*
X953475Y343182D01*
X953440Y343261D01*
X953413Y343345D01*
X953385Y343384D01*
X953359Y343441D01*
X953263Y343554D01*
X953218Y343618D01*
X940518Y356318D01*
X940448Y356370D01*
X940384Y356430D01*
X940335Y356456D01*
X940291Y356489D01*
X940209Y356520D01*
X940131Y356560D01*
X940084Y356568D01*
X940025Y356590D01*
X939877Y356602D01*
X939800Y356615D01*
X850900Y356615D01*
X850813Y356603D01*
X850726Y356600D01*
X850673Y356583D01*
X850619Y356575D01*
X850539Y356540D01*
X850455Y356513D01*
X850416Y356485D01*
X850359Y356459D01*
X850246Y356363D01*
X850182Y356318D01*
X748880Y255015D01*
X376093Y255015D01*
X376039Y255008D01*
X375985Y255009D01*
X375899Y254988D01*
X375812Y254975D01*
X375762Y254953D01*
X375709Y254940D01*
X375633Y254895D01*
X375552Y254859D01*
X375511Y254824D01*
X375463Y254796D01*
X375403Y254732D01*
X375335Y254676D01*
X375305Y254630D01*
X375267Y254590D01*
X375227Y254512D01*
X375178Y254439D01*
X375161Y254387D01*
X375136Y254338D01*
X375124Y254268D01*
X375092Y254168D01*
X375090Y254073D01*
X375078Y254008D01*
X374908Y231564D01*
X372960Y229615D01*
X280415Y229615D01*
X280415Y330200D01*
X280407Y330258D01*
X280409Y330316D01*
X280387Y330398D01*
X280375Y330482D01*
X280352Y330535D01*
X280337Y330591D01*
X280294Y330664D01*
X280259Y330741D01*
X280221Y330786D01*
X280192Y330836D01*
X280130Y330894D01*
X280076Y330958D01*
X280027Y330990D01*
X279984Y331030D01*
X279909Y331069D01*
X279839Y331116D01*
X279783Y331133D01*
X279731Y331160D01*
X279663Y331171D01*
X279568Y331201D01*
X279468Y331204D01*
X279400Y331215D01*
X254000Y331215D01*
X253942Y331207D01*
X253884Y331209D01*
X253802Y331187D01*
X253719Y331175D01*
X253665Y331152D01*
X253609Y331137D01*
X253536Y331094D01*
X253459Y331059D01*
X253414Y331021D01*
X253364Y330992D01*
X253306Y330930D01*
X253242Y330876D01*
X253210Y330827D01*
X253170Y330784D01*
X253131Y330709D01*
X253085Y330639D01*
X253067Y330583D01*
X253040Y330531D01*
X253029Y330463D01*
X252999Y330368D01*
X252996Y330268D01*
X252985Y330200D01*
X252985Y229615D01*
X115315Y229615D01*
X115315Y317500D01*
X115307Y317557D01*
X115309Y317609D01*
X115308Y317610D01*
X115309Y317616D01*
X115287Y317698D01*
X115275Y317782D01*
X115252Y317835D01*
X115237Y317891D01*
X115194Y317964D01*
X115159Y318041D01*
X115121Y318086D01*
X115092Y318136D01*
X115030Y318194D01*
X114976Y318258D01*
X114927Y318290D01*
X114884Y318330D01*
X114809Y318369D01*
X114739Y318416D01*
X114683Y318433D01*
X114631Y318460D01*
X114563Y318471D01*
X114468Y318501D01*
X114368Y318504D01*
X114300Y318515D01*
X88900Y318515D01*
X88842Y318507D01*
X88784Y318509D01*
X88702Y318487D01*
X88619Y318475D01*
X88565Y318452D01*
X88509Y318437D01*
X88436Y318394D01*
X88359Y318359D01*
X88314Y318321D01*
X88264Y318292D01*
X88206Y318230D01*
X88142Y318176D01*
X88110Y318127D01*
X88070Y318084D01*
X88031Y318009D01*
X87985Y317939D01*
X87967Y317883D01*
X87940Y317831D01*
X87929Y317763D01*
X87899Y317668D01*
X87896Y317568D01*
X87885Y317500D01*
X87885Y165205D01*
X87893Y165147D01*
X87891Y165089D01*
X87913Y165007D01*
X87925Y164923D01*
X87949Y164870D01*
X87963Y164814D01*
X88006Y164741D01*
X88041Y164664D01*
X88079Y164619D01*
X88109Y164569D01*
X88170Y164511D01*
X88225Y164447D01*
X88273Y164415D01*
X88316Y164375D01*
X88391Y164336D01*
X88461Y164289D01*
X88517Y164272D01*
X88569Y164245D01*
X88637Y164234D01*
X88732Y164204D01*
X88832Y164201D01*
X88900Y164190D01*
X280797Y164190D01*
X280855Y164198D01*
G37*
G36*
X56446Y240293D02*
X56446Y240293D01*
X56504Y240291D01*
X56586Y240313D01*
X56670Y240325D01*
X56723Y240349D01*
X56779Y240363D01*
X56852Y240406D01*
X56929Y240441D01*
X56974Y240479D01*
X57024Y240509D01*
X57082Y240570D01*
X57146Y240625D01*
X57178Y240673D01*
X57218Y240716D01*
X57257Y240791D01*
X57304Y240861D01*
X57321Y240917D01*
X57348Y240969D01*
X57359Y241037D01*
X57389Y241132D01*
X57392Y241232D01*
X57403Y241300D01*
X57403Y318713D01*
X58331Y320954D01*
X85446Y348069D01*
X87687Y348997D01*
X317443Y348997D01*
X319684Y348069D01*
X321399Y346354D01*
X322327Y344113D01*
X322327Y241300D01*
X322335Y241242D01*
X322333Y241184D01*
X322355Y241102D01*
X322367Y241019D01*
X322390Y240965D01*
X322405Y240909D01*
X322448Y240836D01*
X322483Y240759D01*
X322521Y240714D01*
X322550Y240664D01*
X322612Y240606D01*
X322666Y240542D01*
X322715Y240510D01*
X322758Y240470D01*
X322833Y240431D01*
X322903Y240385D01*
X322959Y240367D01*
X323011Y240340D01*
X323079Y240329D01*
X323174Y240299D01*
X323274Y240296D01*
X323342Y240285D01*
X368885Y240285D01*
X368939Y240292D01*
X368994Y240291D01*
X369079Y240312D01*
X369166Y240325D01*
X369216Y240347D01*
X369269Y240360D01*
X369345Y240405D01*
X369426Y240441D01*
X369467Y240476D01*
X369515Y240504D01*
X369575Y240568D01*
X369643Y240625D01*
X369673Y240670D01*
X369711Y240710D01*
X369751Y240788D01*
X369800Y240861D01*
X369817Y240913D01*
X369842Y240962D01*
X369854Y241032D01*
X369886Y241132D01*
X369888Y241227D01*
X369900Y241292D01*
X369996Y254021D01*
X369996Y254025D01*
X369996Y254029D01*
X369996Y255237D01*
X370468Y256350D01*
X370469Y256355D01*
X370471Y256358D01*
X370934Y257476D01*
X371795Y258324D01*
X371798Y258328D01*
X371801Y258330D01*
X372657Y259186D01*
X373777Y259640D01*
X373781Y259642D01*
X373785Y259643D01*
X374903Y260106D01*
X376112Y260097D01*
X376117Y260097D01*
X376120Y260097D01*
X508000Y260097D01*
X508058Y260105D01*
X508116Y260103D01*
X508198Y260125D01*
X508282Y260137D01*
X508335Y260160D01*
X508391Y260175D01*
X508464Y260218D01*
X508541Y260253D01*
X508586Y260291D01*
X508636Y260320D01*
X508694Y260382D01*
X508758Y260436D01*
X508790Y260485D01*
X508830Y260528D01*
X508869Y260603D01*
X508916Y260673D01*
X508933Y260729D01*
X508960Y260781D01*
X508971Y260849D01*
X509001Y260944D01*
X509004Y261044D01*
X509015Y261112D01*
X509015Y381000D01*
X509003Y381087D01*
X509000Y381174D01*
X508983Y381227D01*
X508975Y381282D01*
X508940Y381361D01*
X508913Y381445D01*
X508885Y381484D01*
X508859Y381541D01*
X508763Y381654D01*
X508718Y381718D01*
X483318Y407118D01*
X483248Y407170D01*
X483184Y407230D01*
X483135Y407256D01*
X483091Y407289D01*
X483009Y407320D01*
X482931Y407360D01*
X482884Y407368D01*
X482825Y407390D01*
X482677Y407402D01*
X482600Y407415D01*
X38100Y407415D01*
X38042Y407407D01*
X37984Y407409D01*
X37902Y407387D01*
X37819Y407375D01*
X37765Y407352D01*
X37709Y407337D01*
X37636Y407294D01*
X37559Y407259D01*
X37514Y407221D01*
X37464Y407192D01*
X37406Y407130D01*
X37342Y407076D01*
X37310Y407027D01*
X37270Y406984D01*
X37231Y406909D01*
X37185Y406839D01*
X37167Y406783D01*
X37140Y406731D01*
X37129Y406663D01*
X37099Y406568D01*
X37096Y406468D01*
X37085Y406400D01*
X37085Y241300D01*
X37093Y241242D01*
X37091Y241184D01*
X37113Y241102D01*
X37125Y241019D01*
X37149Y240965D01*
X37163Y240909D01*
X37206Y240836D01*
X37241Y240759D01*
X37279Y240714D01*
X37309Y240664D01*
X37370Y240606D01*
X37425Y240542D01*
X37473Y240510D01*
X37516Y240470D01*
X37591Y240431D01*
X37661Y240385D01*
X37717Y240367D01*
X37769Y240340D01*
X37837Y240329D01*
X37932Y240299D01*
X38032Y240296D01*
X38100Y240285D01*
X56388Y240285D01*
X56446Y240293D01*
G37*
G36*
X406458Y138693D02*
X406458Y138693D01*
X406516Y138691D01*
X406598Y138713D01*
X406682Y138725D01*
X406735Y138749D01*
X406791Y138763D01*
X406864Y138806D01*
X406941Y138841D01*
X406986Y138879D01*
X407036Y138909D01*
X407094Y138970D01*
X407158Y139025D01*
X407190Y139073D01*
X407230Y139116D01*
X407269Y139191D01*
X407316Y139261D01*
X407333Y139317D01*
X407360Y139369D01*
X407371Y139437D01*
X407401Y139532D01*
X407404Y139632D01*
X407415Y139700D01*
X407415Y158093D01*
X407407Y158151D01*
X407409Y158209D01*
X407387Y158291D01*
X407375Y158374D01*
X407352Y158428D01*
X407337Y158484D01*
X407294Y158557D01*
X407259Y158634D01*
X407221Y158679D01*
X407192Y158729D01*
X407130Y158787D01*
X407076Y158851D01*
X407027Y158883D01*
X406984Y158923D01*
X406909Y158962D01*
X406839Y159008D01*
X406783Y159026D01*
X406731Y159053D01*
X406663Y159064D01*
X406568Y159094D01*
X406468Y159097D01*
X406400Y159108D01*
X87687Y159108D01*
X85446Y160036D01*
X83731Y161751D01*
X82803Y163992D01*
X82803Y318713D01*
X83731Y320954D01*
X85446Y322669D01*
X87687Y323597D01*
X115513Y323597D01*
X117754Y322669D01*
X119469Y320954D01*
X120397Y318713D01*
X120397Y235712D01*
X120405Y235654D01*
X120403Y235596D01*
X120425Y235514D01*
X120437Y235430D01*
X120460Y235377D01*
X120475Y235321D01*
X120518Y235248D01*
X120553Y235171D01*
X120591Y235126D01*
X120620Y235076D01*
X120682Y235018D01*
X120736Y234954D01*
X120785Y234922D01*
X120828Y234882D01*
X120903Y234843D01*
X120973Y234796D01*
X121029Y234779D01*
X121081Y234752D01*
X121149Y234741D01*
X121244Y234711D01*
X121344Y234708D01*
X121412Y234697D01*
X246888Y234697D01*
X246946Y234705D01*
X247004Y234703D01*
X247086Y234725D01*
X247170Y234737D01*
X247223Y234760D01*
X247279Y234775D01*
X247352Y234818D01*
X247429Y234853D01*
X247474Y234891D01*
X247524Y234920D01*
X247582Y234982D01*
X247646Y235036D01*
X247678Y235085D01*
X247718Y235128D01*
X247757Y235203D01*
X247804Y235273D01*
X247821Y235329D01*
X247848Y235381D01*
X247859Y235449D01*
X247889Y235544D01*
X247892Y235644D01*
X247903Y235712D01*
X247903Y331413D01*
X248831Y333654D01*
X250546Y335369D01*
X252787Y336297D01*
X280613Y336297D01*
X282854Y335369D01*
X284569Y333654D01*
X285497Y331413D01*
X285497Y235712D01*
X285505Y235654D01*
X285503Y235596D01*
X285525Y235514D01*
X285537Y235430D01*
X285560Y235377D01*
X285575Y235321D01*
X285618Y235248D01*
X285653Y235171D01*
X285691Y235126D01*
X285720Y235076D01*
X285782Y235018D01*
X285836Y234954D01*
X285885Y234922D01*
X285928Y234882D01*
X286003Y234843D01*
X286073Y234796D01*
X286129Y234779D01*
X286181Y234752D01*
X286249Y234741D01*
X286344Y234711D01*
X286444Y234708D01*
X286512Y234697D01*
X316230Y234697D01*
X316288Y234705D01*
X316346Y234703D01*
X316428Y234725D01*
X316512Y234737D01*
X316565Y234760D01*
X316621Y234775D01*
X316694Y234818D01*
X316771Y234853D01*
X316816Y234891D01*
X316866Y234920D01*
X316924Y234982D01*
X316988Y235036D01*
X317020Y235085D01*
X317060Y235128D01*
X317099Y235203D01*
X317146Y235273D01*
X317163Y235329D01*
X317190Y235381D01*
X317201Y235449D01*
X317231Y235544D01*
X317234Y235644D01*
X317245Y235712D01*
X317245Y342900D01*
X317237Y342958D01*
X317239Y343016D01*
X317217Y343098D01*
X317205Y343182D01*
X317182Y343235D01*
X317167Y343291D01*
X317124Y343364D01*
X317089Y343441D01*
X317051Y343486D01*
X317022Y343536D01*
X316960Y343594D01*
X316906Y343658D01*
X316857Y343690D01*
X316814Y343730D01*
X316739Y343769D01*
X316669Y343816D01*
X316613Y343833D01*
X316561Y343860D01*
X316493Y343871D01*
X316398Y343901D01*
X316298Y343904D01*
X316230Y343915D01*
X88900Y343915D01*
X88813Y343903D01*
X88726Y343900D01*
X88673Y343883D01*
X88619Y343875D01*
X88539Y343840D01*
X88455Y343813D01*
X88416Y343785D01*
X88359Y343759D01*
X88246Y343663D01*
X88182Y343618D01*
X62782Y318218D01*
X62730Y318148D01*
X62670Y318084D01*
X62644Y318035D01*
X62611Y317991D01*
X62580Y317909D01*
X62540Y317831D01*
X62532Y317784D01*
X62510Y317725D01*
X62498Y317577D01*
X62485Y317500D01*
X62485Y177800D01*
X62497Y177713D01*
X62500Y177626D01*
X62517Y177573D01*
X62525Y177519D01*
X62560Y177439D01*
X62587Y177355D01*
X62615Y177316D01*
X62641Y177259D01*
X62737Y177146D01*
X62782Y177082D01*
X100882Y138982D01*
X100952Y138930D01*
X101016Y138870D01*
X101065Y138844D01*
X101109Y138811D01*
X101191Y138780D01*
X101269Y138740D01*
X101317Y138732D01*
X101375Y138710D01*
X101523Y138698D01*
X101600Y138685D01*
X406400Y138685D01*
X406458Y138693D01*
G37*
%LPC*%
G36*
X54869Y462279D02*
X54869Y462279D01*
X53002Y463053D01*
X51573Y464482D01*
X50799Y466349D01*
X50799Y509011D01*
X51573Y510878D01*
X53002Y512307D01*
X54869Y513081D01*
X72131Y513081D01*
X73998Y512307D01*
X75427Y510878D01*
X76201Y509011D01*
X76201Y466349D01*
X75427Y464482D01*
X73998Y463053D01*
X72131Y462279D01*
X54869Y462279D01*
G37*
%LPD*%
%LPC*%
G36*
X105669Y462279D02*
X105669Y462279D01*
X103802Y463053D01*
X102373Y464482D01*
X101599Y466349D01*
X101599Y509011D01*
X102373Y510878D01*
X103802Y512307D01*
X105669Y513081D01*
X122931Y513081D01*
X124798Y512307D01*
X126227Y510878D01*
X127001Y509011D01*
X127001Y466349D01*
X126227Y464482D01*
X124798Y463053D01*
X122931Y462279D01*
X105669Y462279D01*
G37*
%LPD*%
%LPC*%
G36*
X435869Y462279D02*
X435869Y462279D01*
X434002Y463053D01*
X432573Y464482D01*
X431799Y466349D01*
X431799Y509011D01*
X432573Y510878D01*
X434002Y512307D01*
X435869Y513081D01*
X453131Y513081D01*
X454998Y512307D01*
X456427Y510878D01*
X457201Y509011D01*
X457201Y466349D01*
X456427Y464482D01*
X454998Y463053D01*
X453131Y462279D01*
X435869Y462279D01*
G37*
%LPD*%
%LPC*%
G36*
X486669Y462279D02*
X486669Y462279D01*
X484802Y463053D01*
X483373Y464482D01*
X482599Y466349D01*
X482599Y509011D01*
X483373Y510878D01*
X484802Y512307D01*
X486669Y513081D01*
X503931Y513081D01*
X505798Y512307D01*
X507227Y510878D01*
X508001Y509011D01*
X508001Y466349D01*
X507227Y464482D01*
X505798Y463053D01*
X503931Y462279D01*
X486669Y462279D01*
G37*
%LPD*%
%LPC*%
G36*
X873117Y479297D02*
X873117Y479297D01*
X867235Y481734D01*
X862734Y486235D01*
X860297Y492117D01*
X860297Y498483D01*
X862734Y504365D01*
X867235Y508866D01*
X873117Y511303D01*
X879483Y511303D01*
X885365Y508866D01*
X889866Y504365D01*
X892303Y498483D01*
X892303Y492117D01*
X889866Y486235D01*
X885365Y481734D01*
X879483Y479297D01*
X873117Y479297D01*
G37*
%LPD*%
%LPC*%
G36*
X398004Y231012D02*
X398004Y231012D01*
X394222Y232579D01*
X391329Y235472D01*
X389762Y239254D01*
X389762Y243346D01*
X391329Y247128D01*
X394222Y250021D01*
X398004Y251588D01*
X402096Y251588D01*
X405878Y250021D01*
X408771Y247128D01*
X410338Y243346D01*
X410338Y239254D01*
X408771Y235472D01*
X405878Y232579D01*
X402096Y231012D01*
X398004Y231012D01*
G37*
%LPD*%
D10*
X876300Y495300D03*
X901300Y445300D03*
X926300Y445300D03*
X851300Y445300D03*
X826300Y445300D03*
D11*
X114300Y487680D03*
X63500Y487680D03*
X495300Y487680D03*
X444500Y487680D03*
D12*
X467360Y285750D03*
X332740Y250190D03*
X400050Y241300D03*
X381300Y330200D03*
X50800Y254000D03*
X329454Y266850D03*
X309880Y209550D03*
X104267Y304800D03*
X330200Y190500D03*
X270510Y285750D03*
D13*
X851300Y342900D02*
X851300Y445300D01*
D12*
X292100Y165100D03*
X393700Y156210D03*
X203200Y330200D03*
X50800Y213320D03*
X190500Y114300D03*
D13*
X50800Y114300D02*
X50800Y213320D01*
X50800Y114300D02*
X190500Y114300D01*
M02*
