G04 EAGLE Gerber RS-274X export*
G75*
%MOMM*%
%FSLAX34Y34*%
%LPD*%
%IN*%
%IPPOS*%
%AMOC8*
5,1,8,0,0,1.08239X$1,22.5*%
G01*
%ADD10C,0.254000*%


D10*
X0Y0D02*
X977700Y0D01*
X977700Y533910D01*
X0Y532640D01*
X0Y0D01*
X925963Y489300D02*
X925293Y489375D01*
X924636Y489525D01*
X924000Y489748D01*
X923393Y490040D01*
X922823Y490399D01*
X922296Y490819D01*
X921819Y491296D01*
X921399Y491823D01*
X921040Y492393D01*
X920748Y493000D01*
X920525Y493636D01*
X920375Y494293D01*
X920300Y494963D01*
X920300Y495637D01*
X920375Y496307D01*
X920525Y496964D01*
X920748Y497600D01*
X921040Y498207D01*
X921399Y498778D01*
X921819Y499304D01*
X922296Y499781D01*
X922823Y500201D01*
X923393Y500560D01*
X924000Y500852D01*
X924636Y501075D01*
X925293Y501225D01*
X925963Y501300D01*
X926637Y501300D01*
X927307Y501225D01*
X927964Y501075D01*
X928600Y500852D01*
X929207Y500560D01*
X929778Y500201D01*
X930304Y499781D01*
X930781Y499304D01*
X931201Y498778D01*
X931560Y498207D01*
X931852Y497600D01*
X932075Y496964D01*
X932225Y496307D01*
X932300Y495637D01*
X932300Y494963D01*
X932225Y494293D01*
X932075Y493636D01*
X931852Y493000D01*
X931560Y492393D01*
X931201Y491823D01*
X930781Y491296D01*
X930304Y490819D01*
X929778Y490399D01*
X929207Y490040D01*
X928600Y489748D01*
X927964Y489525D01*
X927307Y489375D01*
X926637Y489300D01*
X925963Y489300D01*
X925963Y514300D02*
X925293Y514375D01*
X924636Y514525D01*
X924000Y514748D01*
X923393Y515040D01*
X922823Y515399D01*
X922296Y515819D01*
X921819Y516296D01*
X921399Y516823D01*
X921040Y517393D01*
X920748Y518000D01*
X920525Y518636D01*
X920375Y519293D01*
X920300Y519963D01*
X920300Y520637D01*
X920375Y521307D01*
X920525Y521964D01*
X920748Y522600D01*
X921040Y523207D01*
X921399Y523778D01*
X921819Y524304D01*
X922296Y524781D01*
X922823Y525201D01*
X923393Y525560D01*
X924000Y525852D01*
X924636Y526075D01*
X925293Y526225D01*
X925963Y526300D01*
X926637Y526300D01*
X927307Y526225D01*
X927964Y526075D01*
X928600Y525852D01*
X929207Y525560D01*
X929778Y525201D01*
X930304Y524781D01*
X930781Y524304D01*
X931201Y523778D01*
X931560Y523207D01*
X931852Y522600D01*
X932075Y521964D01*
X932225Y521307D01*
X932300Y520637D01*
X932300Y519963D01*
X932225Y519293D01*
X932075Y518636D01*
X931852Y518000D01*
X931560Y517393D01*
X931201Y516823D01*
X930781Y516296D01*
X930304Y515819D01*
X929778Y515399D01*
X929207Y515040D01*
X928600Y514748D01*
X927964Y514525D01*
X927307Y514375D01*
X926637Y514300D01*
X925963Y514300D01*
X825963Y514300D02*
X825293Y514375D01*
X824636Y514525D01*
X824000Y514748D01*
X823393Y515040D01*
X822823Y515399D01*
X822296Y515819D01*
X821819Y516296D01*
X821399Y516823D01*
X821040Y517393D01*
X820748Y518000D01*
X820525Y518636D01*
X820375Y519293D01*
X820300Y519963D01*
X820300Y520637D01*
X820375Y521307D01*
X820525Y521964D01*
X820748Y522600D01*
X821040Y523207D01*
X821399Y523778D01*
X821819Y524304D01*
X822296Y524781D01*
X822823Y525201D01*
X823393Y525560D01*
X824000Y525852D01*
X824636Y526075D01*
X825293Y526225D01*
X825963Y526300D01*
X826637Y526300D01*
X827307Y526225D01*
X827964Y526075D01*
X828600Y525852D01*
X829207Y525560D01*
X829778Y525201D01*
X830304Y524781D01*
X830781Y524304D01*
X831201Y523778D01*
X831560Y523207D01*
X831852Y522600D01*
X832075Y521964D01*
X832225Y521307D01*
X832300Y520637D01*
X832300Y519963D01*
X832225Y519293D01*
X832075Y518636D01*
X831852Y518000D01*
X831560Y517393D01*
X831201Y516823D01*
X830781Y516296D01*
X830304Y515819D01*
X829778Y515399D01*
X829207Y515040D01*
X828600Y514748D01*
X827964Y514525D01*
X827307Y514375D01*
X826637Y514300D01*
X825963Y514300D01*
X825963Y489300D02*
X825293Y489375D01*
X824636Y489525D01*
X824000Y489748D01*
X823393Y490040D01*
X822823Y490399D01*
X822296Y490819D01*
X821819Y491296D01*
X821399Y491823D01*
X821040Y492393D01*
X820748Y493000D01*
X820525Y493636D01*
X820375Y494293D01*
X820300Y494963D01*
X820300Y495637D01*
X820375Y496307D01*
X820525Y496964D01*
X820748Y497600D01*
X821040Y498207D01*
X821399Y498778D01*
X821819Y499304D01*
X822296Y499781D01*
X822823Y500201D01*
X823393Y500560D01*
X824000Y500852D01*
X824636Y501075D01*
X825293Y501225D01*
X825963Y501300D01*
X826637Y501300D01*
X827307Y501225D01*
X827964Y501075D01*
X828600Y500852D01*
X829207Y500560D01*
X829778Y500201D01*
X830304Y499781D01*
X830781Y499304D01*
X831201Y498778D01*
X831560Y498207D01*
X831852Y497600D01*
X832075Y496964D01*
X832225Y496307D01*
X832300Y495637D01*
X832300Y494963D01*
X832225Y494293D01*
X832075Y493636D01*
X831852Y493000D01*
X831560Y492393D01*
X831201Y491823D01*
X830781Y491296D01*
X830304Y490819D01*
X829778Y490399D01*
X829207Y490040D01*
X828600Y489748D01*
X827964Y489525D01*
X827307Y489375D01*
X826637Y489300D01*
X825963Y489300D01*
X875963Y439300D02*
X875293Y439375D01*
X874636Y439525D01*
X874000Y439748D01*
X873393Y440040D01*
X872823Y440399D01*
X872296Y440819D01*
X871819Y441296D01*
X871399Y441823D01*
X871040Y442393D01*
X870748Y443000D01*
X870525Y443636D01*
X870375Y444293D01*
X870300Y444963D01*
X870300Y445637D01*
X870375Y446307D01*
X870525Y446964D01*
X870748Y447600D01*
X871040Y448207D01*
X871399Y448778D01*
X871819Y449304D01*
X872296Y449781D01*
X872823Y450201D01*
X873393Y450560D01*
X874000Y450852D01*
X874636Y451075D01*
X875293Y451225D01*
X875963Y451300D01*
X876637Y451300D01*
X877307Y451225D01*
X877964Y451075D01*
X878600Y450852D01*
X879207Y450560D01*
X879778Y450201D01*
X880304Y449781D01*
X880781Y449304D01*
X881201Y448778D01*
X881560Y448207D01*
X881852Y447600D01*
X882075Y446964D01*
X882225Y446307D01*
X882300Y445637D01*
X882300Y444963D01*
X882225Y444293D01*
X882075Y443636D01*
X881852Y443000D01*
X881560Y442393D01*
X881201Y441823D01*
X880781Y441296D01*
X880304Y440819D01*
X879778Y440399D01*
X879207Y440040D01*
X878600Y439748D01*
X877964Y439525D01*
X877307Y439375D01*
X876637Y439300D01*
X875963Y439300D01*
M02*
