G04 EAGLE Gerber RS-274X export*
G75*
%MOMM*%
%FSLAX34Y34*%
%LPD*%
%INSilkscreen Top*%
%IPPOS*%
%AMOC8*
5,1,8,0,0,1.08239X$1,22.5*%
G01*
%ADD10C,0.406400*%
%ADD11C,0.025400*%
%ADD12C,0.101600*%
%ADD13C,0.152400*%
%ADD14C,0.127000*%
%ADD15R,0.200000X1.400000*%
%ADD16C,0.203200*%
%ADD17C,0.500000*%
%ADD18C,0.120000*%
%ADD19C,0.150000*%
%ADD20C,0.200000*%
%ADD21C,0.076200*%
%ADD22C,0.000000*%
%ADD23C,0.177800*%

G36*
X129295Y319155D02*
X129295Y319155D01*
X129297Y319157D01*
X129298Y319156D01*
X129969Y319391D01*
X129970Y319392D01*
X129971Y319392D01*
X130573Y319770D01*
X130574Y319772D01*
X130576Y319772D01*
X131078Y320274D01*
X131078Y320276D01*
X131080Y320277D01*
X131458Y320879D01*
X131458Y320880D01*
X131459Y320881D01*
X131694Y321552D01*
X131694Y321554D01*
X131695Y321555D01*
X131774Y322261D01*
X131774Y322262D01*
X131773Y322263D01*
X131774Y322264D01*
X131695Y322970D01*
X131693Y322972D01*
X131694Y322973D01*
X131459Y323644D01*
X131458Y323645D01*
X131458Y323646D01*
X131080Y324248D01*
X131078Y324249D01*
X131078Y324251D01*
X130576Y324753D01*
X130574Y324753D01*
X130573Y324755D01*
X129971Y325133D01*
X129970Y325133D01*
X129969Y325134D01*
X129298Y325369D01*
X129296Y325369D01*
X129295Y325370D01*
X128589Y325449D01*
X128587Y325448D01*
X128586Y325449D01*
X127880Y325370D01*
X127878Y325368D01*
X127877Y325369D01*
X127206Y325134D01*
X127205Y325133D01*
X127204Y325133D01*
X126602Y324755D01*
X126601Y324753D01*
X126599Y324753D01*
X126097Y324251D01*
X126097Y324249D01*
X126095Y324248D01*
X125717Y323646D01*
X125717Y323645D01*
X125716Y323644D01*
X125481Y322973D01*
X125482Y322971D01*
X125480Y322970D01*
X125401Y322264D01*
X125402Y322262D01*
X125401Y322261D01*
X125480Y321555D01*
X125482Y321553D01*
X125481Y321552D01*
X125716Y320881D01*
X125717Y320880D01*
X125717Y320879D01*
X126095Y320277D01*
X126097Y320276D01*
X126097Y320274D01*
X126599Y319772D01*
X126601Y319772D01*
X126602Y319770D01*
X127204Y319392D01*
X127205Y319392D01*
X127206Y319391D01*
X127877Y319156D01*
X127879Y319157D01*
X127880Y319155D01*
X128586Y319076D01*
X128588Y319077D01*
X128589Y319076D01*
X129295Y319155D01*
G37*
D10*
X363220Y188265D02*
X363220Y187655D01*
D11*
X356150Y195072D02*
X355304Y195072D01*
X355249Y195074D01*
X355193Y195079D01*
X355139Y195088D01*
X355085Y195101D01*
X355032Y195117D01*
X354980Y195136D01*
X354929Y195159D01*
X354881Y195185D01*
X354833Y195215D01*
X354788Y195247D01*
X354746Y195282D01*
X354705Y195320D01*
X354667Y195361D01*
X354632Y195403D01*
X354600Y195448D01*
X354570Y195496D01*
X354544Y195544D01*
X354521Y195595D01*
X354502Y195647D01*
X354486Y195700D01*
X354473Y195754D01*
X354464Y195808D01*
X354459Y195864D01*
X354457Y195919D01*
X354457Y198035D01*
X354459Y198093D01*
X354465Y198150D01*
X354475Y198207D01*
X354488Y198264D01*
X354506Y198319D01*
X354527Y198372D01*
X354552Y198425D01*
X354580Y198475D01*
X354612Y198523D01*
X354647Y198570D01*
X354685Y198613D01*
X354726Y198654D01*
X354769Y198692D01*
X354816Y198727D01*
X354864Y198759D01*
X354914Y198787D01*
X354967Y198812D01*
X355020Y198833D01*
X355075Y198851D01*
X355132Y198864D01*
X355189Y198874D01*
X355246Y198880D01*
X355304Y198882D01*
X356150Y198882D01*
X357514Y198035D02*
X358573Y198882D01*
X358573Y195072D01*
X359631Y195072D02*
X357514Y195072D01*
D12*
X212711Y376428D02*
X210114Y376428D01*
X210015Y376430D01*
X209915Y376436D01*
X209816Y376445D01*
X209718Y376458D01*
X209620Y376475D01*
X209522Y376496D01*
X209426Y376521D01*
X209331Y376549D01*
X209237Y376581D01*
X209144Y376616D01*
X209052Y376655D01*
X208962Y376698D01*
X208874Y376743D01*
X208787Y376793D01*
X208703Y376845D01*
X208620Y376901D01*
X208540Y376959D01*
X208462Y377021D01*
X208387Y377086D01*
X208314Y377154D01*
X208244Y377224D01*
X208176Y377297D01*
X208111Y377372D01*
X208049Y377450D01*
X207991Y377530D01*
X207935Y377613D01*
X207883Y377697D01*
X207833Y377784D01*
X207788Y377872D01*
X207745Y377962D01*
X207706Y378054D01*
X207671Y378147D01*
X207639Y378241D01*
X207611Y378336D01*
X207586Y378432D01*
X207565Y378530D01*
X207548Y378628D01*
X207535Y378726D01*
X207526Y378825D01*
X207520Y378925D01*
X207518Y379024D01*
X207518Y385516D01*
X207520Y385615D01*
X207526Y385715D01*
X207535Y385814D01*
X207548Y385912D01*
X207565Y386010D01*
X207586Y386108D01*
X207611Y386204D01*
X207639Y386299D01*
X207671Y386393D01*
X207706Y386486D01*
X207745Y386578D01*
X207788Y386668D01*
X207833Y386756D01*
X207883Y386843D01*
X207935Y386927D01*
X207991Y387010D01*
X208049Y387090D01*
X208111Y387168D01*
X208176Y387243D01*
X208244Y387316D01*
X208314Y387386D01*
X208387Y387454D01*
X208462Y387519D01*
X208540Y387581D01*
X208620Y387639D01*
X208703Y387695D01*
X208787Y387747D01*
X208874Y387797D01*
X208962Y387842D01*
X209052Y387885D01*
X209144Y387924D01*
X209236Y387959D01*
X209331Y387991D01*
X209426Y388019D01*
X209522Y388044D01*
X209620Y388065D01*
X209718Y388082D01*
X209816Y388095D01*
X209915Y388104D01*
X210015Y388110D01*
X210114Y388112D01*
X212711Y388112D01*
X220646Y388112D02*
X220753Y388110D01*
X220859Y388104D01*
X220965Y388094D01*
X221071Y388081D01*
X221177Y388063D01*
X221281Y388042D01*
X221385Y388017D01*
X221488Y387988D01*
X221589Y387956D01*
X221689Y387919D01*
X221788Y387879D01*
X221886Y387836D01*
X221982Y387789D01*
X222076Y387738D01*
X222168Y387684D01*
X222258Y387627D01*
X222346Y387567D01*
X222431Y387503D01*
X222514Y387436D01*
X222595Y387366D01*
X222673Y387294D01*
X222749Y387218D01*
X222821Y387140D01*
X222891Y387059D01*
X222958Y386976D01*
X223022Y386891D01*
X223082Y386803D01*
X223139Y386713D01*
X223193Y386621D01*
X223244Y386527D01*
X223291Y386431D01*
X223334Y386333D01*
X223374Y386234D01*
X223411Y386134D01*
X223443Y386033D01*
X223472Y385930D01*
X223497Y385826D01*
X223518Y385722D01*
X223536Y385616D01*
X223549Y385510D01*
X223559Y385404D01*
X223565Y385298D01*
X223567Y385191D01*
X220646Y388112D02*
X220525Y388110D01*
X220404Y388104D01*
X220284Y388094D01*
X220163Y388081D01*
X220044Y388063D01*
X219924Y388042D01*
X219806Y388017D01*
X219689Y387988D01*
X219572Y387955D01*
X219457Y387919D01*
X219343Y387878D01*
X219230Y387835D01*
X219118Y387787D01*
X219009Y387736D01*
X218901Y387681D01*
X218794Y387623D01*
X218690Y387562D01*
X218588Y387497D01*
X218488Y387429D01*
X218390Y387358D01*
X218294Y387284D01*
X218201Y387207D01*
X218111Y387126D01*
X218023Y387043D01*
X217938Y386957D01*
X217855Y386868D01*
X217776Y386777D01*
X217699Y386683D01*
X217626Y386587D01*
X217556Y386489D01*
X217489Y386388D01*
X217425Y386285D01*
X217365Y386180D01*
X217308Y386073D01*
X217254Y385965D01*
X217204Y385855D01*
X217158Y385743D01*
X217115Y385630D01*
X217076Y385515D01*
X222594Y382919D02*
X222673Y382996D01*
X222749Y383077D01*
X222822Y383160D01*
X222892Y383245D01*
X222959Y383333D01*
X223023Y383423D01*
X223083Y383515D01*
X223140Y383610D01*
X223194Y383706D01*
X223245Y383804D01*
X223292Y383904D01*
X223336Y384006D01*
X223376Y384109D01*
X223412Y384213D01*
X223444Y384319D01*
X223473Y384425D01*
X223498Y384533D01*
X223520Y384641D01*
X223537Y384751D01*
X223551Y384860D01*
X223560Y384970D01*
X223566Y385081D01*
X223568Y385191D01*
X222594Y382919D02*
X217076Y376428D01*
X223567Y376428D01*
D13*
X237410Y289750D02*
X227410Y285750D01*
X237410Y289750D02*
X237410Y281750D01*
X227410Y285750D01*
D14*
X218910Y294000D02*
X245910Y294000D01*
X245910Y277500D01*
X218910Y277500D01*
X218910Y294000D01*
D15*
X226410Y285750D03*
D11*
X221537Y295877D02*
X221537Y299687D01*
X222595Y299687D01*
X222659Y299685D01*
X222723Y299679D01*
X222786Y299670D01*
X222848Y299656D01*
X222910Y299639D01*
X222970Y299618D01*
X223029Y299594D01*
X223087Y299566D01*
X223142Y299534D01*
X223196Y299500D01*
X223247Y299462D01*
X223297Y299421D01*
X223343Y299377D01*
X223387Y299331D01*
X223428Y299281D01*
X223466Y299230D01*
X223500Y299176D01*
X223532Y299121D01*
X223560Y299063D01*
X223584Y299004D01*
X223605Y298944D01*
X223622Y298882D01*
X223636Y298820D01*
X223645Y298757D01*
X223651Y298693D01*
X223653Y298629D01*
X223654Y298629D02*
X223654Y296935D01*
X223653Y296935D02*
X223651Y296871D01*
X223645Y296807D01*
X223636Y296744D01*
X223622Y296682D01*
X223605Y296620D01*
X223584Y296560D01*
X223560Y296501D01*
X223532Y296443D01*
X223500Y296388D01*
X223466Y296334D01*
X223428Y296283D01*
X223387Y296233D01*
X223343Y296187D01*
X223297Y296143D01*
X223247Y296102D01*
X223196Y296064D01*
X223142Y296030D01*
X223087Y295998D01*
X223029Y295970D01*
X222970Y295946D01*
X222910Y295925D01*
X222848Y295908D01*
X222786Y295894D01*
X222723Y295885D01*
X222659Y295879D01*
X222595Y295877D01*
X221537Y295877D01*
X225317Y298840D02*
X226375Y299687D01*
X226375Y295877D01*
X225317Y295877D02*
X227433Y295877D01*
D16*
X171863Y315468D02*
X171863Y268732D01*
X136747Y264922D02*
X136634Y264906D01*
X136520Y264895D01*
X136406Y264888D01*
X136292Y264884D01*
X136177Y264885D01*
X136063Y264889D01*
X135949Y264897D01*
X135835Y264909D01*
X135722Y264925D01*
X135610Y264945D01*
X135498Y264969D01*
X135387Y264996D01*
X135277Y265028D01*
X135168Y265063D01*
X135060Y265101D01*
X134954Y265144D01*
X134850Y265190D01*
X134746Y265239D01*
X134645Y265292D01*
X134546Y265348D01*
X134448Y265408D01*
X134353Y265471D01*
X134260Y265538D01*
X134169Y265607D01*
X134081Y265679D01*
X133995Y265755D01*
X133911Y265833D01*
X133831Y265914D01*
X133753Y265998D01*
X133678Y266085D01*
X133607Y266174D01*
X133538Y266265D01*
X133472Y266359D01*
X133410Y266454D01*
X133351Y266552D01*
X133295Y266652D01*
X133243Y266754D01*
X133194Y266857D01*
X133149Y266962D01*
X133108Y267069D01*
X133070Y267177D01*
X133035Y267286D01*
X133005Y267396D01*
X132978Y267507D01*
X132956Y267619D01*
X132937Y267732D01*
X171863Y315468D02*
X171846Y315598D01*
X171825Y315727D01*
X171800Y315856D01*
X171772Y315984D01*
X171739Y316111D01*
X171703Y316237D01*
X171662Y316362D01*
X171618Y316485D01*
X171571Y316607D01*
X171519Y316728D01*
X171465Y316847D01*
X171406Y316964D01*
X171344Y317079D01*
X171279Y317193D01*
X171210Y317305D01*
X171137Y317414D01*
X171062Y317521D01*
X170983Y317626D01*
X170901Y317728D01*
X170816Y317828D01*
X170729Y317925D01*
X170638Y318020D01*
X170544Y318112D01*
X170448Y318201D01*
X170349Y318287D01*
X170248Y318369D01*
X170144Y318449D01*
X170037Y318526D01*
X169929Y318599D01*
X169818Y318669D01*
X169705Y318736D01*
X169590Y318799D01*
X169474Y318859D01*
X169355Y318915D01*
X169235Y318968D01*
X169114Y319017D01*
X168991Y319062D01*
X168866Y319104D01*
X168741Y319142D01*
X168614Y319175D01*
X168487Y319206D01*
X168358Y319232D01*
X168229Y319254D01*
X168099Y319273D01*
X167969Y319287D01*
X167838Y319298D01*
X167707Y319304D01*
X167576Y319307D01*
X167445Y319306D01*
X167314Y319300D01*
X167184Y319291D01*
X167053Y319278D01*
X171863Y268732D02*
X171861Y268610D01*
X171855Y268488D01*
X171845Y268366D01*
X171832Y268245D01*
X171814Y268124D01*
X171793Y268004D01*
X171768Y267884D01*
X171739Y267765D01*
X171706Y267648D01*
X171669Y267531D01*
X171629Y267416D01*
X171585Y267302D01*
X171537Y267190D01*
X171486Y267079D01*
X171431Y266970D01*
X171373Y266862D01*
X171311Y266757D01*
X171246Y266653D01*
X171178Y266552D01*
X171107Y266453D01*
X171032Y266356D01*
X170954Y266262D01*
X170874Y266170D01*
X170790Y266081D01*
X170704Y265995D01*
X170615Y265911D01*
X170523Y265831D01*
X170429Y265753D01*
X170332Y265678D01*
X170233Y265607D01*
X170132Y265539D01*
X170028Y265474D01*
X169923Y265412D01*
X169815Y265354D01*
X169706Y265299D01*
X169595Y265248D01*
X169483Y265200D01*
X169369Y265156D01*
X169254Y265116D01*
X169137Y265079D01*
X169020Y265046D01*
X168901Y265017D01*
X168781Y264992D01*
X168661Y264971D01*
X168540Y264953D01*
X168419Y264940D01*
X168297Y264930D01*
X168175Y264924D01*
X168053Y264922D01*
X132937Y315467D02*
X132922Y315581D01*
X132910Y315695D01*
X132903Y315809D01*
X132899Y315923D01*
X132900Y316037D01*
X132904Y316152D01*
X132912Y316266D01*
X132924Y316379D01*
X132940Y316492D01*
X132960Y316605D01*
X132984Y316717D01*
X133011Y316828D01*
X133042Y316938D01*
X133077Y317047D01*
X133116Y317154D01*
X133158Y317261D01*
X133204Y317365D01*
X133254Y317468D01*
X133307Y317570D01*
X133363Y317669D01*
X133423Y317767D01*
X133486Y317862D01*
X133552Y317955D01*
X133622Y318046D01*
X133694Y318134D01*
X133770Y318220D01*
X133848Y318303D01*
X133929Y318384D01*
X134013Y318462D01*
X134099Y318536D01*
X134188Y318608D01*
X134280Y318677D01*
X134373Y318743D01*
X134469Y318805D01*
X134567Y318864D01*
X134667Y318920D01*
X134769Y318972D01*
X134872Y319020D01*
X134977Y319066D01*
X135084Y319107D01*
X135192Y319145D01*
X135301Y319179D01*
X135411Y319209D01*
X135522Y319236D01*
X135634Y319259D01*
X135747Y319278D01*
X132937Y315468D02*
X132937Y267732D01*
X136747Y264922D02*
X168053Y264922D01*
X158496Y318770D02*
X158494Y318612D01*
X158488Y318453D01*
X158478Y318295D01*
X158464Y318138D01*
X158447Y317980D01*
X158425Y317824D01*
X158400Y317667D01*
X158370Y317512D01*
X158337Y317357D01*
X158300Y317203D01*
X158259Y317050D01*
X158214Y316898D01*
X158165Y316748D01*
X158113Y316598D01*
X158057Y316450D01*
X157997Y316303D01*
X157934Y316158D01*
X157867Y316015D01*
X157797Y315873D01*
X157723Y315733D01*
X157645Y315595D01*
X157564Y315459D01*
X157480Y315325D01*
X157393Y315193D01*
X157302Y315063D01*
X157208Y314936D01*
X157111Y314811D01*
X157010Y314688D01*
X156907Y314568D01*
X156801Y314451D01*
X156692Y314336D01*
X156580Y314224D01*
X156465Y314115D01*
X156348Y314009D01*
X156228Y313906D01*
X156105Y313805D01*
X155980Y313708D01*
X155853Y313614D01*
X155723Y313523D01*
X155591Y313436D01*
X155457Y313352D01*
X155321Y313271D01*
X155183Y313193D01*
X155043Y313119D01*
X154901Y313049D01*
X154758Y312982D01*
X154613Y312919D01*
X154466Y312859D01*
X154318Y312803D01*
X154168Y312751D01*
X154018Y312702D01*
X153866Y312657D01*
X153713Y312616D01*
X153559Y312579D01*
X153404Y312546D01*
X153249Y312516D01*
X153092Y312491D01*
X152936Y312469D01*
X152778Y312452D01*
X152621Y312438D01*
X152463Y312428D01*
X152304Y312422D01*
X152146Y312420D01*
X151988Y312422D01*
X151829Y312428D01*
X151671Y312438D01*
X151514Y312452D01*
X151356Y312469D01*
X151200Y312491D01*
X151043Y312516D01*
X150888Y312546D01*
X150733Y312579D01*
X150579Y312616D01*
X150426Y312657D01*
X150274Y312702D01*
X150124Y312751D01*
X149974Y312803D01*
X149826Y312859D01*
X149679Y312919D01*
X149534Y312982D01*
X149391Y313049D01*
X149249Y313119D01*
X149109Y313193D01*
X148971Y313271D01*
X148835Y313352D01*
X148701Y313436D01*
X148569Y313523D01*
X148439Y313614D01*
X148312Y313708D01*
X148187Y313805D01*
X148064Y313906D01*
X147944Y314009D01*
X147827Y314115D01*
X147712Y314224D01*
X147600Y314336D01*
X147491Y314451D01*
X147385Y314568D01*
X147282Y314688D01*
X147181Y314811D01*
X147084Y314936D01*
X146990Y315063D01*
X146899Y315193D01*
X146812Y315325D01*
X146728Y315459D01*
X146647Y315595D01*
X146569Y315733D01*
X146495Y315873D01*
X146425Y316015D01*
X146358Y316158D01*
X146295Y316303D01*
X146235Y316450D01*
X146179Y316598D01*
X146127Y316748D01*
X146078Y316898D01*
X146033Y317050D01*
X145992Y317203D01*
X145955Y317357D01*
X145922Y317512D01*
X145892Y317667D01*
X145867Y317824D01*
X145845Y317980D01*
X145828Y318138D01*
X145814Y318295D01*
X145804Y318453D01*
X145798Y318612D01*
X145796Y318770D01*
X158496Y319278D02*
X166926Y319278D01*
X145796Y319278D02*
X135747Y319278D01*
D14*
X147517Y324485D02*
X147517Y329311D01*
X146981Y324485D02*
X148054Y324485D01*
X148054Y329311D02*
X146981Y329311D01*
X151610Y324485D02*
X152682Y324485D01*
X151610Y324485D02*
X151545Y324487D01*
X151481Y324493D01*
X151417Y324503D01*
X151353Y324516D01*
X151291Y324534D01*
X151230Y324555D01*
X151170Y324579D01*
X151112Y324608D01*
X151055Y324640D01*
X151001Y324675D01*
X150949Y324713D01*
X150899Y324755D01*
X150852Y324799D01*
X150808Y324846D01*
X150766Y324896D01*
X150728Y324948D01*
X150693Y325002D01*
X150661Y325059D01*
X150632Y325117D01*
X150608Y325177D01*
X150587Y325238D01*
X150569Y325300D01*
X150556Y325364D01*
X150546Y325428D01*
X150540Y325492D01*
X150538Y325557D01*
X150537Y325557D02*
X150537Y328239D01*
X150538Y328239D02*
X150540Y328304D01*
X150546Y328368D01*
X150556Y328432D01*
X150569Y328496D01*
X150587Y328558D01*
X150608Y328619D01*
X150632Y328679D01*
X150661Y328737D01*
X150693Y328794D01*
X150728Y328848D01*
X150766Y328900D01*
X150808Y328950D01*
X150852Y328997D01*
X150899Y329041D01*
X150949Y329083D01*
X151001Y329121D01*
X151055Y329156D01*
X151112Y329188D01*
X151170Y329217D01*
X151230Y329241D01*
X151291Y329262D01*
X151353Y329280D01*
X151417Y329293D01*
X151481Y329303D01*
X151545Y329309D01*
X151610Y329311D01*
X152682Y329311D01*
X155138Y328239D02*
X156478Y329311D01*
X156478Y324485D01*
X155138Y324485D02*
X157819Y324485D01*
D16*
X816300Y420300D02*
X936300Y420300D01*
X936300Y460300D02*
X936300Y530300D01*
X936300Y430300D02*
X936300Y420300D01*
X936300Y530300D02*
X816300Y530300D01*
X816300Y460300D01*
X816300Y430300D02*
X816300Y420300D01*
D14*
X897255Y501736D02*
X901009Y501736D01*
X901074Y501734D01*
X901138Y501728D01*
X901202Y501718D01*
X901266Y501705D01*
X901328Y501687D01*
X901389Y501666D01*
X901449Y501642D01*
X901507Y501613D01*
X901564Y501581D01*
X901618Y501546D01*
X901670Y501508D01*
X901720Y501466D01*
X901767Y501422D01*
X901811Y501375D01*
X901853Y501325D01*
X901891Y501273D01*
X901926Y501219D01*
X901958Y501162D01*
X901987Y501104D01*
X902011Y501044D01*
X902032Y500983D01*
X902050Y500921D01*
X902063Y500857D01*
X902073Y500793D01*
X902079Y500729D01*
X902081Y500664D01*
X902081Y500127D01*
X898327Y504684D02*
X897255Y506024D01*
X902081Y506024D01*
X902081Y504684D02*
X902081Y507365D01*
D12*
X222945Y314452D02*
X222945Y302768D01*
X222945Y314452D02*
X226190Y314452D01*
X226303Y314450D01*
X226416Y314444D01*
X226529Y314434D01*
X226642Y314420D01*
X226754Y314403D01*
X226865Y314381D01*
X226975Y314356D01*
X227085Y314326D01*
X227193Y314293D01*
X227300Y314256D01*
X227406Y314216D01*
X227510Y314171D01*
X227613Y314123D01*
X227714Y314072D01*
X227813Y314017D01*
X227910Y313959D01*
X228005Y313897D01*
X228098Y313832D01*
X228188Y313764D01*
X228276Y313693D01*
X228362Y313618D01*
X228445Y313541D01*
X228525Y313461D01*
X228602Y313378D01*
X228677Y313292D01*
X228748Y313204D01*
X228816Y313114D01*
X228881Y313021D01*
X228943Y312926D01*
X229001Y312829D01*
X229056Y312730D01*
X229107Y312629D01*
X229155Y312526D01*
X229200Y312422D01*
X229240Y312316D01*
X229277Y312209D01*
X229310Y312101D01*
X229340Y311991D01*
X229365Y311881D01*
X229387Y311770D01*
X229404Y311658D01*
X229418Y311545D01*
X229428Y311432D01*
X229434Y311319D01*
X229436Y311206D01*
X229434Y311093D01*
X229428Y310980D01*
X229418Y310867D01*
X229404Y310754D01*
X229387Y310642D01*
X229365Y310531D01*
X229340Y310421D01*
X229310Y310311D01*
X229277Y310203D01*
X229240Y310096D01*
X229200Y309990D01*
X229155Y309886D01*
X229107Y309783D01*
X229056Y309682D01*
X229001Y309583D01*
X228943Y309486D01*
X228881Y309391D01*
X228816Y309298D01*
X228748Y309208D01*
X228677Y309120D01*
X228602Y309034D01*
X228525Y308951D01*
X228445Y308871D01*
X228362Y308794D01*
X228276Y308719D01*
X228188Y308648D01*
X228098Y308580D01*
X228005Y308515D01*
X227910Y308453D01*
X227813Y308395D01*
X227714Y308340D01*
X227613Y308289D01*
X227510Y308241D01*
X227406Y308196D01*
X227300Y308156D01*
X227193Y308119D01*
X227085Y308086D01*
X226975Y308056D01*
X226865Y308031D01*
X226754Y308009D01*
X226642Y307992D01*
X226529Y307978D01*
X226416Y307968D01*
X226303Y307962D01*
X226190Y307960D01*
X226190Y307961D02*
X222945Y307961D01*
X226839Y307961D02*
X229436Y302768D01*
X234301Y311856D02*
X237546Y314452D01*
X237546Y302768D01*
X234301Y302768D02*
X240792Y302768D01*
X347218Y118618D02*
X358902Y118618D01*
X347218Y118618D02*
X347218Y121864D01*
X347220Y121977D01*
X347226Y122090D01*
X347236Y122203D01*
X347250Y122316D01*
X347267Y122428D01*
X347289Y122539D01*
X347314Y122649D01*
X347344Y122759D01*
X347377Y122867D01*
X347414Y122974D01*
X347454Y123080D01*
X347499Y123184D01*
X347547Y123287D01*
X347598Y123388D01*
X347653Y123487D01*
X347711Y123584D01*
X347773Y123679D01*
X347838Y123772D01*
X347906Y123862D01*
X347977Y123950D01*
X348052Y124036D01*
X348129Y124119D01*
X348209Y124199D01*
X348292Y124276D01*
X348378Y124351D01*
X348466Y124422D01*
X348556Y124490D01*
X348649Y124555D01*
X348744Y124617D01*
X348841Y124675D01*
X348940Y124730D01*
X349041Y124781D01*
X349144Y124829D01*
X349248Y124874D01*
X349354Y124914D01*
X349461Y124951D01*
X349569Y124984D01*
X349679Y125014D01*
X349789Y125039D01*
X349900Y125061D01*
X350012Y125078D01*
X350125Y125092D01*
X350238Y125102D01*
X350351Y125108D01*
X350464Y125110D01*
X350577Y125108D01*
X350690Y125102D01*
X350803Y125092D01*
X350916Y125078D01*
X351028Y125061D01*
X351139Y125039D01*
X351249Y125014D01*
X351359Y124984D01*
X351467Y124951D01*
X351574Y124914D01*
X351680Y124874D01*
X351784Y124829D01*
X351887Y124781D01*
X351988Y124730D01*
X352087Y124675D01*
X352184Y124617D01*
X352279Y124555D01*
X352372Y124490D01*
X352462Y124422D01*
X352550Y124351D01*
X352636Y124276D01*
X352719Y124199D01*
X352799Y124119D01*
X352876Y124036D01*
X352951Y123950D01*
X353022Y123862D01*
X353090Y123772D01*
X353155Y123679D01*
X353217Y123584D01*
X353275Y123487D01*
X353330Y123388D01*
X353381Y123287D01*
X353429Y123184D01*
X353474Y123080D01*
X353514Y122974D01*
X353551Y122867D01*
X353584Y122759D01*
X353614Y122649D01*
X353639Y122539D01*
X353661Y122428D01*
X353678Y122316D01*
X353692Y122203D01*
X353702Y122090D01*
X353708Y121977D01*
X353710Y121864D01*
X353709Y121864D02*
X353709Y118618D01*
X353709Y122513D02*
X358902Y125109D01*
X350139Y136465D02*
X350032Y136463D01*
X349926Y136457D01*
X349820Y136447D01*
X349714Y136434D01*
X349608Y136416D01*
X349504Y136395D01*
X349400Y136370D01*
X349297Y136341D01*
X349196Y136309D01*
X349096Y136272D01*
X348997Y136232D01*
X348899Y136189D01*
X348803Y136142D01*
X348709Y136091D01*
X348617Y136037D01*
X348527Y135980D01*
X348439Y135920D01*
X348354Y135856D01*
X348271Y135789D01*
X348190Y135719D01*
X348112Y135647D01*
X348036Y135571D01*
X347964Y135493D01*
X347894Y135412D01*
X347827Y135329D01*
X347763Y135244D01*
X347703Y135156D01*
X347646Y135066D01*
X347592Y134974D01*
X347541Y134880D01*
X347494Y134784D01*
X347451Y134686D01*
X347411Y134587D01*
X347374Y134487D01*
X347342Y134386D01*
X347313Y134283D01*
X347288Y134179D01*
X347267Y134075D01*
X347249Y133969D01*
X347236Y133863D01*
X347226Y133757D01*
X347220Y133651D01*
X347218Y133544D01*
X347220Y133423D01*
X347226Y133302D01*
X347236Y133182D01*
X347249Y133061D01*
X347267Y132942D01*
X347288Y132822D01*
X347313Y132704D01*
X347342Y132587D01*
X347375Y132470D01*
X347411Y132355D01*
X347452Y132241D01*
X347495Y132128D01*
X347543Y132016D01*
X347594Y131907D01*
X347649Y131799D01*
X347707Y131692D01*
X347768Y131588D01*
X347833Y131486D01*
X347901Y131386D01*
X347972Y131288D01*
X348046Y131192D01*
X348123Y131099D01*
X348204Y131009D01*
X348287Y130921D01*
X348373Y130836D01*
X348462Y130753D01*
X348553Y130674D01*
X348647Y130597D01*
X348743Y130524D01*
X348841Y130454D01*
X348942Y130387D01*
X349045Y130323D01*
X349150Y130263D01*
X349257Y130205D01*
X349365Y130152D01*
X349475Y130102D01*
X349587Y130056D01*
X349700Y130013D01*
X349815Y129974D01*
X352411Y135491D02*
X352333Y135570D01*
X352253Y135646D01*
X352170Y135719D01*
X352084Y135789D01*
X351997Y135856D01*
X351906Y135920D01*
X351814Y135980D01*
X351720Y136038D01*
X351623Y136092D01*
X351525Y136142D01*
X351425Y136189D01*
X351324Y136233D01*
X351221Y136273D01*
X351116Y136309D01*
X351011Y136341D01*
X350904Y136370D01*
X350797Y136395D01*
X350688Y136417D01*
X350579Y136434D01*
X350470Y136448D01*
X350360Y136457D01*
X350249Y136463D01*
X350139Y136465D01*
X352411Y135492D02*
X358902Y129974D01*
X358902Y136465D01*
X363915Y134112D02*
X363915Y122428D01*
X363915Y134112D02*
X367160Y134112D01*
X367273Y134110D01*
X367386Y134104D01*
X367499Y134094D01*
X367612Y134080D01*
X367724Y134063D01*
X367835Y134041D01*
X367945Y134016D01*
X368055Y133986D01*
X368163Y133953D01*
X368270Y133916D01*
X368376Y133876D01*
X368480Y133831D01*
X368583Y133783D01*
X368684Y133732D01*
X368783Y133677D01*
X368880Y133619D01*
X368975Y133557D01*
X369068Y133492D01*
X369158Y133424D01*
X369246Y133353D01*
X369332Y133278D01*
X369415Y133201D01*
X369495Y133121D01*
X369572Y133038D01*
X369647Y132952D01*
X369718Y132864D01*
X369786Y132774D01*
X369851Y132681D01*
X369913Y132586D01*
X369971Y132489D01*
X370026Y132390D01*
X370077Y132289D01*
X370125Y132186D01*
X370170Y132082D01*
X370210Y131976D01*
X370247Y131869D01*
X370280Y131761D01*
X370310Y131651D01*
X370335Y131541D01*
X370357Y131430D01*
X370374Y131318D01*
X370388Y131205D01*
X370398Y131092D01*
X370404Y130979D01*
X370406Y130866D01*
X370404Y130753D01*
X370398Y130640D01*
X370388Y130527D01*
X370374Y130414D01*
X370357Y130302D01*
X370335Y130191D01*
X370310Y130081D01*
X370280Y129971D01*
X370247Y129863D01*
X370210Y129756D01*
X370170Y129650D01*
X370125Y129546D01*
X370077Y129443D01*
X370026Y129342D01*
X369971Y129243D01*
X369913Y129146D01*
X369851Y129051D01*
X369786Y128958D01*
X369718Y128868D01*
X369647Y128780D01*
X369572Y128694D01*
X369495Y128611D01*
X369415Y128531D01*
X369332Y128454D01*
X369246Y128379D01*
X369158Y128308D01*
X369068Y128240D01*
X368975Y128175D01*
X368880Y128113D01*
X368783Y128055D01*
X368684Y128000D01*
X368583Y127949D01*
X368480Y127901D01*
X368376Y127856D01*
X368270Y127816D01*
X368163Y127779D01*
X368055Y127746D01*
X367945Y127716D01*
X367835Y127691D01*
X367724Y127669D01*
X367612Y127652D01*
X367499Y127638D01*
X367386Y127628D01*
X367273Y127622D01*
X367160Y127620D01*
X367160Y127621D02*
X363915Y127621D01*
X367809Y127621D02*
X370406Y122428D01*
X375271Y122428D02*
X378516Y122428D01*
X378629Y122430D01*
X378742Y122436D01*
X378855Y122446D01*
X378968Y122460D01*
X379080Y122477D01*
X379191Y122499D01*
X379301Y122524D01*
X379411Y122554D01*
X379519Y122587D01*
X379626Y122624D01*
X379732Y122664D01*
X379836Y122709D01*
X379939Y122757D01*
X380040Y122808D01*
X380139Y122863D01*
X380236Y122921D01*
X380331Y122983D01*
X380424Y123048D01*
X380514Y123116D01*
X380602Y123187D01*
X380688Y123262D01*
X380771Y123339D01*
X380851Y123419D01*
X380928Y123502D01*
X381003Y123588D01*
X381074Y123676D01*
X381142Y123766D01*
X381207Y123859D01*
X381269Y123954D01*
X381327Y124051D01*
X381382Y124150D01*
X381433Y124251D01*
X381481Y124354D01*
X381526Y124458D01*
X381566Y124564D01*
X381603Y124671D01*
X381636Y124779D01*
X381666Y124889D01*
X381691Y124999D01*
X381713Y125110D01*
X381730Y125222D01*
X381744Y125335D01*
X381754Y125448D01*
X381760Y125561D01*
X381762Y125674D01*
X381760Y125787D01*
X381754Y125900D01*
X381744Y126013D01*
X381730Y126126D01*
X381713Y126238D01*
X381691Y126349D01*
X381666Y126459D01*
X381636Y126569D01*
X381603Y126677D01*
X381566Y126784D01*
X381526Y126890D01*
X381481Y126994D01*
X381433Y127097D01*
X381382Y127198D01*
X381327Y127297D01*
X381269Y127394D01*
X381207Y127489D01*
X381142Y127582D01*
X381074Y127672D01*
X381003Y127760D01*
X380928Y127846D01*
X380851Y127929D01*
X380771Y128009D01*
X380688Y128086D01*
X380602Y128161D01*
X380514Y128232D01*
X380424Y128300D01*
X380331Y128365D01*
X380236Y128427D01*
X380139Y128485D01*
X380040Y128540D01*
X379939Y128591D01*
X379836Y128639D01*
X379732Y128684D01*
X379626Y128724D01*
X379519Y128761D01*
X379411Y128794D01*
X379301Y128824D01*
X379191Y128849D01*
X379080Y128871D01*
X378968Y128888D01*
X378855Y128902D01*
X378742Y128912D01*
X378629Y128918D01*
X378516Y128920D01*
X379166Y134112D02*
X375271Y134112D01*
X379166Y134112D02*
X379267Y134110D01*
X379367Y134104D01*
X379467Y134094D01*
X379567Y134081D01*
X379666Y134063D01*
X379765Y134042D01*
X379862Y134017D01*
X379959Y133988D01*
X380054Y133955D01*
X380148Y133919D01*
X380240Y133879D01*
X380331Y133836D01*
X380420Y133789D01*
X380507Y133739D01*
X380593Y133685D01*
X380676Y133628D01*
X380756Y133568D01*
X380835Y133505D01*
X380911Y133438D01*
X380984Y133369D01*
X381054Y133297D01*
X381122Y133223D01*
X381187Y133146D01*
X381248Y133066D01*
X381307Y132984D01*
X381362Y132900D01*
X381414Y132814D01*
X381463Y132726D01*
X381508Y132636D01*
X381550Y132544D01*
X381588Y132451D01*
X381622Y132356D01*
X381653Y132261D01*
X381680Y132164D01*
X381703Y132066D01*
X381723Y131967D01*
X381738Y131867D01*
X381750Y131767D01*
X381758Y131667D01*
X381762Y131566D01*
X381762Y131466D01*
X381758Y131365D01*
X381750Y131265D01*
X381738Y131165D01*
X381723Y131065D01*
X381703Y130966D01*
X381680Y130868D01*
X381653Y130771D01*
X381622Y130676D01*
X381588Y130581D01*
X381550Y130488D01*
X381508Y130396D01*
X381463Y130306D01*
X381414Y130218D01*
X381362Y130132D01*
X381307Y130048D01*
X381248Y129966D01*
X381187Y129886D01*
X381122Y129809D01*
X381054Y129735D01*
X380984Y129663D01*
X380911Y129594D01*
X380835Y129527D01*
X380756Y129464D01*
X380676Y129404D01*
X380593Y129347D01*
X380507Y129293D01*
X380420Y129243D01*
X380331Y129196D01*
X380240Y129153D01*
X380148Y129113D01*
X380054Y129077D01*
X379959Y129044D01*
X379862Y129015D01*
X379765Y128990D01*
X379666Y128969D01*
X379567Y128951D01*
X379467Y128938D01*
X379367Y128928D01*
X379267Y128922D01*
X379166Y128920D01*
X379166Y128919D02*
X376569Y128919D01*
X154432Y224215D02*
X142748Y224215D01*
X142748Y227460D01*
X142750Y227573D01*
X142756Y227686D01*
X142766Y227799D01*
X142780Y227912D01*
X142797Y228024D01*
X142819Y228135D01*
X142844Y228245D01*
X142874Y228355D01*
X142907Y228463D01*
X142944Y228570D01*
X142984Y228676D01*
X143029Y228780D01*
X143077Y228883D01*
X143128Y228984D01*
X143183Y229083D01*
X143241Y229180D01*
X143303Y229275D01*
X143368Y229368D01*
X143436Y229458D01*
X143507Y229546D01*
X143582Y229632D01*
X143659Y229715D01*
X143739Y229795D01*
X143822Y229872D01*
X143908Y229947D01*
X143996Y230018D01*
X144086Y230086D01*
X144179Y230151D01*
X144274Y230213D01*
X144371Y230271D01*
X144470Y230326D01*
X144571Y230377D01*
X144674Y230425D01*
X144778Y230470D01*
X144884Y230510D01*
X144991Y230547D01*
X145099Y230580D01*
X145209Y230610D01*
X145319Y230635D01*
X145430Y230657D01*
X145542Y230674D01*
X145655Y230688D01*
X145768Y230698D01*
X145881Y230704D01*
X145994Y230706D01*
X146107Y230704D01*
X146220Y230698D01*
X146333Y230688D01*
X146446Y230674D01*
X146558Y230657D01*
X146669Y230635D01*
X146779Y230610D01*
X146889Y230580D01*
X146997Y230547D01*
X147104Y230510D01*
X147210Y230470D01*
X147314Y230425D01*
X147417Y230377D01*
X147518Y230326D01*
X147617Y230271D01*
X147714Y230213D01*
X147809Y230151D01*
X147902Y230086D01*
X147992Y230018D01*
X148080Y229947D01*
X148166Y229872D01*
X148249Y229795D01*
X148329Y229715D01*
X148406Y229632D01*
X148481Y229546D01*
X148552Y229458D01*
X148620Y229368D01*
X148685Y229275D01*
X148747Y229180D01*
X148805Y229083D01*
X148860Y228984D01*
X148911Y228883D01*
X148959Y228780D01*
X149004Y228676D01*
X149044Y228570D01*
X149081Y228463D01*
X149114Y228355D01*
X149144Y228245D01*
X149169Y228135D01*
X149191Y228024D01*
X149208Y227912D01*
X149222Y227799D01*
X149232Y227686D01*
X149238Y227573D01*
X149240Y227460D01*
X149239Y227460D02*
X149239Y224215D01*
X149239Y228109D02*
X154432Y230706D01*
X151836Y235571D02*
X142748Y238167D01*
X151836Y235571D02*
X151836Y242062D01*
X149239Y240115D02*
X154432Y240115D01*
D17*
X440722Y393750D03*
D18*
X438822Y388710D02*
X438822Y368210D01*
X414618Y368210D02*
X414618Y388710D01*
D12*
X457220Y322234D02*
X453975Y314445D01*
X460466Y314445D02*
X457220Y322234D01*
X458518Y327953D02*
X453326Y327953D01*
X453213Y327955D01*
X453100Y327961D01*
X452987Y327971D01*
X452874Y327985D01*
X452762Y328002D01*
X452651Y328024D01*
X452541Y328049D01*
X452431Y328079D01*
X452323Y328112D01*
X452216Y328149D01*
X452110Y328189D01*
X452006Y328234D01*
X451903Y328282D01*
X451802Y328333D01*
X451703Y328388D01*
X451606Y328446D01*
X451511Y328508D01*
X451418Y328573D01*
X451328Y328641D01*
X451240Y328712D01*
X451154Y328787D01*
X451071Y328864D01*
X450991Y328944D01*
X450914Y329027D01*
X450839Y329113D01*
X450768Y329201D01*
X450700Y329291D01*
X450635Y329384D01*
X450573Y329479D01*
X450515Y329576D01*
X450460Y329675D01*
X450409Y329776D01*
X450361Y329879D01*
X450316Y329983D01*
X450276Y330089D01*
X450239Y330196D01*
X450206Y330304D01*
X450176Y330414D01*
X450151Y330524D01*
X450129Y330635D01*
X450112Y330747D01*
X450098Y330860D01*
X450088Y330973D01*
X450082Y331086D01*
X450080Y331199D01*
X450082Y331312D01*
X450088Y331425D01*
X450098Y331538D01*
X450112Y331651D01*
X450129Y331763D01*
X450151Y331874D01*
X450176Y331984D01*
X450206Y332094D01*
X450239Y332202D01*
X450276Y332309D01*
X450316Y332415D01*
X450361Y332519D01*
X450409Y332622D01*
X450460Y332723D01*
X450515Y332822D01*
X450573Y332919D01*
X450635Y333014D01*
X450700Y333107D01*
X450768Y333197D01*
X450839Y333285D01*
X450914Y333371D01*
X450991Y333454D01*
X451071Y333534D01*
X451154Y333611D01*
X451240Y333686D01*
X451328Y333757D01*
X451418Y333825D01*
X451511Y333890D01*
X451606Y333952D01*
X451703Y334010D01*
X451802Y334065D01*
X451903Y334116D01*
X452006Y334164D01*
X452110Y334209D01*
X452216Y334249D01*
X452323Y334286D01*
X452431Y334319D01*
X452541Y334349D01*
X452651Y334374D01*
X452762Y334396D01*
X452874Y334413D01*
X452987Y334427D01*
X453100Y334437D01*
X453213Y334443D01*
X453326Y334445D01*
X453326Y334444D02*
X458518Y334444D01*
X458518Y334445D02*
X458631Y334443D01*
X458744Y334437D01*
X458857Y334427D01*
X458970Y334413D01*
X459082Y334396D01*
X459193Y334374D01*
X459303Y334349D01*
X459413Y334319D01*
X459521Y334286D01*
X459628Y334249D01*
X459734Y334209D01*
X459838Y334164D01*
X459941Y334116D01*
X460042Y334065D01*
X460141Y334010D01*
X460238Y333952D01*
X460333Y333890D01*
X460426Y333825D01*
X460516Y333757D01*
X460604Y333686D01*
X460690Y333611D01*
X460773Y333534D01*
X460853Y333454D01*
X460930Y333371D01*
X461005Y333285D01*
X461076Y333197D01*
X461144Y333107D01*
X461209Y333014D01*
X461271Y332919D01*
X461329Y332822D01*
X461384Y332723D01*
X461435Y332622D01*
X461483Y332519D01*
X461528Y332415D01*
X461568Y332309D01*
X461605Y332202D01*
X461638Y332094D01*
X461668Y331984D01*
X461693Y331874D01*
X461715Y331763D01*
X461732Y331651D01*
X461746Y331538D01*
X461756Y331425D01*
X461762Y331312D01*
X461764Y331199D01*
X461762Y331086D01*
X461756Y330973D01*
X461746Y330860D01*
X461732Y330747D01*
X461715Y330635D01*
X461693Y330524D01*
X461668Y330414D01*
X461638Y330304D01*
X461605Y330196D01*
X461568Y330089D01*
X461528Y329983D01*
X461483Y329879D01*
X461435Y329776D01*
X461384Y329675D01*
X461329Y329576D01*
X461271Y329479D01*
X461209Y329384D01*
X461144Y329291D01*
X461076Y329201D01*
X461005Y329113D01*
X460930Y329027D01*
X460853Y328944D01*
X460773Y328864D01*
X460690Y328787D01*
X460604Y328712D01*
X460516Y328641D01*
X460426Y328573D01*
X460333Y328508D01*
X460238Y328446D01*
X460141Y328388D01*
X460042Y328333D01*
X459941Y328282D01*
X459838Y328234D01*
X459734Y328189D01*
X459628Y328149D01*
X459521Y328112D01*
X459413Y328079D01*
X459303Y328049D01*
X459193Y328024D01*
X459082Y328002D01*
X458970Y327985D01*
X458857Y327971D01*
X458744Y327961D01*
X458631Y327955D01*
X458518Y327953D01*
X459168Y333146D02*
X461764Y335743D01*
X461764Y339648D02*
X450080Y339648D01*
X450080Y342893D01*
X450082Y343006D01*
X450088Y343119D01*
X450098Y343232D01*
X450112Y343345D01*
X450129Y343457D01*
X450151Y343568D01*
X450176Y343678D01*
X450206Y343788D01*
X450239Y343896D01*
X450276Y344003D01*
X450316Y344109D01*
X450361Y344213D01*
X450409Y344316D01*
X450460Y344417D01*
X450515Y344516D01*
X450573Y344613D01*
X450635Y344708D01*
X450700Y344801D01*
X450768Y344891D01*
X450839Y344979D01*
X450914Y345065D01*
X450991Y345148D01*
X451071Y345228D01*
X451154Y345305D01*
X451240Y345380D01*
X451328Y345451D01*
X451418Y345519D01*
X451511Y345584D01*
X451606Y345646D01*
X451703Y345704D01*
X451802Y345759D01*
X451903Y345810D01*
X452006Y345858D01*
X452110Y345903D01*
X452216Y345943D01*
X452323Y345980D01*
X452431Y346013D01*
X452541Y346043D01*
X452651Y346068D01*
X452762Y346090D01*
X452874Y346107D01*
X452987Y346121D01*
X453100Y346131D01*
X453213Y346137D01*
X453326Y346139D01*
X453439Y346137D01*
X453552Y346131D01*
X453665Y346121D01*
X453778Y346107D01*
X453890Y346090D01*
X454001Y346068D01*
X454111Y346043D01*
X454221Y346013D01*
X454329Y345980D01*
X454436Y345943D01*
X454542Y345903D01*
X454646Y345858D01*
X454749Y345810D01*
X454850Y345759D01*
X454949Y345704D01*
X455046Y345646D01*
X455141Y345584D01*
X455234Y345519D01*
X455324Y345451D01*
X455412Y345380D01*
X455498Y345305D01*
X455581Y345228D01*
X455661Y345148D01*
X455738Y345065D01*
X455813Y344979D01*
X455884Y344891D01*
X455952Y344801D01*
X456017Y344708D01*
X456079Y344613D01*
X456137Y344516D01*
X456192Y344417D01*
X456243Y344316D01*
X456291Y344213D01*
X456336Y344109D01*
X456376Y344003D01*
X456413Y343896D01*
X456446Y343788D01*
X456476Y343678D01*
X456501Y343568D01*
X456523Y343457D01*
X456540Y343345D01*
X456554Y343232D01*
X456564Y343119D01*
X456570Y343006D01*
X456572Y342893D01*
X456571Y342893D02*
X456571Y339648D01*
X461764Y350931D02*
X450080Y350931D01*
X461764Y350931D02*
X461764Y356124D01*
X456571Y363030D02*
X456571Y366924D01*
X456571Y363030D02*
X456569Y362931D01*
X456563Y362831D01*
X456554Y362732D01*
X456541Y362634D01*
X456524Y362536D01*
X456503Y362438D01*
X456478Y362342D01*
X456450Y362247D01*
X456418Y362153D01*
X456383Y362060D01*
X456344Y361968D01*
X456301Y361878D01*
X456256Y361790D01*
X456206Y361703D01*
X456154Y361619D01*
X456098Y361536D01*
X456040Y361456D01*
X455978Y361378D01*
X455913Y361303D01*
X455845Y361230D01*
X455775Y361160D01*
X455702Y361092D01*
X455627Y361027D01*
X455549Y360965D01*
X455469Y360907D01*
X455386Y360851D01*
X455302Y360799D01*
X455215Y360749D01*
X455127Y360704D01*
X455037Y360661D01*
X454945Y360622D01*
X454852Y360587D01*
X454758Y360555D01*
X454663Y360527D01*
X454567Y360502D01*
X454469Y360481D01*
X454371Y360464D01*
X454273Y360451D01*
X454174Y360442D01*
X454074Y360436D01*
X453975Y360434D01*
X453975Y360433D02*
X453326Y360433D01*
X453213Y360435D01*
X453100Y360441D01*
X452987Y360451D01*
X452874Y360465D01*
X452762Y360482D01*
X452651Y360504D01*
X452541Y360529D01*
X452431Y360559D01*
X452323Y360592D01*
X452216Y360629D01*
X452110Y360669D01*
X452006Y360714D01*
X451903Y360762D01*
X451802Y360813D01*
X451703Y360868D01*
X451606Y360926D01*
X451511Y360988D01*
X451418Y361053D01*
X451328Y361121D01*
X451240Y361192D01*
X451154Y361267D01*
X451071Y361344D01*
X450991Y361424D01*
X450914Y361507D01*
X450839Y361593D01*
X450768Y361681D01*
X450700Y361771D01*
X450635Y361864D01*
X450573Y361959D01*
X450515Y362056D01*
X450460Y362155D01*
X450409Y362256D01*
X450361Y362359D01*
X450316Y362463D01*
X450276Y362569D01*
X450239Y362676D01*
X450206Y362784D01*
X450176Y362894D01*
X450151Y363004D01*
X450129Y363115D01*
X450112Y363227D01*
X450098Y363340D01*
X450088Y363453D01*
X450082Y363566D01*
X450080Y363679D01*
X450082Y363792D01*
X450088Y363905D01*
X450098Y364018D01*
X450112Y364131D01*
X450129Y364243D01*
X450151Y364354D01*
X450176Y364464D01*
X450206Y364574D01*
X450239Y364682D01*
X450276Y364789D01*
X450316Y364895D01*
X450361Y364999D01*
X450409Y365102D01*
X450460Y365203D01*
X450515Y365302D01*
X450573Y365399D01*
X450635Y365494D01*
X450700Y365587D01*
X450768Y365677D01*
X450839Y365765D01*
X450914Y365851D01*
X450991Y365934D01*
X451071Y366014D01*
X451154Y366091D01*
X451240Y366166D01*
X451328Y366237D01*
X451418Y366305D01*
X451511Y366370D01*
X451606Y366432D01*
X451703Y366490D01*
X451802Y366545D01*
X451903Y366596D01*
X452006Y366644D01*
X452110Y366689D01*
X452216Y366729D01*
X452323Y366766D01*
X452431Y366799D01*
X452541Y366829D01*
X452651Y366854D01*
X452762Y366876D01*
X452874Y366893D01*
X452987Y366907D01*
X453100Y366917D01*
X453213Y366923D01*
X453326Y366925D01*
X453326Y366924D02*
X456571Y366924D01*
X456714Y366922D01*
X456857Y366916D01*
X457000Y366906D01*
X457142Y366892D01*
X457284Y366875D01*
X457426Y366853D01*
X457567Y366828D01*
X457707Y366798D01*
X457846Y366765D01*
X457984Y366728D01*
X458121Y366687D01*
X458257Y366643D01*
X458392Y366594D01*
X458525Y366542D01*
X458657Y366487D01*
X458787Y366427D01*
X458916Y366364D01*
X459043Y366298D01*
X459168Y366228D01*
X459290Y366155D01*
X459411Y366078D01*
X459530Y365998D01*
X459646Y365915D01*
X459761Y365829D01*
X459872Y365740D01*
X459982Y365647D01*
X460088Y365552D01*
X460192Y365453D01*
X460293Y365352D01*
X460392Y365248D01*
X460487Y365142D01*
X460580Y365032D01*
X460669Y364921D01*
X460755Y364806D01*
X460838Y364690D01*
X460918Y364571D01*
X460995Y364450D01*
X461068Y364328D01*
X461138Y364203D01*
X461204Y364076D01*
X461267Y363947D01*
X461327Y363817D01*
X461382Y363685D01*
X461434Y363552D01*
X461483Y363417D01*
X461527Y363281D01*
X461568Y363144D01*
X461605Y363006D01*
X461638Y362867D01*
X461668Y362727D01*
X461693Y362586D01*
X461715Y362444D01*
X461732Y362302D01*
X461746Y362160D01*
X461756Y362017D01*
X461762Y361874D01*
X461764Y361731D01*
X455922Y371863D02*
X455692Y371866D01*
X455462Y371874D01*
X455233Y371888D01*
X455004Y371907D01*
X454775Y371932D01*
X454547Y371962D01*
X454320Y371997D01*
X454094Y372038D01*
X453869Y372084D01*
X453645Y372136D01*
X453422Y372193D01*
X453201Y372255D01*
X452981Y372323D01*
X452763Y372396D01*
X452547Y372474D01*
X452333Y372557D01*
X452121Y372645D01*
X451910Y372738D01*
X451703Y372837D01*
X451613Y372870D01*
X451524Y372906D01*
X451436Y372946D01*
X451351Y372990D01*
X451267Y373037D01*
X451185Y373087D01*
X451105Y373141D01*
X451028Y373197D01*
X450952Y373257D01*
X450879Y373320D01*
X450809Y373385D01*
X450741Y373454D01*
X450677Y373525D01*
X450615Y373598D01*
X450556Y373674D01*
X450500Y373752D01*
X450447Y373833D01*
X450398Y373915D01*
X450352Y373999D01*
X450309Y374086D01*
X450270Y374173D01*
X450234Y374263D01*
X450202Y374353D01*
X450174Y374445D01*
X450149Y374538D01*
X450128Y374632D01*
X450111Y374726D01*
X450097Y374821D01*
X450088Y374917D01*
X450082Y375013D01*
X450080Y375109D01*
X450082Y375205D01*
X450088Y375301D01*
X450097Y375397D01*
X450111Y375492D01*
X450128Y375586D01*
X450149Y375680D01*
X450174Y375773D01*
X450202Y375865D01*
X450234Y375955D01*
X450270Y376045D01*
X450309Y376133D01*
X450352Y376219D01*
X450398Y376303D01*
X450447Y376385D01*
X450500Y376466D01*
X450556Y376544D01*
X450615Y376620D01*
X450677Y376693D01*
X450741Y376764D01*
X450809Y376833D01*
X450879Y376898D01*
X450952Y376961D01*
X451028Y377021D01*
X451105Y377077D01*
X451185Y377131D01*
X451267Y377181D01*
X451351Y377228D01*
X451436Y377272D01*
X451524Y377312D01*
X451613Y377348D01*
X451703Y377381D01*
X451910Y377480D01*
X452121Y377573D01*
X452333Y377661D01*
X452547Y377744D01*
X452763Y377822D01*
X452981Y377895D01*
X453201Y377963D01*
X453422Y378025D01*
X453645Y378082D01*
X453869Y378134D01*
X454094Y378180D01*
X454320Y378221D01*
X454547Y378256D01*
X454775Y378286D01*
X455004Y378311D01*
X455233Y378330D01*
X455462Y378344D01*
X455692Y378352D01*
X455922Y378355D01*
X455922Y371863D02*
X456152Y371866D01*
X456382Y371874D01*
X456611Y371888D01*
X456840Y371907D01*
X457069Y371932D01*
X457297Y371962D01*
X457524Y371997D01*
X457750Y372038D01*
X457975Y372084D01*
X458199Y372136D01*
X458422Y372193D01*
X458643Y372255D01*
X458863Y372323D01*
X459081Y372396D01*
X459297Y372474D01*
X459511Y372557D01*
X459723Y372645D01*
X459934Y372738D01*
X460141Y372837D01*
X460231Y372870D01*
X460320Y372906D01*
X460408Y372947D01*
X460493Y372990D01*
X460577Y373037D01*
X460659Y373087D01*
X460739Y373141D01*
X460816Y373197D01*
X460892Y373257D01*
X460965Y373320D01*
X461035Y373385D01*
X461103Y373454D01*
X461167Y373525D01*
X461229Y373598D01*
X461288Y373674D01*
X461344Y373752D01*
X461397Y373833D01*
X461446Y373915D01*
X461492Y373999D01*
X461535Y374086D01*
X461574Y374173D01*
X461610Y374263D01*
X461642Y374353D01*
X461670Y374445D01*
X461695Y374538D01*
X461716Y374632D01*
X461733Y374726D01*
X461747Y374821D01*
X461756Y374917D01*
X461762Y375013D01*
X461764Y375109D01*
X460141Y377380D02*
X459934Y377479D01*
X459723Y377572D01*
X459511Y377660D01*
X459297Y377743D01*
X459081Y377821D01*
X458863Y377894D01*
X458643Y377962D01*
X458422Y378024D01*
X458199Y378081D01*
X457975Y378133D01*
X457750Y378179D01*
X457524Y378220D01*
X457297Y378255D01*
X457069Y378285D01*
X456840Y378310D01*
X456611Y378329D01*
X456382Y378343D01*
X456152Y378351D01*
X455922Y378354D01*
X460141Y377381D02*
X460231Y377348D01*
X460320Y377312D01*
X460408Y377272D01*
X460493Y377228D01*
X460577Y377181D01*
X460659Y377131D01*
X460739Y377077D01*
X460816Y377021D01*
X460892Y376961D01*
X460965Y376898D01*
X461035Y376833D01*
X461103Y376764D01*
X461167Y376693D01*
X461229Y376620D01*
X461288Y376544D01*
X461344Y376466D01*
X461397Y376385D01*
X461446Y376303D01*
X461492Y376219D01*
X461535Y376132D01*
X461574Y376045D01*
X461610Y375955D01*
X461642Y375865D01*
X461670Y375773D01*
X461695Y375680D01*
X461716Y375586D01*
X461733Y375492D01*
X461747Y375397D01*
X461756Y375301D01*
X461762Y375205D01*
X461764Y375109D01*
X459168Y372512D02*
X452676Y377705D01*
X456571Y385890D02*
X456571Y389784D01*
X456571Y385890D02*
X456569Y385791D01*
X456563Y385691D01*
X456554Y385592D01*
X456541Y385494D01*
X456524Y385396D01*
X456503Y385298D01*
X456478Y385202D01*
X456450Y385107D01*
X456418Y385013D01*
X456383Y384920D01*
X456344Y384828D01*
X456301Y384738D01*
X456256Y384650D01*
X456206Y384563D01*
X456154Y384479D01*
X456098Y384396D01*
X456040Y384316D01*
X455978Y384238D01*
X455913Y384163D01*
X455845Y384090D01*
X455775Y384020D01*
X455702Y383952D01*
X455627Y383887D01*
X455549Y383825D01*
X455469Y383767D01*
X455386Y383711D01*
X455302Y383659D01*
X455215Y383609D01*
X455127Y383564D01*
X455037Y383521D01*
X454945Y383482D01*
X454852Y383447D01*
X454758Y383415D01*
X454663Y383387D01*
X454567Y383362D01*
X454469Y383341D01*
X454371Y383324D01*
X454273Y383311D01*
X454174Y383302D01*
X454074Y383296D01*
X453975Y383294D01*
X453975Y383293D02*
X453326Y383293D01*
X453213Y383295D01*
X453100Y383301D01*
X452987Y383311D01*
X452874Y383325D01*
X452762Y383342D01*
X452651Y383364D01*
X452541Y383389D01*
X452431Y383419D01*
X452323Y383452D01*
X452216Y383489D01*
X452110Y383529D01*
X452006Y383574D01*
X451903Y383622D01*
X451802Y383673D01*
X451703Y383728D01*
X451606Y383786D01*
X451511Y383848D01*
X451418Y383913D01*
X451328Y383981D01*
X451240Y384052D01*
X451154Y384127D01*
X451071Y384204D01*
X450991Y384284D01*
X450914Y384367D01*
X450839Y384453D01*
X450768Y384541D01*
X450700Y384631D01*
X450635Y384724D01*
X450573Y384819D01*
X450515Y384916D01*
X450460Y385015D01*
X450409Y385116D01*
X450361Y385219D01*
X450316Y385323D01*
X450276Y385429D01*
X450239Y385536D01*
X450206Y385644D01*
X450176Y385754D01*
X450151Y385864D01*
X450129Y385975D01*
X450112Y386087D01*
X450098Y386200D01*
X450088Y386313D01*
X450082Y386426D01*
X450080Y386539D01*
X450082Y386652D01*
X450088Y386765D01*
X450098Y386878D01*
X450112Y386991D01*
X450129Y387103D01*
X450151Y387214D01*
X450176Y387324D01*
X450206Y387434D01*
X450239Y387542D01*
X450276Y387649D01*
X450316Y387755D01*
X450361Y387859D01*
X450409Y387962D01*
X450460Y388063D01*
X450515Y388162D01*
X450573Y388259D01*
X450635Y388354D01*
X450700Y388447D01*
X450768Y388537D01*
X450839Y388625D01*
X450914Y388711D01*
X450991Y388794D01*
X451071Y388874D01*
X451154Y388951D01*
X451240Y389026D01*
X451328Y389097D01*
X451418Y389165D01*
X451511Y389230D01*
X451606Y389292D01*
X451703Y389350D01*
X451802Y389405D01*
X451903Y389456D01*
X452006Y389504D01*
X452110Y389549D01*
X452216Y389589D01*
X452323Y389626D01*
X452431Y389659D01*
X452541Y389689D01*
X452651Y389714D01*
X452762Y389736D01*
X452874Y389753D01*
X452987Y389767D01*
X453100Y389777D01*
X453213Y389783D01*
X453326Y389785D01*
X453326Y389784D02*
X456571Y389784D01*
X456714Y389782D01*
X456857Y389776D01*
X457000Y389766D01*
X457142Y389752D01*
X457284Y389735D01*
X457426Y389713D01*
X457567Y389688D01*
X457707Y389658D01*
X457846Y389625D01*
X457984Y389588D01*
X458121Y389547D01*
X458257Y389503D01*
X458392Y389454D01*
X458525Y389402D01*
X458657Y389347D01*
X458787Y389287D01*
X458916Y389224D01*
X459043Y389158D01*
X459168Y389088D01*
X459290Y389015D01*
X459411Y388938D01*
X459530Y388858D01*
X459646Y388775D01*
X459761Y388689D01*
X459872Y388600D01*
X459982Y388507D01*
X460088Y388412D01*
X460192Y388313D01*
X460293Y388212D01*
X460392Y388108D01*
X460487Y388002D01*
X460580Y387892D01*
X460669Y387781D01*
X460755Y387666D01*
X460838Y387550D01*
X460918Y387431D01*
X460995Y387310D01*
X461068Y387188D01*
X461138Y387063D01*
X461204Y386936D01*
X461267Y386807D01*
X461327Y386677D01*
X461382Y386545D01*
X461434Y386412D01*
X461483Y386277D01*
X461527Y386141D01*
X461568Y386004D01*
X461605Y385866D01*
X461638Y385727D01*
X461668Y385587D01*
X461693Y385446D01*
X461715Y385304D01*
X461732Y385162D01*
X461746Y385020D01*
X461756Y384877D01*
X461762Y384734D01*
X461764Y384591D01*
X455273Y394723D02*
X455273Y398618D01*
X455275Y398717D01*
X455281Y398817D01*
X455290Y398916D01*
X455303Y399014D01*
X455320Y399112D01*
X455341Y399210D01*
X455366Y399306D01*
X455394Y399401D01*
X455426Y399495D01*
X455461Y399588D01*
X455500Y399680D01*
X455543Y399770D01*
X455588Y399858D01*
X455638Y399945D01*
X455690Y400029D01*
X455746Y400112D01*
X455804Y400192D01*
X455866Y400270D01*
X455931Y400345D01*
X455999Y400418D01*
X456069Y400488D01*
X456142Y400556D01*
X456217Y400621D01*
X456295Y400683D01*
X456375Y400741D01*
X456458Y400797D01*
X456542Y400849D01*
X456629Y400899D01*
X456717Y400944D01*
X456807Y400987D01*
X456899Y401026D01*
X456992Y401061D01*
X457086Y401093D01*
X457181Y401121D01*
X457277Y401146D01*
X457375Y401167D01*
X457473Y401184D01*
X457571Y401197D01*
X457670Y401206D01*
X457770Y401212D01*
X457869Y401214D01*
X458518Y401214D01*
X458518Y401215D02*
X458631Y401213D01*
X458744Y401207D01*
X458857Y401197D01*
X458970Y401183D01*
X459082Y401166D01*
X459193Y401144D01*
X459303Y401119D01*
X459413Y401089D01*
X459521Y401056D01*
X459628Y401019D01*
X459734Y400979D01*
X459838Y400934D01*
X459941Y400886D01*
X460042Y400835D01*
X460141Y400780D01*
X460238Y400722D01*
X460333Y400660D01*
X460426Y400595D01*
X460516Y400527D01*
X460604Y400456D01*
X460690Y400381D01*
X460773Y400304D01*
X460853Y400224D01*
X460930Y400141D01*
X461005Y400055D01*
X461076Y399967D01*
X461144Y399877D01*
X461209Y399784D01*
X461271Y399689D01*
X461329Y399592D01*
X461384Y399493D01*
X461435Y399392D01*
X461483Y399289D01*
X461528Y399185D01*
X461568Y399079D01*
X461605Y398972D01*
X461638Y398864D01*
X461668Y398754D01*
X461693Y398644D01*
X461715Y398533D01*
X461732Y398421D01*
X461746Y398308D01*
X461756Y398195D01*
X461762Y398082D01*
X461764Y397969D01*
X461762Y397856D01*
X461756Y397743D01*
X461746Y397630D01*
X461732Y397517D01*
X461715Y397405D01*
X461693Y397294D01*
X461668Y397184D01*
X461638Y397074D01*
X461605Y396966D01*
X461568Y396859D01*
X461528Y396753D01*
X461483Y396649D01*
X461435Y396546D01*
X461384Y396445D01*
X461329Y396346D01*
X461271Y396249D01*
X461209Y396154D01*
X461144Y396061D01*
X461076Y395971D01*
X461005Y395883D01*
X460930Y395797D01*
X460853Y395714D01*
X460773Y395634D01*
X460690Y395557D01*
X460604Y395482D01*
X460516Y395411D01*
X460426Y395343D01*
X460333Y395278D01*
X460238Y395216D01*
X460141Y395158D01*
X460042Y395103D01*
X459941Y395052D01*
X459838Y395004D01*
X459734Y394959D01*
X459628Y394919D01*
X459521Y394882D01*
X459413Y394849D01*
X459303Y394819D01*
X459193Y394794D01*
X459082Y394772D01*
X458970Y394755D01*
X458857Y394741D01*
X458744Y394731D01*
X458631Y394725D01*
X458518Y394723D01*
X455273Y394723D01*
X455130Y394725D01*
X454987Y394731D01*
X454844Y394741D01*
X454702Y394755D01*
X454560Y394772D01*
X454418Y394794D01*
X454277Y394819D01*
X454137Y394849D01*
X453998Y394882D01*
X453860Y394919D01*
X453723Y394960D01*
X453587Y395004D01*
X453452Y395053D01*
X453319Y395105D01*
X453187Y395160D01*
X453057Y395220D01*
X452928Y395283D01*
X452801Y395349D01*
X452677Y395419D01*
X452554Y395492D01*
X452433Y395569D01*
X452314Y395648D01*
X452198Y395732D01*
X452083Y395818D01*
X451972Y395907D01*
X451863Y396000D01*
X451756Y396095D01*
X451652Y396194D01*
X451551Y396295D01*
X451452Y396399D01*
X451357Y396505D01*
X451264Y396615D01*
X451175Y396726D01*
X451089Y396840D01*
X451006Y396957D01*
X450926Y397076D01*
X450849Y397197D01*
X450776Y397319D01*
X450706Y397444D01*
X450640Y397571D01*
X450577Y397700D01*
X450517Y397830D01*
X450462Y397962D01*
X450410Y398095D01*
X450361Y398230D01*
X450317Y398366D01*
X450276Y398503D01*
X450239Y398641D01*
X450206Y398780D01*
X450176Y398920D01*
X450151Y399061D01*
X450129Y399203D01*
X450112Y399345D01*
X450098Y399487D01*
X450088Y399630D01*
X450082Y399773D01*
X450080Y399916D01*
X450080Y408637D02*
X461764Y408637D01*
X450080Y405391D02*
X450080Y411882D01*
X450080Y416514D02*
X461764Y416514D01*
X450080Y416514D02*
X450080Y419759D01*
X450082Y419872D01*
X450088Y419985D01*
X450098Y420098D01*
X450112Y420211D01*
X450129Y420323D01*
X450151Y420434D01*
X450176Y420544D01*
X450206Y420654D01*
X450239Y420762D01*
X450276Y420869D01*
X450316Y420975D01*
X450361Y421079D01*
X450409Y421182D01*
X450460Y421283D01*
X450515Y421382D01*
X450573Y421479D01*
X450635Y421574D01*
X450700Y421667D01*
X450768Y421757D01*
X450839Y421845D01*
X450914Y421931D01*
X450991Y422014D01*
X451071Y422094D01*
X451154Y422171D01*
X451240Y422246D01*
X451328Y422317D01*
X451418Y422385D01*
X451511Y422450D01*
X451606Y422512D01*
X451703Y422570D01*
X451802Y422625D01*
X451903Y422676D01*
X452006Y422724D01*
X452110Y422769D01*
X452216Y422809D01*
X452323Y422846D01*
X452431Y422879D01*
X452541Y422909D01*
X452651Y422934D01*
X452762Y422956D01*
X452874Y422973D01*
X452987Y422987D01*
X453100Y422997D01*
X453213Y423003D01*
X453326Y423005D01*
X453439Y423003D01*
X453552Y422997D01*
X453665Y422987D01*
X453778Y422973D01*
X453890Y422956D01*
X454001Y422934D01*
X454111Y422909D01*
X454221Y422879D01*
X454329Y422846D01*
X454436Y422809D01*
X454542Y422769D01*
X454646Y422724D01*
X454749Y422676D01*
X454850Y422625D01*
X454949Y422570D01*
X455046Y422512D01*
X455141Y422450D01*
X455234Y422385D01*
X455324Y422317D01*
X455412Y422246D01*
X455498Y422171D01*
X455581Y422094D01*
X455661Y422014D01*
X455738Y421931D01*
X455813Y421845D01*
X455884Y421757D01*
X455952Y421667D01*
X456017Y421574D01*
X456079Y421479D01*
X456137Y421382D01*
X456192Y421283D01*
X456243Y421182D01*
X456291Y421079D01*
X456336Y420975D01*
X456376Y420869D01*
X456413Y420762D01*
X456446Y420654D01*
X456476Y420544D01*
X456501Y420434D01*
X456523Y420323D01*
X456540Y420211D01*
X456554Y420098D01*
X456564Y419985D01*
X456570Y419872D01*
X456572Y419759D01*
X456571Y419759D02*
X456571Y416514D01*
X456571Y420408D02*
X461764Y423005D01*
X451378Y427870D02*
X450080Y427870D01*
X450080Y434361D01*
X461764Y431115D01*
D19*
X270380Y194550D02*
X247780Y194550D01*
X247780Y224550D01*
X270380Y224550D01*
X270380Y194550D01*
D20*
X280080Y193550D02*
X280082Y193613D01*
X280088Y193675D01*
X280098Y193737D01*
X280111Y193799D01*
X280129Y193859D01*
X280150Y193918D01*
X280175Y193976D01*
X280204Y194032D01*
X280236Y194086D01*
X280271Y194138D01*
X280309Y194187D01*
X280351Y194235D01*
X280395Y194279D01*
X280443Y194321D01*
X280492Y194359D01*
X280544Y194394D01*
X280598Y194426D01*
X280654Y194455D01*
X280712Y194480D01*
X280771Y194501D01*
X280831Y194519D01*
X280893Y194532D01*
X280955Y194542D01*
X281017Y194548D01*
X281080Y194550D01*
X281143Y194548D01*
X281205Y194542D01*
X281267Y194532D01*
X281329Y194519D01*
X281389Y194501D01*
X281448Y194480D01*
X281506Y194455D01*
X281562Y194426D01*
X281616Y194394D01*
X281668Y194359D01*
X281717Y194321D01*
X281765Y194279D01*
X281809Y194235D01*
X281851Y194187D01*
X281889Y194138D01*
X281924Y194086D01*
X281956Y194032D01*
X281985Y193976D01*
X282010Y193918D01*
X282031Y193859D01*
X282049Y193799D01*
X282062Y193737D01*
X282072Y193675D01*
X282078Y193613D01*
X282080Y193550D01*
X282078Y193487D01*
X282072Y193425D01*
X282062Y193363D01*
X282049Y193301D01*
X282031Y193241D01*
X282010Y193182D01*
X281985Y193124D01*
X281956Y193068D01*
X281924Y193014D01*
X281889Y192962D01*
X281851Y192913D01*
X281809Y192865D01*
X281765Y192821D01*
X281717Y192779D01*
X281668Y192741D01*
X281616Y192706D01*
X281562Y192674D01*
X281506Y192645D01*
X281448Y192620D01*
X281389Y192599D01*
X281329Y192581D01*
X281267Y192568D01*
X281205Y192558D01*
X281143Y192552D01*
X281080Y192550D01*
X281017Y192552D01*
X280955Y192558D01*
X280893Y192568D01*
X280831Y192581D01*
X280771Y192599D01*
X280712Y192620D01*
X280654Y192645D01*
X280598Y192674D01*
X280544Y192706D01*
X280492Y192741D01*
X280443Y192779D01*
X280395Y192821D01*
X280351Y192865D01*
X280309Y192913D01*
X280271Y192962D01*
X280236Y193014D01*
X280204Y193068D01*
X280175Y193124D01*
X280150Y193182D01*
X280129Y193241D01*
X280111Y193301D01*
X280098Y193363D01*
X280088Y193425D01*
X280082Y193487D01*
X280080Y193550D01*
D12*
X263273Y187024D02*
X263273Y178578D01*
X263274Y178578D02*
X263276Y178466D01*
X263282Y178354D01*
X263291Y178242D01*
X263305Y178131D01*
X263322Y178020D01*
X263343Y177910D01*
X263368Y177801D01*
X263397Y177692D01*
X263430Y177585D01*
X263466Y177479D01*
X263505Y177374D01*
X263549Y177271D01*
X263596Y177169D01*
X263646Y177069D01*
X263700Y176970D01*
X263757Y176874D01*
X263817Y176779D01*
X263881Y176687D01*
X263948Y176597D01*
X264018Y176509D01*
X264091Y176424D01*
X264167Y176342D01*
X264245Y176262D01*
X264327Y176184D01*
X264410Y176110D01*
X264497Y176039D01*
X264586Y175970D01*
X264677Y175905D01*
X264770Y175843D01*
X264866Y175784D01*
X264963Y175729D01*
X265062Y175676D01*
X265163Y175628D01*
X265266Y175583D01*
X265370Y175541D01*
X265476Y175503D01*
X265583Y175469D01*
X265690Y175438D01*
X265799Y175411D01*
X265909Y175388D01*
X266019Y175369D01*
X266130Y175354D01*
X266242Y175342D01*
X266354Y175334D01*
X266466Y175330D01*
X266578Y175330D01*
X266690Y175334D01*
X266802Y175342D01*
X266914Y175354D01*
X267025Y175369D01*
X267135Y175388D01*
X267245Y175411D01*
X267354Y175438D01*
X267461Y175469D01*
X267568Y175503D01*
X267674Y175541D01*
X267778Y175583D01*
X267881Y175628D01*
X267982Y175676D01*
X268081Y175729D01*
X268178Y175784D01*
X268274Y175843D01*
X268367Y175905D01*
X268458Y175970D01*
X268547Y176039D01*
X268634Y176110D01*
X268717Y176184D01*
X268799Y176262D01*
X268877Y176342D01*
X268953Y176424D01*
X269026Y176509D01*
X269096Y176597D01*
X269163Y176687D01*
X269227Y176779D01*
X269287Y176874D01*
X269344Y176970D01*
X269398Y177069D01*
X269448Y177169D01*
X269495Y177271D01*
X269539Y177374D01*
X269578Y177479D01*
X269614Y177585D01*
X269647Y177692D01*
X269676Y177801D01*
X269701Y177910D01*
X269722Y178020D01*
X269739Y178131D01*
X269753Y178242D01*
X269762Y178354D01*
X269768Y178466D01*
X269770Y178578D01*
X269770Y187024D01*
X275094Y184425D02*
X278342Y187024D01*
X278342Y175330D01*
X275094Y175330D02*
X281591Y175330D01*
D17*
X398340Y259760D03*
D18*
X393300Y262260D02*
X393300Y254400D01*
X385440Y254400D01*
X343300Y254400D02*
X343300Y262260D01*
X343300Y254400D02*
X351160Y254400D01*
X343300Y296540D02*
X343300Y304400D01*
X351160Y304400D01*
X393300Y304400D02*
X393300Y296540D01*
X393300Y304400D02*
X385440Y304400D01*
D12*
X354196Y243983D02*
X354196Y235545D01*
X354198Y235432D01*
X354204Y235319D01*
X354214Y235206D01*
X354228Y235093D01*
X354245Y234981D01*
X354267Y234870D01*
X354292Y234760D01*
X354322Y234650D01*
X354355Y234542D01*
X354392Y234435D01*
X354432Y234329D01*
X354477Y234225D01*
X354525Y234122D01*
X354576Y234021D01*
X354631Y233922D01*
X354689Y233825D01*
X354751Y233730D01*
X354816Y233637D01*
X354884Y233547D01*
X354955Y233459D01*
X355030Y233373D01*
X355107Y233290D01*
X355187Y233210D01*
X355270Y233133D01*
X355356Y233058D01*
X355444Y232987D01*
X355534Y232919D01*
X355627Y232854D01*
X355722Y232792D01*
X355819Y232734D01*
X355918Y232679D01*
X356019Y232628D01*
X356122Y232580D01*
X356226Y232535D01*
X356332Y232495D01*
X356439Y232458D01*
X356547Y232425D01*
X356657Y232395D01*
X356767Y232370D01*
X356878Y232348D01*
X356990Y232331D01*
X357103Y232317D01*
X357216Y232307D01*
X357329Y232301D01*
X357442Y232299D01*
X357555Y232301D01*
X357668Y232307D01*
X357781Y232317D01*
X357894Y232331D01*
X358006Y232348D01*
X358117Y232370D01*
X358227Y232395D01*
X358337Y232425D01*
X358445Y232458D01*
X358552Y232495D01*
X358658Y232535D01*
X358762Y232580D01*
X358865Y232628D01*
X358966Y232679D01*
X359065Y232734D01*
X359162Y232792D01*
X359257Y232854D01*
X359350Y232919D01*
X359440Y232987D01*
X359528Y233058D01*
X359614Y233133D01*
X359697Y233210D01*
X359777Y233290D01*
X359854Y233373D01*
X359929Y233459D01*
X360000Y233547D01*
X360068Y233637D01*
X360133Y233730D01*
X360195Y233825D01*
X360253Y233922D01*
X360308Y234021D01*
X360359Y234122D01*
X360407Y234225D01*
X360452Y234329D01*
X360492Y234435D01*
X360529Y234542D01*
X360562Y234650D01*
X360592Y234760D01*
X360617Y234870D01*
X360639Y234981D01*
X360656Y235093D01*
X360670Y235206D01*
X360680Y235319D01*
X360686Y235432D01*
X360688Y235545D01*
X360687Y235545D02*
X360687Y243983D01*
X368491Y243983D02*
X368491Y232299D01*
X368491Y238141D02*
X366868Y239115D01*
X366867Y239114D02*
X366794Y239161D01*
X366723Y239210D01*
X366653Y239263D01*
X366587Y239319D01*
X366523Y239378D01*
X366461Y239439D01*
X366403Y239503D01*
X366347Y239570D01*
X366295Y239639D01*
X366245Y239711D01*
X366199Y239785D01*
X366156Y239860D01*
X366117Y239938D01*
X366081Y240017D01*
X366049Y240098D01*
X366020Y240180D01*
X365995Y240263D01*
X365974Y240347D01*
X365957Y240432D01*
X365943Y240518D01*
X365934Y240604D01*
X365928Y240691D01*
X365926Y240778D01*
X365928Y240865D01*
X365934Y240952D01*
X365944Y241038D01*
X365957Y241124D01*
X365975Y241209D01*
X365996Y241293D01*
X366021Y241376D01*
X366050Y241459D01*
X366082Y241539D01*
X366118Y241618D01*
X366157Y241696D01*
X366200Y241771D01*
X366247Y241845D01*
X366296Y241916D01*
X366349Y241986D01*
X366404Y242052D01*
X366463Y242116D01*
X366524Y242178D01*
X366589Y242237D01*
X366655Y242292D01*
X366724Y242345D01*
X366796Y242395D01*
X366869Y242441D01*
X366945Y242484D01*
X367022Y242523D01*
X367101Y242559D01*
X367182Y242592D01*
X367264Y242620D01*
X367347Y242646D01*
X367431Y242667D01*
X367517Y242684D01*
X367517Y242685D02*
X367657Y242709D01*
X367799Y242729D01*
X367940Y242745D01*
X368082Y242756D01*
X368225Y242764D01*
X368367Y242768D01*
X368510Y242769D01*
X368653Y242765D01*
X368795Y242757D01*
X368937Y242745D01*
X369079Y242729D01*
X369220Y242710D01*
X369361Y242686D01*
X369501Y242659D01*
X369640Y242627D01*
X369778Y242592D01*
X369916Y242553D01*
X370052Y242510D01*
X370186Y242464D01*
X370320Y242413D01*
X370452Y242360D01*
X370582Y242302D01*
X370711Y242241D01*
X370838Y242176D01*
X370964Y242108D01*
X371087Y242036D01*
X368491Y238141D02*
X370113Y237167D01*
X370114Y237168D02*
X370187Y237121D01*
X370258Y237072D01*
X370328Y237019D01*
X370394Y236963D01*
X370458Y236904D01*
X370520Y236843D01*
X370578Y236779D01*
X370634Y236712D01*
X370686Y236643D01*
X370736Y236571D01*
X370782Y236497D01*
X370825Y236422D01*
X370864Y236344D01*
X370900Y236265D01*
X370932Y236184D01*
X370961Y236102D01*
X370986Y236019D01*
X371007Y235935D01*
X371024Y235850D01*
X371038Y235764D01*
X371047Y235678D01*
X371053Y235591D01*
X371055Y235504D01*
X371053Y235417D01*
X371047Y235330D01*
X371037Y235244D01*
X371024Y235158D01*
X371006Y235073D01*
X370985Y234989D01*
X370960Y234906D01*
X370931Y234823D01*
X370899Y234743D01*
X370863Y234664D01*
X370824Y234586D01*
X370781Y234511D01*
X370734Y234437D01*
X370685Y234366D01*
X370632Y234296D01*
X370577Y234230D01*
X370518Y234166D01*
X370457Y234104D01*
X370392Y234045D01*
X370326Y233990D01*
X370257Y233937D01*
X370185Y233887D01*
X370112Y233841D01*
X370036Y233798D01*
X369959Y233759D01*
X369880Y233723D01*
X369799Y233690D01*
X369717Y233662D01*
X369634Y233636D01*
X369550Y233615D01*
X369465Y233598D01*
X369464Y233597D02*
X369324Y233573D01*
X369182Y233553D01*
X369041Y233537D01*
X368899Y233526D01*
X368756Y233518D01*
X368614Y233514D01*
X368471Y233513D01*
X368328Y233517D01*
X368186Y233525D01*
X368044Y233537D01*
X367902Y233553D01*
X367761Y233572D01*
X367620Y233596D01*
X367480Y233623D01*
X367341Y233655D01*
X367203Y233690D01*
X367065Y233729D01*
X366929Y233772D01*
X366795Y233818D01*
X366661Y233869D01*
X366529Y233922D01*
X366399Y233980D01*
X366270Y234041D01*
X366143Y234106D01*
X366017Y234174D01*
X365894Y234246D01*
X379483Y243983D02*
X379590Y243981D01*
X379696Y243975D01*
X379802Y243965D01*
X379908Y243952D01*
X380014Y243934D01*
X380118Y243913D01*
X380222Y243888D01*
X380325Y243859D01*
X380426Y243827D01*
X380526Y243790D01*
X380625Y243750D01*
X380723Y243707D01*
X380819Y243660D01*
X380913Y243609D01*
X381005Y243555D01*
X381095Y243498D01*
X381183Y243438D01*
X381268Y243374D01*
X381351Y243307D01*
X381432Y243237D01*
X381510Y243165D01*
X381586Y243089D01*
X381658Y243011D01*
X381728Y242930D01*
X381795Y242847D01*
X381859Y242762D01*
X381919Y242674D01*
X381976Y242584D01*
X382030Y242492D01*
X382081Y242398D01*
X382128Y242302D01*
X382171Y242204D01*
X382211Y242105D01*
X382248Y242005D01*
X382280Y241904D01*
X382309Y241801D01*
X382334Y241697D01*
X382355Y241593D01*
X382373Y241487D01*
X382386Y241381D01*
X382396Y241275D01*
X382402Y241169D01*
X382404Y241062D01*
X379483Y243983D02*
X379362Y243981D01*
X379241Y243975D01*
X379121Y243965D01*
X379000Y243952D01*
X378881Y243934D01*
X378761Y243913D01*
X378643Y243888D01*
X378526Y243859D01*
X378409Y243826D01*
X378294Y243790D01*
X378180Y243749D01*
X378067Y243706D01*
X377955Y243658D01*
X377846Y243607D01*
X377738Y243552D01*
X377631Y243494D01*
X377527Y243433D01*
X377425Y243368D01*
X377325Y243300D01*
X377227Y243229D01*
X377131Y243155D01*
X377038Y243078D01*
X376948Y242997D01*
X376860Y242914D01*
X376775Y242828D01*
X376692Y242739D01*
X376613Y242648D01*
X376536Y242554D01*
X376463Y242458D01*
X376393Y242360D01*
X376326Y242259D01*
X376262Y242156D01*
X376202Y242051D01*
X376145Y241944D01*
X376091Y241836D01*
X376041Y241726D01*
X375995Y241614D01*
X375952Y241501D01*
X375913Y241386D01*
X381431Y238790D02*
X381510Y238867D01*
X381586Y238948D01*
X381659Y239031D01*
X381729Y239116D01*
X381796Y239204D01*
X381860Y239294D01*
X381920Y239386D01*
X381977Y239481D01*
X382031Y239577D01*
X382082Y239675D01*
X382129Y239775D01*
X382173Y239877D01*
X382213Y239980D01*
X382249Y240084D01*
X382281Y240190D01*
X382310Y240296D01*
X382335Y240404D01*
X382357Y240512D01*
X382374Y240622D01*
X382388Y240731D01*
X382397Y240841D01*
X382403Y240952D01*
X382405Y241062D01*
X381430Y238790D02*
X375913Y232299D01*
X382404Y232299D01*
X459232Y413314D02*
X459232Y415911D01*
X459232Y413314D02*
X459230Y413215D01*
X459224Y413115D01*
X459215Y413016D01*
X459202Y412918D01*
X459185Y412820D01*
X459164Y412722D01*
X459139Y412626D01*
X459111Y412531D01*
X459079Y412437D01*
X459044Y412344D01*
X459005Y412252D01*
X458962Y412162D01*
X458917Y412074D01*
X458867Y411987D01*
X458815Y411903D01*
X458759Y411820D01*
X458701Y411740D01*
X458639Y411662D01*
X458574Y411587D01*
X458506Y411514D01*
X458436Y411444D01*
X458363Y411376D01*
X458288Y411311D01*
X458210Y411249D01*
X458130Y411191D01*
X458047Y411135D01*
X457963Y411083D01*
X457876Y411033D01*
X457788Y410988D01*
X457698Y410945D01*
X457606Y410906D01*
X457513Y410871D01*
X457419Y410839D01*
X457324Y410811D01*
X457228Y410786D01*
X457130Y410765D01*
X457032Y410748D01*
X456934Y410735D01*
X456835Y410726D01*
X456735Y410720D01*
X456636Y410718D01*
X450144Y410718D01*
X450045Y410720D01*
X449945Y410726D01*
X449846Y410735D01*
X449748Y410748D01*
X449650Y410766D01*
X449552Y410786D01*
X449456Y410811D01*
X449360Y410839D01*
X449266Y410871D01*
X449173Y410906D01*
X449082Y410945D01*
X448992Y410988D01*
X448903Y411033D01*
X448817Y411083D01*
X448732Y411135D01*
X448650Y411191D01*
X448570Y411250D01*
X448492Y411311D01*
X448416Y411376D01*
X448343Y411444D01*
X448273Y411514D01*
X448205Y411587D01*
X448140Y411663D01*
X448079Y411741D01*
X448020Y411821D01*
X447964Y411903D01*
X447912Y411988D01*
X447863Y412074D01*
X447817Y412163D01*
X447774Y412253D01*
X447735Y412344D01*
X447700Y412437D01*
X447668Y412531D01*
X447640Y412627D01*
X447615Y412723D01*
X447595Y412821D01*
X447577Y412919D01*
X447564Y413017D01*
X447555Y413116D01*
X447549Y413215D01*
X447547Y413315D01*
X447548Y413314D02*
X447548Y415911D01*
X459232Y420276D02*
X459232Y423522D01*
X459230Y423635D01*
X459224Y423748D01*
X459214Y423861D01*
X459200Y423974D01*
X459183Y424086D01*
X459161Y424197D01*
X459136Y424307D01*
X459106Y424417D01*
X459073Y424525D01*
X459036Y424632D01*
X458996Y424738D01*
X458951Y424842D01*
X458903Y424945D01*
X458852Y425046D01*
X458797Y425145D01*
X458739Y425242D01*
X458677Y425337D01*
X458612Y425430D01*
X458544Y425520D01*
X458473Y425608D01*
X458398Y425694D01*
X458321Y425777D01*
X458241Y425857D01*
X458158Y425934D01*
X458072Y426009D01*
X457984Y426080D01*
X457894Y426148D01*
X457801Y426213D01*
X457706Y426275D01*
X457609Y426333D01*
X457510Y426388D01*
X457409Y426439D01*
X457306Y426487D01*
X457202Y426532D01*
X457096Y426572D01*
X456989Y426609D01*
X456881Y426642D01*
X456771Y426672D01*
X456661Y426697D01*
X456550Y426719D01*
X456438Y426736D01*
X456325Y426750D01*
X456212Y426760D01*
X456099Y426766D01*
X455986Y426768D01*
X455873Y426766D01*
X455760Y426760D01*
X455647Y426750D01*
X455534Y426736D01*
X455422Y426719D01*
X455311Y426697D01*
X455201Y426672D01*
X455091Y426642D01*
X454983Y426609D01*
X454876Y426572D01*
X454770Y426532D01*
X454666Y426487D01*
X454563Y426439D01*
X454462Y426388D01*
X454363Y426333D01*
X454266Y426275D01*
X454171Y426213D01*
X454078Y426148D01*
X453988Y426080D01*
X453900Y426009D01*
X453814Y425934D01*
X453731Y425857D01*
X453651Y425777D01*
X453574Y425694D01*
X453499Y425608D01*
X453428Y425520D01*
X453360Y425430D01*
X453295Y425337D01*
X453233Y425242D01*
X453175Y425145D01*
X453120Y425046D01*
X453069Y424945D01*
X453021Y424842D01*
X452976Y424738D01*
X452936Y424632D01*
X452899Y424525D01*
X452866Y424417D01*
X452836Y424307D01*
X452811Y424197D01*
X452789Y424086D01*
X452772Y423974D01*
X452758Y423861D01*
X452748Y423748D01*
X452742Y423635D01*
X452740Y423522D01*
X447548Y424171D02*
X447548Y420276D01*
X447548Y424171D02*
X447550Y424272D01*
X447556Y424372D01*
X447566Y424472D01*
X447579Y424572D01*
X447597Y424671D01*
X447618Y424770D01*
X447643Y424867D01*
X447672Y424964D01*
X447705Y425059D01*
X447741Y425153D01*
X447781Y425245D01*
X447824Y425336D01*
X447871Y425425D01*
X447921Y425512D01*
X447975Y425598D01*
X448032Y425681D01*
X448092Y425761D01*
X448155Y425840D01*
X448222Y425916D01*
X448291Y425989D01*
X448363Y426059D01*
X448437Y426127D01*
X448514Y426192D01*
X448594Y426253D01*
X448676Y426312D01*
X448760Y426367D01*
X448846Y426419D01*
X448934Y426468D01*
X449024Y426513D01*
X449116Y426555D01*
X449209Y426593D01*
X449304Y426627D01*
X449399Y426658D01*
X449496Y426685D01*
X449594Y426708D01*
X449693Y426728D01*
X449793Y426743D01*
X449893Y426755D01*
X449993Y426763D01*
X450094Y426767D01*
X450194Y426767D01*
X450295Y426763D01*
X450395Y426755D01*
X450495Y426743D01*
X450595Y426728D01*
X450694Y426708D01*
X450792Y426685D01*
X450889Y426658D01*
X450984Y426627D01*
X451079Y426593D01*
X451172Y426555D01*
X451264Y426513D01*
X451354Y426468D01*
X451442Y426419D01*
X451528Y426367D01*
X451612Y426312D01*
X451694Y426253D01*
X451774Y426192D01*
X451851Y426127D01*
X451925Y426059D01*
X451997Y425989D01*
X452066Y425916D01*
X452133Y425840D01*
X452196Y425761D01*
X452256Y425681D01*
X452313Y425598D01*
X452367Y425512D01*
X452417Y425425D01*
X452464Y425336D01*
X452507Y425245D01*
X452547Y425153D01*
X452583Y425059D01*
X452616Y424964D01*
X452645Y424867D01*
X452670Y424770D01*
X452691Y424671D01*
X452709Y424572D01*
X452722Y424472D01*
X452732Y424372D01*
X452738Y424272D01*
X452740Y424171D01*
X452741Y424171D02*
X452741Y421574D01*
X383032Y327011D02*
X383032Y324414D01*
X383030Y324315D01*
X383024Y324215D01*
X383015Y324116D01*
X383002Y324018D01*
X382985Y323920D01*
X382964Y323822D01*
X382939Y323726D01*
X382911Y323631D01*
X382879Y323537D01*
X382844Y323444D01*
X382805Y323352D01*
X382762Y323262D01*
X382717Y323174D01*
X382667Y323087D01*
X382615Y323003D01*
X382559Y322920D01*
X382501Y322840D01*
X382439Y322762D01*
X382374Y322687D01*
X382306Y322614D01*
X382236Y322544D01*
X382163Y322476D01*
X382088Y322411D01*
X382010Y322349D01*
X381930Y322291D01*
X381847Y322235D01*
X381763Y322183D01*
X381676Y322133D01*
X381588Y322088D01*
X381498Y322045D01*
X381406Y322006D01*
X381313Y321971D01*
X381219Y321939D01*
X381124Y321911D01*
X381028Y321886D01*
X380930Y321865D01*
X380832Y321848D01*
X380734Y321835D01*
X380635Y321826D01*
X380535Y321820D01*
X380436Y321818D01*
X373944Y321818D01*
X373845Y321820D01*
X373745Y321826D01*
X373646Y321835D01*
X373548Y321848D01*
X373450Y321866D01*
X373352Y321886D01*
X373256Y321911D01*
X373160Y321939D01*
X373066Y321971D01*
X372973Y322006D01*
X372882Y322045D01*
X372792Y322088D01*
X372703Y322133D01*
X372617Y322183D01*
X372532Y322235D01*
X372450Y322291D01*
X372370Y322350D01*
X372292Y322411D01*
X372216Y322476D01*
X372143Y322544D01*
X372073Y322614D01*
X372005Y322687D01*
X371940Y322763D01*
X371879Y322841D01*
X371820Y322921D01*
X371764Y323003D01*
X371712Y323088D01*
X371663Y323174D01*
X371617Y323263D01*
X371574Y323353D01*
X371535Y323444D01*
X371500Y323537D01*
X371468Y323631D01*
X371440Y323727D01*
X371415Y323823D01*
X371395Y323921D01*
X371377Y324019D01*
X371364Y324117D01*
X371355Y324216D01*
X371349Y324315D01*
X371347Y324415D01*
X371348Y324414D02*
X371348Y327011D01*
X371348Y333973D02*
X380436Y331376D01*
X380436Y337867D01*
X377839Y335920D02*
X383032Y335920D01*
D21*
X427101Y338697D02*
X434467Y338697D01*
X434467Y341970D01*
X428738Y344777D02*
X427101Y346823D01*
X434467Y346823D01*
X434467Y344777D02*
X434467Y348869D01*
D17*
X102920Y196818D03*
D18*
X97880Y198718D02*
X77380Y198718D01*
X77380Y222922D02*
X97880Y222922D01*
D12*
X37606Y169474D02*
X37604Y169375D01*
X37598Y169275D01*
X37589Y169176D01*
X37576Y169078D01*
X37559Y168980D01*
X37538Y168882D01*
X37513Y168786D01*
X37485Y168691D01*
X37453Y168597D01*
X37418Y168504D01*
X37379Y168412D01*
X37336Y168322D01*
X37291Y168234D01*
X37241Y168147D01*
X37189Y168063D01*
X37133Y167980D01*
X37075Y167900D01*
X37013Y167822D01*
X36948Y167747D01*
X36880Y167674D01*
X36810Y167604D01*
X36737Y167536D01*
X36662Y167471D01*
X36584Y167409D01*
X36504Y167351D01*
X36421Y167295D01*
X36337Y167243D01*
X36250Y167193D01*
X36162Y167148D01*
X36072Y167105D01*
X35980Y167066D01*
X35887Y167031D01*
X35793Y166999D01*
X35698Y166971D01*
X35602Y166946D01*
X35504Y166925D01*
X35406Y166908D01*
X35308Y166895D01*
X35209Y166886D01*
X35109Y166880D01*
X35010Y166878D01*
X34866Y166880D01*
X34721Y166886D01*
X34577Y166895D01*
X34434Y166908D01*
X34290Y166925D01*
X34147Y166946D01*
X34005Y166971D01*
X33864Y166999D01*
X33723Y167031D01*
X33583Y167067D01*
X33444Y167106D01*
X33306Y167149D01*
X33170Y167196D01*
X33034Y167246D01*
X32900Y167300D01*
X32768Y167357D01*
X32637Y167418D01*
X32508Y167482D01*
X32380Y167550D01*
X32254Y167620D01*
X32130Y167695D01*
X32009Y167772D01*
X31889Y167853D01*
X31771Y167936D01*
X31656Y168023D01*
X31543Y168113D01*
X31432Y168206D01*
X31324Y168301D01*
X31218Y168400D01*
X31115Y168501D01*
X31440Y175966D02*
X31442Y176065D01*
X31448Y176165D01*
X31457Y176264D01*
X31470Y176362D01*
X31487Y176460D01*
X31508Y176558D01*
X31533Y176654D01*
X31561Y176749D01*
X31593Y176843D01*
X31628Y176936D01*
X31667Y177028D01*
X31710Y177118D01*
X31755Y177206D01*
X31805Y177293D01*
X31857Y177377D01*
X31913Y177460D01*
X31971Y177540D01*
X32033Y177618D01*
X32098Y177693D01*
X32166Y177766D01*
X32236Y177836D01*
X32309Y177904D01*
X32384Y177969D01*
X32462Y178031D01*
X32542Y178089D01*
X32625Y178145D01*
X32709Y178197D01*
X32796Y178247D01*
X32884Y178292D01*
X32974Y178335D01*
X33066Y178374D01*
X33159Y178409D01*
X33253Y178441D01*
X33348Y178469D01*
X33445Y178494D01*
X33542Y178515D01*
X33640Y178532D01*
X33738Y178545D01*
X33837Y178554D01*
X33937Y178560D01*
X34036Y178562D01*
X34172Y178560D01*
X34308Y178554D01*
X34444Y178545D01*
X34580Y178532D01*
X34715Y178514D01*
X34849Y178494D01*
X34983Y178469D01*
X35117Y178441D01*
X35249Y178408D01*
X35380Y178373D01*
X35511Y178333D01*
X35640Y178290D01*
X35768Y178244D01*
X35894Y178193D01*
X36020Y178140D01*
X36143Y178082D01*
X36265Y178022D01*
X36385Y177958D01*
X36504Y177890D01*
X36620Y177820D01*
X36734Y177746D01*
X36847Y177669D01*
X36957Y177588D01*
X32738Y173694D02*
X32652Y173747D01*
X32568Y173804D01*
X32486Y173863D01*
X32406Y173926D01*
X32329Y173992D01*
X32254Y174060D01*
X32182Y174132D01*
X32113Y174206D01*
X32047Y174283D01*
X31984Y174362D01*
X31924Y174444D01*
X31867Y174528D01*
X31813Y174614D01*
X31763Y174702D01*
X31716Y174792D01*
X31672Y174883D01*
X31633Y174977D01*
X31596Y175071D01*
X31564Y175167D01*
X31535Y175265D01*
X31510Y175363D01*
X31489Y175462D01*
X31471Y175562D01*
X31458Y175662D01*
X31448Y175763D01*
X31442Y175865D01*
X31440Y175966D01*
X36308Y171746D02*
X36394Y171693D01*
X36478Y171636D01*
X36560Y171577D01*
X36640Y171514D01*
X36717Y171448D01*
X36792Y171380D01*
X36864Y171308D01*
X36933Y171234D01*
X36999Y171157D01*
X37062Y171078D01*
X37122Y170996D01*
X37179Y170912D01*
X37233Y170826D01*
X37283Y170738D01*
X37330Y170648D01*
X37374Y170557D01*
X37413Y170463D01*
X37450Y170369D01*
X37482Y170273D01*
X37511Y170175D01*
X37536Y170077D01*
X37557Y169978D01*
X37575Y169878D01*
X37588Y169778D01*
X37598Y169677D01*
X37604Y169575D01*
X37606Y169474D01*
X36308Y171746D02*
X32738Y173694D01*
X42568Y166878D02*
X47761Y166878D01*
X42568Y166878D02*
X42568Y178562D01*
X47761Y178562D01*
X46462Y173369D02*
X42568Y173369D01*
X55640Y178562D02*
X55747Y178560D01*
X55853Y178554D01*
X55959Y178544D01*
X56065Y178531D01*
X56171Y178513D01*
X56275Y178492D01*
X56379Y178467D01*
X56482Y178438D01*
X56583Y178406D01*
X56683Y178369D01*
X56782Y178329D01*
X56880Y178286D01*
X56976Y178239D01*
X57070Y178188D01*
X57162Y178134D01*
X57252Y178077D01*
X57340Y178017D01*
X57425Y177953D01*
X57508Y177886D01*
X57589Y177816D01*
X57667Y177744D01*
X57743Y177668D01*
X57815Y177590D01*
X57885Y177509D01*
X57952Y177426D01*
X58016Y177341D01*
X58076Y177253D01*
X58133Y177163D01*
X58187Y177071D01*
X58238Y176977D01*
X58285Y176881D01*
X58328Y176783D01*
X58368Y176684D01*
X58405Y176584D01*
X58437Y176483D01*
X58466Y176380D01*
X58491Y176276D01*
X58512Y176172D01*
X58530Y176066D01*
X58543Y175960D01*
X58553Y175854D01*
X58559Y175748D01*
X58561Y175641D01*
X55640Y178562D02*
X55519Y178560D01*
X55398Y178554D01*
X55278Y178544D01*
X55157Y178531D01*
X55038Y178513D01*
X54918Y178492D01*
X54800Y178467D01*
X54683Y178438D01*
X54566Y178405D01*
X54451Y178369D01*
X54337Y178328D01*
X54224Y178285D01*
X54112Y178237D01*
X54003Y178186D01*
X53895Y178131D01*
X53788Y178073D01*
X53684Y178012D01*
X53582Y177947D01*
X53482Y177879D01*
X53384Y177808D01*
X53288Y177734D01*
X53195Y177657D01*
X53105Y177576D01*
X53017Y177493D01*
X52932Y177407D01*
X52849Y177318D01*
X52770Y177227D01*
X52693Y177133D01*
X52620Y177037D01*
X52550Y176939D01*
X52483Y176838D01*
X52419Y176735D01*
X52359Y176630D01*
X52302Y176523D01*
X52248Y176415D01*
X52198Y176305D01*
X52152Y176193D01*
X52109Y176080D01*
X52070Y175965D01*
X57588Y173369D02*
X57667Y173446D01*
X57743Y173527D01*
X57816Y173610D01*
X57886Y173695D01*
X57953Y173783D01*
X58017Y173873D01*
X58077Y173965D01*
X58134Y174060D01*
X58188Y174156D01*
X58239Y174254D01*
X58286Y174354D01*
X58330Y174456D01*
X58370Y174559D01*
X58406Y174663D01*
X58438Y174769D01*
X58467Y174875D01*
X58492Y174983D01*
X58514Y175091D01*
X58531Y175201D01*
X58545Y175310D01*
X58554Y175420D01*
X58560Y175531D01*
X58562Y175641D01*
X57588Y173369D02*
X52070Y166878D01*
X58561Y166878D01*
X63500Y166878D02*
X67395Y166878D01*
X67494Y166880D01*
X67594Y166886D01*
X67693Y166895D01*
X67791Y166908D01*
X67889Y166925D01*
X67987Y166946D01*
X68083Y166971D01*
X68178Y166999D01*
X68272Y167031D01*
X68365Y167066D01*
X68457Y167105D01*
X68547Y167148D01*
X68635Y167193D01*
X68722Y167243D01*
X68806Y167295D01*
X68889Y167351D01*
X68969Y167409D01*
X69047Y167471D01*
X69122Y167536D01*
X69195Y167604D01*
X69265Y167674D01*
X69333Y167747D01*
X69398Y167822D01*
X69460Y167900D01*
X69518Y167980D01*
X69574Y168063D01*
X69626Y168147D01*
X69676Y168234D01*
X69721Y168322D01*
X69764Y168412D01*
X69803Y168504D01*
X69838Y168597D01*
X69870Y168691D01*
X69898Y168786D01*
X69923Y168882D01*
X69944Y168980D01*
X69961Y169078D01*
X69974Y169176D01*
X69983Y169275D01*
X69989Y169375D01*
X69991Y169474D01*
X69991Y170773D01*
X69989Y170872D01*
X69983Y170972D01*
X69974Y171071D01*
X69961Y171169D01*
X69944Y171267D01*
X69923Y171365D01*
X69898Y171461D01*
X69870Y171556D01*
X69838Y171650D01*
X69803Y171743D01*
X69764Y171835D01*
X69721Y171925D01*
X69676Y172013D01*
X69626Y172100D01*
X69574Y172184D01*
X69518Y172267D01*
X69460Y172347D01*
X69398Y172425D01*
X69333Y172500D01*
X69265Y172573D01*
X69195Y172643D01*
X69122Y172711D01*
X69047Y172776D01*
X68969Y172838D01*
X68889Y172896D01*
X68806Y172952D01*
X68722Y173004D01*
X68635Y173054D01*
X68547Y173099D01*
X68457Y173142D01*
X68365Y173181D01*
X68272Y173216D01*
X68178Y173248D01*
X68083Y173276D01*
X67987Y173301D01*
X67889Y173322D01*
X67791Y173339D01*
X67693Y173352D01*
X67594Y173361D01*
X67494Y173367D01*
X67395Y173369D01*
X63500Y173369D01*
X63500Y178562D01*
X69991Y178562D01*
X74930Y173369D02*
X78825Y173369D01*
X78924Y173367D01*
X79024Y173361D01*
X79123Y173352D01*
X79221Y173339D01*
X79319Y173322D01*
X79417Y173301D01*
X79513Y173276D01*
X79608Y173248D01*
X79702Y173216D01*
X79795Y173181D01*
X79887Y173142D01*
X79977Y173099D01*
X80065Y173054D01*
X80152Y173004D01*
X80236Y172952D01*
X80319Y172896D01*
X80399Y172838D01*
X80477Y172776D01*
X80552Y172711D01*
X80625Y172643D01*
X80695Y172573D01*
X80763Y172500D01*
X80828Y172425D01*
X80890Y172347D01*
X80948Y172267D01*
X81004Y172184D01*
X81056Y172100D01*
X81106Y172013D01*
X81151Y171925D01*
X81194Y171835D01*
X81233Y171743D01*
X81268Y171650D01*
X81300Y171556D01*
X81328Y171461D01*
X81353Y171365D01*
X81374Y171267D01*
X81391Y171169D01*
X81404Y171071D01*
X81413Y170972D01*
X81419Y170872D01*
X81421Y170773D01*
X81421Y170124D01*
X81422Y170124D02*
X81420Y170011D01*
X81414Y169898D01*
X81404Y169785D01*
X81390Y169672D01*
X81373Y169560D01*
X81351Y169449D01*
X81326Y169339D01*
X81296Y169229D01*
X81263Y169121D01*
X81226Y169014D01*
X81186Y168908D01*
X81141Y168804D01*
X81093Y168701D01*
X81042Y168600D01*
X80987Y168501D01*
X80929Y168404D01*
X80867Y168309D01*
X80802Y168216D01*
X80734Y168126D01*
X80663Y168038D01*
X80588Y167952D01*
X80511Y167869D01*
X80431Y167789D01*
X80348Y167712D01*
X80262Y167637D01*
X80174Y167566D01*
X80084Y167498D01*
X79991Y167433D01*
X79896Y167371D01*
X79799Y167313D01*
X79700Y167258D01*
X79599Y167207D01*
X79496Y167159D01*
X79392Y167114D01*
X79286Y167074D01*
X79179Y167037D01*
X79071Y167004D01*
X78961Y166974D01*
X78851Y166949D01*
X78740Y166927D01*
X78628Y166910D01*
X78515Y166896D01*
X78402Y166886D01*
X78289Y166880D01*
X78176Y166878D01*
X78063Y166880D01*
X77950Y166886D01*
X77837Y166896D01*
X77724Y166910D01*
X77612Y166927D01*
X77501Y166949D01*
X77391Y166974D01*
X77281Y167004D01*
X77173Y167037D01*
X77066Y167074D01*
X76960Y167114D01*
X76856Y167159D01*
X76753Y167207D01*
X76652Y167258D01*
X76553Y167313D01*
X76456Y167371D01*
X76361Y167433D01*
X76268Y167498D01*
X76178Y167566D01*
X76090Y167637D01*
X76004Y167712D01*
X75921Y167789D01*
X75841Y167869D01*
X75764Y167952D01*
X75689Y168038D01*
X75618Y168126D01*
X75550Y168216D01*
X75485Y168309D01*
X75423Y168404D01*
X75365Y168501D01*
X75310Y168600D01*
X75259Y168701D01*
X75211Y168804D01*
X75166Y168908D01*
X75126Y169014D01*
X75089Y169121D01*
X75056Y169229D01*
X75026Y169339D01*
X75001Y169449D01*
X74979Y169560D01*
X74962Y169672D01*
X74948Y169785D01*
X74938Y169898D01*
X74932Y170011D01*
X74930Y170124D01*
X74930Y173369D01*
X74932Y173512D01*
X74938Y173655D01*
X74948Y173798D01*
X74962Y173940D01*
X74979Y174082D01*
X75001Y174224D01*
X75026Y174365D01*
X75056Y174505D01*
X75089Y174644D01*
X75126Y174782D01*
X75167Y174919D01*
X75211Y175055D01*
X75260Y175190D01*
X75312Y175323D01*
X75367Y175455D01*
X75427Y175585D01*
X75490Y175714D01*
X75556Y175841D01*
X75626Y175965D01*
X75699Y176088D01*
X75776Y176209D01*
X75856Y176328D01*
X75939Y176444D01*
X76025Y176559D01*
X76114Y176670D01*
X76207Y176780D01*
X76302Y176886D01*
X76401Y176990D01*
X76502Y177091D01*
X76606Y177190D01*
X76712Y177285D01*
X76822Y177378D01*
X76933Y177467D01*
X77048Y177553D01*
X77164Y177636D01*
X77283Y177716D01*
X77404Y177793D01*
X77526Y177866D01*
X77651Y177936D01*
X77778Y178002D01*
X77907Y178065D01*
X78037Y178125D01*
X78169Y178180D01*
X78302Y178232D01*
X78437Y178281D01*
X78573Y178325D01*
X78710Y178366D01*
X78848Y178403D01*
X78987Y178436D01*
X79127Y178466D01*
X79268Y178491D01*
X79410Y178513D01*
X79552Y178530D01*
X79694Y178544D01*
X79837Y178554D01*
X79980Y178560D01*
X80123Y178562D01*
X86360Y170124D02*
X86362Y170237D01*
X86368Y170350D01*
X86378Y170463D01*
X86392Y170576D01*
X86409Y170688D01*
X86431Y170799D01*
X86456Y170909D01*
X86486Y171019D01*
X86519Y171127D01*
X86556Y171234D01*
X86596Y171340D01*
X86641Y171444D01*
X86689Y171547D01*
X86740Y171648D01*
X86795Y171747D01*
X86853Y171844D01*
X86915Y171939D01*
X86980Y172032D01*
X87048Y172122D01*
X87119Y172210D01*
X87194Y172296D01*
X87271Y172379D01*
X87351Y172459D01*
X87434Y172536D01*
X87520Y172611D01*
X87608Y172682D01*
X87698Y172750D01*
X87791Y172815D01*
X87886Y172877D01*
X87983Y172935D01*
X88082Y172990D01*
X88183Y173041D01*
X88286Y173089D01*
X88390Y173134D01*
X88496Y173174D01*
X88603Y173211D01*
X88711Y173244D01*
X88821Y173274D01*
X88931Y173299D01*
X89042Y173321D01*
X89154Y173338D01*
X89267Y173352D01*
X89380Y173362D01*
X89493Y173368D01*
X89606Y173370D01*
X89719Y173368D01*
X89832Y173362D01*
X89945Y173352D01*
X90058Y173338D01*
X90170Y173321D01*
X90281Y173299D01*
X90391Y173274D01*
X90501Y173244D01*
X90609Y173211D01*
X90716Y173174D01*
X90822Y173134D01*
X90926Y173089D01*
X91029Y173041D01*
X91130Y172990D01*
X91229Y172935D01*
X91326Y172877D01*
X91421Y172815D01*
X91514Y172750D01*
X91604Y172682D01*
X91692Y172611D01*
X91778Y172536D01*
X91861Y172459D01*
X91941Y172379D01*
X92018Y172296D01*
X92093Y172210D01*
X92164Y172122D01*
X92232Y172032D01*
X92297Y171939D01*
X92359Y171844D01*
X92417Y171747D01*
X92472Y171648D01*
X92523Y171547D01*
X92571Y171444D01*
X92616Y171340D01*
X92656Y171234D01*
X92693Y171127D01*
X92726Y171019D01*
X92756Y170909D01*
X92781Y170799D01*
X92803Y170688D01*
X92820Y170576D01*
X92834Y170463D01*
X92844Y170350D01*
X92850Y170237D01*
X92852Y170124D01*
X92850Y170011D01*
X92844Y169898D01*
X92834Y169785D01*
X92820Y169672D01*
X92803Y169560D01*
X92781Y169449D01*
X92756Y169339D01*
X92726Y169229D01*
X92693Y169121D01*
X92656Y169014D01*
X92616Y168908D01*
X92571Y168804D01*
X92523Y168701D01*
X92472Y168600D01*
X92417Y168501D01*
X92359Y168404D01*
X92297Y168309D01*
X92232Y168216D01*
X92164Y168126D01*
X92093Y168038D01*
X92018Y167952D01*
X91941Y167869D01*
X91861Y167789D01*
X91778Y167712D01*
X91692Y167637D01*
X91604Y167566D01*
X91514Y167498D01*
X91421Y167433D01*
X91326Y167371D01*
X91229Y167313D01*
X91130Y167258D01*
X91029Y167207D01*
X90926Y167159D01*
X90822Y167114D01*
X90716Y167074D01*
X90609Y167037D01*
X90501Y167004D01*
X90391Y166974D01*
X90281Y166949D01*
X90170Y166927D01*
X90058Y166910D01*
X89945Y166896D01*
X89832Y166886D01*
X89719Y166880D01*
X89606Y166878D01*
X89493Y166880D01*
X89380Y166886D01*
X89267Y166896D01*
X89154Y166910D01*
X89042Y166927D01*
X88931Y166949D01*
X88821Y166974D01*
X88711Y167004D01*
X88603Y167037D01*
X88496Y167074D01*
X88390Y167114D01*
X88286Y167159D01*
X88183Y167207D01*
X88082Y167258D01*
X87983Y167313D01*
X87886Y167371D01*
X87791Y167433D01*
X87698Y167498D01*
X87608Y167566D01*
X87520Y167637D01*
X87434Y167712D01*
X87351Y167789D01*
X87271Y167869D01*
X87194Y167952D01*
X87119Y168038D01*
X87048Y168126D01*
X86980Y168216D01*
X86915Y168309D01*
X86853Y168404D01*
X86795Y168501D01*
X86740Y168600D01*
X86689Y168701D01*
X86641Y168804D01*
X86596Y168908D01*
X86556Y169014D01*
X86519Y169121D01*
X86486Y169229D01*
X86456Y169339D01*
X86431Y169449D01*
X86409Y169560D01*
X86392Y169672D01*
X86378Y169785D01*
X86368Y169898D01*
X86362Y170011D01*
X86360Y170124D01*
X87010Y175966D02*
X87012Y176067D01*
X87018Y176167D01*
X87028Y176267D01*
X87041Y176367D01*
X87059Y176466D01*
X87080Y176565D01*
X87105Y176662D01*
X87134Y176759D01*
X87167Y176854D01*
X87203Y176948D01*
X87243Y177040D01*
X87286Y177131D01*
X87333Y177220D01*
X87383Y177307D01*
X87437Y177393D01*
X87494Y177476D01*
X87554Y177556D01*
X87617Y177635D01*
X87684Y177711D01*
X87753Y177784D01*
X87825Y177854D01*
X87899Y177922D01*
X87976Y177987D01*
X88056Y178048D01*
X88138Y178107D01*
X88222Y178162D01*
X88308Y178214D01*
X88396Y178263D01*
X88486Y178308D01*
X88578Y178350D01*
X88671Y178388D01*
X88766Y178422D01*
X88861Y178453D01*
X88958Y178480D01*
X89056Y178503D01*
X89155Y178523D01*
X89255Y178538D01*
X89355Y178550D01*
X89455Y178558D01*
X89556Y178562D01*
X89656Y178562D01*
X89757Y178558D01*
X89857Y178550D01*
X89957Y178538D01*
X90057Y178523D01*
X90156Y178503D01*
X90254Y178480D01*
X90351Y178453D01*
X90446Y178422D01*
X90541Y178388D01*
X90634Y178350D01*
X90726Y178308D01*
X90816Y178263D01*
X90904Y178214D01*
X90990Y178162D01*
X91074Y178107D01*
X91156Y178048D01*
X91236Y177987D01*
X91313Y177922D01*
X91387Y177854D01*
X91459Y177784D01*
X91528Y177711D01*
X91595Y177635D01*
X91658Y177556D01*
X91718Y177476D01*
X91775Y177393D01*
X91829Y177307D01*
X91879Y177220D01*
X91926Y177131D01*
X91969Y177040D01*
X92009Y176948D01*
X92045Y176854D01*
X92078Y176759D01*
X92107Y176662D01*
X92132Y176565D01*
X92153Y176466D01*
X92171Y176367D01*
X92184Y176267D01*
X92194Y176167D01*
X92200Y176067D01*
X92202Y175966D01*
X92200Y175865D01*
X92194Y175765D01*
X92184Y175665D01*
X92171Y175565D01*
X92153Y175466D01*
X92132Y175367D01*
X92107Y175270D01*
X92078Y175173D01*
X92045Y175078D01*
X92009Y174984D01*
X91969Y174892D01*
X91926Y174801D01*
X91879Y174712D01*
X91829Y174625D01*
X91775Y174539D01*
X91718Y174456D01*
X91658Y174376D01*
X91595Y174297D01*
X91528Y174221D01*
X91459Y174148D01*
X91387Y174078D01*
X91313Y174010D01*
X91236Y173945D01*
X91156Y173884D01*
X91074Y173825D01*
X90990Y173770D01*
X90904Y173718D01*
X90816Y173669D01*
X90726Y173624D01*
X90634Y173582D01*
X90541Y173544D01*
X90446Y173510D01*
X90351Y173479D01*
X90254Y173452D01*
X90156Y173429D01*
X90057Y173409D01*
X89957Y173394D01*
X89857Y173382D01*
X89757Y173374D01*
X89656Y173370D01*
X89556Y173370D01*
X89455Y173374D01*
X89355Y173382D01*
X89255Y173394D01*
X89155Y173409D01*
X89056Y173429D01*
X88958Y173452D01*
X88861Y173479D01*
X88766Y173510D01*
X88671Y173544D01*
X88578Y173582D01*
X88486Y173624D01*
X88396Y173669D01*
X88308Y173718D01*
X88222Y173770D01*
X88138Y173825D01*
X88056Y173884D01*
X87976Y173945D01*
X87899Y174010D01*
X87825Y174078D01*
X87753Y174148D01*
X87684Y174221D01*
X87617Y174297D01*
X87554Y174376D01*
X87494Y174456D01*
X87437Y174539D01*
X87383Y174625D01*
X87333Y174712D01*
X87286Y174801D01*
X87243Y174892D01*
X87203Y174984D01*
X87167Y175078D01*
X87134Y175173D01*
X87105Y175270D01*
X87080Y175367D01*
X87059Y175466D01*
X87041Y175565D01*
X87028Y175665D01*
X87018Y175765D01*
X87012Y175865D01*
X87010Y175966D01*
X98171Y178562D02*
X98171Y170124D01*
X98173Y170011D01*
X98179Y169898D01*
X98189Y169785D01*
X98203Y169672D01*
X98220Y169560D01*
X98242Y169449D01*
X98267Y169339D01*
X98297Y169229D01*
X98330Y169121D01*
X98367Y169014D01*
X98407Y168908D01*
X98452Y168804D01*
X98500Y168701D01*
X98551Y168600D01*
X98606Y168501D01*
X98664Y168404D01*
X98726Y168309D01*
X98791Y168216D01*
X98859Y168126D01*
X98930Y168038D01*
X99005Y167952D01*
X99082Y167869D01*
X99162Y167789D01*
X99245Y167712D01*
X99331Y167637D01*
X99419Y167566D01*
X99509Y167498D01*
X99602Y167433D01*
X99697Y167371D01*
X99794Y167313D01*
X99893Y167258D01*
X99994Y167207D01*
X100097Y167159D01*
X100201Y167114D01*
X100307Y167074D01*
X100414Y167037D01*
X100522Y167004D01*
X100632Y166974D01*
X100742Y166949D01*
X100853Y166927D01*
X100965Y166910D01*
X101078Y166896D01*
X101191Y166886D01*
X101304Y166880D01*
X101417Y166878D01*
X101530Y166880D01*
X101643Y166886D01*
X101756Y166896D01*
X101869Y166910D01*
X101981Y166927D01*
X102092Y166949D01*
X102202Y166974D01*
X102312Y167004D01*
X102420Y167037D01*
X102527Y167074D01*
X102633Y167114D01*
X102737Y167159D01*
X102840Y167207D01*
X102941Y167258D01*
X103040Y167313D01*
X103137Y167371D01*
X103232Y167433D01*
X103325Y167498D01*
X103415Y167566D01*
X103503Y167637D01*
X103589Y167712D01*
X103672Y167789D01*
X103752Y167869D01*
X103829Y167952D01*
X103904Y168038D01*
X103975Y168126D01*
X104043Y168216D01*
X104108Y168309D01*
X104170Y168404D01*
X104228Y168501D01*
X104283Y168600D01*
X104334Y168701D01*
X104382Y168804D01*
X104427Y168908D01*
X104467Y169014D01*
X104504Y169121D01*
X104537Y169229D01*
X104567Y169339D01*
X104592Y169449D01*
X104614Y169560D01*
X104631Y169672D01*
X104645Y169785D01*
X104655Y169898D01*
X104661Y170011D01*
X104663Y170124D01*
X104662Y170124D02*
X104662Y178562D01*
X110095Y171422D02*
X117884Y171422D01*
X123391Y166878D02*
X123391Y178562D01*
X126636Y178562D01*
X126749Y178560D01*
X126862Y178554D01*
X126975Y178544D01*
X127088Y178530D01*
X127200Y178513D01*
X127311Y178491D01*
X127421Y178466D01*
X127531Y178436D01*
X127639Y178403D01*
X127746Y178366D01*
X127852Y178326D01*
X127956Y178281D01*
X128059Y178233D01*
X128160Y178182D01*
X128259Y178127D01*
X128356Y178069D01*
X128451Y178007D01*
X128544Y177942D01*
X128634Y177874D01*
X128722Y177803D01*
X128808Y177728D01*
X128891Y177651D01*
X128971Y177571D01*
X129048Y177488D01*
X129123Y177402D01*
X129194Y177314D01*
X129262Y177224D01*
X129327Y177131D01*
X129389Y177036D01*
X129447Y176939D01*
X129502Y176840D01*
X129553Y176739D01*
X129601Y176636D01*
X129646Y176532D01*
X129686Y176426D01*
X129723Y176319D01*
X129756Y176211D01*
X129786Y176101D01*
X129811Y175991D01*
X129833Y175880D01*
X129850Y175768D01*
X129864Y175655D01*
X129874Y175542D01*
X129880Y175429D01*
X129882Y175316D01*
X129880Y175203D01*
X129874Y175090D01*
X129864Y174977D01*
X129850Y174864D01*
X129833Y174752D01*
X129811Y174641D01*
X129786Y174531D01*
X129756Y174421D01*
X129723Y174313D01*
X129686Y174206D01*
X129646Y174100D01*
X129601Y173996D01*
X129553Y173893D01*
X129502Y173792D01*
X129447Y173693D01*
X129389Y173596D01*
X129327Y173501D01*
X129262Y173408D01*
X129194Y173318D01*
X129123Y173230D01*
X129048Y173144D01*
X128971Y173061D01*
X128891Y172981D01*
X128808Y172904D01*
X128722Y172829D01*
X128634Y172758D01*
X128544Y172690D01*
X128451Y172625D01*
X128356Y172563D01*
X128259Y172505D01*
X128160Y172450D01*
X128059Y172399D01*
X127956Y172351D01*
X127852Y172306D01*
X127746Y172266D01*
X127639Y172229D01*
X127531Y172196D01*
X127421Y172166D01*
X127311Y172141D01*
X127200Y172119D01*
X127088Y172102D01*
X126975Y172088D01*
X126862Y172078D01*
X126749Y172072D01*
X126636Y172070D01*
X126636Y172071D02*
X123391Y172071D01*
X127285Y172071D02*
X129882Y166878D01*
X48754Y236728D02*
X48754Y248412D01*
X51999Y248412D01*
X52112Y248410D01*
X52225Y248404D01*
X52338Y248394D01*
X52451Y248380D01*
X52563Y248363D01*
X52674Y248341D01*
X52784Y248316D01*
X52894Y248286D01*
X53002Y248253D01*
X53109Y248216D01*
X53215Y248176D01*
X53319Y248131D01*
X53422Y248083D01*
X53523Y248032D01*
X53622Y247977D01*
X53719Y247919D01*
X53814Y247857D01*
X53907Y247792D01*
X53997Y247724D01*
X54085Y247653D01*
X54171Y247578D01*
X54254Y247501D01*
X54334Y247421D01*
X54411Y247338D01*
X54486Y247252D01*
X54557Y247164D01*
X54625Y247074D01*
X54690Y246981D01*
X54752Y246886D01*
X54810Y246789D01*
X54865Y246690D01*
X54916Y246589D01*
X54964Y246486D01*
X55009Y246382D01*
X55049Y246276D01*
X55086Y246169D01*
X55119Y246061D01*
X55149Y245951D01*
X55174Y245841D01*
X55196Y245730D01*
X55213Y245618D01*
X55227Y245505D01*
X55237Y245392D01*
X55243Y245279D01*
X55245Y245166D01*
X55243Y245053D01*
X55237Y244940D01*
X55227Y244827D01*
X55213Y244714D01*
X55196Y244602D01*
X55174Y244491D01*
X55149Y244381D01*
X55119Y244271D01*
X55086Y244163D01*
X55049Y244056D01*
X55009Y243950D01*
X54964Y243846D01*
X54916Y243743D01*
X54865Y243642D01*
X54810Y243543D01*
X54752Y243446D01*
X54690Y243351D01*
X54625Y243258D01*
X54557Y243168D01*
X54486Y243080D01*
X54411Y242994D01*
X54334Y242911D01*
X54254Y242831D01*
X54171Y242754D01*
X54085Y242679D01*
X53997Y242608D01*
X53907Y242540D01*
X53814Y242475D01*
X53719Y242413D01*
X53622Y242355D01*
X53523Y242300D01*
X53422Y242249D01*
X53319Y242201D01*
X53215Y242156D01*
X53109Y242116D01*
X53002Y242079D01*
X52894Y242046D01*
X52784Y242016D01*
X52674Y241991D01*
X52563Y241969D01*
X52451Y241952D01*
X52338Y241938D01*
X52225Y241928D01*
X52112Y241922D01*
X51999Y241920D01*
X51999Y241921D02*
X48754Y241921D01*
X59521Y241921D02*
X59521Y239324D01*
X59521Y241921D02*
X59523Y242022D01*
X59529Y242122D01*
X59539Y242222D01*
X59552Y242322D01*
X59570Y242421D01*
X59591Y242520D01*
X59616Y242617D01*
X59645Y242714D01*
X59678Y242809D01*
X59714Y242903D01*
X59754Y242995D01*
X59797Y243086D01*
X59844Y243175D01*
X59894Y243262D01*
X59948Y243348D01*
X60005Y243431D01*
X60065Y243511D01*
X60128Y243590D01*
X60195Y243666D01*
X60264Y243739D01*
X60336Y243809D01*
X60410Y243877D01*
X60487Y243942D01*
X60567Y244003D01*
X60649Y244062D01*
X60733Y244117D01*
X60819Y244169D01*
X60907Y244218D01*
X60997Y244263D01*
X61089Y244305D01*
X61182Y244343D01*
X61277Y244377D01*
X61372Y244408D01*
X61469Y244435D01*
X61567Y244458D01*
X61666Y244478D01*
X61766Y244493D01*
X61866Y244505D01*
X61966Y244513D01*
X62067Y244517D01*
X62167Y244517D01*
X62268Y244513D01*
X62368Y244505D01*
X62468Y244493D01*
X62568Y244478D01*
X62667Y244458D01*
X62765Y244435D01*
X62862Y244408D01*
X62957Y244377D01*
X63052Y244343D01*
X63145Y244305D01*
X63237Y244263D01*
X63327Y244218D01*
X63415Y244169D01*
X63501Y244117D01*
X63585Y244062D01*
X63667Y244003D01*
X63747Y243942D01*
X63824Y243877D01*
X63898Y243809D01*
X63970Y243739D01*
X64039Y243666D01*
X64106Y243590D01*
X64169Y243511D01*
X64229Y243431D01*
X64286Y243348D01*
X64340Y243262D01*
X64390Y243175D01*
X64437Y243086D01*
X64480Y242995D01*
X64520Y242903D01*
X64556Y242809D01*
X64589Y242714D01*
X64618Y242617D01*
X64643Y242520D01*
X64664Y242421D01*
X64682Y242322D01*
X64695Y242222D01*
X64705Y242122D01*
X64711Y242022D01*
X64713Y241921D01*
X64714Y241921D02*
X64714Y239324D01*
X64713Y239324D02*
X64711Y239223D01*
X64705Y239123D01*
X64695Y239023D01*
X64682Y238923D01*
X64664Y238824D01*
X64643Y238725D01*
X64618Y238628D01*
X64589Y238531D01*
X64556Y238436D01*
X64520Y238342D01*
X64480Y238250D01*
X64437Y238159D01*
X64390Y238070D01*
X64340Y237983D01*
X64286Y237897D01*
X64229Y237814D01*
X64169Y237734D01*
X64106Y237655D01*
X64039Y237579D01*
X63970Y237506D01*
X63898Y237436D01*
X63824Y237368D01*
X63747Y237303D01*
X63667Y237242D01*
X63585Y237183D01*
X63501Y237128D01*
X63415Y237076D01*
X63327Y237027D01*
X63237Y236982D01*
X63145Y236940D01*
X63052Y236902D01*
X62957Y236868D01*
X62862Y236837D01*
X62765Y236810D01*
X62667Y236787D01*
X62568Y236767D01*
X62468Y236752D01*
X62368Y236740D01*
X62268Y236732D01*
X62167Y236728D01*
X62067Y236728D01*
X61966Y236732D01*
X61866Y236740D01*
X61766Y236752D01*
X61666Y236767D01*
X61567Y236787D01*
X61469Y236810D01*
X61372Y236837D01*
X61277Y236868D01*
X61182Y236902D01*
X61089Y236940D01*
X60997Y236982D01*
X60907Y237027D01*
X60819Y237076D01*
X60733Y237128D01*
X60649Y237183D01*
X60567Y237242D01*
X60487Y237303D01*
X60410Y237368D01*
X60336Y237436D01*
X60264Y237506D01*
X60195Y237579D01*
X60128Y237655D01*
X60065Y237734D01*
X60005Y237814D01*
X59948Y237897D01*
X59894Y237983D01*
X59844Y238070D01*
X59797Y238159D01*
X59754Y238250D01*
X59714Y238342D01*
X59678Y238436D01*
X59645Y238531D01*
X59616Y238628D01*
X59591Y238725D01*
X59570Y238824D01*
X59552Y238923D01*
X59539Y239023D01*
X59529Y239123D01*
X59523Y239223D01*
X59521Y239324D01*
X69271Y244517D02*
X71219Y236728D01*
X73166Y241921D01*
X75113Y236728D01*
X77061Y244517D01*
X83566Y236728D02*
X86812Y236728D01*
X83566Y236728D02*
X83479Y236730D01*
X83391Y236736D01*
X83305Y236746D01*
X83218Y236759D01*
X83133Y236777D01*
X83048Y236798D01*
X82964Y236823D01*
X82882Y236852D01*
X82801Y236885D01*
X82721Y236921D01*
X82643Y236960D01*
X82567Y237004D01*
X82493Y237050D01*
X82422Y237100D01*
X82352Y237153D01*
X82285Y237209D01*
X82221Y237268D01*
X82159Y237330D01*
X82100Y237394D01*
X82044Y237461D01*
X81991Y237531D01*
X81941Y237602D01*
X81895Y237676D01*
X81851Y237752D01*
X81812Y237830D01*
X81776Y237910D01*
X81743Y237991D01*
X81714Y238073D01*
X81689Y238157D01*
X81668Y238242D01*
X81650Y238327D01*
X81637Y238414D01*
X81627Y238500D01*
X81621Y238588D01*
X81619Y238675D01*
X81619Y241921D01*
X81621Y242022D01*
X81627Y242122D01*
X81637Y242222D01*
X81650Y242322D01*
X81668Y242421D01*
X81689Y242520D01*
X81714Y242617D01*
X81743Y242714D01*
X81776Y242809D01*
X81812Y242903D01*
X81852Y242995D01*
X81895Y243086D01*
X81942Y243175D01*
X81992Y243262D01*
X82046Y243348D01*
X82103Y243431D01*
X82163Y243511D01*
X82226Y243590D01*
X82293Y243666D01*
X82362Y243739D01*
X82434Y243809D01*
X82508Y243877D01*
X82585Y243942D01*
X82665Y244003D01*
X82747Y244062D01*
X82831Y244117D01*
X82917Y244169D01*
X83005Y244218D01*
X83095Y244263D01*
X83187Y244305D01*
X83280Y244343D01*
X83375Y244377D01*
X83470Y244408D01*
X83567Y244435D01*
X83665Y244458D01*
X83764Y244478D01*
X83864Y244493D01*
X83964Y244505D01*
X84064Y244513D01*
X84165Y244517D01*
X84265Y244517D01*
X84366Y244513D01*
X84466Y244505D01*
X84566Y244493D01*
X84666Y244478D01*
X84765Y244458D01*
X84863Y244435D01*
X84960Y244408D01*
X85055Y244377D01*
X85150Y244343D01*
X85243Y244305D01*
X85335Y244263D01*
X85425Y244218D01*
X85513Y244169D01*
X85599Y244117D01*
X85683Y244062D01*
X85765Y244003D01*
X85845Y243942D01*
X85922Y243877D01*
X85996Y243809D01*
X86068Y243739D01*
X86137Y243666D01*
X86204Y243590D01*
X86267Y243511D01*
X86327Y243431D01*
X86384Y243348D01*
X86438Y243262D01*
X86488Y243175D01*
X86535Y243086D01*
X86578Y242995D01*
X86618Y242903D01*
X86654Y242809D01*
X86687Y242714D01*
X86716Y242617D01*
X86741Y242520D01*
X86762Y242421D01*
X86780Y242322D01*
X86793Y242222D01*
X86803Y242122D01*
X86809Y242022D01*
X86811Y241921D01*
X86812Y241921D02*
X86812Y240623D01*
X81619Y240623D01*
X91972Y236728D02*
X91972Y244517D01*
X95867Y244517D01*
X95867Y243219D01*
X105085Y236728D02*
X108980Y248412D01*
X112875Y236728D01*
X111901Y239649D02*
X106059Y239649D01*
X117658Y236728D02*
X117658Y248412D01*
X121553Y241921D01*
X125448Y248412D01*
X125448Y236728D01*
X131431Y236728D02*
X131431Y248412D01*
X134676Y248412D01*
X134789Y248410D01*
X134902Y248404D01*
X135015Y248394D01*
X135128Y248380D01*
X135240Y248363D01*
X135351Y248341D01*
X135461Y248316D01*
X135571Y248286D01*
X135679Y248253D01*
X135786Y248216D01*
X135892Y248176D01*
X135996Y248131D01*
X136099Y248083D01*
X136200Y248032D01*
X136299Y247977D01*
X136396Y247919D01*
X136491Y247857D01*
X136584Y247792D01*
X136674Y247724D01*
X136762Y247653D01*
X136848Y247578D01*
X136931Y247501D01*
X137011Y247421D01*
X137088Y247338D01*
X137163Y247252D01*
X137234Y247164D01*
X137302Y247074D01*
X137367Y246981D01*
X137429Y246886D01*
X137487Y246789D01*
X137542Y246690D01*
X137593Y246589D01*
X137641Y246486D01*
X137686Y246382D01*
X137726Y246276D01*
X137763Y246169D01*
X137796Y246061D01*
X137826Y245951D01*
X137851Y245841D01*
X137873Y245730D01*
X137890Y245618D01*
X137904Y245505D01*
X137914Y245392D01*
X137920Y245279D01*
X137922Y245166D01*
X137920Y245053D01*
X137914Y244940D01*
X137904Y244827D01*
X137890Y244714D01*
X137873Y244602D01*
X137851Y244491D01*
X137826Y244381D01*
X137796Y244271D01*
X137763Y244163D01*
X137726Y244056D01*
X137686Y243950D01*
X137641Y243846D01*
X137593Y243743D01*
X137542Y243642D01*
X137487Y243543D01*
X137429Y243446D01*
X137367Y243351D01*
X137302Y243258D01*
X137234Y243168D01*
X137163Y243080D01*
X137088Y242994D01*
X137011Y242911D01*
X136931Y242831D01*
X136848Y242754D01*
X136762Y242679D01*
X136674Y242608D01*
X136584Y242540D01*
X136491Y242475D01*
X136396Y242413D01*
X136299Y242355D01*
X136200Y242300D01*
X136099Y242249D01*
X135996Y242201D01*
X135892Y242156D01*
X135786Y242116D01*
X135679Y242079D01*
X135571Y242046D01*
X135461Y242016D01*
X135351Y241991D01*
X135240Y241969D01*
X135128Y241952D01*
X135015Y241938D01*
X134902Y241928D01*
X134789Y241922D01*
X134676Y241920D01*
X134676Y241921D02*
X131431Y241921D01*
D17*
X176960Y233540D03*
D18*
X182000Y231640D02*
X199000Y231640D01*
X199000Y200160D02*
X182000Y200160D01*
D12*
X176396Y246144D02*
X176396Y254582D01*
X176396Y246144D02*
X176398Y246031D01*
X176404Y245918D01*
X176414Y245805D01*
X176428Y245692D01*
X176445Y245580D01*
X176467Y245469D01*
X176492Y245359D01*
X176522Y245249D01*
X176555Y245141D01*
X176592Y245034D01*
X176632Y244928D01*
X176677Y244824D01*
X176725Y244721D01*
X176776Y244620D01*
X176831Y244521D01*
X176889Y244424D01*
X176951Y244329D01*
X177016Y244236D01*
X177084Y244146D01*
X177155Y244058D01*
X177230Y243972D01*
X177307Y243889D01*
X177387Y243809D01*
X177470Y243732D01*
X177556Y243657D01*
X177644Y243586D01*
X177734Y243518D01*
X177827Y243453D01*
X177922Y243391D01*
X178019Y243333D01*
X178118Y243278D01*
X178219Y243227D01*
X178322Y243179D01*
X178426Y243134D01*
X178532Y243094D01*
X178639Y243057D01*
X178747Y243024D01*
X178857Y242994D01*
X178967Y242969D01*
X179078Y242947D01*
X179190Y242930D01*
X179303Y242916D01*
X179416Y242906D01*
X179529Y242900D01*
X179642Y242898D01*
X179755Y242900D01*
X179868Y242906D01*
X179981Y242916D01*
X180094Y242930D01*
X180206Y242947D01*
X180317Y242969D01*
X180427Y242994D01*
X180537Y243024D01*
X180645Y243057D01*
X180752Y243094D01*
X180858Y243134D01*
X180962Y243179D01*
X181065Y243227D01*
X181166Y243278D01*
X181265Y243333D01*
X181362Y243391D01*
X181457Y243453D01*
X181550Y243518D01*
X181640Y243586D01*
X181728Y243657D01*
X181814Y243732D01*
X181897Y243809D01*
X181977Y243889D01*
X182054Y243972D01*
X182129Y244058D01*
X182200Y244146D01*
X182268Y244236D01*
X182333Y244329D01*
X182395Y244424D01*
X182453Y244521D01*
X182508Y244620D01*
X182559Y244721D01*
X182607Y244824D01*
X182652Y244928D01*
X182692Y245034D01*
X182729Y245141D01*
X182762Y245249D01*
X182792Y245359D01*
X182817Y245469D01*
X182839Y245580D01*
X182856Y245692D01*
X182870Y245805D01*
X182880Y245918D01*
X182886Y246031D01*
X182888Y246144D01*
X182887Y246144D02*
X182887Y254582D01*
X190691Y254582D02*
X190691Y242898D01*
X190691Y248740D02*
X189068Y249714D01*
X189067Y249713D02*
X188994Y249760D01*
X188923Y249809D01*
X188853Y249862D01*
X188787Y249918D01*
X188723Y249977D01*
X188661Y250038D01*
X188603Y250102D01*
X188547Y250169D01*
X188495Y250238D01*
X188445Y250310D01*
X188399Y250384D01*
X188356Y250459D01*
X188317Y250537D01*
X188281Y250616D01*
X188249Y250697D01*
X188220Y250779D01*
X188195Y250862D01*
X188174Y250946D01*
X188157Y251031D01*
X188143Y251117D01*
X188134Y251203D01*
X188128Y251290D01*
X188126Y251377D01*
X188128Y251464D01*
X188134Y251551D01*
X188144Y251637D01*
X188157Y251723D01*
X188175Y251808D01*
X188196Y251892D01*
X188221Y251975D01*
X188250Y252058D01*
X188282Y252138D01*
X188318Y252217D01*
X188357Y252295D01*
X188400Y252370D01*
X188447Y252444D01*
X188496Y252515D01*
X188549Y252585D01*
X188604Y252651D01*
X188663Y252715D01*
X188724Y252777D01*
X188789Y252836D01*
X188855Y252891D01*
X188924Y252944D01*
X188996Y252994D01*
X189069Y253040D01*
X189145Y253083D01*
X189222Y253122D01*
X189301Y253158D01*
X189382Y253191D01*
X189464Y253219D01*
X189547Y253245D01*
X189631Y253266D01*
X189717Y253283D01*
X189717Y253284D02*
X189857Y253308D01*
X189999Y253328D01*
X190140Y253344D01*
X190282Y253355D01*
X190425Y253363D01*
X190567Y253367D01*
X190710Y253368D01*
X190853Y253364D01*
X190995Y253356D01*
X191137Y253344D01*
X191279Y253328D01*
X191420Y253309D01*
X191561Y253285D01*
X191701Y253258D01*
X191840Y253226D01*
X191978Y253191D01*
X192116Y253152D01*
X192252Y253109D01*
X192386Y253063D01*
X192520Y253012D01*
X192652Y252959D01*
X192782Y252901D01*
X192911Y252840D01*
X193038Y252775D01*
X193164Y252707D01*
X193287Y252635D01*
X190691Y248740D02*
X192313Y247766D01*
X192314Y247767D02*
X192387Y247720D01*
X192458Y247671D01*
X192528Y247618D01*
X192594Y247562D01*
X192658Y247503D01*
X192720Y247442D01*
X192778Y247378D01*
X192834Y247311D01*
X192886Y247242D01*
X192936Y247170D01*
X192982Y247096D01*
X193025Y247021D01*
X193064Y246943D01*
X193100Y246864D01*
X193132Y246783D01*
X193161Y246701D01*
X193186Y246618D01*
X193207Y246534D01*
X193224Y246449D01*
X193238Y246363D01*
X193247Y246277D01*
X193253Y246190D01*
X193255Y246103D01*
X193253Y246016D01*
X193247Y245929D01*
X193237Y245843D01*
X193224Y245757D01*
X193206Y245672D01*
X193185Y245588D01*
X193160Y245505D01*
X193131Y245422D01*
X193099Y245342D01*
X193063Y245263D01*
X193024Y245185D01*
X192981Y245110D01*
X192934Y245036D01*
X192885Y244965D01*
X192832Y244895D01*
X192777Y244829D01*
X192718Y244765D01*
X192657Y244703D01*
X192592Y244644D01*
X192526Y244589D01*
X192457Y244536D01*
X192385Y244486D01*
X192312Y244440D01*
X192236Y244397D01*
X192159Y244358D01*
X192080Y244322D01*
X191999Y244289D01*
X191917Y244261D01*
X191834Y244235D01*
X191750Y244214D01*
X191665Y244197D01*
X191664Y244196D02*
X191524Y244172D01*
X191382Y244152D01*
X191241Y244136D01*
X191099Y244125D01*
X190956Y244117D01*
X190814Y244113D01*
X190671Y244112D01*
X190528Y244116D01*
X190386Y244124D01*
X190244Y244136D01*
X190102Y244152D01*
X189961Y244171D01*
X189820Y244195D01*
X189680Y244222D01*
X189541Y244254D01*
X189403Y244289D01*
X189265Y244328D01*
X189129Y244371D01*
X188995Y244417D01*
X188861Y244468D01*
X188729Y244521D01*
X188599Y244579D01*
X188470Y244640D01*
X188343Y244705D01*
X188217Y244773D01*
X188094Y244845D01*
X198113Y245494D02*
X200709Y254582D01*
X198113Y245494D02*
X204604Y245494D01*
X202657Y248091D02*
X202657Y242898D01*
X124526Y168148D02*
X121929Y168148D01*
X121830Y168150D01*
X121730Y168156D01*
X121631Y168165D01*
X121533Y168178D01*
X121435Y168195D01*
X121337Y168216D01*
X121241Y168241D01*
X121146Y168269D01*
X121052Y168301D01*
X120959Y168336D01*
X120867Y168375D01*
X120777Y168418D01*
X120689Y168463D01*
X120602Y168513D01*
X120518Y168565D01*
X120435Y168621D01*
X120355Y168679D01*
X120277Y168741D01*
X120202Y168806D01*
X120129Y168874D01*
X120059Y168944D01*
X119991Y169017D01*
X119926Y169092D01*
X119864Y169170D01*
X119806Y169250D01*
X119750Y169333D01*
X119698Y169417D01*
X119648Y169504D01*
X119603Y169592D01*
X119560Y169682D01*
X119521Y169774D01*
X119486Y169867D01*
X119454Y169961D01*
X119426Y170056D01*
X119401Y170152D01*
X119380Y170250D01*
X119363Y170348D01*
X119350Y170446D01*
X119341Y170545D01*
X119335Y170645D01*
X119333Y170744D01*
X119333Y177236D01*
X119335Y177335D01*
X119341Y177435D01*
X119350Y177534D01*
X119363Y177632D01*
X119380Y177730D01*
X119401Y177828D01*
X119426Y177924D01*
X119454Y178019D01*
X119486Y178113D01*
X119521Y178206D01*
X119560Y178298D01*
X119603Y178388D01*
X119648Y178476D01*
X119698Y178563D01*
X119750Y178647D01*
X119806Y178730D01*
X119864Y178810D01*
X119926Y178888D01*
X119991Y178963D01*
X120059Y179036D01*
X120129Y179106D01*
X120202Y179174D01*
X120277Y179239D01*
X120355Y179301D01*
X120435Y179359D01*
X120518Y179415D01*
X120602Y179467D01*
X120689Y179517D01*
X120777Y179562D01*
X120867Y179605D01*
X120959Y179644D01*
X121051Y179679D01*
X121146Y179711D01*
X121241Y179739D01*
X121337Y179764D01*
X121435Y179785D01*
X121533Y179802D01*
X121631Y179815D01*
X121730Y179824D01*
X121830Y179830D01*
X121929Y179832D01*
X124526Y179832D01*
X128891Y168148D02*
X132786Y168148D01*
X132885Y168150D01*
X132985Y168156D01*
X133084Y168165D01*
X133182Y168178D01*
X133280Y168195D01*
X133378Y168216D01*
X133474Y168241D01*
X133569Y168269D01*
X133663Y168301D01*
X133756Y168336D01*
X133848Y168375D01*
X133938Y168418D01*
X134026Y168463D01*
X134113Y168513D01*
X134197Y168565D01*
X134280Y168621D01*
X134360Y168679D01*
X134438Y168741D01*
X134513Y168806D01*
X134586Y168874D01*
X134656Y168944D01*
X134724Y169017D01*
X134789Y169092D01*
X134851Y169170D01*
X134909Y169250D01*
X134965Y169333D01*
X135017Y169417D01*
X135067Y169504D01*
X135112Y169592D01*
X135155Y169682D01*
X135194Y169774D01*
X135229Y169867D01*
X135261Y169961D01*
X135289Y170056D01*
X135314Y170152D01*
X135335Y170250D01*
X135352Y170348D01*
X135365Y170446D01*
X135374Y170545D01*
X135380Y170645D01*
X135382Y170744D01*
X135382Y172043D01*
X135380Y172142D01*
X135374Y172242D01*
X135365Y172341D01*
X135352Y172439D01*
X135335Y172537D01*
X135314Y172635D01*
X135289Y172731D01*
X135261Y172826D01*
X135229Y172920D01*
X135194Y173013D01*
X135155Y173105D01*
X135112Y173195D01*
X135067Y173283D01*
X135017Y173370D01*
X134965Y173454D01*
X134909Y173537D01*
X134851Y173617D01*
X134789Y173695D01*
X134724Y173770D01*
X134656Y173843D01*
X134586Y173913D01*
X134513Y173981D01*
X134438Y174046D01*
X134360Y174108D01*
X134280Y174166D01*
X134197Y174222D01*
X134113Y174274D01*
X134026Y174324D01*
X133938Y174369D01*
X133848Y174412D01*
X133756Y174451D01*
X133663Y174486D01*
X133569Y174518D01*
X133474Y174546D01*
X133378Y174571D01*
X133280Y174592D01*
X133182Y174609D01*
X133084Y174622D01*
X132985Y174631D01*
X132885Y174637D01*
X132786Y174639D01*
X128891Y174639D01*
X128891Y179832D01*
X135382Y179832D01*
X111252Y248929D02*
X111252Y251526D01*
X111252Y248929D02*
X111250Y248830D01*
X111244Y248730D01*
X111235Y248631D01*
X111222Y248533D01*
X111205Y248435D01*
X111184Y248337D01*
X111159Y248241D01*
X111131Y248146D01*
X111099Y248052D01*
X111064Y247959D01*
X111025Y247867D01*
X110982Y247777D01*
X110937Y247689D01*
X110887Y247602D01*
X110835Y247518D01*
X110779Y247435D01*
X110721Y247355D01*
X110659Y247277D01*
X110594Y247202D01*
X110526Y247129D01*
X110456Y247059D01*
X110383Y246991D01*
X110308Y246926D01*
X110230Y246864D01*
X110150Y246806D01*
X110067Y246750D01*
X109983Y246698D01*
X109896Y246648D01*
X109808Y246603D01*
X109718Y246560D01*
X109626Y246521D01*
X109533Y246486D01*
X109439Y246454D01*
X109344Y246426D01*
X109248Y246401D01*
X109150Y246380D01*
X109052Y246363D01*
X108954Y246350D01*
X108855Y246341D01*
X108755Y246335D01*
X108656Y246333D01*
X102164Y246333D01*
X102164Y246332D02*
X102065Y246334D01*
X101965Y246340D01*
X101866Y246349D01*
X101768Y246362D01*
X101670Y246380D01*
X101572Y246400D01*
X101476Y246425D01*
X101380Y246453D01*
X101286Y246485D01*
X101193Y246520D01*
X101102Y246559D01*
X101012Y246602D01*
X100923Y246647D01*
X100837Y246697D01*
X100752Y246749D01*
X100670Y246805D01*
X100590Y246864D01*
X100512Y246925D01*
X100436Y246990D01*
X100363Y247058D01*
X100293Y247128D01*
X100225Y247201D01*
X100160Y247277D01*
X100099Y247355D01*
X100040Y247435D01*
X99984Y247517D01*
X99932Y247602D01*
X99883Y247688D01*
X99837Y247777D01*
X99794Y247867D01*
X99755Y247958D01*
X99720Y248051D01*
X99688Y248145D01*
X99660Y248241D01*
X99635Y248337D01*
X99615Y248435D01*
X99597Y248533D01*
X99584Y248631D01*
X99575Y248730D01*
X99569Y248829D01*
X99567Y248929D01*
X99568Y248929D02*
X99568Y251526D01*
X104761Y255891D02*
X104761Y259786D01*
X104763Y259885D01*
X104769Y259985D01*
X104778Y260084D01*
X104791Y260182D01*
X104808Y260280D01*
X104829Y260378D01*
X104854Y260474D01*
X104882Y260569D01*
X104914Y260663D01*
X104949Y260756D01*
X104988Y260848D01*
X105031Y260938D01*
X105076Y261026D01*
X105126Y261113D01*
X105178Y261197D01*
X105234Y261280D01*
X105292Y261360D01*
X105354Y261438D01*
X105419Y261513D01*
X105487Y261586D01*
X105557Y261656D01*
X105630Y261724D01*
X105705Y261789D01*
X105783Y261851D01*
X105863Y261909D01*
X105946Y261965D01*
X106030Y262017D01*
X106117Y262067D01*
X106205Y262112D01*
X106295Y262155D01*
X106387Y262194D01*
X106480Y262229D01*
X106574Y262261D01*
X106669Y262289D01*
X106765Y262314D01*
X106863Y262335D01*
X106961Y262352D01*
X107059Y262365D01*
X107158Y262374D01*
X107258Y262380D01*
X107357Y262382D01*
X108006Y262382D01*
X108119Y262380D01*
X108232Y262374D01*
X108345Y262364D01*
X108458Y262350D01*
X108570Y262333D01*
X108681Y262311D01*
X108791Y262286D01*
X108901Y262256D01*
X109009Y262223D01*
X109116Y262186D01*
X109222Y262146D01*
X109326Y262101D01*
X109429Y262053D01*
X109530Y262002D01*
X109629Y261947D01*
X109726Y261889D01*
X109821Y261827D01*
X109914Y261762D01*
X110004Y261694D01*
X110092Y261623D01*
X110178Y261548D01*
X110261Y261471D01*
X110341Y261391D01*
X110418Y261308D01*
X110493Y261222D01*
X110564Y261134D01*
X110632Y261044D01*
X110697Y260951D01*
X110759Y260856D01*
X110817Y260759D01*
X110872Y260660D01*
X110923Y260559D01*
X110971Y260456D01*
X111016Y260352D01*
X111056Y260246D01*
X111093Y260139D01*
X111126Y260031D01*
X111156Y259921D01*
X111181Y259811D01*
X111203Y259700D01*
X111220Y259588D01*
X111234Y259475D01*
X111244Y259362D01*
X111250Y259249D01*
X111252Y259136D01*
X111250Y259023D01*
X111244Y258910D01*
X111234Y258797D01*
X111220Y258684D01*
X111203Y258572D01*
X111181Y258461D01*
X111156Y258351D01*
X111126Y258241D01*
X111093Y258133D01*
X111056Y258026D01*
X111016Y257920D01*
X110971Y257816D01*
X110923Y257713D01*
X110872Y257612D01*
X110817Y257513D01*
X110759Y257416D01*
X110697Y257321D01*
X110632Y257228D01*
X110564Y257138D01*
X110493Y257050D01*
X110418Y256964D01*
X110341Y256881D01*
X110261Y256801D01*
X110178Y256724D01*
X110092Y256649D01*
X110004Y256578D01*
X109914Y256510D01*
X109821Y256445D01*
X109726Y256383D01*
X109629Y256325D01*
X109530Y256270D01*
X109429Y256219D01*
X109326Y256171D01*
X109222Y256126D01*
X109116Y256086D01*
X109009Y256049D01*
X108901Y256016D01*
X108791Y255986D01*
X108681Y255961D01*
X108570Y255939D01*
X108458Y255922D01*
X108345Y255908D01*
X108232Y255898D01*
X108119Y255892D01*
X108006Y255890D01*
X108006Y255891D02*
X104761Y255891D01*
X104618Y255893D01*
X104475Y255899D01*
X104332Y255909D01*
X104190Y255923D01*
X104048Y255940D01*
X103906Y255962D01*
X103765Y255987D01*
X103625Y256017D01*
X103486Y256050D01*
X103348Y256087D01*
X103211Y256128D01*
X103075Y256172D01*
X102940Y256221D01*
X102807Y256273D01*
X102675Y256328D01*
X102545Y256388D01*
X102416Y256451D01*
X102289Y256517D01*
X102165Y256587D01*
X102042Y256660D01*
X101921Y256737D01*
X101802Y256816D01*
X101686Y256900D01*
X101571Y256986D01*
X101460Y257075D01*
X101351Y257168D01*
X101244Y257263D01*
X101140Y257362D01*
X101039Y257463D01*
X100940Y257567D01*
X100845Y257673D01*
X100752Y257783D01*
X100663Y257894D01*
X100577Y258008D01*
X100494Y258125D01*
X100414Y258244D01*
X100337Y258365D01*
X100264Y258487D01*
X100194Y258612D01*
X100128Y258739D01*
X100065Y258868D01*
X100005Y258998D01*
X99950Y259130D01*
X99898Y259263D01*
X99849Y259398D01*
X99805Y259534D01*
X99764Y259671D01*
X99727Y259809D01*
X99694Y259948D01*
X99664Y260088D01*
X99639Y260229D01*
X99617Y260371D01*
X99600Y260513D01*
X99586Y260655D01*
X99576Y260798D01*
X99570Y260941D01*
X99568Y261084D01*
D21*
X80137Y245987D02*
X72771Y245987D01*
X80137Y245987D02*
X80137Y249260D01*
X74613Y256160D02*
X74528Y256158D01*
X74443Y256152D01*
X74359Y256142D01*
X74275Y256129D01*
X74191Y256111D01*
X74109Y256090D01*
X74028Y256065D01*
X73948Y256036D01*
X73869Y256003D01*
X73792Y255967D01*
X73717Y255927D01*
X73643Y255884D01*
X73572Y255838D01*
X73503Y255788D01*
X73436Y255735D01*
X73372Y255679D01*
X73311Y255620D01*
X73252Y255559D01*
X73196Y255495D01*
X73143Y255428D01*
X73093Y255359D01*
X73047Y255288D01*
X73004Y255214D01*
X72964Y255139D01*
X72928Y255062D01*
X72895Y254983D01*
X72866Y254903D01*
X72841Y254822D01*
X72820Y254740D01*
X72802Y254656D01*
X72789Y254572D01*
X72779Y254488D01*
X72773Y254403D01*
X72771Y254318D01*
X72773Y254222D01*
X72779Y254126D01*
X72789Y254031D01*
X72802Y253936D01*
X72820Y253841D01*
X72841Y253748D01*
X72866Y253655D01*
X72895Y253564D01*
X72927Y253473D01*
X72963Y253384D01*
X73003Y253297D01*
X73046Y253211D01*
X73092Y253127D01*
X73142Y253045D01*
X73196Y252965D01*
X73252Y252888D01*
X73312Y252813D01*
X73374Y252740D01*
X73440Y252670D01*
X73508Y252602D01*
X73579Y252537D01*
X73652Y252476D01*
X73728Y252417D01*
X73807Y252361D01*
X73887Y252309D01*
X73970Y252260D01*
X74054Y252214D01*
X74140Y252172D01*
X74228Y252134D01*
X74317Y252099D01*
X74408Y252067D01*
X76045Y255545D02*
X75986Y255605D01*
X75924Y255662D01*
X75860Y255717D01*
X75793Y255768D01*
X75724Y255817D01*
X75654Y255863D01*
X75581Y255906D01*
X75507Y255946D01*
X75431Y255982D01*
X75353Y256015D01*
X75274Y256045D01*
X75194Y256072D01*
X75113Y256095D01*
X75031Y256114D01*
X74949Y256130D01*
X74865Y256143D01*
X74781Y256152D01*
X74697Y256157D01*
X74613Y256159D01*
X76045Y255545D02*
X80137Y252067D01*
X80137Y256159D01*
X249797Y93599D02*
X249797Y86233D01*
X253070Y86233D01*
X255877Y86233D02*
X257923Y86233D01*
X258012Y86235D01*
X258101Y86241D01*
X258190Y86251D01*
X258278Y86264D01*
X258366Y86281D01*
X258453Y86303D01*
X258538Y86328D01*
X258623Y86356D01*
X258706Y86389D01*
X258788Y86425D01*
X258868Y86464D01*
X258946Y86507D01*
X259022Y86553D01*
X259097Y86603D01*
X259169Y86656D01*
X259238Y86712D01*
X259305Y86771D01*
X259370Y86832D01*
X259431Y86897D01*
X259490Y86964D01*
X259546Y87033D01*
X259599Y87105D01*
X259649Y87180D01*
X259695Y87256D01*
X259738Y87334D01*
X259777Y87414D01*
X259813Y87496D01*
X259846Y87579D01*
X259874Y87664D01*
X259899Y87749D01*
X259921Y87836D01*
X259938Y87924D01*
X259951Y88012D01*
X259961Y88101D01*
X259967Y88190D01*
X259969Y88279D01*
X259967Y88368D01*
X259961Y88457D01*
X259951Y88546D01*
X259938Y88634D01*
X259921Y88722D01*
X259899Y88809D01*
X259874Y88894D01*
X259846Y88979D01*
X259813Y89062D01*
X259777Y89144D01*
X259738Y89224D01*
X259695Y89302D01*
X259649Y89378D01*
X259599Y89453D01*
X259546Y89525D01*
X259490Y89594D01*
X259431Y89661D01*
X259370Y89726D01*
X259305Y89787D01*
X259238Y89846D01*
X259169Y89902D01*
X259097Y89955D01*
X259022Y90005D01*
X258946Y90051D01*
X258868Y90094D01*
X258788Y90133D01*
X258706Y90169D01*
X258623Y90202D01*
X258538Y90230D01*
X258453Y90255D01*
X258366Y90277D01*
X258278Y90294D01*
X258190Y90307D01*
X258101Y90317D01*
X258012Y90323D01*
X257923Y90325D01*
X258332Y93599D02*
X255877Y93599D01*
X258332Y93599D02*
X258411Y93597D01*
X258490Y93591D01*
X258569Y93582D01*
X258647Y93569D01*
X258724Y93551D01*
X258800Y93531D01*
X258875Y93506D01*
X258949Y93478D01*
X259022Y93447D01*
X259093Y93411D01*
X259162Y93373D01*
X259229Y93331D01*
X259294Y93286D01*
X259357Y93238D01*
X259418Y93187D01*
X259475Y93133D01*
X259531Y93077D01*
X259583Y93018D01*
X259633Y92956D01*
X259679Y92892D01*
X259723Y92826D01*
X259763Y92758D01*
X259799Y92688D01*
X259833Y92616D01*
X259863Y92542D01*
X259889Y92468D01*
X259912Y92392D01*
X259930Y92315D01*
X259946Y92238D01*
X259957Y92159D01*
X259965Y92081D01*
X259969Y92002D01*
X259969Y91922D01*
X259965Y91843D01*
X259957Y91765D01*
X259946Y91686D01*
X259930Y91609D01*
X259912Y91532D01*
X259889Y91456D01*
X259863Y91382D01*
X259833Y91308D01*
X259799Y91236D01*
X259763Y91166D01*
X259723Y91098D01*
X259679Y91032D01*
X259633Y90968D01*
X259583Y90906D01*
X259531Y90847D01*
X259475Y90791D01*
X259418Y90737D01*
X259357Y90686D01*
X259294Y90638D01*
X259229Y90593D01*
X259162Y90551D01*
X259093Y90513D01*
X259022Y90477D01*
X258949Y90446D01*
X258875Y90418D01*
X258800Y90393D01*
X258724Y90373D01*
X258647Y90355D01*
X258569Y90342D01*
X258490Y90333D01*
X258411Y90327D01*
X258332Y90325D01*
X256695Y90325D01*
D13*
X494284Y329692D02*
X521716Y329692D01*
X504952Y279908D02*
X494284Y279908D01*
X504952Y279908D02*
X511048Y279908D01*
X521716Y279908D01*
D22*
X511048Y279908D02*
X511046Y280017D01*
X511040Y280125D01*
X511031Y280234D01*
X511017Y280342D01*
X511000Y280449D01*
X510978Y280556D01*
X510953Y280662D01*
X510925Y280767D01*
X510892Y280871D01*
X510856Y280973D01*
X510816Y281074D01*
X510773Y281174D01*
X510726Y281272D01*
X510675Y281369D01*
X510621Y281463D01*
X510564Y281556D01*
X510504Y281646D01*
X510440Y281735D01*
X510373Y281821D01*
X510304Y281904D01*
X510231Y281985D01*
X510155Y282063D01*
X510077Y282139D01*
X509996Y282212D01*
X509913Y282281D01*
X509827Y282348D01*
X509738Y282412D01*
X509648Y282472D01*
X509555Y282529D01*
X509461Y282583D01*
X509364Y282634D01*
X509266Y282681D01*
X509166Y282724D01*
X509065Y282764D01*
X508963Y282800D01*
X508859Y282833D01*
X508754Y282861D01*
X508648Y282886D01*
X508541Y282908D01*
X508434Y282925D01*
X508326Y282939D01*
X508217Y282948D01*
X508109Y282954D01*
X508000Y282956D01*
X507891Y282954D01*
X507783Y282948D01*
X507674Y282939D01*
X507566Y282925D01*
X507459Y282908D01*
X507352Y282886D01*
X507246Y282861D01*
X507141Y282833D01*
X507037Y282800D01*
X506935Y282764D01*
X506834Y282724D01*
X506734Y282681D01*
X506636Y282634D01*
X506539Y282583D01*
X506445Y282529D01*
X506352Y282472D01*
X506262Y282412D01*
X506173Y282348D01*
X506087Y282281D01*
X506004Y282212D01*
X505923Y282139D01*
X505845Y282063D01*
X505769Y281985D01*
X505696Y281904D01*
X505627Y281821D01*
X505560Y281735D01*
X505496Y281646D01*
X505436Y281556D01*
X505379Y281463D01*
X505325Y281369D01*
X505274Y281272D01*
X505227Y281174D01*
X505184Y281074D01*
X505144Y280973D01*
X505108Y280871D01*
X505075Y280767D01*
X505047Y280662D01*
X505022Y280556D01*
X505000Y280449D01*
X504983Y280342D01*
X504969Y280234D01*
X504960Y280125D01*
X504954Y280017D01*
X504952Y279908D01*
D16*
X553839Y264680D02*
X553839Y251067D01*
X553839Y264680D02*
X553837Y264823D01*
X553831Y264966D01*
X553821Y265109D01*
X553808Y265251D01*
X553790Y265393D01*
X553769Y265534D01*
X553744Y265675D01*
X553714Y265815D01*
X553682Y265954D01*
X553645Y266093D01*
X553604Y266230D01*
X553560Y266366D01*
X553512Y266501D01*
X553461Y266634D01*
X553406Y266766D01*
X553347Y266896D01*
X553284Y267025D01*
X553219Y267152D01*
X553149Y267277D01*
X553077Y267401D01*
X553001Y267522D01*
X552921Y267641D01*
X552839Y267758D01*
X552753Y267872D01*
X552665Y267984D01*
X552573Y268094D01*
X552478Y268201D01*
X552380Y268306D01*
X552280Y268408D01*
X552177Y268507D01*
X552071Y268603D01*
X551963Y268696D01*
X551852Y268786D01*
X551738Y268874D01*
X551622Y268958D01*
X551505Y269039D01*
X551384Y269116D01*
X551262Y269190D01*
X551138Y269261D01*
X551012Y269329D01*
X550884Y269393D01*
X550754Y269454D01*
X550623Y269511D01*
X550491Y269564D01*
X550356Y269614D01*
X550221Y269660D01*
X550084Y269702D01*
X549947Y269741D01*
X549808Y269775D01*
X549668Y269806D01*
X549528Y269834D01*
X549387Y269857D01*
X549245Y269876D01*
X549103Y269892D01*
X548960Y269904D01*
X548817Y269912D01*
X548675Y269916D01*
X548531Y269916D01*
X548389Y269912D01*
X548246Y269904D01*
X548103Y269892D01*
X547961Y269876D01*
X547819Y269857D01*
X547678Y269834D01*
X547538Y269806D01*
X547398Y269775D01*
X547259Y269741D01*
X547122Y269702D01*
X546985Y269660D01*
X546850Y269614D01*
X546715Y269564D01*
X546583Y269511D01*
X546452Y269454D01*
X546322Y269393D01*
X546194Y269329D01*
X546068Y269261D01*
X545944Y269190D01*
X545822Y269116D01*
X545701Y269039D01*
X545584Y268958D01*
X545468Y268874D01*
X545354Y268786D01*
X545243Y268696D01*
X545135Y268603D01*
X545029Y268507D01*
X544926Y268408D01*
X544826Y268306D01*
X544728Y268201D01*
X544633Y268094D01*
X544541Y267984D01*
X544453Y267872D01*
X544367Y267758D01*
X544285Y267641D01*
X544205Y267522D01*
X544129Y267401D01*
X544057Y267277D01*
X543987Y267152D01*
X543922Y267025D01*
X543859Y266896D01*
X543800Y266766D01*
X543745Y266634D01*
X543694Y266501D01*
X543646Y266366D01*
X543602Y266230D01*
X543561Y266093D01*
X543524Y265954D01*
X543492Y265815D01*
X543462Y265675D01*
X543437Y265534D01*
X543416Y265393D01*
X543398Y265251D01*
X543385Y265109D01*
X543375Y264966D01*
X543369Y264823D01*
X543367Y264680D01*
X543367Y251067D01*
X529612Y251067D02*
X529477Y251069D01*
X529343Y251075D01*
X529209Y251084D01*
X529075Y251098D01*
X528941Y251115D01*
X528808Y251136D01*
X528676Y251161D01*
X528545Y251189D01*
X528414Y251222D01*
X528284Y251258D01*
X528156Y251298D01*
X528029Y251341D01*
X527902Y251388D01*
X527778Y251439D01*
X527655Y251493D01*
X527533Y251550D01*
X527413Y251612D01*
X527295Y251676D01*
X527179Y251744D01*
X527065Y251815D01*
X526952Y251889D01*
X526842Y251967D01*
X526735Y252048D01*
X526629Y252131D01*
X526526Y252218D01*
X526426Y252307D01*
X526328Y252400D01*
X526233Y252495D01*
X526140Y252593D01*
X526051Y252693D01*
X525964Y252796D01*
X525881Y252902D01*
X525800Y253009D01*
X525722Y253119D01*
X525648Y253232D01*
X525577Y253346D01*
X525509Y253462D01*
X525445Y253580D01*
X525383Y253700D01*
X525326Y253822D01*
X525272Y253945D01*
X525221Y254069D01*
X525174Y254196D01*
X525131Y254323D01*
X525091Y254451D01*
X525055Y254581D01*
X525022Y254712D01*
X524994Y254843D01*
X524969Y254975D01*
X524948Y255108D01*
X524931Y255242D01*
X524917Y255376D01*
X524908Y255510D01*
X524902Y255644D01*
X524900Y255779D01*
X529612Y251067D02*
X529764Y251069D01*
X529916Y251075D01*
X530068Y251084D01*
X530220Y251098D01*
X530371Y251115D01*
X530522Y251136D01*
X530672Y251161D01*
X530822Y251189D01*
X530971Y251221D01*
X531119Y251257D01*
X531266Y251297D01*
X531412Y251341D01*
X531556Y251388D01*
X531700Y251438D01*
X531842Y251493D01*
X531983Y251551D01*
X532122Y251612D01*
X532260Y251677D01*
X532396Y251745D01*
X532531Y251817D01*
X532663Y251892D01*
X532794Y251970D01*
X532922Y252052D01*
X533049Y252137D01*
X533173Y252225D01*
X533295Y252316D01*
X533415Y252410D01*
X533532Y252507D01*
X533647Y252607D01*
X533759Y252710D01*
X533868Y252816D01*
X533975Y252924D01*
X534080Y253035D01*
X534181Y253149D01*
X534279Y253265D01*
X534375Y253384D01*
X534467Y253505D01*
X534557Y253628D01*
X534643Y253753D01*
X534726Y253881D01*
X534806Y254011D01*
X534883Y254142D01*
X534956Y254276D01*
X535026Y254411D01*
X535092Y254548D01*
X535155Y254687D01*
X535215Y254827D01*
X535270Y254969D01*
X535323Y255112D01*
X535372Y255256D01*
X526471Y259444D02*
X526370Y259345D01*
X526272Y259243D01*
X526176Y259139D01*
X526084Y259032D01*
X525995Y258922D01*
X525908Y258811D01*
X525825Y258696D01*
X525745Y258580D01*
X525669Y258461D01*
X525596Y258340D01*
X525526Y258217D01*
X525460Y258092D01*
X525397Y257966D01*
X525337Y257837D01*
X525282Y257707D01*
X525230Y257576D01*
X525181Y257443D01*
X525137Y257309D01*
X525096Y257174D01*
X525059Y257038D01*
X525026Y256900D01*
X524996Y256762D01*
X524971Y256623D01*
X524949Y256483D01*
X524932Y256343D01*
X524918Y256202D01*
X524908Y256061D01*
X524902Y255920D01*
X524900Y255779D01*
X526471Y259444D02*
X535372Y269916D01*
X524900Y269916D01*
D23*
X21251Y463677D02*
X18923Y458089D01*
X23580Y458089D02*
X21251Y463677D01*
X24511Y468642D02*
X16129Y468642D01*
X24511Y468642D02*
X24511Y472367D01*
X24511Y475767D02*
X16129Y478561D01*
X24511Y481355D01*
X22416Y480657D02*
X22416Y476466D01*
X19854Y485898D02*
X19854Y488226D01*
X19855Y488226D02*
X19857Y488321D01*
X19863Y488416D01*
X19872Y488510D01*
X19886Y488604D01*
X19903Y488698D01*
X19924Y488790D01*
X19949Y488882D01*
X19978Y488972D01*
X20010Y489062D01*
X20046Y489150D01*
X20086Y489236D01*
X20128Y489321D01*
X20175Y489404D01*
X20225Y489485D01*
X20278Y489563D01*
X20334Y489640D01*
X20393Y489714D01*
X20455Y489786D01*
X20520Y489855D01*
X20588Y489922D01*
X20658Y489985D01*
X20732Y490046D01*
X20807Y490104D01*
X20885Y490158D01*
X20965Y490210D01*
X21047Y490258D01*
X21130Y490302D01*
X21216Y490344D01*
X21303Y490381D01*
X21392Y490415D01*
X21482Y490446D01*
X21573Y490473D01*
X21665Y490496D01*
X21758Y490515D01*
X21852Y490530D01*
X21946Y490542D01*
X22041Y490550D01*
X22136Y490554D01*
X22230Y490554D01*
X22325Y490550D01*
X22420Y490542D01*
X22514Y490530D01*
X22608Y490515D01*
X22701Y490496D01*
X22793Y490473D01*
X22884Y490446D01*
X22974Y490415D01*
X23063Y490381D01*
X23150Y490344D01*
X23236Y490302D01*
X23319Y490258D01*
X23401Y490210D01*
X23481Y490158D01*
X23559Y490104D01*
X23634Y490046D01*
X23708Y489985D01*
X23778Y489922D01*
X23846Y489855D01*
X23911Y489786D01*
X23973Y489714D01*
X24032Y489640D01*
X24088Y489563D01*
X24141Y489485D01*
X24191Y489404D01*
X24238Y489321D01*
X24280Y489236D01*
X24320Y489150D01*
X24356Y489062D01*
X24388Y488972D01*
X24417Y488882D01*
X24442Y488790D01*
X24463Y488698D01*
X24480Y488604D01*
X24494Y488510D01*
X24503Y488416D01*
X24509Y488321D01*
X24511Y488226D01*
X24511Y485898D01*
X16129Y485898D01*
X16129Y488226D01*
X16131Y488311D01*
X16137Y488395D01*
X16146Y488480D01*
X16160Y488563D01*
X16177Y488646D01*
X16198Y488729D01*
X16223Y488810D01*
X16251Y488890D01*
X16283Y488968D01*
X16319Y489045D01*
X16358Y489121D01*
X16400Y489194D01*
X16446Y489265D01*
X16495Y489335D01*
X16547Y489402D01*
X16602Y489466D01*
X16660Y489528D01*
X16720Y489588D01*
X16784Y489644D01*
X16849Y489698D01*
X16918Y489748D01*
X16988Y489795D01*
X17061Y489839D01*
X17135Y489880D01*
X17211Y489917D01*
X17289Y489951D01*
X17368Y489981D01*
X17449Y490008D01*
X17530Y490031D01*
X17613Y490050D01*
X17696Y490065D01*
X17780Y490077D01*
X17865Y490085D01*
X17950Y490089D01*
X18034Y490089D01*
X18119Y490085D01*
X18204Y490077D01*
X18288Y490065D01*
X18371Y490050D01*
X18454Y490031D01*
X18535Y490008D01*
X18616Y489981D01*
X18695Y489951D01*
X18773Y489917D01*
X18849Y489880D01*
X18924Y489839D01*
X18996Y489795D01*
X19066Y489748D01*
X19135Y489698D01*
X19200Y489644D01*
X19264Y489588D01*
X19324Y489528D01*
X19382Y489466D01*
X19437Y489402D01*
X19489Y489335D01*
X19538Y489265D01*
X19584Y489194D01*
X19626Y489121D01*
X19665Y489045D01*
X19701Y488968D01*
X19733Y488890D01*
X19761Y488810D01*
X19786Y488729D01*
X19807Y488646D01*
X19824Y488563D01*
X19838Y488480D01*
X19847Y488395D01*
X19853Y488311D01*
X19855Y488226D01*
X24511Y494855D02*
X24511Y498580D01*
X24511Y494855D02*
X16129Y494855D01*
X16129Y498580D01*
X19854Y497649D02*
X19854Y494855D01*
X16129Y502779D02*
X24511Y502779D01*
X24511Y506505D01*
X149479Y463677D02*
X157861Y458089D01*
X157861Y463677D02*
X149479Y458089D01*
X151342Y467699D02*
X149479Y470027D01*
X157861Y470027D01*
X157861Y467699D02*
X157861Y472355D01*
X399923Y458089D02*
X402251Y463677D01*
X404580Y458089D01*
X405511Y468642D02*
X397129Y468642D01*
X405511Y468642D02*
X405511Y472367D01*
X405511Y475767D02*
X397129Y478561D01*
X405511Y481355D01*
X403416Y480657D02*
X403416Y476466D01*
X400854Y485898D02*
X400854Y488226D01*
X400855Y488226D02*
X400857Y488321D01*
X400863Y488416D01*
X400872Y488510D01*
X400886Y488604D01*
X400903Y488698D01*
X400924Y488790D01*
X400949Y488882D01*
X400978Y488972D01*
X401010Y489062D01*
X401046Y489150D01*
X401086Y489236D01*
X401128Y489321D01*
X401175Y489404D01*
X401225Y489485D01*
X401278Y489563D01*
X401334Y489640D01*
X401393Y489714D01*
X401455Y489786D01*
X401520Y489855D01*
X401588Y489922D01*
X401658Y489985D01*
X401732Y490046D01*
X401807Y490104D01*
X401885Y490158D01*
X401965Y490210D01*
X402047Y490258D01*
X402130Y490302D01*
X402216Y490344D01*
X402303Y490381D01*
X402392Y490415D01*
X402482Y490446D01*
X402573Y490473D01*
X402665Y490496D01*
X402758Y490515D01*
X402852Y490530D01*
X402946Y490542D01*
X403041Y490550D01*
X403136Y490554D01*
X403230Y490554D01*
X403325Y490550D01*
X403420Y490542D01*
X403514Y490530D01*
X403608Y490515D01*
X403701Y490496D01*
X403793Y490473D01*
X403884Y490446D01*
X403974Y490415D01*
X404063Y490381D01*
X404150Y490344D01*
X404236Y490302D01*
X404319Y490258D01*
X404401Y490210D01*
X404481Y490158D01*
X404559Y490104D01*
X404634Y490046D01*
X404708Y489985D01*
X404778Y489922D01*
X404846Y489855D01*
X404911Y489786D01*
X404973Y489714D01*
X405032Y489640D01*
X405088Y489563D01*
X405141Y489485D01*
X405191Y489404D01*
X405238Y489321D01*
X405280Y489236D01*
X405320Y489150D01*
X405356Y489062D01*
X405388Y488972D01*
X405417Y488882D01*
X405442Y488790D01*
X405463Y488698D01*
X405480Y488604D01*
X405494Y488510D01*
X405503Y488416D01*
X405509Y488321D01*
X405511Y488226D01*
X405511Y485898D01*
X397129Y485898D01*
X397129Y488226D01*
X397131Y488311D01*
X397137Y488395D01*
X397146Y488480D01*
X397160Y488563D01*
X397177Y488646D01*
X397198Y488729D01*
X397223Y488810D01*
X397251Y488890D01*
X397283Y488968D01*
X397319Y489045D01*
X397358Y489121D01*
X397400Y489194D01*
X397446Y489265D01*
X397495Y489335D01*
X397547Y489402D01*
X397602Y489466D01*
X397660Y489528D01*
X397720Y489588D01*
X397784Y489644D01*
X397849Y489698D01*
X397918Y489748D01*
X397988Y489795D01*
X398061Y489839D01*
X398135Y489880D01*
X398211Y489917D01*
X398289Y489951D01*
X398368Y489981D01*
X398449Y490008D01*
X398530Y490031D01*
X398613Y490050D01*
X398696Y490065D01*
X398780Y490077D01*
X398865Y490085D01*
X398950Y490089D01*
X399034Y490089D01*
X399119Y490085D01*
X399204Y490077D01*
X399288Y490065D01*
X399371Y490050D01*
X399454Y490031D01*
X399535Y490008D01*
X399616Y489981D01*
X399695Y489951D01*
X399773Y489917D01*
X399849Y489880D01*
X399924Y489839D01*
X399996Y489795D01*
X400066Y489748D01*
X400135Y489698D01*
X400200Y489644D01*
X400264Y489588D01*
X400324Y489528D01*
X400382Y489466D01*
X400437Y489402D01*
X400489Y489335D01*
X400538Y489265D01*
X400584Y489194D01*
X400626Y489121D01*
X400665Y489045D01*
X400701Y488968D01*
X400733Y488890D01*
X400761Y488810D01*
X400786Y488729D01*
X400807Y488646D01*
X400824Y488563D01*
X400838Y488480D01*
X400847Y488395D01*
X400853Y488311D01*
X400855Y488226D01*
X405511Y494855D02*
X405511Y498580D01*
X405511Y494855D02*
X397129Y494855D01*
X397129Y498580D01*
X400854Y497649D02*
X400854Y494855D01*
X397129Y502779D02*
X405511Y502779D01*
X405511Y506505D01*
X524595Y447929D02*
X530183Y456311D01*
X524595Y456311D02*
X530183Y447929D01*
X536766Y456312D02*
X536855Y456310D01*
X536944Y456304D01*
X537032Y456295D01*
X537120Y456282D01*
X537208Y456265D01*
X537294Y456244D01*
X537380Y456220D01*
X537464Y456192D01*
X537548Y456161D01*
X537629Y456126D01*
X537710Y456088D01*
X537788Y456046D01*
X537865Y456001D01*
X537940Y455953D01*
X538012Y455901D01*
X538083Y455847D01*
X538151Y455789D01*
X538216Y455729D01*
X538279Y455666D01*
X538339Y455601D01*
X538397Y455533D01*
X538451Y455462D01*
X538503Y455390D01*
X538551Y455315D01*
X538596Y455238D01*
X538638Y455160D01*
X538676Y455079D01*
X538711Y454998D01*
X538742Y454914D01*
X538770Y454830D01*
X538794Y454744D01*
X538815Y454658D01*
X538832Y454570D01*
X538845Y454482D01*
X538854Y454394D01*
X538860Y454305D01*
X538862Y454216D01*
X536766Y456311D02*
X536663Y456309D01*
X536561Y456303D01*
X536459Y456293D01*
X536357Y456280D01*
X536256Y456262D01*
X536156Y456241D01*
X536056Y456216D01*
X535958Y456187D01*
X535861Y456154D01*
X535765Y456118D01*
X535670Y456078D01*
X535577Y456034D01*
X535486Y455987D01*
X535397Y455937D01*
X535310Y455883D01*
X535224Y455826D01*
X535141Y455766D01*
X535061Y455702D01*
X534983Y455636D01*
X534907Y455566D01*
X534834Y455494D01*
X534764Y455419D01*
X534697Y455341D01*
X534633Y455261D01*
X534572Y455179D01*
X534514Y455094D01*
X534460Y455007D01*
X534408Y454918D01*
X534361Y454828D01*
X534316Y454735D01*
X534276Y454641D01*
X534238Y454545D01*
X534205Y454448D01*
X538162Y452586D02*
X538227Y452650D01*
X538289Y452717D01*
X538349Y452786D01*
X538405Y452858D01*
X538458Y452931D01*
X538509Y453007D01*
X538556Y453085D01*
X538600Y453165D01*
X538641Y453246D01*
X538679Y453329D01*
X538713Y453414D01*
X538744Y453500D01*
X538771Y453587D01*
X538795Y453675D01*
X538815Y453763D01*
X538832Y453853D01*
X538844Y453943D01*
X538854Y454034D01*
X538859Y454125D01*
X538861Y454216D01*
X538163Y452586D02*
X534204Y447929D01*
X538861Y447929D01*
D12*
X435035Y206502D02*
X435035Y194818D01*
X435035Y206502D02*
X438280Y206502D01*
X438393Y206500D01*
X438506Y206494D01*
X438619Y206484D01*
X438732Y206470D01*
X438844Y206453D01*
X438955Y206431D01*
X439065Y206406D01*
X439175Y206376D01*
X439283Y206343D01*
X439390Y206306D01*
X439496Y206266D01*
X439600Y206221D01*
X439703Y206173D01*
X439804Y206122D01*
X439903Y206067D01*
X440000Y206009D01*
X440095Y205947D01*
X440188Y205882D01*
X440278Y205814D01*
X440366Y205743D01*
X440452Y205668D01*
X440535Y205591D01*
X440615Y205511D01*
X440692Y205428D01*
X440767Y205342D01*
X440838Y205254D01*
X440906Y205164D01*
X440971Y205071D01*
X441033Y204976D01*
X441091Y204879D01*
X441146Y204780D01*
X441197Y204679D01*
X441245Y204576D01*
X441290Y204472D01*
X441330Y204366D01*
X441367Y204259D01*
X441400Y204151D01*
X441430Y204041D01*
X441455Y203931D01*
X441477Y203820D01*
X441494Y203708D01*
X441508Y203595D01*
X441518Y203482D01*
X441524Y203369D01*
X441526Y203256D01*
X441524Y203143D01*
X441518Y203030D01*
X441508Y202917D01*
X441494Y202804D01*
X441477Y202692D01*
X441455Y202581D01*
X441430Y202471D01*
X441400Y202361D01*
X441367Y202253D01*
X441330Y202146D01*
X441290Y202040D01*
X441245Y201936D01*
X441197Y201833D01*
X441146Y201732D01*
X441091Y201633D01*
X441033Y201536D01*
X440971Y201441D01*
X440906Y201348D01*
X440838Y201258D01*
X440767Y201170D01*
X440692Y201084D01*
X440615Y201001D01*
X440535Y200921D01*
X440452Y200844D01*
X440366Y200769D01*
X440278Y200698D01*
X440188Y200630D01*
X440095Y200565D01*
X440000Y200503D01*
X439903Y200445D01*
X439804Y200390D01*
X439703Y200339D01*
X439600Y200291D01*
X439496Y200246D01*
X439390Y200206D01*
X439283Y200169D01*
X439175Y200136D01*
X439065Y200106D01*
X438955Y200081D01*
X438844Y200059D01*
X438732Y200042D01*
X438619Y200028D01*
X438506Y200018D01*
X438393Y200012D01*
X438280Y200010D01*
X438280Y200011D02*
X435035Y200011D01*
X438929Y200011D02*
X441526Y194818D01*
X446391Y194818D02*
X450286Y194818D01*
X450385Y194820D01*
X450485Y194826D01*
X450584Y194835D01*
X450682Y194848D01*
X450780Y194865D01*
X450878Y194886D01*
X450974Y194911D01*
X451069Y194939D01*
X451163Y194971D01*
X451256Y195006D01*
X451348Y195045D01*
X451438Y195088D01*
X451526Y195133D01*
X451613Y195183D01*
X451697Y195235D01*
X451780Y195291D01*
X451860Y195349D01*
X451938Y195411D01*
X452013Y195476D01*
X452086Y195544D01*
X452156Y195614D01*
X452224Y195687D01*
X452289Y195762D01*
X452351Y195840D01*
X452409Y195920D01*
X452465Y196003D01*
X452517Y196087D01*
X452567Y196174D01*
X452612Y196262D01*
X452655Y196352D01*
X452694Y196444D01*
X452729Y196537D01*
X452761Y196631D01*
X452789Y196726D01*
X452814Y196822D01*
X452835Y196920D01*
X452852Y197018D01*
X452865Y197116D01*
X452874Y197215D01*
X452880Y197315D01*
X452882Y197414D01*
X452882Y198713D01*
X452880Y198812D01*
X452874Y198912D01*
X452865Y199011D01*
X452852Y199109D01*
X452835Y199207D01*
X452814Y199305D01*
X452789Y199401D01*
X452761Y199496D01*
X452729Y199590D01*
X452694Y199683D01*
X452655Y199775D01*
X452612Y199865D01*
X452567Y199953D01*
X452517Y200040D01*
X452465Y200124D01*
X452409Y200207D01*
X452351Y200287D01*
X452289Y200365D01*
X452224Y200440D01*
X452156Y200513D01*
X452086Y200583D01*
X452013Y200651D01*
X451938Y200716D01*
X451860Y200778D01*
X451780Y200836D01*
X451697Y200892D01*
X451613Y200944D01*
X451526Y200994D01*
X451438Y201039D01*
X451348Y201082D01*
X451256Y201121D01*
X451163Y201156D01*
X451069Y201188D01*
X450974Y201216D01*
X450878Y201241D01*
X450780Y201262D01*
X450682Y201279D01*
X450584Y201292D01*
X450485Y201301D01*
X450385Y201307D01*
X450286Y201309D01*
X446391Y201309D01*
X446391Y206502D01*
X452882Y206502D01*
X384235Y206502D02*
X384235Y194818D01*
X384235Y206502D02*
X387480Y206502D01*
X387593Y206500D01*
X387706Y206494D01*
X387819Y206484D01*
X387932Y206470D01*
X388044Y206453D01*
X388155Y206431D01*
X388265Y206406D01*
X388375Y206376D01*
X388483Y206343D01*
X388590Y206306D01*
X388696Y206266D01*
X388800Y206221D01*
X388903Y206173D01*
X389004Y206122D01*
X389103Y206067D01*
X389200Y206009D01*
X389295Y205947D01*
X389388Y205882D01*
X389478Y205814D01*
X389566Y205743D01*
X389652Y205668D01*
X389735Y205591D01*
X389815Y205511D01*
X389892Y205428D01*
X389967Y205342D01*
X390038Y205254D01*
X390106Y205164D01*
X390171Y205071D01*
X390233Y204976D01*
X390291Y204879D01*
X390346Y204780D01*
X390397Y204679D01*
X390445Y204576D01*
X390490Y204472D01*
X390530Y204366D01*
X390567Y204259D01*
X390600Y204151D01*
X390630Y204041D01*
X390655Y203931D01*
X390677Y203820D01*
X390694Y203708D01*
X390708Y203595D01*
X390718Y203482D01*
X390724Y203369D01*
X390726Y203256D01*
X390724Y203143D01*
X390718Y203030D01*
X390708Y202917D01*
X390694Y202804D01*
X390677Y202692D01*
X390655Y202581D01*
X390630Y202471D01*
X390600Y202361D01*
X390567Y202253D01*
X390530Y202146D01*
X390490Y202040D01*
X390445Y201936D01*
X390397Y201833D01*
X390346Y201732D01*
X390291Y201633D01*
X390233Y201536D01*
X390171Y201441D01*
X390106Y201348D01*
X390038Y201258D01*
X389967Y201170D01*
X389892Y201084D01*
X389815Y201001D01*
X389735Y200921D01*
X389652Y200844D01*
X389566Y200769D01*
X389478Y200698D01*
X389388Y200630D01*
X389295Y200565D01*
X389200Y200503D01*
X389103Y200445D01*
X389004Y200390D01*
X388903Y200339D01*
X388800Y200291D01*
X388696Y200246D01*
X388590Y200206D01*
X388483Y200169D01*
X388375Y200136D01*
X388265Y200106D01*
X388155Y200081D01*
X388044Y200059D01*
X387932Y200042D01*
X387819Y200028D01*
X387706Y200018D01*
X387593Y200012D01*
X387480Y200010D01*
X387480Y200011D02*
X384235Y200011D01*
X388129Y200011D02*
X390726Y194818D01*
X395591Y201309D02*
X399486Y201309D01*
X399585Y201307D01*
X399685Y201301D01*
X399784Y201292D01*
X399882Y201279D01*
X399980Y201262D01*
X400078Y201241D01*
X400174Y201216D01*
X400269Y201188D01*
X400363Y201156D01*
X400456Y201121D01*
X400548Y201082D01*
X400638Y201039D01*
X400726Y200994D01*
X400813Y200944D01*
X400897Y200892D01*
X400980Y200836D01*
X401060Y200778D01*
X401138Y200716D01*
X401213Y200651D01*
X401286Y200583D01*
X401356Y200513D01*
X401424Y200440D01*
X401489Y200365D01*
X401551Y200287D01*
X401609Y200207D01*
X401665Y200124D01*
X401717Y200040D01*
X401767Y199953D01*
X401812Y199865D01*
X401855Y199775D01*
X401894Y199683D01*
X401929Y199590D01*
X401961Y199496D01*
X401989Y199401D01*
X402014Y199305D01*
X402035Y199207D01*
X402052Y199109D01*
X402065Y199011D01*
X402074Y198912D01*
X402080Y198812D01*
X402082Y198713D01*
X402082Y198064D01*
X402080Y197951D01*
X402074Y197838D01*
X402064Y197725D01*
X402050Y197612D01*
X402033Y197500D01*
X402011Y197389D01*
X401986Y197279D01*
X401956Y197169D01*
X401923Y197061D01*
X401886Y196954D01*
X401846Y196848D01*
X401801Y196744D01*
X401753Y196641D01*
X401702Y196540D01*
X401647Y196441D01*
X401589Y196344D01*
X401527Y196249D01*
X401462Y196156D01*
X401394Y196066D01*
X401323Y195978D01*
X401248Y195892D01*
X401171Y195809D01*
X401091Y195729D01*
X401008Y195652D01*
X400922Y195577D01*
X400834Y195506D01*
X400744Y195438D01*
X400651Y195373D01*
X400556Y195311D01*
X400459Y195253D01*
X400360Y195198D01*
X400259Y195147D01*
X400156Y195099D01*
X400052Y195054D01*
X399946Y195014D01*
X399839Y194977D01*
X399731Y194944D01*
X399621Y194914D01*
X399511Y194889D01*
X399400Y194867D01*
X399288Y194850D01*
X399175Y194836D01*
X399062Y194826D01*
X398949Y194820D01*
X398836Y194818D01*
X398723Y194820D01*
X398610Y194826D01*
X398497Y194836D01*
X398384Y194850D01*
X398272Y194867D01*
X398161Y194889D01*
X398051Y194914D01*
X397941Y194944D01*
X397833Y194977D01*
X397726Y195014D01*
X397620Y195054D01*
X397516Y195099D01*
X397413Y195147D01*
X397312Y195198D01*
X397213Y195253D01*
X397116Y195311D01*
X397021Y195373D01*
X396928Y195438D01*
X396838Y195506D01*
X396750Y195577D01*
X396664Y195652D01*
X396581Y195729D01*
X396501Y195809D01*
X396424Y195892D01*
X396349Y195978D01*
X396278Y196066D01*
X396210Y196156D01*
X396145Y196249D01*
X396083Y196344D01*
X396025Y196441D01*
X395970Y196540D01*
X395919Y196641D01*
X395871Y196744D01*
X395826Y196848D01*
X395786Y196954D01*
X395749Y197061D01*
X395716Y197169D01*
X395686Y197279D01*
X395661Y197389D01*
X395639Y197500D01*
X395622Y197612D01*
X395608Y197725D01*
X395598Y197838D01*
X395592Y197951D01*
X395590Y198064D01*
X395591Y198064D02*
X395591Y201309D01*
X395593Y201452D01*
X395599Y201595D01*
X395609Y201738D01*
X395623Y201880D01*
X395640Y202022D01*
X395662Y202164D01*
X395687Y202305D01*
X395717Y202445D01*
X395750Y202584D01*
X395787Y202722D01*
X395828Y202859D01*
X395872Y202995D01*
X395921Y203130D01*
X395973Y203263D01*
X396028Y203395D01*
X396088Y203525D01*
X396151Y203654D01*
X396217Y203781D01*
X396287Y203905D01*
X396360Y204028D01*
X396437Y204149D01*
X396517Y204268D01*
X396600Y204384D01*
X396686Y204499D01*
X396775Y204610D01*
X396868Y204720D01*
X396963Y204826D01*
X397062Y204930D01*
X397163Y205031D01*
X397267Y205130D01*
X397373Y205225D01*
X397483Y205318D01*
X397594Y205407D01*
X397709Y205493D01*
X397825Y205576D01*
X397944Y205656D01*
X398065Y205733D01*
X398187Y205806D01*
X398312Y205876D01*
X398439Y205942D01*
X398568Y206005D01*
X398698Y206065D01*
X398830Y206120D01*
X398963Y206172D01*
X399098Y206221D01*
X399234Y206265D01*
X399371Y206306D01*
X399509Y206343D01*
X399648Y206376D01*
X399788Y206406D01*
X399929Y206431D01*
X400071Y206453D01*
X400213Y206470D01*
X400355Y206484D01*
X400498Y206494D01*
X400641Y206500D01*
X400784Y206502D01*
D14*
X438800Y79140D02*
X438800Y69640D01*
X438800Y79140D02*
X424800Y79140D01*
X438800Y57360D02*
X438800Y47860D01*
X424800Y47860D01*
D20*
X406800Y73500D02*
X406802Y73563D01*
X406808Y73625D01*
X406818Y73687D01*
X406831Y73749D01*
X406849Y73809D01*
X406870Y73868D01*
X406895Y73926D01*
X406924Y73982D01*
X406956Y74036D01*
X406991Y74088D01*
X407029Y74137D01*
X407071Y74185D01*
X407115Y74229D01*
X407163Y74271D01*
X407212Y74309D01*
X407264Y74344D01*
X407318Y74376D01*
X407374Y74405D01*
X407432Y74430D01*
X407491Y74451D01*
X407551Y74469D01*
X407613Y74482D01*
X407675Y74492D01*
X407737Y74498D01*
X407800Y74500D01*
X407863Y74498D01*
X407925Y74492D01*
X407987Y74482D01*
X408049Y74469D01*
X408109Y74451D01*
X408168Y74430D01*
X408226Y74405D01*
X408282Y74376D01*
X408336Y74344D01*
X408388Y74309D01*
X408437Y74271D01*
X408485Y74229D01*
X408529Y74185D01*
X408571Y74137D01*
X408609Y74088D01*
X408644Y74036D01*
X408676Y73982D01*
X408705Y73926D01*
X408730Y73868D01*
X408751Y73809D01*
X408769Y73749D01*
X408782Y73687D01*
X408792Y73625D01*
X408798Y73563D01*
X408800Y73500D01*
X408798Y73437D01*
X408792Y73375D01*
X408782Y73313D01*
X408769Y73251D01*
X408751Y73191D01*
X408730Y73132D01*
X408705Y73074D01*
X408676Y73018D01*
X408644Y72964D01*
X408609Y72912D01*
X408571Y72863D01*
X408529Y72815D01*
X408485Y72771D01*
X408437Y72729D01*
X408388Y72691D01*
X408336Y72656D01*
X408282Y72624D01*
X408226Y72595D01*
X408168Y72570D01*
X408109Y72549D01*
X408049Y72531D01*
X407987Y72518D01*
X407925Y72508D01*
X407863Y72502D01*
X407800Y72500D01*
X407737Y72502D01*
X407675Y72508D01*
X407613Y72518D01*
X407551Y72531D01*
X407491Y72549D01*
X407432Y72570D01*
X407374Y72595D01*
X407318Y72624D01*
X407264Y72656D01*
X407212Y72691D01*
X407163Y72729D01*
X407115Y72771D01*
X407071Y72815D01*
X407029Y72863D01*
X406991Y72912D01*
X406956Y72964D01*
X406924Y73018D01*
X406895Y73074D01*
X406870Y73132D01*
X406849Y73191D01*
X406831Y73251D01*
X406818Y73313D01*
X406808Y73375D01*
X406802Y73437D01*
X406800Y73500D01*
D12*
X406908Y92654D02*
X406908Y97846D01*
X406910Y97959D01*
X406916Y98072D01*
X406926Y98185D01*
X406940Y98298D01*
X406957Y98410D01*
X406979Y98521D01*
X407004Y98631D01*
X407034Y98741D01*
X407067Y98849D01*
X407104Y98956D01*
X407144Y99062D01*
X407189Y99166D01*
X407237Y99269D01*
X407288Y99370D01*
X407343Y99469D01*
X407401Y99566D01*
X407463Y99661D01*
X407528Y99754D01*
X407596Y99844D01*
X407667Y99932D01*
X407742Y100018D01*
X407819Y100101D01*
X407899Y100181D01*
X407982Y100258D01*
X408068Y100333D01*
X408156Y100404D01*
X408246Y100472D01*
X408339Y100537D01*
X408434Y100599D01*
X408531Y100657D01*
X408630Y100712D01*
X408731Y100763D01*
X408834Y100811D01*
X408938Y100856D01*
X409044Y100896D01*
X409151Y100933D01*
X409259Y100966D01*
X409369Y100996D01*
X409479Y101021D01*
X409590Y101043D01*
X409702Y101060D01*
X409815Y101074D01*
X409928Y101084D01*
X410041Y101090D01*
X410154Y101092D01*
X410267Y101090D01*
X410380Y101084D01*
X410493Y101074D01*
X410606Y101060D01*
X410718Y101043D01*
X410829Y101021D01*
X410939Y100996D01*
X411049Y100966D01*
X411157Y100933D01*
X411264Y100896D01*
X411370Y100856D01*
X411474Y100811D01*
X411577Y100763D01*
X411678Y100712D01*
X411777Y100657D01*
X411874Y100599D01*
X411969Y100537D01*
X412062Y100472D01*
X412152Y100404D01*
X412240Y100333D01*
X412326Y100258D01*
X412409Y100181D01*
X412489Y100101D01*
X412566Y100018D01*
X412641Y99932D01*
X412712Y99844D01*
X412780Y99754D01*
X412845Y99661D01*
X412907Y99566D01*
X412965Y99469D01*
X413020Y99370D01*
X413071Y99269D01*
X413119Y99166D01*
X413164Y99062D01*
X413204Y98956D01*
X413241Y98849D01*
X413274Y98741D01*
X413304Y98631D01*
X413329Y98521D01*
X413351Y98410D01*
X413368Y98298D01*
X413382Y98185D01*
X413392Y98072D01*
X413398Y97959D01*
X413400Y97846D01*
X413399Y97846D02*
X413399Y92654D01*
X413400Y92654D02*
X413398Y92541D01*
X413392Y92428D01*
X413382Y92315D01*
X413368Y92202D01*
X413351Y92090D01*
X413329Y91979D01*
X413304Y91869D01*
X413274Y91759D01*
X413241Y91651D01*
X413204Y91544D01*
X413164Y91438D01*
X413119Y91334D01*
X413071Y91231D01*
X413020Y91130D01*
X412965Y91031D01*
X412907Y90934D01*
X412845Y90839D01*
X412780Y90746D01*
X412712Y90656D01*
X412641Y90568D01*
X412566Y90482D01*
X412489Y90399D01*
X412409Y90319D01*
X412326Y90242D01*
X412240Y90167D01*
X412152Y90096D01*
X412062Y90028D01*
X411969Y89963D01*
X411874Y89901D01*
X411777Y89843D01*
X411678Y89788D01*
X411577Y89737D01*
X411474Y89689D01*
X411370Y89644D01*
X411264Y89604D01*
X411157Y89567D01*
X411049Y89534D01*
X410939Y89504D01*
X410829Y89479D01*
X410718Y89457D01*
X410606Y89440D01*
X410493Y89426D01*
X410380Y89416D01*
X410267Y89410D01*
X410154Y89408D01*
X410041Y89410D01*
X409928Y89416D01*
X409815Y89426D01*
X409702Y89440D01*
X409590Y89457D01*
X409479Y89479D01*
X409369Y89504D01*
X409259Y89534D01*
X409151Y89567D01*
X409044Y89604D01*
X408938Y89644D01*
X408834Y89689D01*
X408731Y89737D01*
X408630Y89788D01*
X408531Y89843D01*
X408434Y89901D01*
X408339Y89963D01*
X408246Y90028D01*
X408156Y90096D01*
X408068Y90167D01*
X407982Y90242D01*
X407899Y90319D01*
X407819Y90399D01*
X407742Y90482D01*
X407667Y90568D01*
X407596Y90656D01*
X407528Y90746D01*
X407463Y90839D01*
X407401Y90934D01*
X407343Y91031D01*
X407288Y91130D01*
X407237Y91231D01*
X407189Y91334D01*
X407144Y91438D01*
X407104Y91544D01*
X407067Y91651D01*
X407034Y91759D01*
X407004Y91869D01*
X406979Y91979D01*
X406957Y92090D01*
X406940Y92202D01*
X406926Y92315D01*
X406916Y92428D01*
X406910Y92541D01*
X406908Y92654D01*
X412101Y92004D02*
X414697Y89408D01*
X424543Y98171D02*
X424541Y98278D01*
X424535Y98384D01*
X424525Y98490D01*
X424512Y98596D01*
X424494Y98702D01*
X424473Y98806D01*
X424448Y98910D01*
X424419Y99013D01*
X424387Y99114D01*
X424350Y99214D01*
X424310Y99313D01*
X424267Y99411D01*
X424220Y99507D01*
X424169Y99601D01*
X424115Y99693D01*
X424058Y99783D01*
X423998Y99871D01*
X423934Y99956D01*
X423867Y100039D01*
X423797Y100120D01*
X423725Y100198D01*
X423649Y100274D01*
X423571Y100346D01*
X423490Y100416D01*
X423407Y100483D01*
X423322Y100547D01*
X423234Y100607D01*
X423144Y100664D01*
X423052Y100718D01*
X422958Y100769D01*
X422862Y100816D01*
X422764Y100859D01*
X422665Y100899D01*
X422565Y100936D01*
X422464Y100968D01*
X422361Y100997D01*
X422257Y101022D01*
X422153Y101043D01*
X422047Y101061D01*
X421941Y101074D01*
X421835Y101084D01*
X421729Y101090D01*
X421622Y101092D01*
X421501Y101090D01*
X421380Y101084D01*
X421260Y101074D01*
X421139Y101061D01*
X421020Y101043D01*
X420900Y101022D01*
X420782Y100997D01*
X420665Y100968D01*
X420548Y100935D01*
X420433Y100899D01*
X420319Y100858D01*
X420206Y100815D01*
X420094Y100767D01*
X419985Y100716D01*
X419877Y100661D01*
X419770Y100603D01*
X419666Y100542D01*
X419564Y100477D01*
X419464Y100409D01*
X419366Y100338D01*
X419270Y100264D01*
X419177Y100187D01*
X419087Y100106D01*
X418999Y100023D01*
X418914Y99937D01*
X418831Y99848D01*
X418752Y99757D01*
X418675Y99663D01*
X418602Y99567D01*
X418532Y99469D01*
X418465Y99368D01*
X418401Y99265D01*
X418341Y99160D01*
X418284Y99053D01*
X418230Y98945D01*
X418180Y98835D01*
X418134Y98723D01*
X418091Y98610D01*
X418052Y98495D01*
X423569Y95899D02*
X423648Y95976D01*
X423724Y96057D01*
X423797Y96140D01*
X423867Y96225D01*
X423934Y96313D01*
X423998Y96403D01*
X424058Y96495D01*
X424115Y96590D01*
X424169Y96686D01*
X424220Y96784D01*
X424267Y96884D01*
X424311Y96986D01*
X424351Y97089D01*
X424387Y97193D01*
X424419Y97299D01*
X424448Y97405D01*
X424473Y97513D01*
X424495Y97621D01*
X424512Y97731D01*
X424526Y97840D01*
X424535Y97950D01*
X424541Y98061D01*
X424543Y98171D01*
X423569Y95899D02*
X418052Y89408D01*
X424543Y89408D01*
D14*
X349900Y79140D02*
X349900Y69640D01*
X349900Y79140D02*
X335900Y79140D01*
X349900Y57360D02*
X349900Y47860D01*
X335900Y47860D01*
D20*
X317900Y73500D02*
X317902Y73563D01*
X317908Y73625D01*
X317918Y73687D01*
X317931Y73749D01*
X317949Y73809D01*
X317970Y73868D01*
X317995Y73926D01*
X318024Y73982D01*
X318056Y74036D01*
X318091Y74088D01*
X318129Y74137D01*
X318171Y74185D01*
X318215Y74229D01*
X318263Y74271D01*
X318312Y74309D01*
X318364Y74344D01*
X318418Y74376D01*
X318474Y74405D01*
X318532Y74430D01*
X318591Y74451D01*
X318651Y74469D01*
X318713Y74482D01*
X318775Y74492D01*
X318837Y74498D01*
X318900Y74500D01*
X318963Y74498D01*
X319025Y74492D01*
X319087Y74482D01*
X319149Y74469D01*
X319209Y74451D01*
X319268Y74430D01*
X319326Y74405D01*
X319382Y74376D01*
X319436Y74344D01*
X319488Y74309D01*
X319537Y74271D01*
X319585Y74229D01*
X319629Y74185D01*
X319671Y74137D01*
X319709Y74088D01*
X319744Y74036D01*
X319776Y73982D01*
X319805Y73926D01*
X319830Y73868D01*
X319851Y73809D01*
X319869Y73749D01*
X319882Y73687D01*
X319892Y73625D01*
X319898Y73563D01*
X319900Y73500D01*
X319898Y73437D01*
X319892Y73375D01*
X319882Y73313D01*
X319869Y73251D01*
X319851Y73191D01*
X319830Y73132D01*
X319805Y73074D01*
X319776Y73018D01*
X319744Y72964D01*
X319709Y72912D01*
X319671Y72863D01*
X319629Y72815D01*
X319585Y72771D01*
X319537Y72729D01*
X319488Y72691D01*
X319436Y72656D01*
X319382Y72624D01*
X319326Y72595D01*
X319268Y72570D01*
X319209Y72549D01*
X319149Y72531D01*
X319087Y72518D01*
X319025Y72508D01*
X318963Y72502D01*
X318900Y72500D01*
X318837Y72502D01*
X318775Y72508D01*
X318713Y72518D01*
X318651Y72531D01*
X318591Y72549D01*
X318532Y72570D01*
X318474Y72595D01*
X318418Y72624D01*
X318364Y72656D01*
X318312Y72691D01*
X318263Y72729D01*
X318215Y72771D01*
X318171Y72815D01*
X318129Y72863D01*
X318091Y72912D01*
X318056Y72964D01*
X318024Y73018D01*
X317995Y73074D01*
X317970Y73132D01*
X317949Y73191D01*
X317931Y73251D01*
X317918Y73313D01*
X317908Y73375D01*
X317902Y73437D01*
X317900Y73500D01*
D12*
X318008Y92654D02*
X318008Y97846D01*
X318010Y97959D01*
X318016Y98072D01*
X318026Y98185D01*
X318040Y98298D01*
X318057Y98410D01*
X318079Y98521D01*
X318104Y98631D01*
X318134Y98741D01*
X318167Y98849D01*
X318204Y98956D01*
X318244Y99062D01*
X318289Y99166D01*
X318337Y99269D01*
X318388Y99370D01*
X318443Y99469D01*
X318501Y99566D01*
X318563Y99661D01*
X318628Y99754D01*
X318696Y99844D01*
X318767Y99932D01*
X318842Y100018D01*
X318919Y100101D01*
X318999Y100181D01*
X319082Y100258D01*
X319168Y100333D01*
X319256Y100404D01*
X319346Y100472D01*
X319439Y100537D01*
X319534Y100599D01*
X319631Y100657D01*
X319730Y100712D01*
X319831Y100763D01*
X319934Y100811D01*
X320038Y100856D01*
X320144Y100896D01*
X320251Y100933D01*
X320359Y100966D01*
X320469Y100996D01*
X320579Y101021D01*
X320690Y101043D01*
X320802Y101060D01*
X320915Y101074D01*
X321028Y101084D01*
X321141Y101090D01*
X321254Y101092D01*
X321367Y101090D01*
X321480Y101084D01*
X321593Y101074D01*
X321706Y101060D01*
X321818Y101043D01*
X321929Y101021D01*
X322039Y100996D01*
X322149Y100966D01*
X322257Y100933D01*
X322364Y100896D01*
X322470Y100856D01*
X322574Y100811D01*
X322677Y100763D01*
X322778Y100712D01*
X322877Y100657D01*
X322974Y100599D01*
X323069Y100537D01*
X323162Y100472D01*
X323252Y100404D01*
X323340Y100333D01*
X323426Y100258D01*
X323509Y100181D01*
X323589Y100101D01*
X323666Y100018D01*
X323741Y99932D01*
X323812Y99844D01*
X323880Y99754D01*
X323945Y99661D01*
X324007Y99566D01*
X324065Y99469D01*
X324120Y99370D01*
X324171Y99269D01*
X324219Y99166D01*
X324264Y99062D01*
X324304Y98956D01*
X324341Y98849D01*
X324374Y98741D01*
X324404Y98631D01*
X324429Y98521D01*
X324451Y98410D01*
X324468Y98298D01*
X324482Y98185D01*
X324492Y98072D01*
X324498Y97959D01*
X324500Y97846D01*
X324499Y97846D02*
X324499Y92654D01*
X324500Y92654D02*
X324498Y92541D01*
X324492Y92428D01*
X324482Y92315D01*
X324468Y92202D01*
X324451Y92090D01*
X324429Y91979D01*
X324404Y91869D01*
X324374Y91759D01*
X324341Y91651D01*
X324304Y91544D01*
X324264Y91438D01*
X324219Y91334D01*
X324171Y91231D01*
X324120Y91130D01*
X324065Y91031D01*
X324007Y90934D01*
X323945Y90839D01*
X323880Y90746D01*
X323812Y90656D01*
X323741Y90568D01*
X323666Y90482D01*
X323589Y90399D01*
X323509Y90319D01*
X323426Y90242D01*
X323340Y90167D01*
X323252Y90096D01*
X323162Y90028D01*
X323069Y89963D01*
X322974Y89901D01*
X322877Y89843D01*
X322778Y89788D01*
X322677Y89737D01*
X322574Y89689D01*
X322470Y89644D01*
X322364Y89604D01*
X322257Y89567D01*
X322149Y89534D01*
X322039Y89504D01*
X321929Y89479D01*
X321818Y89457D01*
X321706Y89440D01*
X321593Y89426D01*
X321480Y89416D01*
X321367Y89410D01*
X321254Y89408D01*
X321141Y89410D01*
X321028Y89416D01*
X320915Y89426D01*
X320802Y89440D01*
X320690Y89457D01*
X320579Y89479D01*
X320469Y89504D01*
X320359Y89534D01*
X320251Y89567D01*
X320144Y89604D01*
X320038Y89644D01*
X319934Y89689D01*
X319831Y89737D01*
X319730Y89788D01*
X319631Y89843D01*
X319534Y89901D01*
X319439Y89963D01*
X319346Y90028D01*
X319256Y90096D01*
X319168Y90167D01*
X319082Y90242D01*
X318999Y90319D01*
X318919Y90399D01*
X318842Y90482D01*
X318767Y90568D01*
X318696Y90656D01*
X318628Y90746D01*
X318563Y90839D01*
X318501Y90934D01*
X318443Y91031D01*
X318388Y91130D01*
X318337Y91231D01*
X318289Y91334D01*
X318244Y91438D01*
X318204Y91544D01*
X318167Y91651D01*
X318134Y91759D01*
X318104Y91869D01*
X318079Y91979D01*
X318057Y92090D01*
X318040Y92202D01*
X318026Y92315D01*
X318016Y92428D01*
X318010Y92541D01*
X318008Y92654D01*
X323201Y92004D02*
X325797Y89408D01*
X329152Y89408D02*
X332397Y89408D01*
X332510Y89410D01*
X332623Y89416D01*
X332736Y89426D01*
X332849Y89440D01*
X332961Y89457D01*
X333072Y89479D01*
X333182Y89504D01*
X333292Y89534D01*
X333400Y89567D01*
X333507Y89604D01*
X333613Y89644D01*
X333717Y89689D01*
X333820Y89737D01*
X333921Y89788D01*
X334020Y89843D01*
X334117Y89901D01*
X334212Y89963D01*
X334305Y90028D01*
X334395Y90096D01*
X334483Y90167D01*
X334569Y90242D01*
X334652Y90319D01*
X334732Y90399D01*
X334809Y90482D01*
X334884Y90568D01*
X334955Y90656D01*
X335023Y90746D01*
X335088Y90839D01*
X335150Y90934D01*
X335208Y91031D01*
X335263Y91130D01*
X335314Y91231D01*
X335362Y91334D01*
X335407Y91438D01*
X335447Y91544D01*
X335484Y91651D01*
X335517Y91759D01*
X335547Y91869D01*
X335572Y91979D01*
X335594Y92090D01*
X335611Y92202D01*
X335625Y92315D01*
X335635Y92428D01*
X335641Y92541D01*
X335643Y92654D01*
X335641Y92767D01*
X335635Y92880D01*
X335625Y92993D01*
X335611Y93106D01*
X335594Y93218D01*
X335572Y93329D01*
X335547Y93439D01*
X335517Y93549D01*
X335484Y93657D01*
X335447Y93764D01*
X335407Y93870D01*
X335362Y93974D01*
X335314Y94077D01*
X335263Y94178D01*
X335208Y94277D01*
X335150Y94374D01*
X335088Y94469D01*
X335023Y94562D01*
X334955Y94652D01*
X334884Y94740D01*
X334809Y94826D01*
X334732Y94909D01*
X334652Y94989D01*
X334569Y95066D01*
X334483Y95141D01*
X334395Y95212D01*
X334305Y95280D01*
X334212Y95345D01*
X334117Y95407D01*
X334020Y95465D01*
X333921Y95520D01*
X333820Y95571D01*
X333717Y95619D01*
X333613Y95664D01*
X333507Y95704D01*
X333400Y95741D01*
X333292Y95774D01*
X333182Y95804D01*
X333072Y95829D01*
X332961Y95851D01*
X332849Y95868D01*
X332736Y95882D01*
X332623Y95892D01*
X332510Y95898D01*
X332397Y95900D01*
X333047Y101092D02*
X329152Y101092D01*
X333047Y101092D02*
X333148Y101090D01*
X333248Y101084D01*
X333348Y101074D01*
X333448Y101061D01*
X333547Y101043D01*
X333646Y101022D01*
X333743Y100997D01*
X333840Y100968D01*
X333935Y100935D01*
X334029Y100899D01*
X334121Y100859D01*
X334212Y100816D01*
X334301Y100769D01*
X334388Y100719D01*
X334474Y100665D01*
X334557Y100608D01*
X334637Y100548D01*
X334716Y100485D01*
X334792Y100418D01*
X334865Y100349D01*
X334935Y100277D01*
X335003Y100203D01*
X335068Y100126D01*
X335129Y100046D01*
X335188Y99964D01*
X335243Y99880D01*
X335295Y99794D01*
X335344Y99706D01*
X335389Y99616D01*
X335431Y99524D01*
X335469Y99431D01*
X335503Y99336D01*
X335534Y99241D01*
X335561Y99144D01*
X335584Y99046D01*
X335604Y98947D01*
X335619Y98847D01*
X335631Y98747D01*
X335639Y98647D01*
X335643Y98546D01*
X335643Y98446D01*
X335639Y98345D01*
X335631Y98245D01*
X335619Y98145D01*
X335604Y98045D01*
X335584Y97946D01*
X335561Y97848D01*
X335534Y97751D01*
X335503Y97656D01*
X335469Y97561D01*
X335431Y97468D01*
X335389Y97376D01*
X335344Y97286D01*
X335295Y97198D01*
X335243Y97112D01*
X335188Y97028D01*
X335129Y96946D01*
X335068Y96866D01*
X335003Y96789D01*
X334935Y96715D01*
X334865Y96643D01*
X334792Y96574D01*
X334716Y96507D01*
X334637Y96444D01*
X334557Y96384D01*
X334474Y96327D01*
X334388Y96273D01*
X334301Y96223D01*
X334212Y96176D01*
X334121Y96133D01*
X334029Y96093D01*
X333935Y96057D01*
X333840Y96024D01*
X333743Y95995D01*
X333646Y95970D01*
X333547Y95949D01*
X333448Y95931D01*
X333348Y95918D01*
X333248Y95908D01*
X333148Y95902D01*
X333047Y95900D01*
X333047Y95899D02*
X330450Y95899D01*
D14*
X261000Y79140D02*
X261000Y69640D01*
X261000Y79140D02*
X247000Y79140D01*
X261000Y57360D02*
X261000Y47860D01*
X247000Y47860D01*
D20*
X229000Y73500D02*
X229002Y73563D01*
X229008Y73625D01*
X229018Y73687D01*
X229031Y73749D01*
X229049Y73809D01*
X229070Y73868D01*
X229095Y73926D01*
X229124Y73982D01*
X229156Y74036D01*
X229191Y74088D01*
X229229Y74137D01*
X229271Y74185D01*
X229315Y74229D01*
X229363Y74271D01*
X229412Y74309D01*
X229464Y74344D01*
X229518Y74376D01*
X229574Y74405D01*
X229632Y74430D01*
X229691Y74451D01*
X229751Y74469D01*
X229813Y74482D01*
X229875Y74492D01*
X229937Y74498D01*
X230000Y74500D01*
X230063Y74498D01*
X230125Y74492D01*
X230187Y74482D01*
X230249Y74469D01*
X230309Y74451D01*
X230368Y74430D01*
X230426Y74405D01*
X230482Y74376D01*
X230536Y74344D01*
X230588Y74309D01*
X230637Y74271D01*
X230685Y74229D01*
X230729Y74185D01*
X230771Y74137D01*
X230809Y74088D01*
X230844Y74036D01*
X230876Y73982D01*
X230905Y73926D01*
X230930Y73868D01*
X230951Y73809D01*
X230969Y73749D01*
X230982Y73687D01*
X230992Y73625D01*
X230998Y73563D01*
X231000Y73500D01*
X230998Y73437D01*
X230992Y73375D01*
X230982Y73313D01*
X230969Y73251D01*
X230951Y73191D01*
X230930Y73132D01*
X230905Y73074D01*
X230876Y73018D01*
X230844Y72964D01*
X230809Y72912D01*
X230771Y72863D01*
X230729Y72815D01*
X230685Y72771D01*
X230637Y72729D01*
X230588Y72691D01*
X230536Y72656D01*
X230482Y72624D01*
X230426Y72595D01*
X230368Y72570D01*
X230309Y72549D01*
X230249Y72531D01*
X230187Y72518D01*
X230125Y72508D01*
X230063Y72502D01*
X230000Y72500D01*
X229937Y72502D01*
X229875Y72508D01*
X229813Y72518D01*
X229751Y72531D01*
X229691Y72549D01*
X229632Y72570D01*
X229574Y72595D01*
X229518Y72624D01*
X229464Y72656D01*
X229412Y72691D01*
X229363Y72729D01*
X229315Y72771D01*
X229271Y72815D01*
X229229Y72863D01*
X229191Y72912D01*
X229156Y72964D01*
X229124Y73018D01*
X229095Y73074D01*
X229070Y73132D01*
X229049Y73191D01*
X229031Y73251D01*
X229018Y73313D01*
X229008Y73375D01*
X229002Y73437D01*
X229000Y73500D01*
D12*
X229108Y92654D02*
X229108Y97846D01*
X229110Y97959D01*
X229116Y98072D01*
X229126Y98185D01*
X229140Y98298D01*
X229157Y98410D01*
X229179Y98521D01*
X229204Y98631D01*
X229234Y98741D01*
X229267Y98849D01*
X229304Y98956D01*
X229344Y99062D01*
X229389Y99166D01*
X229437Y99269D01*
X229488Y99370D01*
X229543Y99469D01*
X229601Y99566D01*
X229663Y99661D01*
X229728Y99754D01*
X229796Y99844D01*
X229867Y99932D01*
X229942Y100018D01*
X230019Y100101D01*
X230099Y100181D01*
X230182Y100258D01*
X230268Y100333D01*
X230356Y100404D01*
X230446Y100472D01*
X230539Y100537D01*
X230634Y100599D01*
X230731Y100657D01*
X230830Y100712D01*
X230931Y100763D01*
X231034Y100811D01*
X231138Y100856D01*
X231244Y100896D01*
X231351Y100933D01*
X231459Y100966D01*
X231569Y100996D01*
X231679Y101021D01*
X231790Y101043D01*
X231902Y101060D01*
X232015Y101074D01*
X232128Y101084D01*
X232241Y101090D01*
X232354Y101092D01*
X232467Y101090D01*
X232580Y101084D01*
X232693Y101074D01*
X232806Y101060D01*
X232918Y101043D01*
X233029Y101021D01*
X233139Y100996D01*
X233249Y100966D01*
X233357Y100933D01*
X233464Y100896D01*
X233570Y100856D01*
X233674Y100811D01*
X233777Y100763D01*
X233878Y100712D01*
X233977Y100657D01*
X234074Y100599D01*
X234169Y100537D01*
X234262Y100472D01*
X234352Y100404D01*
X234440Y100333D01*
X234526Y100258D01*
X234609Y100181D01*
X234689Y100101D01*
X234766Y100018D01*
X234841Y99932D01*
X234912Y99844D01*
X234980Y99754D01*
X235045Y99661D01*
X235107Y99566D01*
X235165Y99469D01*
X235220Y99370D01*
X235271Y99269D01*
X235319Y99166D01*
X235364Y99062D01*
X235404Y98956D01*
X235441Y98849D01*
X235474Y98741D01*
X235504Y98631D01*
X235529Y98521D01*
X235551Y98410D01*
X235568Y98298D01*
X235582Y98185D01*
X235592Y98072D01*
X235598Y97959D01*
X235600Y97846D01*
X235599Y97846D02*
X235599Y92654D01*
X235600Y92654D02*
X235598Y92541D01*
X235592Y92428D01*
X235582Y92315D01*
X235568Y92202D01*
X235551Y92090D01*
X235529Y91979D01*
X235504Y91869D01*
X235474Y91759D01*
X235441Y91651D01*
X235404Y91544D01*
X235364Y91438D01*
X235319Y91334D01*
X235271Y91231D01*
X235220Y91130D01*
X235165Y91031D01*
X235107Y90934D01*
X235045Y90839D01*
X234980Y90746D01*
X234912Y90656D01*
X234841Y90568D01*
X234766Y90482D01*
X234689Y90399D01*
X234609Y90319D01*
X234526Y90242D01*
X234440Y90167D01*
X234352Y90096D01*
X234262Y90028D01*
X234169Y89963D01*
X234074Y89901D01*
X233977Y89843D01*
X233878Y89788D01*
X233777Y89737D01*
X233674Y89689D01*
X233570Y89644D01*
X233464Y89604D01*
X233357Y89567D01*
X233249Y89534D01*
X233139Y89504D01*
X233029Y89479D01*
X232918Y89457D01*
X232806Y89440D01*
X232693Y89426D01*
X232580Y89416D01*
X232467Y89410D01*
X232354Y89408D01*
X232241Y89410D01*
X232128Y89416D01*
X232015Y89426D01*
X231902Y89440D01*
X231790Y89457D01*
X231679Y89479D01*
X231569Y89504D01*
X231459Y89534D01*
X231351Y89567D01*
X231244Y89604D01*
X231138Y89644D01*
X231034Y89689D01*
X230931Y89737D01*
X230830Y89788D01*
X230731Y89843D01*
X230634Y89901D01*
X230539Y89963D01*
X230446Y90028D01*
X230356Y90096D01*
X230268Y90167D01*
X230182Y90242D01*
X230099Y90319D01*
X230019Y90399D01*
X229942Y90482D01*
X229867Y90568D01*
X229796Y90656D01*
X229728Y90746D01*
X229663Y90839D01*
X229601Y90934D01*
X229543Y91031D01*
X229488Y91130D01*
X229437Y91231D01*
X229389Y91334D01*
X229344Y91438D01*
X229304Y91544D01*
X229267Y91651D01*
X229234Y91759D01*
X229204Y91869D01*
X229179Y91979D01*
X229157Y92090D01*
X229140Y92202D01*
X229126Y92315D01*
X229116Y92428D01*
X229110Y92541D01*
X229108Y92654D01*
X234301Y92004D02*
X236897Y89408D01*
X240252Y92004D02*
X242848Y101092D01*
X240252Y92004D02*
X246743Y92004D01*
X244796Y94601D02*
X244796Y89408D01*
X271018Y118618D02*
X282702Y118618D01*
X271018Y118618D02*
X271018Y121864D01*
X271020Y121977D01*
X271026Y122090D01*
X271036Y122203D01*
X271050Y122316D01*
X271067Y122428D01*
X271089Y122539D01*
X271114Y122649D01*
X271144Y122759D01*
X271177Y122867D01*
X271214Y122974D01*
X271254Y123080D01*
X271299Y123184D01*
X271347Y123287D01*
X271398Y123388D01*
X271453Y123487D01*
X271511Y123584D01*
X271573Y123679D01*
X271638Y123772D01*
X271706Y123862D01*
X271777Y123950D01*
X271852Y124036D01*
X271929Y124119D01*
X272009Y124199D01*
X272092Y124276D01*
X272178Y124351D01*
X272266Y124422D01*
X272356Y124490D01*
X272449Y124555D01*
X272544Y124617D01*
X272641Y124675D01*
X272740Y124730D01*
X272841Y124781D01*
X272944Y124829D01*
X273048Y124874D01*
X273154Y124914D01*
X273261Y124951D01*
X273369Y124984D01*
X273479Y125014D01*
X273589Y125039D01*
X273700Y125061D01*
X273812Y125078D01*
X273925Y125092D01*
X274038Y125102D01*
X274151Y125108D01*
X274264Y125110D01*
X274377Y125108D01*
X274490Y125102D01*
X274603Y125092D01*
X274716Y125078D01*
X274828Y125061D01*
X274939Y125039D01*
X275049Y125014D01*
X275159Y124984D01*
X275267Y124951D01*
X275374Y124914D01*
X275480Y124874D01*
X275584Y124829D01*
X275687Y124781D01*
X275788Y124730D01*
X275887Y124675D01*
X275984Y124617D01*
X276079Y124555D01*
X276172Y124490D01*
X276262Y124422D01*
X276350Y124351D01*
X276436Y124276D01*
X276519Y124199D01*
X276599Y124119D01*
X276676Y124036D01*
X276751Y123950D01*
X276822Y123862D01*
X276890Y123772D01*
X276955Y123679D01*
X277017Y123584D01*
X277075Y123487D01*
X277130Y123388D01*
X277181Y123287D01*
X277229Y123184D01*
X277274Y123080D01*
X277314Y122974D01*
X277351Y122867D01*
X277384Y122759D01*
X277414Y122649D01*
X277439Y122539D01*
X277461Y122428D01*
X277478Y122316D01*
X277492Y122203D01*
X277502Y122090D01*
X277508Y121977D01*
X277510Y121864D01*
X277509Y121864D02*
X277509Y118618D01*
X277509Y122513D02*
X282702Y125109D01*
X272316Y129974D02*
X271018Y129974D01*
X271018Y136465D01*
X282702Y133220D01*
D20*
X244300Y166900D02*
X238300Y166900D01*
X244300Y166900D02*
X244300Y137900D01*
X238300Y137900D01*
X238300Y166900D01*
X234800Y167400D02*
X222800Y167400D01*
D12*
X205592Y107442D02*
X205592Y95758D01*
X204294Y95758D02*
X206890Y95758D01*
X206890Y107442D02*
X204294Y107442D01*
X214054Y95758D02*
X216650Y95758D01*
X214054Y95758D02*
X213955Y95760D01*
X213855Y95766D01*
X213756Y95775D01*
X213658Y95788D01*
X213560Y95805D01*
X213462Y95826D01*
X213366Y95851D01*
X213271Y95879D01*
X213177Y95911D01*
X213084Y95946D01*
X212992Y95985D01*
X212902Y96028D01*
X212814Y96073D01*
X212727Y96123D01*
X212643Y96175D01*
X212560Y96231D01*
X212480Y96289D01*
X212402Y96351D01*
X212327Y96416D01*
X212254Y96484D01*
X212184Y96554D01*
X212116Y96627D01*
X212051Y96702D01*
X211989Y96780D01*
X211931Y96860D01*
X211875Y96943D01*
X211823Y97027D01*
X211773Y97114D01*
X211728Y97202D01*
X211685Y97292D01*
X211646Y97384D01*
X211611Y97477D01*
X211579Y97571D01*
X211551Y97666D01*
X211526Y97762D01*
X211505Y97860D01*
X211488Y97958D01*
X211475Y98056D01*
X211466Y98155D01*
X211460Y98255D01*
X211458Y98354D01*
X211457Y98354D02*
X211457Y104846D01*
X211458Y104846D02*
X211460Y104945D01*
X211466Y105045D01*
X211475Y105144D01*
X211488Y105242D01*
X211505Y105340D01*
X211526Y105438D01*
X211551Y105534D01*
X211579Y105629D01*
X211611Y105723D01*
X211646Y105816D01*
X211685Y105908D01*
X211728Y105998D01*
X211773Y106086D01*
X211823Y106173D01*
X211875Y106257D01*
X211931Y106340D01*
X211989Y106420D01*
X212051Y106498D01*
X212116Y106573D01*
X212184Y106646D01*
X212254Y106716D01*
X212327Y106784D01*
X212402Y106849D01*
X212480Y106911D01*
X212560Y106969D01*
X212643Y107025D01*
X212727Y107077D01*
X212814Y107127D01*
X212902Y107172D01*
X212992Y107215D01*
X213084Y107254D01*
X213176Y107289D01*
X213271Y107321D01*
X213366Y107349D01*
X213462Y107374D01*
X213560Y107395D01*
X213658Y107412D01*
X213756Y107425D01*
X213855Y107434D01*
X213955Y107440D01*
X214054Y107442D01*
X216650Y107442D01*
X224585Y107442D02*
X224692Y107440D01*
X224798Y107434D01*
X224904Y107424D01*
X225010Y107411D01*
X225116Y107393D01*
X225220Y107372D01*
X225324Y107347D01*
X225427Y107318D01*
X225528Y107286D01*
X225628Y107249D01*
X225727Y107209D01*
X225825Y107166D01*
X225921Y107119D01*
X226015Y107068D01*
X226107Y107014D01*
X226197Y106957D01*
X226285Y106897D01*
X226370Y106833D01*
X226453Y106766D01*
X226534Y106696D01*
X226612Y106624D01*
X226688Y106548D01*
X226760Y106470D01*
X226830Y106389D01*
X226897Y106306D01*
X226961Y106221D01*
X227021Y106133D01*
X227078Y106043D01*
X227132Y105951D01*
X227183Y105857D01*
X227230Y105761D01*
X227273Y105663D01*
X227313Y105564D01*
X227350Y105464D01*
X227382Y105363D01*
X227411Y105260D01*
X227436Y105156D01*
X227457Y105052D01*
X227475Y104946D01*
X227488Y104840D01*
X227498Y104734D01*
X227504Y104628D01*
X227506Y104521D01*
X224585Y107442D02*
X224464Y107440D01*
X224343Y107434D01*
X224223Y107424D01*
X224102Y107411D01*
X223983Y107393D01*
X223863Y107372D01*
X223745Y107347D01*
X223628Y107318D01*
X223511Y107285D01*
X223396Y107249D01*
X223282Y107208D01*
X223169Y107165D01*
X223057Y107117D01*
X222948Y107066D01*
X222840Y107011D01*
X222733Y106953D01*
X222629Y106892D01*
X222527Y106827D01*
X222427Y106759D01*
X222329Y106688D01*
X222233Y106614D01*
X222140Y106537D01*
X222050Y106456D01*
X221962Y106373D01*
X221877Y106287D01*
X221794Y106198D01*
X221715Y106107D01*
X221638Y106013D01*
X221565Y105917D01*
X221495Y105819D01*
X221428Y105718D01*
X221364Y105615D01*
X221304Y105510D01*
X221247Y105403D01*
X221193Y105295D01*
X221143Y105185D01*
X221097Y105073D01*
X221054Y104960D01*
X221015Y104845D01*
X226533Y102249D02*
X226612Y102326D01*
X226688Y102407D01*
X226761Y102490D01*
X226831Y102575D01*
X226898Y102663D01*
X226962Y102753D01*
X227022Y102845D01*
X227079Y102940D01*
X227133Y103036D01*
X227184Y103134D01*
X227231Y103234D01*
X227275Y103336D01*
X227315Y103439D01*
X227351Y103543D01*
X227383Y103649D01*
X227412Y103755D01*
X227437Y103863D01*
X227459Y103971D01*
X227476Y104081D01*
X227490Y104190D01*
X227499Y104300D01*
X227505Y104411D01*
X227507Y104521D01*
X226533Y102249D02*
X221015Y95758D01*
X227506Y95758D01*
M02*
