G04 EAGLE Gerber RS-274X export*
G75*
%MOMM*%
%FSLAX34Y34*%
%LPD*%
%INSolderpaste Top*%
%IPPOS*%
%AMOC8*
5,1,8,0,0,1.08239X$1,22.5*%
G01*
%ADD10R,0.700000X0.900000*%
%ADD11R,1.100000X1.000000*%
%ADD12R,0.910000X1.220000*%
%ADD13R,1.200000X0.600000*%
%ADD14R,1.000000X1.100000*%
%ADD15C,0.292500*%
%ADD16R,1.600000X0.800000*%
%ADD17C,0.470000*%
%ADD18C,0.320000*%
%ADD19R,3.100000X3.100000*%
%ADD20R,1.500000X1.300000*%
%ADD21C,0.075600*%
%ADD22R,0.800000X1.600000*%
%ADD23R,1.155700X0.620000*%
%ADD24R,1.300000X1.500000*%
%ADD25R,1.981200X0.558800*%
%ADD26C,0.300000*%


D10*
X356720Y187960D03*
X369720Y187960D03*
D11*
X207400Y368300D03*
X224400Y368300D03*
D12*
X216035Y285750D03*
X248785Y285750D03*
D13*
X124400Y311150D03*
X124400Y298450D03*
X124400Y285750D03*
X124400Y273050D03*
X180400Y273050D03*
X180400Y285750D03*
X180400Y298450D03*
X180400Y311150D03*
D14*
X240910Y323850D03*
X223910Y323850D03*
D11*
X368300Y118500D03*
X368300Y135500D03*
D14*
X369180Y168910D03*
X352180Y168910D03*
X141850Y251460D03*
X124850Y251460D03*
D15*
X434220Y385224D02*
X434220Y390610D01*
X434220Y390610D01*
X434220Y385224D01*
X434220Y385224D01*
X434220Y388003D02*
X434220Y388003D01*
X429220Y390610D02*
X429220Y385224D01*
X429220Y390610D02*
X429220Y390610D01*
X429220Y385224D01*
X429220Y385224D01*
X429220Y388003D02*
X429220Y388003D01*
X424220Y390610D02*
X424220Y385224D01*
X424220Y390610D02*
X424220Y390610D01*
X424220Y385224D01*
X424220Y385224D01*
X424220Y388003D02*
X424220Y388003D01*
X419220Y390610D02*
X419220Y385224D01*
X419220Y390610D02*
X419220Y390610D01*
X419220Y385224D01*
X419220Y385224D01*
X419220Y388003D02*
X419220Y388003D01*
X419220Y371696D02*
X419220Y366310D01*
X419220Y371696D02*
X419220Y371696D01*
X419220Y366310D01*
X419220Y366310D01*
X419220Y369089D02*
X419220Y369089D01*
X424220Y371696D02*
X424220Y366310D01*
X424220Y371696D02*
X424220Y371696D01*
X424220Y366310D01*
X424220Y366310D01*
X424220Y369089D02*
X424220Y369089D01*
X429220Y371696D02*
X429220Y366310D01*
X429220Y371696D02*
X429220Y371696D01*
X429220Y366310D01*
X429220Y366310D01*
X429220Y369089D02*
X429220Y369089D01*
X434220Y371696D02*
X434220Y366310D01*
X434220Y371696D02*
X434220Y371696D01*
X434220Y366310D01*
X434220Y366310D01*
X434220Y369089D02*
X434220Y369089D01*
D16*
X426720Y378460D03*
D17*
X285480Y199800D02*
X275980Y199800D01*
X275980Y206300D02*
X285480Y206300D01*
X285480Y212800D02*
X275980Y212800D01*
X275980Y219300D02*
X285480Y219300D01*
X242180Y219300D02*
X232680Y219300D01*
X232680Y212800D02*
X242180Y212800D01*
X242180Y206300D02*
X232680Y206300D01*
X232680Y199800D02*
X242180Y199800D01*
D18*
X388587Y266400D02*
X395259Y266400D01*
X395259Y272900D02*
X388587Y272900D01*
X388587Y279400D02*
X395259Y279400D01*
X395259Y285900D02*
X388587Y285900D01*
X388587Y292400D02*
X395259Y292400D01*
X381300Y299687D02*
X381300Y306359D01*
X374800Y306359D02*
X374800Y299687D01*
X368300Y299687D02*
X368300Y306359D01*
X361800Y306359D02*
X361800Y299687D01*
X355300Y299687D02*
X355300Y306359D01*
X348013Y292400D02*
X341341Y292400D01*
X341341Y285900D02*
X348013Y285900D01*
X348013Y279400D02*
X341341Y279400D01*
X341341Y272900D02*
X348013Y272900D01*
X348013Y266400D02*
X341341Y266400D01*
X355300Y259113D02*
X355300Y252441D01*
X361800Y252441D02*
X361800Y259113D01*
X368300Y259113D02*
X368300Y252441D01*
X374800Y252441D02*
X374800Y259113D01*
X381300Y259113D02*
X381300Y252441D01*
D19*
X368300Y279400D03*
D20*
X469900Y410600D03*
X469900Y427600D03*
X444500Y321700D03*
X444500Y338700D03*
D21*
X421872Y336972D02*
X421872Y332328D01*
X416328Y332328D01*
X416328Y336972D01*
X421872Y336972D01*
X421872Y333046D02*
X416328Y333046D01*
X416328Y333764D02*
X421872Y333764D01*
X421872Y334482D02*
X416328Y334482D01*
X416328Y335200D02*
X421872Y335200D01*
X421872Y335918D02*
X416328Y335918D01*
X416328Y336636D02*
X421872Y336636D01*
X421872Y328072D02*
X421872Y323428D01*
X416328Y323428D01*
X416328Y328072D01*
X421872Y328072D01*
X421872Y324146D02*
X416328Y324146D01*
X416328Y324864D02*
X421872Y324864D01*
X421872Y325582D02*
X416328Y325582D01*
X416328Y326300D02*
X421872Y326300D01*
X421872Y327018D02*
X416328Y327018D01*
X416328Y327736D02*
X421872Y327736D01*
D15*
X99780Y203320D02*
X94394Y203320D01*
X99780Y203320D02*
X99780Y203320D01*
X94394Y203320D01*
X94394Y203320D01*
X94394Y208320D02*
X99780Y208320D01*
X99780Y208320D01*
X94394Y208320D01*
X94394Y208320D01*
X94394Y213320D02*
X99780Y213320D01*
X99780Y213320D01*
X94394Y213320D01*
X94394Y213320D01*
X94394Y218320D02*
X99780Y218320D01*
X99780Y218320D01*
X94394Y218320D01*
X94394Y218320D01*
X80866Y218320D02*
X75480Y218320D01*
X80866Y218320D02*
X80866Y218320D01*
X75480Y218320D01*
X75480Y218320D01*
X75480Y213320D02*
X80866Y213320D01*
X80866Y213320D01*
X75480Y213320D01*
X75480Y213320D01*
X75480Y208320D02*
X80866Y208320D01*
X80866Y208320D01*
X75480Y208320D01*
X75480Y208320D01*
X75480Y203320D02*
X80866Y203320D01*
X80866Y203320D01*
X75480Y203320D01*
X75480Y203320D01*
D22*
X87630Y210820D03*
D23*
X178044Y225400D03*
X178044Y215900D03*
X178044Y206400D03*
X202956Y206400D03*
X202956Y225400D03*
D24*
X135500Y190500D03*
X118500Y190500D03*
D20*
X88900Y262500D03*
X88900Y245500D03*
D21*
X67542Y244262D02*
X67542Y239618D01*
X61998Y239618D01*
X61998Y244262D01*
X67542Y244262D01*
X67542Y240336D02*
X61998Y240336D01*
X61998Y241054D02*
X67542Y241054D01*
X67542Y241772D02*
X61998Y241772D01*
X61998Y242490D02*
X67542Y242490D01*
X67542Y243208D02*
X61998Y243208D01*
X61998Y243926D02*
X67542Y243926D01*
X67542Y235362D02*
X67542Y230718D01*
X61998Y230718D01*
X61998Y235362D01*
X67542Y235362D01*
X67542Y231436D02*
X61998Y231436D01*
X61998Y232154D02*
X67542Y232154D01*
X67542Y232872D02*
X61998Y232872D01*
X61998Y233590D02*
X67542Y233590D01*
X67542Y234308D02*
X61998Y234308D01*
X61998Y235026D02*
X67542Y235026D01*
X243428Y98828D02*
X248072Y98828D01*
X243428Y98828D02*
X243428Y104372D01*
X248072Y104372D01*
X248072Y98828D01*
X248072Y99546D02*
X243428Y99546D01*
X243428Y100264D02*
X248072Y100264D01*
X248072Y100982D02*
X243428Y100982D01*
X243428Y101700D02*
X248072Y101700D01*
X248072Y102418D02*
X243428Y102418D01*
X243428Y103136D02*
X248072Y103136D01*
X248072Y103854D02*
X243428Y103854D01*
X239172Y98828D02*
X234528Y98828D01*
X234528Y104372D01*
X239172Y104372D01*
X239172Y98828D01*
X239172Y99546D02*
X234528Y99546D01*
X234528Y100264D02*
X239172Y100264D01*
X239172Y100982D02*
X234528Y100982D01*
X234528Y101700D02*
X239172Y101700D01*
X239172Y102418D02*
X234528Y102418D01*
X234528Y103136D02*
X239172Y103136D01*
X239172Y103854D02*
X234528Y103854D01*
D25*
X532638Y285750D03*
X532638Y298450D03*
X532638Y311150D03*
X532638Y323850D03*
X483362Y323850D03*
X483362Y311150D03*
X483362Y298450D03*
X483362Y285750D03*
D14*
X453000Y215900D03*
X436000Y215900D03*
X402200Y215900D03*
X385200Y215900D03*
D26*
X416550Y71500D02*
X425850Y71500D01*
X416550Y71500D02*
X416550Y74500D01*
X425850Y74500D01*
X425850Y71500D01*
X425850Y74350D02*
X416550Y74350D01*
X416550Y52500D02*
X425850Y52500D01*
X416550Y52500D02*
X416550Y55500D01*
X425850Y55500D01*
X425850Y52500D01*
X425850Y55350D02*
X416550Y55350D01*
X437750Y62000D02*
X447050Y62000D01*
X437750Y62000D02*
X437750Y65000D01*
X447050Y65000D01*
X447050Y62000D01*
X447050Y64850D02*
X437750Y64850D01*
X336950Y71500D02*
X327650Y71500D01*
X327650Y74500D01*
X336950Y74500D01*
X336950Y71500D01*
X336950Y74350D02*
X327650Y74350D01*
X327650Y52500D02*
X336950Y52500D01*
X327650Y52500D02*
X327650Y55500D01*
X336950Y55500D01*
X336950Y52500D01*
X336950Y55350D02*
X327650Y55350D01*
X348850Y62000D02*
X358150Y62000D01*
X348850Y62000D02*
X348850Y65000D01*
X358150Y65000D01*
X358150Y62000D01*
X358150Y64850D02*
X348850Y64850D01*
X248050Y71500D02*
X238750Y71500D01*
X238750Y74500D01*
X248050Y74500D01*
X248050Y71500D01*
X248050Y74350D02*
X238750Y74350D01*
X238750Y52500D02*
X248050Y52500D01*
X238750Y52500D02*
X238750Y55500D01*
X248050Y55500D01*
X248050Y52500D01*
X248050Y55350D02*
X238750Y55350D01*
X259950Y62000D02*
X269250Y62000D01*
X259950Y62000D02*
X259950Y65000D01*
X269250Y65000D01*
X269250Y62000D01*
X269250Y64850D02*
X259950Y64850D01*
D11*
X292100Y118500D03*
X292100Y135500D03*
D13*
X228800Y161900D03*
X228800Y152400D03*
X228800Y142900D03*
X253800Y142900D03*
X253800Y161900D03*
M02*
