M48
;GenerationSoftware,Autodesk,EAGLE,9.4.0*%
;CreationDate,2019-08-17T23:07:15Z*%
FMAT,2
ICI,OFF
METRIC,TZ,000.000
T3C0.635
T2C1.200
T1C1.300
%
G90
M71
T1
X87630Y49530
X90130Y44530
X92630Y44530
X85130Y44530
X82630Y44530
T2
X92630Y49530
X92630Y52030
X82630Y52030
X82630Y49530
X87630Y44530
T3
X46736Y28575
X33274Y25019
X40005Y24130
X38130Y33020
X5080Y25400
X32945Y26685
X30988Y20955
X10427Y30480
X33020Y19050
X27051Y28575
X29210Y16510
X39370Y15621
X20320Y33020
X5080Y21332
X19050Y11430
M30