M48
;GenerationSoftware,Autodesk,EAGLE,9.4.0*%
;CreationDate,2019-11-07T02:22:55Z*%
FMAT,2
ICI,OFF
METRIC,TZ,000.000
T3C0.635
T2C1.200
T1C1.300
%
G90
M71
T1
X58420Y3810
X55920Y8810
X53420Y8810
X60920Y8810
X63420Y8810
T2
X53420Y3810
X53420Y1310
X63420Y1310
X63420Y3810
X58420Y8810
T3
X46736Y28575
X33274Y25019
X40005Y24130
X38130Y33020
X5080Y25400
X30988Y20955
X10427Y30480
X33020Y19050
X27051Y28575
X60920Y12700
X29210Y16002
X39370Y15621
X20320Y33020
X5080Y21332
X19050Y11430
X29210Y4318
X1270Y10160
X35560Y1270
X1270Y14605
M30